<svg width="410" height="205" viewBox="0 0 410 205" fill="none" xmlns="http://www.w3.org/2000/svg">
<g opacity="0.4">
<mask id="path-1-inside-1_29_3132" fill="white">
<path d="M0 205C4.75312e-06 150.631 21.5981 98.4881 60.0431 60.0431C98.488 21.5982 150.631 3.17583e-05 205 0C259.369 -3.17583e-05 311.512 21.5981 349.957 60.043C388.402 98.4879 410 150.63 410 205L205 205L0 205Z"/>
</mask>
<path d="M0 205C4.75312e-06 150.631 21.5981 98.4881 60.0431 60.0431C98.488 21.5982 150.631 3.17583e-05 205 0C259.369 -3.17583e-05 311.512 21.5981 349.957 60.043C388.402 98.4879 410 150.63 410 205L205 205L0 205Z" stroke="#575775" stroke-width="4" mask="url(#path-1-inside-1_29_3132)"/>
</g>
</svg>
