<svg width="272" height="92" viewBox="0 0 272 92" fill="none" xmlns="http://www.w3.org/2000/svg">
<g filter="url(#filter0_d_29_2811)">
<rect x="8" y="8" width="252" height="72" rx="12" fill="#F9F9FC" shape-rendering="crispEdges"/>
<path d="M31.2273 32.1818C31.2273 33.4091 31.0057 34.4697 30.5625 35.3636C30.1193 36.2576 29.5114 36.947 28.7386 37.4318C27.9659 37.9167 27.0833 38.1591 26.0909 38.1591C25.0985 38.1591 24.2159 37.9167 23.4432 37.4318C22.6705 36.947 22.0625 36.2576 21.6193 35.3636C21.1761 34.4697 20.9545 33.4091 20.9545 32.1818C20.9545 30.9545 21.1761 29.8939 21.6193 29C22.0625 28.1061 22.6705 27.4167 23.4432 26.9318C24.2159 26.447 25.0985 26.2045 26.0909 26.2045C27.0833 26.2045 27.9659 26.447 28.7386 26.9318C29.5114 27.4167 30.1193 28.1061 30.5625 29C31.0057 29.8939 31.2273 30.9545 31.2273 32.1818ZM29.8636 32.1818C29.8636 31.1742 29.6951 30.3239 29.358 29.6307C29.0246 28.9375 28.572 28.4129 28 28.0568C27.4318 27.7008 26.7955 27.5227 26.0909 27.5227C25.3864 27.5227 24.7481 27.7008 24.1761 28.0568C23.608 28.4129 23.1553 28.9375 22.8182 29.6307C22.4848 30.3239 22.3182 31.1742 22.3182 32.1818C22.3182 33.1894 22.4848 34.0398 22.8182 34.733C23.1553 35.4261 23.608 35.9508 24.1761 36.3068C24.7481 36.6629 25.3864 36.8409 26.0909 36.8409C26.7955 36.8409 27.4318 36.6629 28 36.3068C28.572 35.9508 29.0246 35.4261 29.358 34.733C29.6951 34.0398 29.8636 33.1894 29.8636 32.1818ZM40.2784 29.2727V36.75H41.5057V40.8182H40.1648V38H33.4148V29.2727H34.7557V36.75H38.9375V29.2727H40.2784ZM43.571 38V29.2727H44.9119V38H43.571ZM44.2528 27.8182C43.9915 27.8182 43.7661 27.7292 43.5767 27.5511C43.3911 27.3731 43.2983 27.1591 43.2983 26.9091C43.2983 26.6591 43.3911 26.4451 43.5767 26.267C43.7661 26.089 43.9915 26 44.2528 26C44.5142 26 44.7377 26.089 44.9233 26.267C45.1127 26.4451 45.2074 26.6591 45.2074 26.9091C45.2074 27.1591 45.1127 27.3731 44.9233 27.5511C44.7377 27.7292 44.5142 27.8182 44.2528 27.8182ZM53.2088 33.0227V34.2727H48.3906V33.0227H53.2088ZM48.7088 29.2727V38H47.3679V29.2727H48.7088ZM54.2315 29.2727V38H52.8906V29.2727H54.2315ZM60.8622 33.0909V34.3409H56.2486V33.0909H60.8622ZM57.3849 29.2727V38H56.044V29.2727H57.3849ZM63.544 38.1818C62.7562 38.1818 62.0649 37.9943 61.4702 37.6193C60.8793 37.2443 60.4171 36.7197 60.0838 36.0455C59.7543 35.3712 59.5895 34.5833 59.5895 33.6818C59.5895 32.7727 59.7543 31.9792 60.0838 31.3011C60.4171 30.6231 60.8793 30.0966 61.4702 29.7216C62.0649 29.3466 62.7562 29.1591 63.544 29.1591C64.3319 29.1591 65.0213 29.3466 65.6122 29.7216C66.2069 30.0966 66.669 30.6231 66.9986 31.3011C67.3319 31.9792 67.4986 32.7727 67.4986 33.6818C67.4986 34.5833 67.3319 35.3712 66.9986 36.0455C66.669 36.7197 66.2069 37.2443 65.6122 37.6193C65.0213 37.9943 64.3319 38.1818 63.544 38.1818ZM63.544 36.9773C64.1425 36.9773 64.6349 36.8239 65.0213 36.517C65.4077 36.2102 65.6937 35.8068 65.8793 35.3068C66.0649 34.8068 66.1577 34.2652 66.1577 33.6818C66.1577 33.0985 66.0649 32.5549 65.8793 32.0511C65.6937 31.5473 65.4077 31.1402 65.0213 30.8295C64.6349 30.5189 64.1425 30.3636 63.544 30.3636C62.9455 30.3636 62.4531 30.5189 62.0668 30.8295C61.6804 31.1402 61.3944 31.5473 61.2088 32.0511C61.0232 32.5549 60.9304 33.0985 60.9304 33.6818C60.9304 34.2652 61.0232 34.8068 61.2088 35.3068C61.3944 35.8068 61.6804 36.2102 62.0668 36.517C62.4531 36.8239 62.9455 36.9773 63.544 36.9773ZM71.0213 36.0227L75.2259 29.2727H76.7713V38H75.4304V31.25L71.2486 38H69.6804V29.2727H71.0213V36.0227ZM74.3395 26.3636H75.5895C75.5895 26.9773 75.3774 27.4792 74.9531 27.8693C74.5289 28.2595 73.9531 28.4545 73.2259 28.4545C72.5099 28.4545 71.9399 28.2595 71.5156 27.8693C71.0952 27.4792 70.8849 26.9773 70.8849 26.3636H72.1349C72.1349 26.6591 72.2164 26.9186 72.3793 27.142C72.5459 27.3655 72.8281 27.4773 73.2259 27.4773C73.6236 27.4773 73.9077 27.3655 74.0781 27.142C74.2524 26.9186 74.3395 26.6591 74.3395 26.3636ZM78.0398 30.5227V29.2727H85.1307V30.5227H82.267V38H80.9261V30.5227H78.0398ZM90.2926 38.1818C89.4517 38.1818 88.7263 37.9962 88.1165 37.625C87.5104 37.25 87.0426 36.7273 86.7131 36.0568C86.3873 35.3826 86.2244 34.5985 86.2244 33.7045C86.2244 32.8106 86.3873 32.0227 86.7131 31.3409C87.0426 30.6553 87.5009 30.1212 88.0881 29.7386C88.679 29.3523 89.3684 29.1591 90.1562 29.1591C90.6108 29.1591 91.0597 29.2348 91.5028 29.3864C91.946 29.5379 92.3494 29.7841 92.7131 30.125C93.0767 30.4621 93.3665 30.9091 93.5824 31.4659C93.7983 32.0227 93.9062 32.7083 93.9062 33.5227V34.0909H87.179V32.9318H92.5426C92.5426 32.4394 92.4441 32 92.2472 31.6136C92.054 31.2273 91.7775 30.9223 91.4176 30.6989C91.0616 30.4754 90.6411 30.3636 90.1562 30.3636C89.6222 30.3636 89.16 30.4962 88.7699 30.7614C88.3835 31.0227 88.0862 31.3636 87.8778 31.7841C87.6695 32.2045 87.5653 32.6553 87.5653 33.1364V33.9091C87.5653 34.5682 87.679 35.1269 87.9062 35.5852C88.1373 36.0398 88.4574 36.3864 88.8665 36.625C89.2756 36.8598 89.7509 36.9773 90.2926 36.9773C90.6449 36.9773 90.9631 36.928 91.2472 36.8295C91.535 36.7273 91.7831 36.5758 91.9915 36.375C92.1998 36.1705 92.3608 35.9167 92.4744 35.6136L93.7699 35.9773C93.6335 36.4167 93.4044 36.803 93.0824 37.1364C92.7604 37.4659 92.3627 37.7235 91.8892 37.9091C91.4157 38.0909 90.8835 38.1818 90.2926 38.1818ZM99.946 30.5227V29.2727H107.037V30.5227H104.173V38H102.832V30.5227H99.946ZM111.108 38.2045C110.555 38.2045 110.053 38.1004 109.602 37.892C109.152 37.6799 108.794 37.375 108.528 36.9773C108.263 36.5758 108.131 36.0909 108.131 35.5227C108.131 35.0227 108.229 34.6174 108.426 34.3068C108.623 33.9924 108.886 33.7462 109.216 33.5682C109.545 33.3902 109.909 33.2576 110.307 33.1705C110.708 33.0795 111.112 33.0076 111.517 32.9545C112.047 32.8864 112.477 32.8352 112.807 32.8011C113.14 32.7633 113.383 32.7008 113.534 32.6136C113.689 32.5265 113.767 32.375 113.767 32.1591V32.1136C113.767 31.553 113.614 31.1174 113.307 30.8068C113.004 30.4962 112.544 30.3409 111.926 30.3409C111.286 30.3409 110.784 30.4811 110.42 30.7614C110.057 31.0417 109.801 31.3409 109.653 31.6591L108.381 31.2045C108.608 30.6742 108.911 30.2614 109.29 29.9659C109.672 29.6667 110.089 29.4583 110.54 29.3409C110.994 29.2197 111.441 29.1591 111.881 29.1591C112.161 29.1591 112.483 29.1932 112.847 29.2614C113.214 29.3258 113.568 29.4602 113.909 29.6648C114.254 29.8693 114.54 30.178 114.767 30.5909C114.994 31.0038 115.108 31.5568 115.108 32.25V38H113.767V36.8182H113.699C113.608 37.0076 113.456 37.2102 113.244 37.4261C113.032 37.642 112.75 37.8258 112.398 37.9773C112.045 38.1288 111.616 38.2045 111.108 38.2045ZM111.312 37C111.843 37 112.29 36.8958 112.653 36.6875C113.021 36.4792 113.297 36.2102 113.483 35.8807C113.672 35.5511 113.767 35.2045 113.767 34.8409V33.6136C113.71 33.6818 113.585 33.7443 113.392 33.8011C113.203 33.8542 112.983 33.9015 112.733 33.9432C112.487 33.9811 112.246 34.0152 112.011 34.0455C111.78 34.072 111.593 34.0947 111.449 34.1136C111.1 34.1591 110.775 34.233 110.472 34.3352C110.172 34.4337 109.93 34.5833 109.744 34.7841C109.563 34.9811 109.472 35.25 109.472 35.5909C109.472 36.0568 109.644 36.4091 109.989 36.6477C110.337 36.8826 110.778 37 111.312 37ZM122.055 38V29.2727H123.396V33.0682H124.283L127.419 29.2727H129.146L125.624 33.4773L129.192 38H127.464L124.601 34.3182H123.396V38H122.055ZM133.835 38.1818C133.047 38.1818 132.356 37.9943 131.761 37.6193C131.17 37.2443 130.708 36.7197 130.375 36.0455C130.045 35.3712 129.881 34.5833 129.881 33.6818C129.881 32.7727 130.045 31.9792 130.375 31.3011C130.708 30.6231 131.17 30.0966 131.761 29.7216C132.356 29.3466 133.047 29.1591 133.835 29.1591C134.623 29.1591 135.313 29.3466 135.903 29.7216C136.498 30.0966 136.96 30.6231 137.29 31.3011C137.623 31.9792 137.79 32.7727 137.79 33.6818C137.79 34.5833 137.623 35.3712 137.29 36.0455C136.96 36.7197 136.498 37.2443 135.903 37.6193C135.313 37.9943 134.623 38.1818 133.835 38.1818ZM133.835 36.9773C134.434 36.9773 134.926 36.8239 135.312 36.517C135.699 36.2102 135.985 35.8068 136.17 35.3068C136.356 34.8068 136.449 34.2652 136.449 33.6818C136.449 33.0985 136.356 32.5549 136.17 32.0511C135.985 31.5473 135.699 31.1402 135.312 30.8295C134.926 30.5189 134.434 30.3636 133.835 30.3636C133.237 30.3636 132.744 30.5189 132.358 30.8295C131.972 31.1402 131.686 31.5473 131.5 32.0511C131.314 32.5549 131.222 33.0985 131.222 33.6818C131.222 34.2652 131.314 34.8068 131.5 35.3068C131.686 35.8068 131.972 36.2102 132.358 36.517C132.744 36.8239 133.237 36.9773 133.835 36.9773ZM144.609 36.1818L147.655 29.2727H148.928L145.155 38H144.064L140.359 29.2727H141.609L144.609 36.1818ZM141.178 29.2727V38H139.837V29.2727H141.178ZM148.041 38V29.2727H149.382V38H148.041ZM155.496 38.1818C154.655 38.1818 153.929 37.9962 153.32 37.625C152.714 37.25 152.246 36.7273 151.916 36.0568C151.59 35.3826 151.428 34.5985 151.428 33.7045C151.428 32.8106 151.59 32.0227 151.916 31.3409C152.246 30.6553 152.704 30.1212 153.291 29.7386C153.882 29.3523 154.571 29.1591 155.359 29.1591C155.814 29.1591 156.263 29.2348 156.706 29.3864C157.149 29.5379 157.553 29.7841 157.916 30.125C158.28 30.4621 158.57 30.9091 158.786 31.4659C159.001 32.0227 159.109 32.7083 159.109 33.5227V34.0909H152.382V32.9318H157.746C157.746 32.4394 157.647 32 157.45 31.6136C157.257 31.2273 156.981 30.9223 156.621 30.6989C156.265 30.4754 155.844 30.3636 155.359 30.3636C154.825 30.3636 154.363 30.4962 153.973 30.7614C153.587 31.0227 153.289 31.3636 153.081 31.7841C152.873 32.2045 152.768 32.6553 152.768 33.1364V33.9091C152.768 34.5682 152.882 35.1269 153.109 35.5852C153.34 36.0398 153.661 36.3864 154.07 36.625C154.479 36.8598 154.954 36.9773 155.496 36.9773C155.848 36.9773 156.166 36.928 156.45 36.8295C156.738 36.7273 156.986 36.5758 157.195 36.375C157.403 36.1705 157.564 35.9167 157.678 35.6136L158.973 35.9773C158.837 36.4167 158.607 36.803 158.286 37.1364C157.964 37.4659 157.566 37.7235 157.092 37.9091C156.619 38.0909 156.087 38.1818 155.496 38.1818ZM166.99 33.0227V34.2727H162.172V33.0227H166.99ZM162.49 29.2727V38H161.149V29.2727H162.49ZM168.013 29.2727V38H166.672V29.2727H168.013ZM169.274 30.5227V29.2727H176.365V30.5227H173.501V38H172.161V30.5227H169.274ZM179.185 41.2727C178.957 41.2727 178.755 41.2538 178.577 41.2159C178.399 41.1818 178.276 41.1477 178.207 41.1136L178.548 39.9318C178.874 40.0152 179.162 40.0455 179.412 40.0227C179.662 40 179.884 39.8883 180.077 39.6875C180.274 39.4905 180.454 39.1705 180.616 38.7273L180.866 38.0455L177.639 29.2727H179.094L181.503 36.2273H181.594L184.003 29.2727H185.457L181.753 39.2727C181.586 39.7235 181.38 40.0966 181.134 40.392C180.887 40.6913 180.601 40.9129 180.276 41.0568C179.954 41.2008 179.59 41.2727 179.185 41.2727ZM188.568 36.0227L192.773 29.2727H194.318V38H192.977V31.25L188.795 38H187.227V29.2727H188.568V36.0227ZM191.886 26.3636H193.136C193.136 26.9773 192.924 27.4792 192.5 27.8693C192.076 28.2595 191.5 28.4545 190.773 28.4545C190.057 28.4545 189.487 28.2595 189.062 27.8693C188.642 27.4792 188.432 26.9773 188.432 26.3636H189.682C189.682 26.6591 189.763 26.9186 189.926 27.142C190.093 27.3655 190.375 27.4773 190.773 27.4773C191.17 27.4773 191.455 27.3655 191.625 27.142C191.799 26.9186 191.886 26.6591 191.886 26.3636ZM195.587 30.5227V29.2727H202.678V30.5227H199.814V38H198.473V30.5227H195.587ZM207.839 38.1818C206.999 38.1818 206.273 37.9962 205.663 37.625C205.057 37.25 204.589 36.7273 204.26 36.0568C203.934 35.3826 203.771 34.5985 203.771 33.7045C203.771 32.8106 203.934 32.0227 204.26 31.3409C204.589 30.6553 205.048 30.1212 205.635 29.7386C206.226 29.3523 206.915 29.1591 207.703 29.1591C208.158 29.1591 208.607 29.2348 209.05 29.3864C209.493 29.5379 209.896 29.7841 210.26 30.125C210.624 30.4621 210.913 30.9091 211.129 31.4659C211.345 32.0227 211.453 32.7083 211.453 33.5227V34.0909H204.726V32.9318H210.089C210.089 32.4394 209.991 32 209.794 31.6136C209.601 31.2273 209.324 30.9223 208.964 30.6989C208.608 30.4754 208.188 30.3636 207.703 30.3636C207.169 30.3636 206.707 30.4962 206.317 30.7614C205.93 31.0227 205.633 31.3636 205.425 31.7841C205.216 32.2045 205.112 32.6553 205.112 33.1364V33.9091C205.112 34.5682 205.226 35.1269 205.453 35.5852C205.684 36.0398 206.004 36.3864 206.413 36.625C206.822 36.8598 207.298 36.9773 207.839 36.9773C208.192 36.9773 208.51 36.928 208.794 36.8295C209.082 36.7273 209.33 36.5758 209.538 36.375C209.747 36.1705 209.908 35.9167 210.021 35.6136L211.317 35.9773C211.18 36.4167 210.951 36.803 210.629 37.1364C210.307 37.4659 209.91 37.7235 209.436 37.9091C208.963 38.0909 208.43 38.1818 207.839 38.1818ZM223.379 29.2727V30.5227H219.334V38H217.993V29.2727H223.379ZM225.337 41.2727V29.2727H226.632V30.6591H226.791C226.89 30.5076 227.026 30.3144 227.2 30.0795C227.378 29.8409 227.632 29.6288 227.962 29.4432C228.295 29.2538 228.746 29.1591 229.314 29.1591C230.049 29.1591 230.696 29.3428 231.257 29.7102C231.818 30.0777 232.255 30.5985 232.57 31.2727C232.884 31.947 233.041 32.7424 233.041 33.6591C233.041 34.5833 232.884 35.3845 232.57 36.0625C232.255 36.7367 231.82 37.2595 231.263 37.6307C230.706 37.9981 230.064 38.1818 229.337 38.1818C228.776 38.1818 228.327 38.089 227.99 37.9034C227.653 37.714 227.393 37.5 227.212 37.2614C227.03 37.0189 226.89 36.8182 226.791 36.6591H226.678V41.2727H225.337ZM226.655 33.6364C226.655 34.2955 226.751 34.8769 226.945 35.3807C227.138 35.8807 227.42 36.2727 227.791 36.5568C228.162 36.8371 228.617 36.9773 229.155 36.9773C229.715 36.9773 230.183 36.8295 230.558 36.5341C230.937 36.2348 231.221 35.8333 231.411 35.3295C231.604 34.822 231.7 34.2576 231.7 33.6364C231.7 33.0227 231.606 32.4697 231.416 31.9773C231.231 31.4811 230.948 31.089 230.57 30.8011C230.195 30.5095 229.723 30.3636 229.155 30.3636C228.609 30.3636 228.151 30.5019 227.78 30.7784C227.409 31.0511 227.128 31.4337 226.939 31.9261C226.75 32.4148 226.655 32.9848 226.655 33.6364ZM235.638 41.2727C235.411 41.2727 235.208 41.2538 235.03 41.2159C234.852 41.1818 234.729 41.1477 234.661 41.1136L235.001 39.9318C235.327 40.0152 235.615 40.0455 235.865 40.0227C236.115 40 236.337 39.8883 236.53 39.6875C236.727 39.4905 236.907 39.1705 237.07 38.7273L237.32 38.0455L234.092 29.2727H235.547L237.956 36.2273H238.047L240.456 29.2727H241.911L238.206 39.2727C238.039 39.7235 237.833 40.0966 237.587 40.392C237.34 40.6913 237.054 40.9129 236.729 41.0568C236.407 41.2008 236.043 41.2727 235.638 41.2727ZM21.2273 62V53.2727H22.5682V57.0682H23.4545L26.5909 53.2727H28.3182L24.7955 57.4773L28.3636 62H26.6364L23.7727 58.3182H22.5682V62H21.2273ZM33.0071 62.1818C32.2192 62.1818 31.5279 61.9943 30.9332 61.6193C30.3423 61.2443 29.8802 60.7197 29.5469 60.0455C29.2173 59.3712 29.0526 58.5833 29.0526 57.6818C29.0526 56.7727 29.2173 55.9792 29.5469 55.3011C29.8802 54.6231 30.3423 54.0966 30.9332 53.7216C31.5279 53.3466 32.2192 53.1591 33.0071 53.1591C33.795 53.1591 34.4844 53.3466 35.0753 53.7216C35.67 54.0966 36.1321 54.6231 36.4616 55.3011C36.795 55.9792 36.9616 56.7727 36.9616 57.6818C36.9616 58.5833 36.795 59.3712 36.4616 60.0455C36.1321 60.7197 35.67 61.2443 35.0753 61.6193C34.4844 61.9943 33.795 62.1818 33.0071 62.1818ZM33.0071 60.9773C33.6056 60.9773 34.098 60.8239 34.4844 60.517C34.8707 60.2102 35.1567 59.8068 35.3423 59.3068C35.5279 58.8068 35.6207 58.2652 35.6207 57.6818C35.6207 57.0985 35.5279 56.5549 35.3423 56.0511C35.1567 55.5473 34.8707 55.1402 34.4844 54.8295C34.098 54.5189 33.6056 54.3636 33.0071 54.3636C32.4086 54.3636 31.9162 54.5189 31.5298 54.8295C31.1435 55.1402 30.8575 55.5473 30.6719 56.0511C30.4863 56.5549 30.3935 57.0985 30.3935 57.6818C30.3935 58.2652 30.4863 58.8068 30.6719 59.3068C30.8575 59.8068 31.1435 60.2102 31.5298 60.517C31.9162 60.8239 32.4086 60.9773 33.0071 60.9773ZM38.1037 62L41.6491 57.5682L38.1491 53.2727H39.7401L42.6491 57H43.3764V53.2727H44.7173V57H45.4219L48.331 53.2727H49.9219L46.4446 57.5682L49.9673 62H48.3537L45.3991 58.25H44.7173V62H43.3764V58.25H42.6946L39.7173 62H38.1037ZM57.7244 57.0227V58.2727H52.9062V57.0227H57.7244ZM53.2244 53.2727V62H51.8835V53.2727H53.2244ZM58.7472 53.2727V62H57.4062V53.2727H58.7472ZM64.7415 62.1818C63.9536 62.1818 63.2623 61.9943 62.6676 61.6193C62.0767 61.2443 61.6146 60.7197 61.2812 60.0455C60.9517 59.3712 60.7869 58.5833 60.7869 57.6818C60.7869 56.7727 60.9517 55.9792 61.2812 55.3011C61.6146 54.6231 62.0767 54.0966 62.6676 53.7216C63.2623 53.3466 63.9536 53.1591 64.7415 53.1591C65.5294 53.1591 66.2188 53.3466 66.8097 53.7216C67.4044 54.0966 67.8665 54.6231 68.196 55.3011C68.5294 55.9792 68.696 56.7727 68.696 57.6818C68.696 58.5833 68.5294 59.3712 68.196 60.0455C67.8665 60.7197 67.4044 61.2443 66.8097 61.6193C66.2188 61.9943 65.5294 62.1818 64.7415 62.1818ZM64.7415 60.9773C65.34 60.9773 65.8324 60.8239 66.2188 60.517C66.6051 60.2102 66.8911 59.8068 67.0767 59.3068C67.2623 58.8068 67.3551 58.2652 67.3551 57.6818C67.3551 57.0985 67.2623 56.5549 67.0767 56.0511C66.8911 55.5473 66.6051 55.1402 66.2188 54.8295C65.8324 54.5189 65.34 54.3636 64.7415 54.3636C64.143 54.3636 63.6506 54.5189 63.2642 54.8295C62.8778 55.1402 62.5919 55.5473 62.4062 56.0511C62.2206 56.5549 62.1278 57.0985 62.1278 57.6818C62.1278 58.2652 62.2206 58.8068 62.4062 59.3068C62.5919 59.8068 62.8778 60.2102 63.2642 60.517C63.6506 60.8239 64.143 60.9773 64.7415 60.9773ZM76.1293 53.2727V54.5227H72.0838V62H70.7429V53.2727H76.1293ZM81.179 62.1818C80.3911 62.1818 79.6998 61.9943 79.1051 61.6193C78.5142 61.2443 78.0521 60.7197 77.7188 60.0455C77.3892 59.3712 77.2244 58.5833 77.2244 57.6818C77.2244 56.7727 77.3892 55.9792 77.7188 55.3011C78.0521 54.6231 78.5142 54.0966 79.1051 53.7216C79.6998 53.3466 80.3911 53.1591 81.179 53.1591C81.9669 53.1591 82.6563 53.3466 83.2472 53.7216C83.8419 54.0966 84.304 54.6231 84.6335 55.3011C84.9669 55.9792 85.1335 56.7727 85.1335 57.6818C85.1335 58.5833 84.9669 59.3712 84.6335 60.0455C84.304 60.7197 83.8419 61.2443 83.2472 61.6193C82.6563 61.9943 81.9669 62.1818 81.179 62.1818ZM81.179 60.9773C81.7775 60.9773 82.2699 60.8239 82.6562 60.517C83.0426 60.2102 83.3286 59.8068 83.5142 59.3068C83.6998 58.8068 83.7926 58.2652 83.7926 57.6818C83.7926 57.0985 83.6998 56.5549 83.5142 56.0511C83.3286 55.5473 83.0426 55.1402 82.6562 54.8295C82.2699 54.5189 81.7775 54.3636 81.179 54.3636C80.5805 54.3636 80.0881 54.5189 79.7017 54.8295C79.3153 55.1402 79.0294 55.5473 78.8438 56.0511C78.6581 56.5549 78.5653 57.0985 78.5653 57.6818C78.5653 58.2652 78.6581 58.8068 78.8438 59.3068C79.0294 59.8068 79.3153 60.2102 79.7017 60.517C80.0881 60.8239 80.5805 60.9773 81.179 60.9773ZM91.1349 59.7727H92.5668C92.5971 60.1667 92.7751 60.4659 93.1009 60.6705C93.4304 60.875 93.8584 60.9773 94.3849 60.9773C94.9228 60.9773 95.383 60.8674 95.7656 60.6477C96.1482 60.4242 96.3395 60.0644 96.3395 59.5682C96.3395 59.2765 96.2675 59.0227 96.1236 58.8068C95.9796 58.5871 95.777 58.4167 95.5156 58.2955C95.2543 58.1742 94.9455 58.1136 94.5895 58.1136H93.0895V56.9091H94.5895C95.1236 56.9091 95.5175 56.7879 95.7713 56.5455C96.0289 56.303 96.1577 56 96.1577 55.6364C96.1577 55.2462 96.0194 54.9337 95.7429 54.6989C95.4664 54.4602 95.0743 54.3409 94.5668 54.3409C94.0554 54.3409 93.6293 54.4564 93.2884 54.6875C92.9474 54.9148 92.7675 55.2083 92.7486 55.5682H91.3395C91.3546 55.0985 91.4986 54.6837 91.7713 54.3239C92.044 53.9602 92.4152 53.6761 92.8849 53.4716C93.3546 53.2633 93.8925 53.1591 94.4986 53.1591C95.1122 53.1591 95.6444 53.267 96.0952 53.483C96.5497 53.6951 96.9001 53.9848 97.1463 54.3523C97.3963 54.7159 97.5213 55.1288 97.5213 55.5909C97.5213 56.0833 97.383 56.4811 97.1065 56.7841C96.83 57.0871 96.4834 57.303 96.0668 57.4318V57.5227C96.3963 57.5455 96.6823 57.6515 96.9247 57.8409C97.1709 58.0265 97.3622 58.2708 97.4986 58.5739C97.6349 58.8731 97.7031 59.2045 97.7031 59.5682C97.7031 60.0985 97.5611 60.5606 97.277 60.9545C96.9929 61.3447 96.6027 61.6477 96.1065 61.8636C95.6103 62.0758 95.044 62.1818 94.4077 62.1818C93.7902 62.1818 93.2372 62.0814 92.7486 61.8807C92.2599 61.6761 91.8717 61.3939 91.5838 61.0341C91.2997 60.6705 91.1501 60.25 91.1349 59.7727ZM104.95 65.2727C104.723 65.2727 104.52 65.2538 104.342 65.2159C104.164 65.1818 104.041 65.1477 103.973 65.1136L104.314 63.9318C104.64 64.0152 104.928 64.0455 105.178 64.0227C105.428 64 105.649 63.8883 105.842 63.6875C106.039 63.4905 106.219 63.1705 106.382 62.7273L106.632 62.0455L103.405 53.2727H104.859L107.268 60.2273H107.359L109.768 53.2727H111.223L107.518 63.2727C107.352 63.7235 107.145 64.0966 106.899 64.392C106.653 64.6913 106.367 64.9129 106.041 65.0568C105.719 65.2008 105.356 65.2727 104.95 65.2727ZM119.455 53.2727V62H118.114V53.2727H119.455ZM118.932 57.4318V58.6818C118.629 58.7955 118.328 58.8958 118.028 58.983C117.729 59.0663 117.415 59.1326 117.085 59.1818C116.756 59.2273 116.394 59.25 116 59.25C115.011 59.25 114.218 58.983 113.619 58.4489C113.025 57.9148 112.727 57.1136 112.727 56.0455V53.25H114.068V56.0455C114.068 56.4924 114.153 56.8598 114.324 57.1477C114.494 57.4356 114.725 57.6496 115.017 57.7898C115.309 57.9299 115.636 58 116 58C116.568 58 117.081 57.9489 117.54 57.8466C118.002 57.7405 118.466 57.6023 118.932 57.4318ZM124.483 62.2045C123.93 62.2045 123.428 62.1004 122.977 61.892C122.527 61.6799 122.169 61.375 121.903 60.9773C121.638 60.5758 121.506 60.0909 121.506 59.5227C121.506 59.0227 121.604 58.6174 121.801 58.3068C121.998 57.9924 122.261 57.7462 122.591 57.5682C122.92 57.3902 123.284 57.2576 123.682 57.1705C124.083 57.0795 124.487 57.0076 124.892 56.9545C125.422 56.8864 125.852 56.8352 126.182 56.8011C126.515 56.7633 126.758 56.7008 126.909 56.6136C127.064 56.5265 127.142 56.375 127.142 56.1591V56.1136C127.142 55.553 126.989 55.1174 126.682 54.8068C126.379 54.4962 125.919 54.3409 125.301 54.3409C124.661 54.3409 124.159 54.4811 123.795 54.7614C123.432 55.0417 123.176 55.3409 123.028 55.6591L121.756 55.2045C121.983 54.6742 122.286 54.2614 122.665 53.9659C123.047 53.6667 123.464 53.4583 123.915 53.3409C124.369 53.2197 124.816 53.1591 125.256 53.1591C125.536 53.1591 125.858 53.1932 126.222 53.2614C126.589 53.3258 126.943 53.4602 127.284 53.6648C127.629 53.8693 127.915 54.178 128.142 54.5909C128.369 55.0038 128.483 55.5568 128.483 56.25V62H127.142V60.8182H127.074C126.983 61.0076 126.831 61.2102 126.619 61.4261C126.407 61.642 126.125 61.8258 125.773 61.9773C125.42 62.1288 124.991 62.2045 124.483 62.2045ZM124.688 61C125.218 61 125.665 60.8958 126.028 60.6875C126.396 60.4792 126.672 60.2102 126.858 59.8807C127.047 59.5511 127.142 59.2045 127.142 58.8409V57.6136C127.085 57.6818 126.96 57.7443 126.767 57.8011C126.578 57.8542 126.358 57.9015 126.108 57.9432C125.862 57.9811 125.621 58.0152 125.386 58.0455C125.155 58.072 124.968 58.0947 124.824 58.1136C124.475 58.1591 124.15 58.233 123.847 58.3352C123.547 58.4337 123.305 58.5833 123.119 58.7841C122.938 58.9811 122.847 59.25 122.847 59.5909C122.847 60.0568 123.019 60.4091 123.364 60.6477C123.712 60.8826 124.153 61 124.688 61ZM134.476 62.1818C133.658 62.1818 132.953 61.9886 132.362 61.6023C131.771 61.2159 131.317 60.6837 130.999 60.0057C130.68 59.3277 130.521 58.553 130.521 57.6818C130.521 56.7955 130.684 56.0133 131.01 55.3352C131.339 54.6534 131.798 54.1212 132.385 53.7386C132.976 53.3523 133.665 53.1591 134.453 53.1591C135.067 53.1591 135.62 53.2727 136.112 53.5C136.605 53.7273 137.008 54.0455 137.322 54.4545C137.637 54.8636 137.832 55.3409 137.908 55.8864H136.567C136.464 55.4886 136.237 55.1364 135.885 54.8295C135.536 54.5189 135.067 54.3636 134.476 54.3636C133.953 54.3636 133.495 54.5 133.101 54.7727C132.711 55.0417 132.406 55.4223 132.186 55.9148C131.97 56.4034 131.862 56.9773 131.862 57.6364C131.862 58.3106 131.968 58.8977 132.18 59.3977C132.396 59.8977 132.699 60.286 133.089 60.5625C133.483 60.839 133.946 60.9773 134.476 60.9773C134.824 60.9773 135.141 60.9167 135.425 60.7955C135.709 60.6742 135.949 60.5 136.146 60.2727C136.343 60.0455 136.483 59.7727 136.567 59.4545H137.908C137.832 59.9697 137.644 60.4337 137.345 60.8466C137.05 61.2557 136.658 61.5814 136.169 61.8239C135.684 62.0625 135.12 62.1818 134.476 62.1818ZM145.709 57.0227V58.2727H140.891V57.0227H145.709ZM141.209 53.2727V62H139.868V53.2727H141.209ZM146.732 53.2727V62H145.391V53.2727H146.732ZM150.521 60.0227L154.726 53.2727H156.271V62H154.93V55.25L150.749 62H149.18V53.2727H150.521V60.0227ZM158.727 62V53.2727H160.068V57.0682H160.955L164.091 53.2727H165.818L162.295 57.4773L165.864 62H164.136L161.273 58.3182H160.068V62H158.727ZM167.321 62V53.2727H168.662V62H167.321ZM168.003 51.8182C167.741 51.8182 167.516 51.7292 167.327 51.5511C167.141 51.3731 167.048 51.1591 167.048 50.9091C167.048 50.6591 167.141 50.4451 167.327 50.267C167.516 50.089 167.741 50 168.003 50C168.264 50 168.488 50.089 168.673 50.267C168.863 50.4451 168.957 50.6591 168.957 50.9091C168.957 51.1591 168.863 51.3731 168.673 51.5511C168.488 51.7292 168.264 51.8182 168.003 51.8182ZM171.118 62V53.2727H174.686C175.625 53.2727 176.372 53.4848 176.925 53.9091C177.478 54.3333 177.754 54.8939 177.754 55.5909C177.754 56.1212 177.597 56.5322 177.283 56.8239C176.968 57.1117 176.565 57.3068 176.072 57.4091C176.394 57.4545 176.707 57.5682 177.01 57.75C177.317 57.9318 177.571 58.1818 177.771 58.5C177.972 58.8144 178.072 59.2008 178.072 59.6591C178.072 60.1061 177.959 60.5057 177.732 60.858C177.504 61.2102 177.179 61.4886 176.754 61.6932C176.33 61.8977 175.822 62 175.232 62H171.118ZM172.391 60.7727H175.232C175.694 60.7727 176.055 60.6629 176.317 60.4432C176.578 60.2235 176.709 59.9242 176.709 59.5455C176.709 59.0947 176.578 58.7405 176.317 58.483C176.055 58.2216 175.694 58.0909 175.232 58.0909H172.391V60.7727ZM172.391 56.9318H174.686C175.046 56.9318 175.355 56.8826 175.612 56.7841C175.87 56.6818 176.067 56.5379 176.203 56.3523C176.343 56.1629 176.413 55.9394 176.413 55.6818C176.413 55.3144 176.26 55.0265 175.953 54.8182C175.646 54.6061 175.224 54.5 174.686 54.5H172.391V56.9318ZM181.08 62.0909C180.799 62.0909 180.559 61.9905 180.358 61.7898C180.157 61.589 180.057 61.3485 180.057 61.0682C180.057 60.7879 180.157 60.5473 180.358 60.3466C180.559 60.1458 180.799 60.0455 181.08 60.0455C181.36 60.0455 181.6 60.1458 181.801 60.3466C182.002 60.5473 182.102 60.7879 182.102 61.0682C182.102 61.2538 182.055 61.4242 181.96 61.5795C181.869 61.7348 181.746 61.8598 181.591 61.9545C181.439 62.0455 181.269 62.0909 181.08 62.0909Z" fill="#262541"/>
</g>
<defs>
<filter id="filter0_d_29_2811" x="0" y="0" width="272" height="92" filterUnits="userSpaceOnUse" color-interpolation-filters="sRGB">
<feFlood flood-opacity="0" result="BackgroundImageFix"/>
<feColorMatrix in="SourceAlpha" type="matrix" values="0 0 0 0 0 0 0 0 0 0 0 0 0 0 0 0 0 0 127 0" result="hardAlpha"/>
<feOffset dx="2" dy="2"/>
<feGaussianBlur stdDeviation="5"/>
<feComposite in2="hardAlpha" operator="out"/>
<feColorMatrix type="matrix" values="0 0 0 0 0.22084 0 0 0 0 0.22084 0 0 0 0 0.983333 0 0 0 0.1 0"/>
<feBlend mode="normal" in2="BackgroundImageFix" result="effect1_dropShadow_29_2811"/>
<feBlend mode="normal" in="SourceGraphic" in2="effect1_dropShadow_29_2811" result="shape"/>
</filter>
</defs>
</svg>
