<svg width="48" height="48" viewBox="0 0 48 48" fill="none" xmlns="http://www.w3.org/2000/svg">
<rect x="0.5" y="0.5" width="47" height="47" rx="23.5" fill="#148581" fill-opacity="0.6"/>
<path fill-rule="evenodd" clip-rule="evenodd" d="M14.25 33C14.25 32.5858 14.5858 32.25 15 32.25H33C33.4142 32.25 33.75 32.5858 33.75 33C33.75 33.4143 33.4142 33.75 33 33.75H15C14.5858 33.75 14.25 33.4143 14.25 33Z" fill="#F9F9FC"/>
<path fill-rule="evenodd" clip-rule="evenodd" d="M26.52 14.4697C26.8129 14.1768 27.2877 14.1768 27.5806 14.4697L32.5303 19.4194C32.8232 19.7123 32.8232 20.1872 32.5303 20.4801L24.0953 28.9151C23.7671 29.2433 23.322 29.4276 22.8579 29.4276H18.3223C17.9081 29.4276 17.5723 29.0919 17.5723 28.6776V24.1421C17.5723 23.6781 17.7567 23.2329 18.0849 22.9047L23.6915 17.2981M23.6915 17.2981L26.52 14.4697L23.6915 17.2981ZM27.0503 16.0607L25.2825 17.8284L29.1716 21.7175L30.9393 19.9497L27.0503 16.0607ZM28.1109 22.7781L24.2218 18.8891L19.1456 23.9654C19.0987 24.0122 19.0723 24.0758 19.0723 24.1421V27.9276H22.8579C22.9242 27.9276 22.9877 27.9013 23.0347 27.8544L28.1109 22.7781Z" fill="#F9F9FC"/>
<rect x="0.5" y="0.5" width="47" height="47" rx="23.5" stroke="#D3F8F7" stroke-dasharray="2 2"/>
</svg>
