<svg width="299" height="276" viewBox="0 0 299 276" fill="none" xmlns="http://www.w3.org/2000/svg">
<g filter="url(#filter0_d_68_6084)">
<g filter="url(#filter1_d_68_6084)">
<rect x="10.4126" y="10.6963" width="273.375" height="249.725" rx="4.55625" fill="white"/>
<g clip-path="url(#clip0_68_6084)">
<path d="M30.3639 31.245L28.0452 28.9213L30.3639 26.5976L29.65 25.8838L26.6125 28.9213L29.65 31.9588L30.3639 31.245Z" fill="#808181"/>
</g>
<path d="M38.6172 25.2189H39.4198V27.4323C39.4198 27.7602 39.4769 28.018 39.5913 28.2057C39.7056 28.3913 39.8674 28.5228 40.0767 28.6005C40.2859 28.676 40.5329 28.7138 40.8177 28.7138C40.9968 28.7138 41.1704 28.7073 41.3387 28.6944C41.507 28.6793 41.6709 28.6588 41.8306 28.6329C41.9924 28.607 42.1498 28.5757 42.303 28.539C42.4583 28.5024 42.6104 28.4614 42.7593 28.4161V29.1409C42.6147 29.1862 42.4713 29.2272 42.3289 29.2639C42.1887 29.3006 42.042 29.3318 41.8888 29.3577C41.7378 29.3836 41.5749 29.4041 41.4002 29.4192C41.2254 29.4322 41.0313 29.4386 40.8177 29.4386C40.3604 29.4386 39.9666 29.3728 39.6366 29.2412C39.3087 29.1096 39.0563 28.8971 38.8794 28.6037C38.7046 28.3104 38.6172 27.9199 38.6172 27.4323V25.2189ZM42.6557 25.2189H43.4583V31.8462H42.6557V25.2189ZM47.047 31.9497C46.568 31.9497 46.1549 31.844 45.8076 31.6326C45.4624 31.419 45.196 31.1213 45.0083 30.7395C44.8228 30.3555 44.73 29.9089 44.73 29.3998C44.73 28.8907 44.8228 28.4419 45.0083 28.0536C45.196 27.6632 45.457 27.359 45.7914 27.1411C46.1279 26.921 46.5206 26.811 46.9693 26.811C47.2282 26.811 47.4838 26.8542 47.7362 26.9405C47.9886 27.0267 48.2184 27.167 48.4255 27.3611C48.6326 27.5531 48.7976 27.8077 48.9206 28.1248C49.0435 28.4419 49.105 28.8324 49.105 29.2962V29.6198H45.2736V28.9597H48.3284C48.3284 28.6793 48.2723 28.429 48.1601 28.209C48.0501 27.9889 47.8926 27.8152 47.6877 27.688C47.4849 27.5607 47.2454 27.497 46.9693 27.497C46.6651 27.497 46.4019 27.5725 46.1797 27.7236C45.9597 27.8724 45.7903 28.0666 45.6717 28.306C45.553 28.5455 45.4937 28.8022 45.4937 29.0762V29.5163C45.4937 29.8917 45.5584 30.2099 45.6878 30.4709C45.8194 30.7298 46.0017 30.9272 46.2347 31.0631C46.4677 31.1968 46.7385 31.2637 47.047 31.2637C47.2476 31.2637 47.4288 31.2357 47.5906 31.1796C47.7545 31.1213 47.8959 31.035 48.0145 30.9207C48.1332 30.8042 48.2248 30.6597 48.2896 30.4871L49.0274 30.6942C48.9497 30.9444 48.8192 31.1645 48.6358 31.3543C48.4524 31.542 48.2259 31.6887 47.9563 31.7944C47.6866 31.898 47.3835 31.9497 47.047 31.9497ZM50.2667 33.7101V26.8757H51.0045V27.6653H51.0952C51.1512 27.579 51.2289 27.469 51.3281 27.3352C51.4295 27.1993 51.5741 27.0785 51.7618 26.9728C51.9516 26.865 52.2083 26.811 52.5319 26.811C52.9504 26.811 53.3193 26.9156 53.6386 27.1249C53.9579 27.3342 54.2071 27.6308 54.3861 28.0148C54.5652 28.3988 54.6547 28.8518 54.6547 29.3739C54.6547 29.9003 54.5652 30.3566 54.3861 30.7427C54.2071 31.1267 53.959 31.4244 53.6419 31.6359C53.3247 31.8451 52.9591 31.9497 52.5449 31.9497C52.2256 31.9497 51.9699 31.8969 51.7779 31.7912C51.5859 31.6833 51.4382 31.5614 51.3346 31.4255C51.2311 31.2874 51.1512 31.1731 51.0952 31.0825H51.0304V33.7101H50.2667ZM51.0175 29.361C51.0175 29.7363 51.0725 30.0675 51.1825 30.3544C51.2925 30.6392 51.4533 30.8625 51.6647 31.0243C51.8761 31.1839 52.135 31.2637 52.4413 31.2637C52.7606 31.2637 53.027 31.1796 53.2406 31.0113C53.4563 30.8409 53.6181 30.6122 53.726 30.3253C53.836 30.0362 53.891 29.7148 53.891 29.361C53.891 29.0115 53.8371 28.6965 53.7292 28.4161C53.6235 28.1335 53.4628 27.9102 53.2471 27.7462C53.0335 27.5801 52.7649 27.497 52.4413 27.497C52.1307 27.497 51.8696 27.5758 51.6582 27.7333C51.4468 27.8886 51.2872 28.1065 51.1793 28.3869C51.0714 28.6652 51.0175 28.9899 51.0175 29.361ZM55.8197 31.8462V26.8757H57.8519C58.3869 26.8757 58.8119 26.9965 59.1268 27.2382C59.4418 27.4798 59.5993 27.7991 59.5993 28.196C59.5993 28.498 59.5098 28.7321 59.3307 28.8982C59.1516 29.0622 58.9219 29.1733 58.6414 29.2315C58.8248 29.2574 59.0028 29.3221 59.1754 29.4257C59.3501 29.5292 59.4947 29.6716 59.609 29.8528C59.7233 30.0319 59.7805 30.2519 59.7805 30.513C59.7805 30.7675 59.7158 30.9951 59.5863 31.1958C59.4569 31.3964 59.2714 31.555 59.0298 31.6714C58.7881 31.7879 58.4991 31.8462 58.1625 31.8462H55.8197ZM56.5445 31.1472H58.1625C58.4257 31.1472 58.6317 31.0847 58.7806 30.9595C58.9294 30.8344 59.0039 30.664 59.0039 30.4483C59.0039 30.1915 58.9294 29.9898 58.7806 29.8431C58.6317 29.6943 58.4257 29.6198 58.1625 29.6198H56.5445V31.1472ZM56.5445 28.9597H57.8519C58.0568 28.9597 58.2326 28.9317 58.3793 28.8756C58.526 28.8173 58.6382 28.7353 58.7159 28.6296C58.7957 28.5218 58.8356 28.3945 58.8356 28.2478C58.8356 28.0385 58.7482 27.8746 58.5735 27.7559C58.3987 27.6351 58.1582 27.5747 57.8519 27.5747H56.5445V28.9597ZM63.0205 31.9497C62.5416 31.9497 62.1285 31.844 61.7811 31.6326C61.436 31.419 61.1695 31.1213 60.9819 30.7395C60.7963 30.3555 60.7036 29.9089 60.7036 29.3998C60.7036 28.8907 60.7963 28.4419 60.9819 28.0536C61.1695 27.6632 61.4306 27.359 61.765 27.1411C62.1015 26.921 62.4941 26.811 62.9429 26.811C63.2017 26.811 63.4574 26.8542 63.7098 26.9405C63.9622 27.0267 64.1919 27.167 64.399 27.3611C64.6061 27.5531 64.7712 27.8077 64.8941 28.1248C65.0171 28.4419 65.0786 28.8324 65.0786 29.2962V29.6198H61.2472V28.9597H64.302C64.302 28.6793 64.2459 28.429 64.1337 28.209C64.0237 27.9889 63.8662 27.8152 63.6612 27.688C63.4585 27.5607 63.219 27.497 62.9429 27.497C62.6387 27.497 62.3755 27.5725 62.1533 27.7236C61.9332 27.8724 61.7639 28.0666 61.6452 28.306C61.5266 28.5455 61.4673 28.8022 61.4673 29.0762V29.5163C61.4673 29.8917 61.532 30.2099 61.6614 30.4709C61.793 30.7298 61.9753 30.9272 62.2083 31.0631C62.4413 31.1968 62.712 31.2637 63.0205 31.2637C63.2212 31.2637 63.4024 31.2357 63.5642 31.1796C63.7281 31.1213 63.8694 31.035 63.9881 30.9207C64.1067 30.8042 64.1984 30.6597 64.2631 30.4871L65.0009 30.6942C64.9233 30.9444 64.7928 31.1645 64.6094 31.3543C64.426 31.542 64.1995 31.6887 63.9298 31.7944C63.6602 31.898 63.3571 31.9497 63.0205 31.9497ZM69.5669 29.0115V29.7234H66.8228V29.0115H69.5669ZM67.004 26.8757V31.8462H66.2403V26.8757H67.004ZM70.1494 26.8757V31.8462H69.3857V26.8757H70.1494ZM72.2042 28.6749H73.628C74.2105 28.6749 74.656 28.8227 74.9645 29.1183C75.273 29.4138 75.4272 29.7881 75.4272 30.2411C75.4272 30.5389 75.3582 30.8096 75.2201 31.0534C75.0821 31.295 74.8793 31.4881 74.6118 31.6326C74.3443 31.775 74.0164 31.8462 73.628 31.8462H71.5441V26.8757H72.3078V31.1343H73.628C73.9301 31.1343 74.1782 31.0545 74.3723 30.8948C74.5665 30.7352 74.6635 30.5302 74.6635 30.28C74.6635 30.0168 74.5665 29.8021 74.3723 29.636C74.1782 29.4699 73.9301 29.3869 73.628 29.3869H72.2042V28.6749Z" fill="#808181"/>
<g clip-path="url(#clip1_68_6084)">
<path d="M127.149 31.245L129.467 28.9213L127.149 26.5976L127.862 25.8838L130.9 28.9213L127.862 31.9588L127.149 31.245Z" fill="#808181"/>
</g>
<path d="M32.4938 51.7831V59.5149H31.331V52.7798H27.6916V59.5149H26.5288V51.7831H32.4938ZM38.1171 56.1284V57.1063H34.9761V56.1284H38.1171ZM35.2932 53.716V59.5149H34.187V53.716H35.2932ZM38.9061 53.716V59.5149H37.8038V53.716H38.9061Z" fill="#0A3435"/>
<path d="M62.8995 59.5149V51.7831H65.731C66.2796 51.7831 66.7339 51.8737 67.0939 52.0549C67.4538 52.2336 67.7231 52.4765 67.9018 52.7835C68.0805 53.0881 68.1698 53.4316 68.1698 53.8142C68.1698 54.1363 68.1107 54.4082 67.9924 54.6297C67.8741 54.8486 67.7155 55.0248 67.5167 55.1582C67.3204 55.2891 67.1039 55.3847 66.8673 55.4451V55.5206C67.1241 55.5332 67.3745 55.6163 67.6186 55.7698C67.8653 55.9208 68.0691 56.136 68.2302 56.4154C68.3913 56.6947 68.4718 57.0345 68.4718 57.4347C68.4718 57.8298 68.3787 58.1847 68.1925 58.4993C68.0087 58.8114 67.7243 59.0593 67.3392 59.2431C66.9542 59.4243 66.4621 59.5149 65.8631 59.5149H62.8995ZM64.0661 58.5144H65.7498C66.3086 58.5144 66.7088 58.4062 66.9504 58.1898C67.192 57.9733 67.3128 57.7027 67.3128 57.3781C67.3128 57.1339 67.2512 56.9099 67.1278 56.7061C67.0045 56.5022 66.8283 56.3399 66.5993 56.2191C66.3728 56.0982 66.1035 56.0378 65.7914 56.0378H64.0661V58.5144ZM64.0661 55.128H65.629C65.8908 55.128 66.1261 55.0777 66.335 54.977C66.5464 54.8763 66.7138 54.7354 66.8371 54.5541C66.963 54.3704 67.0259 54.154 67.0259 53.9048C67.0259 53.5852 66.9139 53.3171 66.6899 53.1007C66.4659 52.8842 66.1223 52.776 65.6592 52.776H64.0661V55.128ZM69.4402 54.6901V53.716H74.333V54.6901H72.4416V59.5149H71.3392V54.6901H69.4402Z" fill="#0A3435"/>
<path d="M105.771 54.2974H104.593C104.548 54.0457 104.464 53.8243 104.34 53.633C104.217 53.4417 104.066 53.2794 103.887 53.146C103.709 53.0126 103.509 52.9119 103.287 52.8439C103.068 52.776 102.835 52.742 102.589 52.742C102.143 52.742 101.744 52.854 101.392 53.078C101.042 53.302 100.765 53.6305 100.561 54.0634C100.36 54.4963 100.259 55.0248 100.259 55.649C100.259 56.2782 100.36 56.8093 100.561 57.2422C100.765 57.6751 101.043 58.0023 101.396 58.2237C101.748 58.4452 102.144 58.556 102.585 58.556C102.829 58.556 103.061 58.5232 103.28 58.4578C103.501 58.3899 103.701 58.2904 103.88 58.1596C104.059 58.0287 104.21 57.8689 104.333 57.6801C104.459 57.4888 104.546 57.2698 104.593 57.0232L105.771 57.027C105.708 57.407 105.586 57.7569 105.405 58.0765C105.226 58.3936 104.996 58.668 104.714 58.8995C104.435 59.1286 104.115 59.306 103.755 59.4318C103.395 59.5577 103.003 59.6206 102.577 59.6206C101.908 59.6206 101.311 59.462 100.788 59.1449C100.264 58.8253 99.8516 58.3685 99.5495 57.7745C99.25 57.1805 99.1003 56.472 99.1003 55.649C99.1003 54.8235 99.2513 54.115 99.5533 53.5235C99.8553 52.9295 100.268 52.474 100.792 52.1568C101.315 51.8372 101.91 51.6774 102.577 51.6774C102.988 51.6774 103.37 51.7365 103.725 51.8548C104.082 51.9706 104.403 52.1417 104.688 52.3682C104.972 52.5922 105.207 52.8666 105.394 53.1913C105.58 53.5134 105.706 53.8821 105.771 54.2974ZM107.077 61.6895V53.716H108.179V54.6561H108.273C108.339 54.5353 108.433 54.3956 108.556 54.237C108.68 54.0785 108.851 53.94 109.07 53.8217C109.289 53.7009 109.578 53.6405 109.938 53.6405C110.406 53.6405 110.824 53.7588 111.192 53.9954C111.559 54.232 111.847 54.573 112.056 55.0185C112.268 55.464 112.373 56.0001 112.373 56.6268C112.373 57.2535 112.269 57.7908 112.06 58.2388C111.851 58.6843 111.564 59.0279 111.199 59.2695C110.834 59.5086 110.418 59.6282 109.95 59.6282C109.597 59.6282 109.309 59.569 109.085 59.4507C108.864 59.3324 108.69 59.194 108.564 59.0354C108.438 58.8769 108.341 58.7359 108.273 58.6126H108.205V61.6895H107.077ZM108.183 56.6155C108.183 57.0232 108.242 57.3806 108.36 57.6876C108.478 57.9947 108.65 58.2351 108.874 58.4087C109.098 58.5799 109.372 58.6654 109.697 58.6654C110.034 58.6654 110.316 58.5761 110.542 58.3974C110.769 58.2162 110.94 57.9708 111.056 57.6612C111.174 57.3516 111.233 57.0031 111.233 56.6155C111.233 56.2329 111.175 55.8893 111.059 55.5848C110.946 55.2803 110.775 55.0399 110.546 54.8637C110.32 54.6875 110.036 54.5994 109.697 54.5994C109.369 54.5994 109.093 54.6838 108.866 54.8524C108.642 55.021 108.472 55.2564 108.356 55.5584C108.241 55.8604 108.183 56.2128 108.183 56.6155Z" fill="#0A3435"/>
<path d="M135.954 51.7831H137.106V54.3352C137.106 54.6901 137.168 54.9707 137.291 55.1771C137.414 55.3809 137.593 55.5257 137.827 55.6112C138.064 55.6968 138.35 55.7396 138.688 55.7396C138.866 55.7396 139.048 55.7333 139.231 55.7207C139.418 55.7056 139.603 55.6855 139.786 55.6603C139.97 55.6326 140.148 55.6012 140.319 55.5659C140.492 55.5282 140.653 55.4866 140.802 55.4413V56.4342C140.656 56.4821 140.501 56.5249 140.338 56.5626C140.176 56.5978 140.008 56.6293 139.832 56.657C139.655 56.6822 139.472 56.7023 139.28 56.7174C139.089 56.7325 138.892 56.74 138.688 56.74C138.124 56.74 137.637 56.6595 137.227 56.4984C136.819 56.3348 136.504 56.0769 136.283 55.7245C136.064 55.3721 135.954 54.909 135.954 54.3352V51.7831ZM140.628 51.7831H141.783V59.5149H140.628V51.7831ZM143.161 54.6901V53.716H148.053V54.6901H146.162V59.5149H145.06V54.6901H143.161Z" fill="#0A3435"/>
<path d="M178.294 51.7831V59.5149H177.131V52.7798H173.492V59.5149H172.329V51.7831H178.294ZM179.662 54.6901V53.716H184.555V54.6901H182.664V59.5149H181.561V54.6901H179.662Z" fill="#0A3435"/>
<path d="M215.121 54.2974H213.943C213.898 54.0457 213.814 53.8243 213.69 53.633C213.567 53.4417 213.416 53.2794 213.237 53.146C213.059 53.0126 212.859 52.9119 212.637 52.8439C212.418 52.776 212.185 52.742 211.939 52.742C211.493 52.742 211.094 52.854 210.742 53.078C210.392 53.302 210.115 53.6305 209.911 54.0634C209.71 54.4963 209.609 55.0248 209.609 55.649C209.609 56.2782 209.71 56.8093 209.911 57.2422C210.115 57.6751 210.393 58.0023 210.746 58.2237C211.098 58.4452 211.495 58.556 211.935 58.556C212.179 58.556 212.411 58.5232 212.63 58.4578C212.851 58.3899 213.051 58.2904 213.23 58.1596C213.409 58.0287 213.56 57.8689 213.683 57.6801C213.809 57.4888 213.896 57.2698 213.943 57.0232L215.121 57.027C215.058 57.407 214.936 57.7569 214.755 58.0765C214.576 58.3936 214.346 58.668 214.064 58.8995C213.785 59.1286 213.465 59.306 213.105 59.4318C212.745 59.5577 212.353 59.6206 211.927 59.6206C211.258 59.6206 210.661 59.462 210.138 59.1449C209.614 58.8253 209.202 58.3685 208.9 57.7745C208.6 57.1805 208.45 56.472 208.45 55.649C208.45 54.8235 208.601 54.115 208.903 53.5235C209.205 52.9295 209.618 52.474 210.142 52.1568C210.665 51.8372 211.26 51.6774 211.927 51.6774C212.338 51.6774 212.72 51.7365 213.075 51.8548C213.433 51.9706 213.753 52.1417 214.038 52.3682C214.322 52.5922 214.558 52.8666 214.744 53.1913C214.93 53.5134 215.056 53.8821 215.121 54.2974ZM220.9 51.5566L221.369 52.2701C221.195 52.4287 220.997 52.5419 220.776 52.6099C220.557 52.6753 220.304 52.7168 220.017 52.7345C219.73 52.7496 219.402 52.7634 219.032 52.776C218.614 52.7886 218.27 52.8792 218.001 53.0478C217.732 53.2139 217.524 53.4606 217.378 53.7878C217.235 54.1124 217.141 54.5202 217.099 55.011H217.17C217.359 54.651 217.621 54.3817 217.956 54.203C218.293 54.0243 218.672 53.935 219.092 53.935C219.56 53.935 219.977 54.042 220.342 54.2559C220.707 54.4698 220.993 54.7832 221.202 55.1959C221.414 55.6062 221.52 56.1083 221.52 56.7023C221.52 57.3038 221.409 57.8236 221.187 58.2615C220.968 58.6994 220.659 59.0379 220.259 59.277C219.861 59.5136 219.392 59.6319 218.85 59.6319C218.309 59.6319 217.837 59.5099 217.435 59.2657C217.034 59.0191 216.724 58.6541 216.502 58.1709C216.283 57.6876 216.174 57.0911 216.174 56.3814V55.8075C216.174 54.4812 216.41 53.4832 216.883 52.8137C217.357 52.1442 218.064 51.8007 219.005 51.7831C219.31 51.7755 219.582 51.7743 219.821 51.7793C220.06 51.7818 220.269 51.7705 220.447 51.7453C220.629 51.7176 220.78 51.6547 220.9 51.5566ZM218.854 58.6843C219.169 58.6843 219.439 58.605 219.666 58.4465C219.895 58.2854 220.071 58.0576 220.194 57.7632C220.318 57.4687 220.379 57.1214 220.379 56.7212C220.379 56.3285 220.318 55.9951 220.194 55.7207C220.071 55.4464 219.895 55.2375 219.666 55.094C219.437 54.948 219.162 54.875 218.843 54.875C218.606 54.875 218.395 54.9166 218.209 54.9996C218.022 55.0802 217.863 55.1997 217.729 55.3583C217.598 55.5168 217.496 55.7106 217.423 55.9397C217.353 56.1662 217.315 56.4267 217.31 56.7212C217.31 57.3202 217.447 57.7971 217.722 58.152C217.998 58.5069 218.376 58.6843 218.854 58.6843Z" fill="#0A3435"/>
<path d="M245.149 59.5149V51.7831H247.981C248.53 51.7831 248.984 51.8737 249.344 52.0549C249.704 52.2336 249.973 52.4765 250.152 52.7835C250.33 53.0881 250.42 53.4316 250.42 53.8142C250.42 54.1363 250.361 54.4082 250.242 54.6297C250.124 54.8486 249.966 55.0248 249.767 55.1582C249.57 55.2891 249.354 55.3847 249.117 55.4451V55.5206C249.374 55.5332 249.624 55.6163 249.869 55.7698C250.115 55.9208 250.319 56.136 250.48 56.4154C250.641 56.6947 250.722 57.0345 250.722 57.4347C250.722 57.8298 250.629 58.1847 250.442 58.4993C250.259 58.8114 249.974 59.0593 249.589 59.2431C249.204 59.4243 248.712 59.5149 248.113 59.5149H245.149ZM246.316 58.5144H248C248.559 58.5144 248.959 58.4062 249.2 58.1898C249.442 57.9733 249.563 57.7027 249.563 57.3781C249.563 57.1339 249.501 56.9099 249.378 56.7061C249.255 56.5022 249.078 56.3399 248.849 56.2191C248.623 56.0982 248.353 56.0378 248.041 56.0378H246.316V58.5144ZM246.316 55.128H247.879C248.141 55.128 248.376 55.0777 248.585 54.977C248.796 54.8763 248.964 54.7354 249.087 54.5541C249.213 54.3704 249.276 54.154 249.276 53.9048C249.276 53.5852 249.164 53.3171 248.94 53.1007C248.716 52.8842 248.372 52.776 247.909 52.776H246.316V55.128ZM254.457 59.6319C253.896 59.6319 253.413 59.5048 253.008 59.2506C252.605 58.9939 252.296 58.6403 252.079 58.1898C251.863 57.7392 251.754 57.2233 251.754 56.6419C251.754 56.0529 251.865 55.5332 252.087 55.0827C252.308 54.6297 252.62 54.276 253.023 54.0218C253.426 53.7676 253.9 53.6405 254.446 53.6405C254.887 53.6405 255.279 53.7223 255.624 53.8859C255.969 54.047 256.247 54.2735 256.458 54.5655C256.672 54.8574 256.799 55.1985 256.84 55.5886H255.741C255.681 55.3168 255.542 55.0827 255.326 54.8864C255.112 54.6901 254.825 54.5919 254.465 54.5919C254.15 54.5919 253.875 54.675 253.638 54.8411C253.404 55.0047 253.222 55.2387 253.091 55.5433C252.96 55.8453 252.895 56.2027 252.895 56.6155C252.895 57.0383 252.959 57.4032 253.087 57.7103C253.215 58.0174 253.397 58.2552 253.631 58.4238C253.867 58.5925 254.145 58.6768 254.465 58.6768C254.679 58.6768 254.873 58.6378 255.046 58.5597C255.223 58.4792 255.37 58.3647 255.488 58.2162C255.609 58.0677 255.693 57.889 255.741 57.6801H256.84C256.799 58.0551 256.677 58.3899 256.474 58.6843C256.27 58.9788 255.997 59.2104 255.654 59.379C255.314 59.5476 254.916 59.6319 254.457 59.6319Z" fill="#0A3435"/>
<path d="M29.1187 86.0458V93.7776H28.1824V87.0273H28.1371L26.2494 88.2807V87.3294L28.1824 86.0458H29.1187Z" fill="#0A3435"/>
<path d="M62.8504 93.7776V93.098L65.4025 90.3043C65.702 89.9771 65.9487 89.6927 66.1425 89.4511C66.3363 89.207 66.4797 88.9779 66.5729 88.764C66.6685 88.5475 66.7163 88.321 66.7163 88.0844C66.7163 87.8126 66.6509 87.5773 66.52 87.3785C66.3916 87.1796 66.2155 87.0261 65.9915 86.9179C65.7675 86.8096 65.5158 86.7555 65.2364 86.7555C64.9394 86.7555 64.6802 86.8172 64.4587 86.9405C64.2397 87.0613 64.0698 87.2312 63.949 87.4502C63.8307 87.6691 63.7716 87.9259 63.7716 88.2203H62.8806C62.8806 87.7673 62.9851 87.3696 63.194 87.0273C63.4029 86.6851 63.6873 86.4183 64.0472 86.227C64.4096 86.0357 64.8161 85.9401 65.2666 85.9401C65.7196 85.9401 66.1211 86.0357 66.4709 86.227C66.8208 86.4183 67.0951 86.6762 67.2939 87.0009C67.4928 87.3256 67.5922 87.6868 67.5922 88.0844C67.5922 88.3688 67.5406 88.647 67.4374 88.9188C67.3367 89.1881 67.1605 89.4888 66.9089 89.8211C66.6597 90.1508 66.3136 90.5535 65.8707 91.0292L64.134 92.8866V92.947H67.7281V93.7776H62.8504Z" fill="#0A3435"/>
<path d="M101.913 93.8833C101.415 93.8833 100.97 93.7977 100.58 93.6266C100.193 93.4554 99.8843 93.2176 99.6552 92.913C99.4287 92.606 99.3054 92.2498 99.2853 91.8446H100.237C100.257 92.0938 100.342 92.309 100.493 92.4902C100.644 92.6689 100.842 92.8073 101.086 92.9055C101.33 93.0037 101.601 93.0527 101.898 93.0527C102.23 93.0527 102.524 92.9948 102.781 92.8791C103.038 92.7633 103.239 92.6022 103.385 92.3958C103.531 92.1894 103.604 91.9503 103.604 91.6785C103.604 91.3941 103.534 91.1437 103.393 90.9272C103.252 90.7083 103.045 90.5371 102.774 90.4138C102.502 90.2905 102.17 90.2288 101.777 90.2288H101.158V89.3982H101.777C102.084 89.3982 102.353 89.3429 102.585 89.2321C102.819 89.1214 103.001 88.9653 103.132 88.764C103.266 88.5626 103.332 88.3261 103.332 88.0542C103.332 87.7925 103.274 87.5647 103.159 87.3709C103.043 87.1771 102.879 87.0261 102.668 86.9179C102.459 86.8096 102.212 86.7555 101.928 86.7555C101.661 86.7555 101.409 86.8046 101.173 86.9028C100.939 86.9984 100.748 87.1381 100.599 87.3218C100.451 87.503 100.37 87.722 100.357 87.9787H99.4514C99.4665 87.5735 99.5885 87.2186 99.8176 86.9141C100.047 86.607 100.346 86.3679 100.716 86.1968C101.089 86.0256 101.498 85.9401 101.943 85.9401C102.421 85.9401 102.832 86.037 103.174 86.2308C103.516 86.422 103.779 86.675 103.963 86.9896C104.147 87.3042 104.238 87.644 104.238 88.0089C104.238 88.4443 104.124 88.8156 103.895 89.1226C103.668 89.4297 103.36 89.6424 102.97 89.7607V89.8211C103.458 89.9016 103.84 90.1093 104.114 90.444C104.388 90.7762 104.525 91.1877 104.525 91.6785C104.525 92.0988 104.411 92.4764 104.182 92.8111C103.955 93.1433 103.646 93.4051 103.253 93.5964C102.86 93.7877 102.414 93.8833 101.913 93.8833Z" fill="#0A3435"/>
<path d="M135.569 92.192V91.4218L138.967 86.0458H139.526V87.2388H139.148L136.581 91.301V91.3614H141.157V92.192H135.569ZM139.209 93.7776V91.9579V91.5992V86.0458H140.1V93.7776H139.209Z" fill="#0A3435"/>
<path d="M174.617 93.8833C174.174 93.8833 173.775 93.7952 173.42 93.619C173.065 93.4428 172.781 93.2012 172.567 92.8942C172.353 92.5871 172.236 92.2373 172.216 91.8446H173.122C173.157 92.1945 173.315 92.4839 173.597 92.713C173.882 92.9395 174.222 93.0527 174.617 93.0527C174.934 93.0527 175.216 92.9785 175.462 92.83C175.712 92.6815 175.907 92.4776 176.048 92.2184C176.191 91.9566 176.263 91.6609 176.263 91.3312C176.263 90.9939 176.188 90.6932 176.04 90.4289C175.894 90.1621 175.693 89.9519 175.436 89.7984C175.179 89.6449 174.886 89.5669 174.556 89.5644C174.32 89.5618 174.077 89.5983 173.828 89.6738C173.578 89.7468 173.373 89.8412 173.212 89.957L172.336 89.8513L172.805 86.0458H176.821V86.8763H173.59L173.318 89.1566H173.363C173.522 89.0308 173.721 88.9263 173.96 88.8433C174.199 88.7602 174.448 88.7187 174.707 88.7187C175.18 88.7187 175.602 88.8319 175.972 89.0585C176.345 89.2825 176.636 89.5895 176.848 89.9796C177.062 90.3697 177.169 90.8152 177.169 91.3161C177.169 91.8094 177.058 92.2498 176.837 92.6374C176.618 93.0225 176.316 93.3271 175.931 93.5511C175.545 93.7726 175.107 93.8833 174.617 93.8833Z" fill="#0A3435"/>
<path d="M211.218 93.8833C210.901 93.8783 210.583 93.8179 210.266 93.7021C209.949 93.5863 209.66 93.3912 209.398 93.1169C209.136 92.8401 208.926 92.4663 208.767 91.9956C208.609 91.5225 208.53 90.9285 208.53 90.2137C208.53 89.5291 208.594 88.9225 208.722 88.394C208.851 87.8629 209.037 87.4162 209.281 87.0538C209.525 86.6888 209.82 86.412 210.164 86.2232C210.512 86.0344 210.903 85.9401 211.338 85.9401C211.771 85.9401 212.156 86.0269 212.494 86.2006C212.833 86.3717 213.11 86.6108 213.324 86.9179C213.538 87.2249 213.677 87.5785 213.74 87.9787H212.818C212.733 87.6314 212.567 87.3432 212.32 87.1142C212.073 86.8851 211.746 86.7706 211.338 86.7706C210.739 86.7706 210.268 87.0311 209.923 87.5521C209.58 88.0731 209.408 88.8043 209.406 89.7456H209.466C209.607 89.5316 209.774 89.3492 209.968 89.1981C210.164 89.0446 210.381 88.9263 210.617 88.8433C210.854 88.7602 211.104 88.7187 211.369 88.7187C211.812 88.7187 212.217 88.8294 212.584 89.0509C212.952 89.2699 213.246 89.5732 213.468 89.9608C213.689 90.3458 213.8 90.7875 213.8 91.2859C213.8 91.7641 213.693 92.202 213.479 92.5997C213.265 92.9948 212.964 93.3095 212.577 93.5435C212.192 93.7751 211.739 93.8883 211.218 93.8833ZM211.218 93.0527C211.535 93.0527 211.819 92.9734 212.071 92.8149C212.325 92.6563 212.525 92.4436 212.671 92.1769C212.82 91.9101 212.894 91.6131 212.894 91.2859C212.894 90.9662 212.822 90.6755 212.679 90.4138C212.538 90.1495 212.343 89.9394 212.094 89.7833C211.847 89.6273 211.565 89.5492 211.248 89.5492C211.009 89.5492 210.786 89.5971 210.58 89.6927C210.373 89.7858 210.192 89.9142 210.036 90.0778C209.882 90.2414 209.762 90.4289 209.674 90.6403C209.585 90.8492 209.541 91.0694 209.541 91.301C209.541 91.608 209.613 91.895 209.757 92.1618C209.903 92.4285 210.101 92.6437 210.353 92.8073C210.607 92.9709 210.896 93.0527 211.218 93.0527Z" fill="#808181"/>
<path d="M245.342 93.7776L248.8 86.9367V86.8763H244.813V86.0458H249.767V86.9216L246.324 93.7776H245.342Z" fill="#808181"/>
<path d="M28.8771 122.071C28.3586 122.071 27.9005 121.979 27.5028 121.795C27.1077 121.609 26.7994 121.353 26.5779 121.029C26.3564 120.702 26.2469 120.329 26.2494 119.911C26.2469 119.584 26.3111 119.282 26.442 119.005C26.5729 118.726 26.7516 118.493 26.9781 118.307C27.2071 118.118 27.4626 117.999 27.7445 117.948V117.903C27.3745 117.807 27.08 117.6 26.861 117.28C26.6421 116.958 26.5339 116.592 26.5364 116.181C26.5339 115.789 26.6333 115.438 26.8346 115.128C27.036 114.818 27.3128 114.574 27.6652 114.396C28.0201 114.217 28.424 114.128 28.8771 114.128C29.3251 114.128 29.7252 114.217 30.0776 114.396C30.43 114.574 30.7068 114.818 30.9082 115.128C31.112 115.438 31.2152 115.789 31.2177 116.181C31.2152 116.592 31.1032 116.958 30.8817 117.28C30.6628 117.6 30.3721 117.807 30.0097 117.903V117.948C30.289 117.999 30.5407 118.118 30.7647 118.307C30.9887 118.493 31.1674 118.726 31.3008 119.005C31.4342 119.282 31.5022 119.584 31.5047 119.911C31.5022 120.329 31.3889 120.702 31.1649 121.029C30.9434 121.353 30.6351 121.609 30.2399 121.795C29.8473 121.979 29.393 122.071 28.8771 122.071ZM28.8771 121.24C29.2269 121.24 29.5289 121.184 29.7831 121.07C30.0373 120.957 30.2337 120.797 30.3721 120.591C30.5105 120.384 30.581 120.143 30.5835 119.866C30.581 119.574 30.5055 119.316 30.357 119.092C30.2085 118.868 30.0059 118.692 29.7492 118.564C29.495 118.435 29.2043 118.371 28.8771 118.371C28.5473 118.371 28.2529 118.435 27.9936 118.564C27.7369 118.692 27.5343 118.868 27.3858 119.092C27.2398 119.316 27.1681 119.574 27.1706 119.866C27.1681 120.143 27.2348 120.384 27.3707 120.591C27.5091 120.797 27.7067 120.957 27.9634 121.07C28.2202 121.184 28.5247 121.24 28.8771 121.24ZM28.8771 117.571C29.1539 117.571 29.3993 117.515 29.6132 117.405C29.8297 117.294 29.9996 117.139 30.1229 116.94C30.2462 116.741 30.3092 116.509 30.3117 116.242C30.3092 115.98 30.2475 115.752 30.1267 115.558C30.0059 115.362 29.8385 115.211 29.6246 115.105C29.4106 114.997 29.1615 114.943 28.8771 114.943C28.5876 114.943 28.3347 114.997 28.1182 115.105C27.9018 115.211 27.7344 115.362 27.6161 115.558C27.4978 115.752 27.4399 115.98 27.4424 116.242C27.4399 116.509 27.4991 116.741 27.6199 116.94C27.7432 117.139 27.9131 117.294 28.1295 117.405C28.346 117.515 28.5952 117.571 28.8771 117.571Z" fill="#0A3435"/>
<path d="M65.3119 114.128C65.629 114.13 65.9462 114.19 66.2633 114.309C66.5804 114.427 66.8699 114.623 67.1316 114.898C67.3934 115.17 67.6035 115.541 67.7621 116.011C67.9206 116.482 67.9999 117.072 67.9999 117.782C67.9999 118.469 67.9345 119.079 67.8036 119.613C67.6752 120.144 67.489 120.592 67.2449 120.957C67.0032 121.322 66.7088 121.599 66.3614 121.788C66.0166 121.976 65.6265 122.071 65.1911 122.071C64.7582 122.071 64.3719 121.985 64.0321 121.814C63.6948 121.64 63.418 121.4 63.2015 121.093C62.9876 120.783 62.8504 120.425 62.79 120.017H63.7112C63.7942 120.372 63.9591 120.665 64.2057 120.897C64.4549 121.126 64.7834 121.24 65.1911 121.24C65.7876 121.24 66.2583 120.98 66.6031 120.459C66.9504 119.938 67.1241 119.202 67.1241 118.25H67.0636C66.9227 118.462 66.7553 118.644 66.5615 118.798C66.3677 118.951 66.1525 119.069 65.916 119.152C65.6794 119.236 65.4277 119.277 65.1609 119.277C64.7179 119.277 64.3115 119.168 63.9415 118.949C63.574 118.727 63.2795 118.424 63.0581 118.039C62.8391 117.651 62.7296 117.208 62.7296 116.71C62.7296 116.237 62.8353 115.804 63.0467 115.411C63.2607 115.016 63.5602 114.701 63.9453 114.467C64.3328 114.233 64.7884 114.12 65.3119 114.128ZM65.3119 114.958C64.9948 114.958 64.7091 115.037 64.4549 115.196C64.2032 115.352 64.0031 115.563 63.8546 115.83C63.7087 116.094 63.6357 116.388 63.6357 116.71C63.6357 117.032 63.7061 117.325 63.8471 117.59C63.9906 117.851 64.1856 118.06 64.4323 118.216C64.6814 118.37 64.9646 118.447 65.2817 118.447C65.5208 118.447 65.7436 118.4 65.9499 118.307C66.1563 118.211 66.3363 118.082 66.4898 117.918C66.6458 117.752 66.7679 117.564 66.856 117.355C66.9441 117.144 66.9881 116.924 66.9881 116.695C66.9881 116.393 66.9152 116.11 66.7692 115.845C66.6257 115.581 66.4269 115.367 66.1727 115.204C65.921 115.04 65.6341 114.958 65.3119 114.958Z" fill="#0A3435"/>
<path d="M102.019 114.233V121.965H101.082V115.215H101.037L99.1494 116.468V115.517L101.082 114.233H102.019ZM106.764 122.071C106.195 122.071 105.711 121.916 105.311 121.606C104.91 121.294 104.605 120.843 104.393 120.251C104.182 119.657 104.076 118.94 104.076 118.099C104.076 117.264 104.182 116.55 104.393 115.959C104.607 115.365 104.914 114.912 105.314 114.599C105.717 114.285 106.2 114.128 106.764 114.128C107.328 114.128 107.81 114.285 108.21 114.599C108.613 114.912 108.92 115.365 109.131 115.959C109.345 116.55 109.452 117.264 109.452 118.099C109.452 118.94 109.346 119.657 109.135 120.251C108.924 120.843 108.618 121.294 108.218 121.606C107.817 121.916 107.333 122.071 106.764 122.071ZM106.764 121.24C107.328 121.24 107.766 120.968 108.078 120.425C108.39 119.881 108.546 119.106 108.546 118.099C108.546 117.43 108.474 116.86 108.331 116.389C108.19 115.918 107.986 115.56 107.719 115.313C107.455 115.066 107.137 114.943 106.764 114.943C106.205 114.943 105.769 115.219 105.454 115.77C105.139 116.318 104.982 117.095 104.982 118.099C104.982 118.769 105.053 119.337 105.194 119.806C105.335 120.274 105.537 120.63 105.801 120.874C106.068 121.118 106.389 121.24 106.764 121.24Z" fill="#0A3435"/>
<path d="M138.469 114.233V121.965H137.533V115.215H137.487L135.6 116.468V115.517L137.533 114.233H138.469ZM143.411 114.233V121.965H142.474V115.215H142.429L140.541 116.468V115.517L142.474 114.233H143.411Z" fill="#0A3435"/>
<path d="M174.919 114.233V121.965H173.982V115.215H173.937L172.049 116.468V115.517L173.982 114.233H174.919ZM177.142 121.965V121.286L179.694 118.492C179.994 118.165 180.241 117.88 180.434 117.639C180.628 117.394 180.772 117.165 180.865 116.951C180.96 116.735 181.008 116.509 181.008 116.272C181.008 116 180.943 115.765 180.812 115.566C180.684 115.367 180.507 115.214 180.283 115.105C180.059 114.997 179.808 114.943 179.528 114.943C179.231 114.943 178.972 115.005 178.751 115.128C178.532 115.249 178.362 115.419 178.241 115.638C178.123 115.857 178.064 116.113 178.064 116.408H177.173C177.173 115.955 177.277 115.557 177.486 115.215C177.695 114.873 177.979 114.606 178.339 114.414C178.702 114.223 179.108 114.128 179.559 114.128C180.012 114.128 180.413 114.223 180.763 114.414C181.113 114.606 181.387 114.864 181.586 115.188C181.785 115.513 181.884 115.874 181.884 116.272C181.884 116.556 181.833 116.834 181.729 117.106C181.629 117.376 181.453 117.676 181.201 118.009C180.952 118.338 180.606 118.741 180.163 119.217L178.426 121.074V121.135H182.02V121.965H177.142Z" fill="#0A3435"/>
<path d="M211.369 114.233V121.965H210.432V115.215H210.387L208.499 116.468V115.517L210.432 114.233H211.369ZM216.205 122.071C215.707 122.071 215.262 121.985 214.872 121.814C214.485 121.643 214.176 121.405 213.947 121.101C213.721 120.793 213.597 120.437 213.577 120.032H214.529C214.549 120.281 214.634 120.496 214.785 120.678C214.936 120.856 215.134 120.995 215.378 121.093C215.622 121.191 215.893 121.24 216.19 121.24C216.522 121.24 216.816 121.182 217.073 121.067C217.33 120.951 217.531 120.79 217.677 120.583C217.823 120.377 217.896 120.138 217.896 119.866C217.896 119.582 217.826 119.331 217.685 119.115C217.544 118.896 217.337 118.725 217.066 118.601C216.794 118.478 216.462 118.416 216.069 118.416H215.45V117.586H216.069C216.376 117.586 216.645 117.53 216.877 117.42C217.111 117.309 217.293 117.153 217.424 116.951C217.558 116.75 217.624 116.514 217.624 116.242C217.624 115.98 217.566 115.752 217.451 115.558C217.335 115.365 217.171 115.214 216.96 115.105C216.751 114.997 216.504 114.943 216.22 114.943C215.953 114.943 215.701 114.992 215.465 115.09C215.231 115.186 215.04 115.326 214.891 115.509C214.743 115.691 214.662 115.91 214.649 116.166H213.743C213.758 115.761 213.881 115.406 214.11 115.102C214.339 114.795 214.638 114.555 215.008 114.384C215.381 114.213 215.79 114.128 216.235 114.128C216.713 114.128 217.123 114.224 217.466 114.418C217.808 114.61 218.071 114.862 218.255 115.177C218.439 115.492 218.53 115.831 218.53 116.196C218.53 116.632 218.416 117.003 218.187 117.31C217.96 117.617 217.652 117.83 217.262 117.948V118.009C217.75 118.089 218.132 118.297 218.406 118.631C218.68 118.964 218.817 119.375 218.817 119.866C218.817 120.286 218.703 120.664 218.474 120.999C218.247 121.331 217.938 121.593 217.545 121.784C217.152 121.975 216.706 122.071 216.205 122.071Z" fill="#808181"/>
<path d="M247.819 114.233V121.965H246.882V115.215H246.837L244.949 116.468V115.517L246.882 114.233H247.819ZM249.861 120.379V119.609L253.259 114.233H253.818V115.426H253.44L250.873 119.488V119.549H255.449V120.379H249.861ZM253.5 121.965V120.145V119.787V114.233H254.391V121.965H253.5Z" fill="#808181"/>
<path d="M29.1187 142.421V150.153H28.1824V143.402H28.1371L26.2494 144.656V143.704L28.1824 142.421H29.1187ZM33.7585 150.258C33.3156 150.258 32.9166 150.17 32.5618 149.994C32.2069 149.818 31.9225 149.576 31.7085 149.269C31.4946 148.962 31.3776 148.612 31.3574 148.22H32.2635C32.2987 148.569 32.4573 148.859 32.7392 149.088C33.0236 149.314 33.3634 149.428 33.7585 149.428C34.0756 149.428 34.3575 149.353 34.6042 149.205C34.8534 149.056 35.0484 148.853 35.1894 148.593C35.3328 148.332 35.4046 148.036 35.4046 147.706C35.4046 147.369 35.3303 147.068 35.1818 146.804C35.0358 146.537 34.8345 146.327 34.5778 146.173C34.321 146.02 34.0278 145.942 33.6981 145.939C33.4615 145.937 33.2187 145.973 32.9695 146.049C32.7203 146.122 32.5152 146.216 32.3541 146.332L31.4782 146.226L31.9464 142.421H35.9633V143.251H32.7316L32.4598 145.532H32.5051C32.6637 145.406 32.8625 145.301 33.1016 145.218C33.3407 145.135 33.5899 145.094 33.8491 145.094C34.3223 145.094 34.7439 145.207 35.1139 145.433C35.4864 145.657 35.7783 145.965 35.9897 146.355C36.2037 146.745 36.3106 147.19 36.3106 147.691C36.3106 148.184 36.1999 148.625 35.9784 149.012C35.7594 149.398 35.4574 149.702 35.0723 149.926C34.6872 150.148 34.2493 150.258 33.7585 150.258Z" fill="#0A3435"/>
<rect width="30.375" height="25.8187" transform="translate(59.0127 133.318)" fill="#E9FCFB"/>
<path d="M68.6062 142.421V150.153H67.67V143.402H67.6246L65.737 144.656V143.704L67.67 142.421H68.6062ZM73.3971 150.258C73.08 150.253 72.7628 150.193 72.4457 150.077C72.1286 149.961 71.8391 149.766 71.5774 149.492C71.3156 149.215 71.1055 148.841 70.9469 148.371C70.7884 147.897 70.7091 147.303 70.7091 146.589C70.7091 145.904 70.7733 145.298 70.9016 144.769C71.03 144.238 71.2162 143.791 71.4604 143.429C71.7045 143.064 71.999 142.787 72.3438 142.598C72.6911 142.409 73.0825 142.315 73.5179 142.315C73.9508 142.315 74.3359 142.402 74.6731 142.576C75.0129 142.747 75.2898 142.986 75.5037 143.293C75.7176 143.6 75.8561 143.954 75.919 144.354H74.9978C74.9122 144.006 74.7461 143.718 74.4995 143.489C74.2528 143.26 73.9256 143.146 73.5179 143.146C72.9189 143.146 72.447 143.406 72.1022 143.927C71.7599 144.448 71.5875 145.179 71.5849 146.121H71.6453C71.7863 145.907 71.9537 145.724 72.1475 145.573C72.3438 145.42 72.5602 145.301 72.7968 145.218C73.0334 145.135 73.2838 145.094 73.5481 145.094C73.9911 145.094 74.3963 145.204 74.7637 145.426C75.1312 145.645 75.4257 145.948 75.6472 146.336C75.8686 146.721 75.9794 147.163 75.9794 147.661C75.9794 148.139 75.8724 148.577 75.6585 148.975C75.4446 149.37 75.1438 149.684 74.7562 149.919C74.3711 150.15 73.9181 150.263 73.3971 150.258ZM73.3971 149.428C73.7142 149.428 73.9986 149.348 74.2503 149.19C74.5045 149.031 74.7046 148.819 74.8506 148.552C74.9991 148.285 75.0733 147.988 75.0733 147.661C75.0733 147.341 75.0016 147.051 74.8581 146.789C74.7172 146.525 74.5221 146.314 74.273 146.158C74.0263 146.002 73.7444 145.924 73.4273 145.924C73.1882 145.924 72.9654 145.972 72.7591 146.068C72.5527 146.161 72.3715 146.289 72.2154 146.453C72.0619 146.616 71.9411 146.804 71.853 147.015C71.7649 147.224 71.7209 147.444 71.7209 147.676C71.7209 147.983 71.7926 148.27 71.936 148.537C72.082 148.804 72.2809 149.019 72.5325 149.182C72.7867 149.346 73.0749 149.428 73.3971 149.428Z" fill="#148783"/>
<rect x="59.3924" y="133.698" width="29.6156" height="25.0594" rx="2.65781" stroke="#148783" stroke-width="0.759375"/>
<rect width="36.45" height="28.1875" transform="translate(92.425 132.559)" fill="#E9FCFB"/>
<path d="M102.019 142.421V150.153H101.082V143.402H101.037L99.1494 144.656V143.704L101.082 142.421H102.019ZM104.484 150.153L107.942 143.312V143.251H103.955V142.421H108.909V143.297L105.465 150.153H104.484Z" fill="#148783"/>
<rect width="36.45" height="28.1875" transform="translate(128.875 132.559)" fill="#E9FCFB"/>
<path d="M138.469 142.421V150.153H137.533V143.402H137.487L135.6 144.656V143.704L137.533 142.421H138.469ZM143.169 150.258C142.651 150.258 142.192 150.166 141.795 149.983C141.4 149.796 141.091 149.541 140.87 149.216C140.648 148.889 140.539 148.517 140.541 148.099C140.539 147.772 140.603 147.47 140.734 147.193C140.865 146.913 141.044 146.681 141.27 146.494C141.499 146.306 141.755 146.186 142.036 146.136V146.09C141.666 145.995 141.372 145.787 141.153 145.467C140.934 145.145 140.826 144.779 140.828 144.369C140.826 143.976 140.925 143.625 141.127 143.316C141.328 143.006 141.605 142.762 141.957 142.583C142.312 142.404 142.716 142.315 143.169 142.315C143.617 142.315 144.017 142.404 144.37 142.583C144.722 142.762 144.999 143.006 145.2 143.316C145.404 143.625 145.507 143.976 145.51 144.369C145.507 144.779 145.395 145.145 145.174 145.467C144.955 145.787 144.664 145.995 144.302 146.09V146.136C144.581 146.186 144.833 146.306 145.057 146.494C145.281 146.681 145.459 146.913 145.593 147.193C145.726 147.47 145.794 147.772 145.797 148.099C145.794 148.517 145.681 148.889 145.457 149.216C145.235 149.541 144.927 149.796 144.532 149.983C144.139 150.166 143.685 150.258 143.169 150.258ZM143.169 149.428C143.519 149.428 143.821 149.371 144.075 149.258C144.329 149.145 144.526 148.985 144.664 148.778C144.802 148.572 144.873 148.33 144.875 148.054C144.873 147.762 144.797 147.504 144.649 147.28C144.5 147.056 144.298 146.879 144.041 146.751C143.787 146.623 143.496 146.559 143.169 146.559C142.839 146.559 142.545 146.623 142.286 146.751C142.029 146.879 141.826 147.056 141.678 147.28C141.532 147.504 141.46 147.762 141.463 148.054C141.46 148.33 141.527 148.572 141.663 148.778C141.801 148.985 141.999 149.145 142.255 149.258C142.512 149.371 142.817 149.428 143.169 149.428ZM143.169 145.758C143.446 145.758 143.691 145.703 143.905 145.592C144.122 145.481 144.292 145.326 144.415 145.128C144.538 144.929 144.601 144.696 144.604 144.429C144.601 144.167 144.539 143.94 144.419 143.746C144.298 143.55 144.13 143.399 143.917 143.293C143.703 143.185 143.453 143.131 143.169 143.131C142.88 143.131 142.627 143.185 142.41 143.293C142.194 143.399 142.026 143.55 141.908 143.746C141.79 143.94 141.732 144.167 141.734 144.429C141.732 144.696 141.791 144.929 141.912 145.128C142.035 145.326 142.205 145.481 142.422 145.592C142.638 145.703 142.887 145.758 143.169 145.758Z" fill="#148783"/>
<rect width="36.45" height="28.1875" transform="translate(165.325 132.559)" fill="#E9FCFB"/>
<path d="M174.919 142.421V150.153H173.982V143.402H173.937L172.049 144.656V143.704L173.982 142.421H174.919ZM179.604 142.315C179.921 142.318 180.238 142.378 180.555 142.496C180.872 142.615 181.162 142.811 181.424 143.085C181.685 143.357 181.895 143.728 182.054 144.199C182.213 144.67 182.292 145.26 182.292 145.97C182.292 146.657 182.226 147.267 182.096 147.801C181.967 148.332 181.781 148.78 181.537 149.145C181.295 149.51 181.001 149.786 180.653 149.975C180.309 150.164 179.918 150.258 179.483 150.258C179.05 150.258 178.664 150.173 178.324 150.002C177.987 149.828 177.71 149.588 177.493 149.28C177.28 148.971 177.142 148.612 177.082 148.205H178.003C178.086 148.559 178.251 148.853 178.498 149.084C178.747 149.313 179.075 149.428 179.483 149.428C180.08 149.428 180.55 149.167 180.895 148.646C181.242 148.125 181.416 147.389 181.416 146.438H181.356C181.215 146.649 181.047 146.832 180.854 146.985C180.66 147.139 180.445 147.257 180.208 147.34C179.971 147.423 179.72 147.465 179.453 147.465C179.01 147.465 178.603 147.355 178.233 147.136C177.866 146.915 177.572 146.611 177.35 146.226C177.131 145.839 177.022 145.396 177.022 144.897C177.022 144.424 177.127 143.991 177.339 143.599C177.553 143.204 177.852 142.889 178.237 142.655C178.625 142.421 179.08 142.308 179.604 142.315ZM179.604 143.146C179.287 143.146 179.001 143.225 178.747 143.383C178.495 143.54 178.295 143.751 178.147 144.018C178.001 144.282 177.928 144.575 177.928 144.897C177.928 145.22 177.998 145.513 178.139 145.777C178.283 146.039 178.478 146.248 178.724 146.404C178.973 146.557 179.257 146.634 179.574 146.634C179.813 146.634 180.036 146.587 180.242 146.494C180.448 146.399 180.628 146.269 180.782 146.105C180.938 145.939 181.06 145.752 181.148 145.543C181.236 145.332 181.28 145.111 181.28 144.882C181.28 144.58 181.207 144.297 181.061 144.033C180.918 143.769 180.719 143.555 180.465 143.391C180.213 143.227 179.926 143.146 179.604 143.146Z" fill="#148783"/>
<rect width="36.45" height="28.1875" transform="translate(201.775 132.559)" fill="#E9FCFB"/>
<path d="M208.65 150.153V149.473L211.203 146.679C211.502 146.352 211.749 146.068 211.943 145.826C212.136 145.582 212.28 145.353 212.373 145.139C212.469 144.923 212.516 144.696 212.516 144.459C212.516 144.188 212.451 143.952 212.32 143.753C212.192 143.555 212.016 143.401 211.792 143.293C211.568 143.185 211.316 143.131 211.036 143.131C210.739 143.131 210.48 143.192 210.259 143.316C210.04 143.436 209.87 143.606 209.749 143.825C209.631 144.044 209.572 144.301 209.572 144.595H208.681C208.681 144.142 208.785 143.745 208.994 143.402C209.203 143.06 209.487 142.793 209.847 142.602C210.21 142.411 210.616 142.315 211.067 142.315C211.52 142.315 211.921 142.411 212.271 142.602C212.621 142.793 212.895 143.051 213.094 143.376C213.293 143.701 213.392 144.062 213.392 144.459C213.392 144.744 213.341 145.022 213.237 145.294C213.137 145.563 212.961 145.864 212.709 146.196C212.46 146.526 212.114 146.928 211.671 147.404L209.934 149.262V149.322H213.528V150.153H208.65ZM217.609 150.258C217.04 150.258 216.556 150.104 216.156 149.794C215.756 149.482 215.45 149.03 215.238 148.439C215.027 147.845 214.921 147.127 214.921 146.287C214.921 145.451 215.027 144.738 215.238 144.146C215.452 143.552 215.759 143.099 216.16 142.787C216.562 142.472 217.045 142.315 217.609 142.315C218.173 142.315 218.655 142.472 219.055 142.787C219.458 143.099 219.765 143.552 219.976 144.146C220.19 144.738 220.297 145.451 220.297 146.287C220.297 147.127 220.192 147.845 219.98 148.439C219.769 149.03 219.463 149.482 219.063 149.794C218.663 150.104 218.178 150.258 217.609 150.258ZM217.609 149.428C218.173 149.428 218.611 149.156 218.923 148.612C219.235 148.069 219.391 147.293 219.391 146.287C219.391 145.617 219.319 145.047 219.176 144.576C219.035 144.106 218.831 143.747 218.564 143.501C218.3 143.254 217.982 143.131 217.609 143.131C217.051 143.131 216.614 143.406 216.299 143.957C215.985 144.506 215.827 145.282 215.827 146.287C215.827 146.956 215.898 147.525 216.039 147.993C216.18 148.461 216.382 148.817 216.647 149.062C216.913 149.306 217.234 149.428 217.609 149.428Z" fill="#148783"/>
<rect width="36.45" height="28.1875" transform="translate(238.225 132.559)" fill="#E9FCFB"/>
<path d="M245.1 150.153V149.473L247.653 146.679C247.952 146.352 248.199 146.068 248.392 145.826C248.586 145.582 248.73 145.353 248.823 145.139C248.919 144.923 248.966 144.696 248.966 144.459C248.966 144.188 248.901 143.952 248.77 143.753C248.642 143.555 248.465 143.401 248.241 143.293C248.017 143.185 247.766 143.131 247.486 143.131C247.189 143.131 246.93 143.192 246.709 143.316C246.49 143.436 246.32 143.606 246.199 143.825C246.081 144.044 246.022 144.301 246.022 144.595H245.131C245.131 144.142 245.235 143.745 245.444 143.402C245.653 143.06 245.937 142.793 246.297 142.602C246.66 142.411 247.066 142.315 247.517 142.315C247.97 142.315 248.371 142.411 248.721 142.602C249.071 142.793 249.345 143.051 249.544 143.376C249.743 143.701 249.842 144.062 249.842 144.459C249.842 144.744 249.791 145.022 249.687 145.294C249.587 145.563 249.411 145.864 249.159 146.196C248.91 146.526 248.564 146.928 248.121 147.404L246.384 149.262V149.322H249.978V150.153H245.1ZM254.256 142.421V150.153H253.319V143.402H253.274L251.386 144.656V143.704L253.319 142.421H254.256Z" fill="#148783"/>
<rect width="36.45" height="28.1875" transform="translate(19.5251 160.746)" fill="#E9FCFB"/>
<path d="M26.4005 178.34V177.661L28.9526 174.867C29.2521 174.54 29.4987 174.255 29.6925 174.014C29.8863 173.769 30.0298 173.54 30.1229 173.326C30.2186 173.11 30.2664 172.884 30.2664 172.647C30.2664 172.375 30.2009 172.14 30.0701 171.941C29.9417 171.742 29.7655 171.589 29.5415 171.48C29.3175 171.372 29.0658 171.318 28.7865 171.318C28.4895 171.318 28.2302 171.38 28.0087 171.503C27.7898 171.624 27.6199 171.794 27.4991 172.013C27.3808 172.232 27.3216 172.488 27.3216 172.783H26.4307C26.4307 172.33 26.5351 171.932 26.744 171.59C26.9529 171.248 27.2373 170.981 27.5972 170.789C27.9597 170.598 28.3661 170.503 28.8167 170.503C29.2697 170.503 29.6711 170.598 30.021 170.789C30.3708 170.981 30.6452 171.239 30.844 171.563C31.0428 171.888 31.1422 172.249 31.1422 172.647C31.1422 172.931 31.0906 173.209 30.9875 173.481C30.8868 173.751 30.7106 174.051 30.4589 174.384C30.2097 174.713 29.8637 175.116 29.4207 175.592L27.6841 177.449V177.51H31.2782V178.34H26.4005ZM32.8374 178.34V177.661L35.3895 174.867C35.689 174.54 35.9356 174.255 36.1294 174.014C36.3232 173.769 36.4667 173.54 36.5598 173.326C36.6554 173.11 36.7033 172.884 36.7033 172.647C36.7033 172.375 36.6378 172.14 36.5069 171.941C36.3786 171.742 36.2024 171.589 35.9784 171.48C35.7544 171.372 35.5027 171.318 35.2233 171.318C34.9264 171.318 34.6671 171.38 34.4456 171.503C34.2267 171.624 34.0568 171.794 33.936 172.013C33.8177 172.232 33.7585 172.488 33.7585 172.783H32.8676C32.8676 172.33 32.972 171.932 33.1809 171.59C33.3898 171.248 33.6742 170.981 34.0341 170.789C34.3966 170.598 34.803 170.503 35.2535 170.503C35.7066 170.503 36.108 170.598 36.4579 170.789C36.8077 170.981 37.082 171.239 37.2809 171.563C37.4797 171.888 37.5791 172.249 37.5791 172.647C37.5791 172.931 37.5275 173.209 37.4243 173.481C37.3237 173.751 37.1475 174.051 36.8958 174.384C36.6466 174.713 36.3006 175.116 35.8576 175.592L34.121 177.449V177.51H37.715V178.34H32.8374Z" fill="#148783"/>
<rect width="36.45" height="28.1875" transform="translate(55.9751 160.746)" fill="#E9FCFB"/>
<path d="M62.8504 178.34V177.661L65.4025 174.867C65.702 174.54 65.9487 174.255 66.1425 174.014C66.3363 173.769 66.4797 173.54 66.5729 173.326C66.6685 173.11 66.7163 172.884 66.7163 172.647C66.7163 172.375 66.6509 172.14 66.52 171.941C66.3916 171.742 66.2155 171.589 65.9915 171.48C65.7675 171.372 65.5158 171.318 65.2364 171.318C64.9394 171.318 64.6802 171.38 64.4587 171.503C64.2397 171.624 64.0698 171.794 63.949 172.013C63.8307 172.232 63.7716 172.488 63.7716 172.783H62.8806C62.8806 172.33 62.9851 171.932 63.194 171.59C63.4029 171.248 63.6873 170.981 64.0472 170.789C64.4096 170.598 64.8161 170.503 65.2666 170.503C65.7196 170.503 66.1211 170.598 66.4709 170.789C66.8208 170.981 67.0951 171.239 67.2939 171.563C67.4928 171.888 67.5922 172.249 67.5922 172.647C67.5922 172.931 67.5406 173.209 67.4374 173.481C67.3367 173.751 67.1605 174.051 66.9089 174.384C66.6597 174.713 66.3136 175.116 65.8707 175.592L64.134 177.449V177.51H67.7281V178.34H62.8504ZM71.8998 178.446C71.4015 178.446 70.9572 178.36 70.5671 178.189C70.1795 178.018 69.8712 177.78 69.6422 177.476C69.4157 177.168 69.2923 176.812 69.2722 176.407H70.2236C70.2437 176.656 70.3293 176.871 70.4803 177.053C70.6313 177.231 70.8289 177.37 71.073 177.468C71.3172 177.566 71.5877 177.615 71.8847 177.615C72.2169 177.615 72.5114 177.557 72.7681 177.442C73.0249 177.326 73.2262 177.165 73.3722 176.958C73.5182 176.752 73.5911 176.513 73.5911 176.241C73.5911 175.957 73.5207 175.706 73.3797 175.49C73.2388 175.271 73.0324 175.1 72.7606 174.976C72.4888 174.853 72.1565 174.791 71.7639 174.791H71.1448V173.961H71.7639C72.071 173.961 72.3403 173.905 72.5718 173.795C72.8059 173.684 72.9884 173.528 73.1192 173.326C73.2526 173.125 73.3193 172.889 73.3193 172.617C73.3193 172.355 73.2614 172.127 73.1457 171.933C73.0299 171.74 72.8663 171.589 72.6549 171.48C72.446 171.372 72.1993 171.318 71.9149 171.318C71.6481 171.318 71.3964 171.367 71.1599 171.465C70.9258 171.561 70.7345 171.701 70.586 171.884C70.4375 172.066 70.357 172.285 70.3444 172.541H69.4383C69.4534 172.136 69.5755 171.781 69.8045 171.477C70.0336 171.17 70.3331 170.93 70.703 170.759C71.0755 170.588 71.4845 170.503 71.93 170.503C72.4082 170.503 72.8185 170.599 73.1608 170.793C73.5031 170.985 73.7661 171.237 73.9498 171.552C74.1335 171.867 74.2254 172.206 74.2254 172.571C74.2254 173.007 74.1109 173.378 73.8818 173.685C73.6553 173.992 73.347 174.205 72.9569 174.323V174.384C73.4452 174.464 73.8265 174.672 74.1008 175.006C74.3752 175.339 74.5123 175.75 74.5123 176.241C74.5123 176.661 74.3978 177.039 74.1688 177.374C73.9422 177.706 73.6327 177.968 73.24 178.159C72.8474 178.35 72.4007 178.446 71.8998 178.446Z" fill="#148783"/>
<rect width="36.45" height="28.1875" transform="translate(92.425 160.746)" fill="#E9FCFB"/>
<path d="M99.3004 178.34V177.661L101.852 174.867C102.152 174.54 102.399 174.255 102.592 174.014C102.786 173.769 102.93 173.54 103.023 173.326C103.118 173.11 103.166 172.884 103.166 172.647C103.166 172.375 103.101 172.14 102.97 171.941C102.842 171.742 102.665 171.589 102.441 171.48C102.217 171.372 101.966 171.318 101.686 171.318C101.389 171.318 101.13 171.38 100.909 171.503C100.69 171.624 100.52 171.794 100.399 172.013C100.281 172.232 100.222 172.488 100.222 172.783H99.3306C99.3306 172.33 99.435 171.932 99.6439 171.59C99.8528 171.248 100.137 170.981 100.497 170.789C100.86 170.598 101.266 170.503 101.717 170.503C102.17 170.503 102.571 170.598 102.921 170.789C103.271 170.981 103.545 171.239 103.744 171.563C103.943 171.888 104.042 172.249 104.042 172.647C104.042 172.931 103.991 173.209 103.887 173.481C103.787 173.751 103.611 174.051 103.359 174.384C103.11 174.713 102.764 175.116 102.321 175.592L100.584 177.449V177.51H104.178V178.34H99.3004ZM105.39 176.754V175.984L108.788 170.608H109.346V171.801H108.969L106.402 175.863V175.924H110.977V176.754H105.39ZM109.029 178.34V176.52V176.162V170.608H109.92V178.34H109.029Z" fill="#148783"/>
<rect width="30.375" height="25.8187" transform="translate(131.913 161.506)" fill="#E9FCFB"/>
<path d="M138.788 178.34V177.661L141.34 174.867C141.64 174.54 141.886 174.255 142.08 174.014C142.274 173.769 142.417 173.54 142.51 173.326C142.606 173.11 142.654 172.884 142.654 172.647C142.654 172.375 142.588 172.14 142.458 171.941C142.329 171.742 142.153 171.589 141.929 171.48C141.705 171.372 141.453 171.318 141.174 171.318C140.877 171.318 140.618 171.38 140.396 171.503C140.177 171.624 140.007 171.794 139.887 172.013C139.768 172.232 139.709 172.488 139.709 172.783H138.818C138.818 172.33 138.923 171.932 139.131 171.59C139.34 171.248 139.625 170.981 139.985 170.789C140.347 170.598 140.754 170.503 141.204 170.503C141.657 170.503 142.059 170.598 142.408 170.789C142.758 170.981 143.033 171.239 143.231 171.563C143.43 171.888 143.53 172.249 143.53 172.647C143.53 172.931 143.478 173.209 143.375 173.481C143.274 173.751 143.098 174.051 142.846 174.384C142.597 174.713 142.251 175.116 141.808 175.592L140.072 177.449V177.51H143.666V178.34H138.788ZM147.641 178.446C147.198 178.446 146.799 178.358 146.444 178.182C146.089 178.005 145.805 177.764 145.591 177.457C145.377 177.15 145.26 176.8 145.24 176.407H146.146C146.181 176.757 146.34 177.046 146.622 177.275C146.906 177.502 147.246 177.615 147.641 177.615C147.958 177.615 148.24 177.541 148.487 177.392C148.736 177.244 148.931 177.04 149.072 176.781C149.215 176.519 149.287 176.223 149.287 175.894C149.287 175.556 149.213 175.256 149.064 174.991C148.918 174.725 148.717 174.514 148.46 174.361C148.204 174.207 147.91 174.129 147.581 174.127C147.344 174.124 147.101 174.161 146.852 174.236C146.603 174.309 146.398 174.404 146.237 174.519L145.361 174.414L145.829 170.608H149.846V171.439H146.614L146.342 173.719H146.388C146.546 173.593 146.745 173.489 146.984 173.406C147.223 173.323 147.472 173.281 147.732 173.281C148.205 173.281 148.626 173.394 148.996 173.621C149.369 173.845 149.661 174.152 149.872 174.542C150.086 174.932 150.193 175.378 150.193 175.879C150.193 176.372 150.082 176.812 149.861 177.2C149.642 177.585 149.34 177.89 148.955 178.114C148.57 178.335 148.132 178.446 147.641 178.446Z" fill="#148783"/>
<rect x="132.292" y="161.885" width="29.6156" height="25.0594" rx="2.65781" stroke="#148783" stroke-width="0.759375"/>
<path d="M172.201 178.34V177.661L174.753 174.867C175.052 174.54 175.299 174.255 175.493 174.014C175.686 173.769 175.83 173.54 175.923 173.326C176.019 173.11 176.066 172.884 176.066 172.647C176.066 172.375 176.001 172.14 175.87 171.941C175.742 171.742 175.566 171.589 175.342 171.48C175.118 171.372 174.866 171.318 174.587 171.318C174.29 171.318 174.03 171.38 173.809 171.503C173.59 171.624 173.42 171.794 173.299 172.013C173.181 172.232 173.122 172.488 173.122 172.783H172.231C172.231 172.33 172.335 171.932 172.544 171.59C172.753 171.248 173.037 170.981 173.397 170.789C173.76 170.598 174.166 170.503 174.617 170.503C175.07 170.503 175.471 170.598 175.821 170.789C176.171 170.981 176.445 171.239 176.644 171.563C176.843 171.888 176.942 172.249 176.942 172.647C176.942 172.931 176.891 173.209 176.788 173.481C176.687 173.751 176.511 174.051 176.259 174.384C176.01 174.713 175.664 175.116 175.221 175.592L173.484 177.449V177.51H177.078V178.34H172.201ZM181.205 178.446C180.887 178.441 180.57 178.38 180.253 178.265C179.936 178.149 179.647 177.954 179.385 177.679C179.123 177.403 178.913 177.029 178.754 176.558C178.596 176.085 178.517 175.491 178.517 174.776C178.517 174.092 178.581 173.485 178.709 172.957C178.837 172.425 179.024 171.979 179.268 171.616C179.512 171.251 179.806 170.974 180.151 170.786C180.499 170.597 180.89 170.503 181.325 170.503C181.758 170.503 182.143 170.589 182.481 170.763C182.82 170.934 183.097 171.173 183.311 171.48C183.525 171.787 183.664 172.141 183.727 172.541H182.805C182.72 172.194 182.554 171.906 182.307 171.677C182.06 171.448 181.733 171.333 181.325 171.333C180.726 171.333 180.254 171.594 179.91 172.115C179.567 172.636 179.395 173.367 179.392 174.308H179.453C179.594 174.094 179.761 173.912 179.955 173.761C180.151 173.607 180.368 173.489 180.604 173.406C180.841 173.323 181.091 173.281 181.356 173.281C181.799 173.281 182.204 173.392 182.571 173.613C182.939 173.832 183.233 174.136 183.455 174.523C183.676 174.908 183.787 175.35 183.787 175.848C183.787 176.327 183.68 176.765 183.466 177.162C183.252 177.557 182.951 177.872 182.564 178.106C182.179 178.338 181.726 178.451 181.205 178.446ZM181.205 177.615C181.522 177.615 181.806 177.536 182.058 177.377C182.312 177.219 182.512 177.006 182.658 176.739C182.807 176.473 182.881 176.176 182.881 175.848C182.881 175.529 182.809 175.238 182.666 174.976C182.525 174.712 182.33 174.502 182.08 174.346C181.834 174.19 181.552 174.112 181.235 174.112C180.996 174.112 180.773 174.16 180.567 174.255C180.36 174.348 180.179 174.477 180.023 174.64C179.869 174.804 179.749 174.991 179.661 175.203C179.572 175.412 179.528 175.632 179.528 175.863C179.528 176.171 179.6 176.457 179.744 176.724C179.89 176.991 180.088 177.206 180.34 177.37C180.594 177.533 180.882 177.615 181.205 177.615Z" fill="#0A3435"/>
<path d="M208.65 178.34V177.661L211.203 174.867C211.502 174.54 211.749 174.255 211.943 174.014C212.136 173.769 212.28 173.54 212.373 173.326C212.469 173.11 212.516 172.884 212.516 172.647C212.516 172.375 212.451 172.14 212.32 171.941C212.192 171.742 212.016 171.589 211.792 171.48C211.568 171.372 211.316 171.318 211.036 171.318C210.739 171.318 210.48 171.38 210.259 171.503C210.04 171.624 209.87 171.794 209.749 172.013C209.631 172.232 209.572 172.488 209.572 172.783H208.681C208.681 172.33 208.785 171.932 208.994 171.59C209.203 171.248 209.487 170.981 209.847 170.789C210.21 170.598 210.616 170.503 211.067 170.503C211.52 170.503 211.921 170.598 212.271 170.789C212.621 170.981 212.895 171.239 213.094 171.563C213.293 171.888 213.392 172.249 213.392 172.647C213.392 172.931 213.341 173.209 213.237 173.481C213.137 173.751 212.961 174.051 212.709 174.384C212.46 174.713 212.114 175.116 211.671 175.592L209.934 177.449V177.51H213.528V178.34H208.65ZM215.329 178.34L218.787 171.499V171.439H214.8V170.608H219.754V171.484L216.311 178.34H215.329Z" fill="#808181"/>
<path d="M245.1 178.34V177.661L247.653 174.867C247.952 174.54 248.199 174.255 248.392 174.014C248.586 173.769 248.73 173.54 248.823 173.326C248.919 173.11 248.966 172.884 248.966 172.647C248.966 172.375 248.901 172.14 248.77 171.941C248.642 171.742 248.465 171.589 248.241 171.48C248.017 171.372 247.766 171.318 247.486 171.318C247.189 171.318 246.93 171.38 246.709 171.503C246.49 171.624 246.32 171.794 246.199 172.013C246.081 172.232 246.022 172.488 246.022 172.783H245.131C245.131 172.33 245.235 171.932 245.444 171.59C245.653 171.248 245.937 170.981 246.297 170.789C246.66 170.598 247.066 170.503 247.517 170.503C247.97 170.503 248.371 170.598 248.721 170.789C249.071 170.981 249.345 171.239 249.544 171.563C249.743 171.888 249.842 172.249 249.842 172.647C249.842 172.931 249.791 173.209 249.687 173.481C249.587 173.751 249.411 174.051 249.159 174.384C248.91 174.713 248.564 175.116 248.121 175.592L246.384 177.449V177.51H249.978V178.34H245.1ZM254.014 178.446C253.495 178.446 253.037 178.354 252.64 178.17C252.245 177.984 251.936 177.728 251.715 177.404C251.493 177.077 251.384 176.704 251.386 176.286C251.384 175.959 251.448 175.657 251.579 175.38C251.71 175.101 251.888 174.868 252.115 174.682C252.344 174.493 252.599 174.374 252.881 174.323V174.278C252.511 174.182 252.217 173.975 251.998 173.655C251.779 173.333 251.671 172.967 251.673 172.556C251.671 172.164 251.77 171.813 251.971 171.503C252.173 171.193 252.45 170.949 252.802 170.771C253.157 170.592 253.561 170.503 254.014 170.503C254.462 170.503 254.862 170.592 255.214 170.771C255.567 170.949 255.844 171.193 256.045 171.503C256.249 171.813 256.352 172.164 256.355 172.556C256.352 172.967 256.24 173.333 256.019 173.655C255.8 173.975 255.509 174.182 255.146 174.278V174.323C255.426 174.374 255.678 174.493 255.902 174.682C256.126 174.868 256.304 175.101 256.438 175.38C256.571 175.657 256.639 175.959 256.642 176.286C256.639 176.704 256.526 177.077 256.302 177.404C256.08 177.728 255.772 177.984 255.377 178.17C254.984 178.354 254.53 178.446 254.014 178.446ZM254.014 177.615C254.364 177.615 254.666 177.559 254.92 177.445C255.174 177.332 255.37 177.172 255.509 176.966C255.647 176.759 255.718 176.518 255.72 176.241C255.718 175.949 255.642 175.691 255.494 175.467C255.345 175.243 255.143 175.067 254.886 174.939C254.632 174.81 254.341 174.746 254.014 174.746C253.684 174.746 253.39 174.81 253.13 174.939C252.874 175.067 252.671 175.243 252.523 175.467C252.377 175.691 252.305 175.949 252.307 176.241C252.305 176.518 252.372 176.759 252.508 176.966C252.646 177.172 252.844 177.332 253.1 177.445C253.357 177.559 253.662 177.615 254.014 177.615ZM254.014 173.946C254.291 173.946 254.536 173.89 254.75 173.78C254.967 173.669 255.136 173.514 255.26 173.315C255.383 173.116 255.446 172.884 255.449 172.617C255.446 172.355 255.384 172.127 255.264 171.933C255.143 171.737 254.975 171.586 254.761 171.48C254.547 171.372 254.298 171.318 254.014 171.318C253.724 171.318 253.472 171.372 253.255 171.48C253.039 171.586 252.871 171.737 252.753 171.933C252.635 172.127 252.577 172.355 252.579 172.617C252.577 172.884 252.636 173.116 252.757 173.315C252.88 173.514 253.05 173.669 253.266 173.78C253.483 173.89 253.732 173.946 254.014 173.946Z" fill="#808181"/>
<path d="M26.4005 206.528V205.848L28.9526 203.054C29.2521 202.727 29.4987 202.443 29.6925 202.201C29.8863 201.957 30.0298 201.728 30.1229 201.514C30.2186 201.298 30.2664 201.071 30.2664 200.834C30.2664 200.563 30.2009 200.327 30.0701 200.128C29.9417 199.93 29.7655 199.776 29.5415 199.668C29.3175 199.56 29.0658 199.506 28.7865 199.506C28.4895 199.506 28.2302 199.567 28.0087 199.691C27.7898 199.811 27.6199 199.981 27.4991 200.2C27.3808 200.419 27.3216 200.676 27.3216 200.97H26.4307C26.4307 200.517 26.5351 200.12 26.744 199.777C26.9529 199.435 27.2373 199.168 27.5972 198.977C27.9597 198.786 28.3661 198.69 28.8167 198.69C29.2697 198.69 29.6711 198.786 30.021 198.977C30.3708 199.168 30.6452 199.426 30.844 199.751C31.0428 200.076 31.1422 200.437 31.1422 200.834C31.1422 201.119 31.0906 201.397 30.9875 201.669C30.8868 201.938 30.7106 202.239 30.4589 202.571C30.2097 202.901 29.8637 203.303 29.4207 203.779L27.6841 205.637V205.697H31.2782V206.528H26.4005ZM35.2988 198.69C35.616 198.693 35.9331 198.753 36.2502 198.871C36.5673 198.99 36.8568 199.186 37.1185 199.46C37.3803 199.732 37.5905 200.103 37.749 200.574C37.9076 201.045 37.9869 201.635 37.9869 202.345C37.9869 203.032 37.9214 203.642 37.7905 204.176C37.6622 204.707 37.4759 205.155 37.2318 205.52C36.9902 205.885 36.6957 206.161 36.3484 206.35C36.0036 206.539 35.6135 206.633 35.178 206.633C34.7451 206.633 34.3588 206.548 34.019 206.377C33.6818 206.203 33.4049 205.963 33.1885 205.655C32.9745 205.346 32.8374 204.987 32.7769 204.58H33.6981C33.7812 204.934 33.946 205.228 34.1927 205.459C34.4419 205.688 34.7703 205.803 35.178 205.803C35.7745 205.803 36.2452 205.542 36.59 205.021C36.9373 204.5 37.111 203.764 37.111 202.813H37.0506C36.9096 203.024 36.7423 203.207 36.5485 203.36C36.3547 203.514 36.1395 203.632 35.9029 203.715C35.6663 203.798 35.4146 203.84 35.1478 203.84C34.7049 203.84 34.2984 203.73 33.9284 203.511C33.561 203.29 33.2665 202.986 33.045 202.601C32.826 202.214 32.7165 201.771 32.7165 201.272C32.7165 200.799 32.8222 200.366 33.0337 199.974C33.2476 199.579 33.5471 199.264 33.9322 199.03C34.3198 198.796 34.7753 198.683 35.2988 198.69ZM35.2988 199.521C34.9817 199.521 34.6961 199.6 34.4419 199.758C34.1902 199.915 33.9901 200.126 33.8416 200.393C33.6956 200.657 33.6226 200.95 33.6226 201.272C33.6226 201.595 33.6931 201.888 33.834 202.152C33.9775 202.414 34.1725 202.623 34.4192 202.779C34.6684 202.932 34.9515 203.009 35.2686 203.009C35.5077 203.009 35.7305 202.962 35.9369 202.869C36.1433 202.774 36.3232 202.644 36.4767 202.48C36.6328 202.314 36.7549 202.127 36.8429 201.918C36.931 201.707 36.9751 201.486 36.9751 201.257C36.9751 200.955 36.9021 200.672 36.7561 200.408C36.6127 200.144 36.4138 199.93 36.1596 199.766C35.9079 199.602 35.621 199.521 35.2988 199.521Z" fill="#0A3435"/>
<path d="M65.4629 206.633C64.9646 206.633 64.5204 206.548 64.1302 206.377C63.7426 206.205 63.4343 205.968 63.2053 205.663C62.9788 205.356 62.8554 205 62.8353 204.595H63.7867C63.8068 204.844 63.8924 205.059 64.0434 205.24C64.1944 205.419 64.392 205.557 64.6361 205.655C64.8803 205.754 65.1508 205.803 65.4478 205.803C65.78 205.803 66.0745 205.745 66.3312 205.629C66.588 205.513 66.7893 205.352 66.9353 205.146C67.0813 204.939 67.1543 204.7 67.1543 204.429C67.1543 204.144 67.0838 203.894 66.9428 203.677C66.8019 203.458 66.5955 203.287 66.3237 203.164C66.0519 203.04 65.7196 202.979 65.327 202.979H64.7079V202.148H65.327C65.6341 202.148 65.9034 202.093 66.1349 201.982C66.369 201.871 66.5515 201.715 66.6823 201.514C66.8157 201.313 66.8824 201.076 66.8824 200.804C66.8824 200.542 66.8245 200.315 66.7088 200.121C66.593 199.927 66.4294 199.776 66.218 199.668C66.0091 199.56 65.7624 199.506 65.478 199.506C65.2112 199.506 64.9595 199.555 64.723 199.653C64.4889 199.748 64.2976 199.888 64.1491 200.072C64.0006 200.253 63.9201 200.472 63.9075 200.729H63.0014C63.0165 200.324 63.1386 199.969 63.3676 199.664C63.5967 199.357 63.8962 199.118 64.2662 198.947C64.6386 198.776 65.0476 198.69 65.4931 198.69C65.9713 198.69 66.3816 198.787 66.7239 198.981C67.0662 199.172 67.3292 199.425 67.5129 199.74C67.6966 200.054 67.7885 200.394 67.7885 200.759C67.7885 201.194 67.674 201.566 67.445 201.873C67.2184 202.18 66.9101 202.392 66.52 202.511V202.571C67.0083 202.652 67.3896 202.859 67.6639 203.194C67.9383 203.526 68.0754 203.938 68.0754 204.429C68.0754 204.849 67.9609 205.226 67.7319 205.561C67.5054 205.893 67.1958 206.155 66.8032 206.346C66.4105 206.538 65.9638 206.633 65.4629 206.633ZM72.1414 206.633C71.5726 206.633 71.0881 206.479 70.6879 206.169C70.2878 205.857 69.982 205.405 69.7705 204.814C69.5591 204.22 69.4534 203.502 69.4534 202.662C69.4534 201.826 69.5591 201.113 69.7705 200.521C69.9845 199.927 70.2915 199.474 70.6917 199.162C71.0944 198.847 71.5777 198.69 72.1414 198.69C72.7052 198.69 73.1872 198.847 73.5874 199.162C73.9901 199.474 74.2971 199.927 74.5085 200.521C74.7225 201.113 74.8294 201.826 74.8294 202.662C74.8294 203.502 74.7237 204.22 74.5123 204.814C74.3009 205.405 73.9951 205.857 73.5949 206.169C73.1947 206.479 72.7102 206.633 72.1414 206.633ZM72.1414 205.803C72.7052 205.803 73.1431 205.531 73.4552 204.987C73.7673 204.444 73.9234 203.668 73.9234 202.662C73.9234 201.992 73.8516 201.422 73.7082 200.951C73.5672 200.481 73.3634 200.122 73.0966 199.876C72.8323 199.629 72.5139 199.506 72.1414 199.506C71.5827 199.506 71.146 199.781 70.8314 200.332C70.5168 200.881 70.3595 201.657 70.3595 202.662C70.3595 203.331 70.43 203.9 70.5709 204.368C70.7118 204.836 70.9145 205.192 71.1787 205.437C71.4455 205.681 71.7664 205.803 72.1414 205.803Z" fill="#0A3435"/>
<path d="M101.913 206.633C101.415 206.633 100.97 206.548 100.58 206.377C100.193 206.205 99.8843 205.968 99.6552 205.663C99.4287 205.356 99.3054 205 99.2853 204.595H100.237C100.257 204.844 100.342 205.059 100.493 205.24C100.644 205.419 100.842 205.557 101.086 205.655C101.33 205.754 101.601 205.803 101.898 205.803C102.23 205.803 102.524 205.745 102.781 205.629C103.038 205.513 103.239 205.352 103.385 205.146C103.531 204.939 103.604 204.7 103.604 204.429C103.604 204.144 103.534 203.894 103.393 203.677C103.252 203.458 103.045 203.287 102.774 203.164C102.502 203.04 102.17 202.979 101.777 202.979H101.158V202.148H101.777C102.084 202.148 102.353 202.093 102.585 201.982C102.819 201.871 103.001 201.715 103.132 201.514C103.266 201.313 103.332 201.076 103.332 200.804C103.332 200.542 103.274 200.315 103.159 200.121C103.043 199.927 102.879 199.776 102.668 199.668C102.459 199.56 102.212 199.506 101.928 199.506C101.661 199.506 101.409 199.555 101.173 199.653C100.939 199.748 100.748 199.888 100.599 200.072C100.451 200.253 100.37 200.472 100.357 200.729H99.4514C99.4665 200.324 99.5885 199.969 99.8176 199.664C100.047 199.357 100.346 199.118 100.716 198.947C101.089 198.776 101.498 198.69 101.943 198.69C102.421 198.69 102.832 198.787 103.174 198.981C103.516 199.172 103.779 199.425 103.963 199.74C104.147 200.054 104.238 200.394 104.238 200.759C104.238 201.194 104.124 201.566 103.895 201.873C103.668 202.18 103.36 202.392 102.97 202.511V202.571C103.458 202.652 103.84 202.859 104.114 203.194C104.388 203.526 104.525 203.938 104.525 204.429C104.525 204.849 104.411 205.226 104.182 205.561C103.955 205.893 103.646 206.155 103.253 206.346C102.86 206.538 102.414 206.633 101.913 206.633ZM108.788 198.796V206.528H107.851V199.777H107.806L105.918 201.031V200.079L107.851 198.796H108.788Z" fill="#0A3435"/>
<rect x="19.9048" y="223.576" width="99.4781" height="24.3156" rx="4.17656" fill="white"/>
<path d="M31.9049 232.054V239.234H31.0356V232.966H30.9935L29.2407 234.129V233.246L31.0356 232.054H31.9049ZM36.3536 239.332C36.0591 239.327 35.7647 239.271 35.4702 239.164C35.1757 239.056 34.9069 238.875 34.6639 238.62C34.4208 238.363 34.2257 238.016 34.0784 237.579C33.9312 237.14 33.8576 236.588 33.8576 235.924C33.8576 235.289 33.9172 234.725 34.0364 234.235C34.1556 233.741 34.3285 233.327 34.5552 232.99C34.7819 232.651 35.0553 232.394 35.3755 232.219C35.698 232.044 36.0615 231.956 36.4658 231.956C36.8678 231.956 37.2253 232.037 37.5385 232.198C37.854 232.357 38.1111 232.579 38.3097 232.864C38.5084 233.149 38.6369 233.477 38.6954 233.849H37.84C37.7605 233.526 37.6063 233.259 37.3772 233.046C37.1482 232.834 36.8444 232.727 36.4658 232.727C35.9096 232.727 35.4714 232.969 35.1512 233.453C34.8333 233.937 34.6732 234.616 34.6709 235.49H34.727C34.8579 235.291 35.0133 235.122 35.1932 234.981C35.3755 234.839 35.5765 234.729 35.7962 234.652C36.0159 234.575 36.2484 234.536 36.4938 234.536C36.9052 234.536 37.2814 234.639 37.6226 234.845C37.9639 235.048 38.2373 235.33 38.443 235.689C38.6486 236.047 38.7515 236.457 38.7515 236.92C38.7515 237.364 38.6521 237.771 38.4535 238.14C38.2548 238.507 37.9755 238.799 37.6156 239.016C37.2581 239.231 36.8374 239.336 36.3536 239.332ZM36.3536 238.561C36.6481 238.561 36.9122 238.487 37.1459 238.34C37.3819 238.192 37.5677 237.995 37.7033 237.747C37.8412 237.5 37.9101 237.224 37.9101 236.92C37.9101 236.623 37.8435 236.353 37.7103 236.11C37.5794 235.865 37.3983 235.67 37.1669 235.525C36.9379 235.38 36.6761 235.307 36.3816 235.307C36.1596 235.307 35.9528 235.352 35.7612 235.441C35.5695 235.527 35.4012 235.646 35.2563 235.798C35.1138 235.95 35.0016 236.124 34.9198 236.32C34.838 236.514 34.7971 236.719 34.7971 236.934C34.7971 237.219 34.8637 237.485 34.9969 237.733C35.1325 237.981 35.3171 238.181 35.5508 238.333C35.7869 238.485 36.0545 238.561 36.3536 238.561ZM40.4096 239.29C40.2367 239.29 40.0883 239.228 39.9644 239.104C39.8405 238.98 39.7786 238.832 39.7786 238.659C39.7786 238.486 39.8405 238.337 39.9644 238.214C40.0883 238.09 40.2367 238.028 40.4096 238.028C40.5826 238.028 40.731 238.09 40.8548 238.214C40.9787 238.337 41.0406 238.486 41.0406 238.659C41.0406 238.773 41.0114 238.878 40.953 238.974C40.8969 239.07 40.821 239.147 40.7251 239.206C40.6316 239.262 40.5265 239.29 40.4096 239.29ZM44.6024 239.332C44.0742 239.332 43.6243 239.188 43.2527 238.901C42.8811 238.611 42.5971 238.191 42.4008 237.642C42.2045 237.091 42.1064 236.424 42.1064 235.644C42.1064 234.868 42.2045 234.205 42.4008 233.656C42.5995 233.105 42.8846 232.684 43.2562 232.394C43.6301 232.102 44.0789 231.956 44.6024 231.956C45.1259 231.956 45.5734 232.102 45.945 232.394C46.319 232.684 46.6041 233.105 46.8004 233.656C46.9991 234.205 47.0984 234.868 47.0984 235.644C47.0984 236.424 47.0002 237.091 46.8039 237.642C46.6076 238.191 46.3236 238.611 45.952 238.901C45.5804 239.188 45.1306 239.332 44.6024 239.332ZM44.6024 238.561C45.1259 238.561 45.5325 238.308 45.8223 237.803C46.1121 237.299 46.257 236.579 46.257 235.644C46.257 235.022 46.1904 234.493 46.0572 234.056C45.9263 233.619 45.737 233.286 45.4893 233.057C45.2439 232.828 44.9483 232.713 44.6024 232.713C44.0835 232.713 43.678 232.969 43.3859 233.481C43.0938 233.99 42.9477 234.711 42.9477 235.644C42.9477 236.266 43.0131 236.794 43.144 237.228C43.2749 237.663 43.463 237.994 43.7084 238.221C43.9562 238.447 44.2541 238.561 44.6024 238.561ZM50.8144 239.332C50.5199 239.327 50.2254 239.271 49.9309 239.164C49.6365 239.056 49.3677 238.875 49.1246 238.62C48.8816 238.363 48.6864 238.016 48.5392 237.579C48.392 237.14 48.3183 236.588 48.3183 235.924C48.3183 235.289 48.3779 234.725 48.4971 234.235C48.6163 233.741 48.7893 233.327 49.016 232.99C49.2427 232.651 49.5161 232.394 49.8363 232.219C50.1588 232.044 50.5222 231.956 50.9265 231.956C51.3285 231.956 51.6861 232.037 51.9993 232.198C52.3148 232.357 52.5718 232.579 52.7705 232.864C52.9692 233.149 53.0977 233.477 53.1561 233.849H52.3007C52.2213 233.526 52.067 233.259 51.838 233.046C51.609 232.834 51.3051 232.727 50.9265 232.727C50.3703 232.727 49.9321 232.969 49.6119 233.453C49.2941 233.937 49.134 234.616 49.1317 235.49H49.1877C49.3186 235.291 49.474 235.122 49.654 234.981C49.8363 234.839 50.0373 234.729 50.257 234.652C50.4766 234.575 50.7092 234.536 50.9546 234.536C51.3659 234.536 51.7422 234.639 52.0834 234.845C52.4246 235.048 52.6981 235.33 52.9037 235.689C53.1094 236.047 53.2122 236.457 53.2122 236.92C53.2122 237.364 53.1129 237.771 52.9142 238.14C52.7156 238.507 52.4363 238.799 52.0764 239.016C51.7188 239.231 51.2981 239.336 50.8144 239.332ZM50.8144 238.561C51.1088 238.561 51.3729 238.487 51.6066 238.34C51.8427 238.192 52.0285 237.995 52.164 237.747C52.3019 237.5 52.3709 237.224 52.3709 236.92C52.3709 236.623 52.3043 236.353 52.171 236.11C52.0402 235.865 51.859 235.67 51.6277 235.525C51.3986 235.38 51.1369 235.307 50.8424 235.307C50.6204 235.307 50.4135 235.352 50.2219 235.441C50.0303 235.527 49.862 235.646 49.7171 235.798C49.5745 235.95 49.4623 236.124 49.3806 236.32C49.2988 236.514 49.2579 236.719 49.2579 236.934C49.2579 237.219 49.3245 237.485 49.4577 237.733C49.5932 237.981 49.7779 238.181 50.0116 238.333C50.2476 238.485 50.5152 238.561 50.8144 238.561ZM54.8704 239.29C54.6974 239.29 54.549 239.228 54.4252 239.104C54.3013 238.98 54.2394 238.832 54.2394 238.659C54.2394 238.486 54.3013 238.337 54.4252 238.214C54.549 238.09 54.6974 238.028 54.8704 238.028C55.0433 238.028 55.1917 238.09 55.3156 238.214C55.4395 238.337 55.5014 238.486 55.5014 238.659C55.5014 238.773 55.4722 238.878 55.4138 238.974C55.3577 239.07 55.2817 239.147 55.1859 239.206C55.0924 239.262 54.9872 239.29 54.8704 239.29ZM56.972 239.234V238.603L59.3418 236.008C59.6199 235.705 59.849 235.441 60.0289 235.216C60.2089 234.989 60.3421 234.777 60.4286 234.578C60.5174 234.377 60.5618 234.167 60.5618 233.947C60.5618 233.695 60.501 233.476 60.3795 233.292C60.2603 233.107 60.0967 232.964 59.8887 232.864C59.6807 232.763 59.447 232.713 59.1876 232.713C58.9118 232.713 58.6711 232.77 58.4654 232.885C58.2621 232.997 58.1043 233.155 57.9921 233.358C57.8823 233.562 57.8274 233.8 57.8274 234.073H57.0001C57.0001 233.653 57.097 233.283 57.291 232.966C57.485 232.648 57.7491 232.4 58.0833 232.222C58.4198 232.045 58.7973 231.956 59.2156 231.956C59.6363 231.956 60.0091 232.045 60.3339 232.222C60.6588 232.4 60.9135 232.64 61.0981 232.941C61.2828 233.243 61.3751 233.578 61.3751 233.947C61.3751 234.211 61.3272 234.469 61.2314 234.722C61.1379 234.972 60.9743 235.251 60.7406 235.56C60.5092 235.866 60.1878 236.24 59.7765 236.682L58.1639 238.406V238.462H61.5013V239.234H56.972ZM65.2909 239.332C64.7627 239.332 64.3128 239.188 63.9412 238.901C63.5696 238.611 63.2857 238.191 63.0893 237.642C62.893 237.091 62.7949 236.424 62.7949 235.644C62.7949 234.868 62.893 234.205 63.0893 233.656C63.288 233.105 63.5731 232.684 63.9447 232.394C64.3187 232.102 64.7674 231.956 65.2909 231.956C65.8144 231.956 66.2619 232.102 66.6335 232.394C67.0075 232.684 67.2926 233.105 67.4889 233.656C67.6876 234.205 67.7869 234.868 67.7869 235.644C67.7869 236.424 67.6887 237.091 67.4924 237.642C67.2961 238.191 67.0122 238.611 66.6406 238.901C66.269 239.188 65.8191 239.332 65.2909 239.332ZM65.2909 238.561C65.8144 238.561 66.221 238.308 66.5108 237.803C66.8006 237.299 66.9455 236.579 66.9455 235.644C66.9455 235.022 66.8789 234.493 66.7457 234.056C66.6148 233.619 66.4255 233.286 66.1778 233.057C65.9324 232.828 65.6368 232.713 65.2909 232.713C64.7721 232.713 64.3666 232.969 64.0744 233.481C63.7823 233.99 63.6362 234.711 63.6362 235.644C63.6362 236.266 63.7017 236.794 63.8325 237.228C63.9634 237.663 64.1516 237.994 64.3969 238.221C64.6447 238.447 64.9427 238.561 65.2909 238.561ZM69.119 239.234V238.603L71.4889 236.008C71.767 235.705 71.996 235.441 72.176 235.216C72.3559 234.989 72.4891 234.777 72.5756 234.578C72.6644 234.377 72.7088 234.167 72.7088 233.947C72.7088 233.695 72.6481 233.476 72.5265 233.292C72.4073 233.107 72.2437 232.964 72.0357 232.864C71.8277 232.763 71.594 232.713 71.3346 232.713C71.0588 232.713 70.8181 232.77 70.6124 232.885C70.4091 232.997 70.2514 233.155 70.1392 233.358C70.0293 233.562 69.9744 233.8 69.9744 234.073H69.1471C69.1471 233.653 69.2441 233.283 69.4381 232.966C69.632 232.648 69.8961 232.4 70.2303 232.222C70.5669 232.045 70.9443 231.956 71.3626 231.956C71.7833 231.956 72.1561 232.045 72.4809 232.222C72.8058 232.4 73.0605 232.64 73.2452 232.941C73.4298 233.243 73.5221 233.578 73.5221 233.947C73.5221 234.211 73.4742 234.469 73.3784 234.722C73.2849 234.972 73.1213 235.251 72.8876 235.56C72.6562 235.866 72.3349 236.24 71.9236 236.682L70.311 238.406V238.462H73.6483V239.234H69.119ZM75.0962 239.234V238.603L77.466 236.008C77.7441 235.705 77.9731 235.441 78.1531 235.216C78.333 234.989 78.4662 234.777 78.5527 234.578C78.6415 234.377 78.6859 234.167 78.6859 233.947C78.6859 233.695 78.6252 233.476 78.5036 233.292C78.3844 233.107 78.2208 232.964 78.0128 232.864C77.8048 232.763 77.5711 232.713 77.3117 232.713C77.0359 232.713 76.7952 232.77 76.5896 232.885C76.3862 232.997 76.2285 233.155 76.1163 233.358C76.0065 233.562 75.9515 233.8 75.9515 234.073H75.1242C75.1242 233.653 75.2212 233.283 75.4152 232.966C75.6091 232.648 75.8732 232.4 76.2074 232.222C76.544 232.045 76.9214 231.956 77.3398 231.956C77.7604 231.956 78.1332 232.045 78.4581 232.222C78.7829 232.4 79.0377 232.64 79.2223 232.941C79.4069 233.243 79.4992 233.578 79.4992 233.947C79.4992 234.211 79.4513 234.469 79.3555 234.722C79.262 234.972 79.0984 235.251 78.8647 235.56C78.6333 235.866 78.312 236.24 77.9007 236.682L76.2881 238.406V238.462H79.6254V239.234H75.0962Z" fill="#8A8AA8"/>
<rect x="19.9048" y="223.576" width="99.4781" height="24.3156" rx="4.17656" stroke="#DFDEED" stroke-width="0.759375"/>
<line x1="125.838" y1="235.354" x2="136.469" y2="235.354" stroke="#DFDEED" stroke-width="0.759375" stroke-dasharray="1.52 1.52"/>
<g clip-path="url(#clip2_68_6084)">
<path fill-rule="evenodd" clip-rule="evenodd" d="M149.179 233.202C149.179 232.993 149.349 232.823 149.559 232.823C149.786 232.823 150.007 232.847 150.219 232.894C151.542 233.186 152.542 234.339 152.542 235.732C152.542 237.35 151.196 238.642 149.559 238.642H148.691C147.049 238.642 145.708 237.202 145.708 235.732C145.708 235.523 145.878 235.353 146.088 235.353C146.297 235.353 146.467 235.523 146.467 235.732C146.467 236.786 147.472 237.883 148.691 237.883H149.559C150.798 237.883 151.783 236.91 151.783 235.732C151.783 234.718 151.052 233.856 150.056 233.636C149.896 233.601 149.73 233.582 149.559 233.582C149.349 233.582 149.179 233.412 149.179 233.202ZM145.509 232.823C147.151 232.823 148.492 234.263 148.492 235.732C148.492 235.942 148.322 236.112 148.113 236.112C147.903 236.112 147.733 235.942 147.733 235.732C147.733 234.679 146.728 233.582 145.509 233.582L144.641 233.582C143.403 233.582 142.417 234.555 142.417 235.732C142.417 236.747 143.148 237.609 144.144 237.829C144.304 237.864 144.47 237.883 144.641 237.883C144.851 237.883 145.021 238.053 145.021 238.263C145.021 238.472 144.851 238.642 144.641 238.642C144.415 238.642 144.194 238.618 143.981 238.571C142.658 238.279 141.658 237.126 141.658 235.732C141.658 234.115 143.004 232.823 144.641 232.823L145.509 232.823Z" fill="#8A8AA8"/>
</g>
<rect x="136.848" y="225.482" width="20.5031" height="20.5031" rx="10.2516" stroke="#F0F0F4" stroke-width="0.759375"/>
<line x1="157.731" y1="235.354" x2="168.363" y2="235.354" stroke="#DFDEED" stroke-width="0.759375" stroke-dasharray="1.52 1.52"/>
<rect x="174.817" y="223.576" width="99.4781" height="24.3156" rx="4.17656" fill="white"/>
<path d="M184.293 239.234V238.603L186.663 236.008C186.941 235.705 187.17 235.441 187.35 235.216C187.53 234.989 187.663 234.777 187.75 234.578C187.839 234.377 187.883 234.167 187.883 233.947C187.883 233.695 187.822 233.476 187.701 233.292C187.582 233.107 187.418 232.964 187.21 232.864C187.002 232.763 186.768 232.713 186.509 232.713C186.233 232.713 185.992 232.77 185.787 232.885C185.583 232.997 185.426 233.155 185.313 233.358C185.204 233.562 185.149 233.8 185.149 234.073H184.321C184.321 233.653 184.418 233.283 184.612 232.966C184.806 232.648 185.07 232.4 185.405 232.222C185.741 232.045 186.119 231.956 186.537 231.956C186.958 231.956 187.33 232.045 187.655 232.222C187.98 232.4 188.235 232.64 188.419 232.941C188.604 233.243 188.696 233.578 188.696 233.947C188.696 234.211 188.648 234.469 188.553 234.722C188.459 234.972 188.296 235.251 188.062 235.56C187.83 235.866 187.509 236.24 187.098 236.682L185.485 238.406V238.462H188.823V239.234H184.293ZM192.514 239.332C192.103 239.332 191.732 239.25 191.403 239.086C191.073 238.923 190.809 238.698 190.61 238.413C190.412 238.128 190.303 237.803 190.284 237.439H191.126C191.158 237.764 191.306 238.032 191.567 238.245C191.832 238.455 192.147 238.561 192.514 238.561C192.808 238.561 193.07 238.492 193.299 238.354C193.531 238.216 193.712 238.027 193.843 237.786C193.976 237.543 194.042 237.268 194.042 236.962C194.042 236.649 193.973 236.37 193.836 236.124C193.7 235.876 193.513 235.681 193.275 235.539C193.036 235.396 192.764 235.324 192.458 235.321C192.238 235.319 192.013 235.353 191.781 235.423C191.55 235.491 191.359 235.578 191.21 235.686L190.397 235.588L190.831 232.054H194.561V232.825H191.56L191.308 234.943H191.35C191.497 234.826 191.682 234.729 191.904 234.652C192.126 234.575 192.357 234.536 192.598 234.536C193.037 234.536 193.429 234.641 193.772 234.852C194.118 235.06 194.389 235.345 194.586 235.707C194.784 236.069 194.884 236.483 194.884 236.948C194.884 237.406 194.781 237.815 194.575 238.175C194.372 238.533 194.092 238.815 193.734 239.023C193.376 239.229 192.97 239.332 192.514 239.332ZM196.623 239.29C196.451 239.29 196.302 239.228 196.178 239.104C196.054 238.98 195.992 238.832 195.992 238.659C195.992 238.486 196.054 238.337 196.178 238.214C196.302 238.09 196.451 238.028 196.623 238.028C196.796 238.028 196.945 238.09 197.069 238.214C197.193 238.337 197.254 238.486 197.254 238.659C197.254 238.773 197.225 238.878 197.167 238.974C197.111 239.07 197.035 239.147 196.939 239.206C196.845 239.262 196.74 239.29 196.623 239.29ZM200.816 239.332C200.288 239.332 199.838 239.188 199.467 238.901C199.095 238.611 198.811 238.191 198.615 237.642C198.418 237.091 198.32 236.424 198.32 235.644C198.32 234.868 198.418 234.205 198.615 233.656C198.813 233.105 199.098 232.684 199.47 232.394C199.844 232.102 200.293 231.956 200.816 231.956C201.34 231.956 201.787 232.102 202.159 232.394C202.533 232.684 202.818 233.105 203.014 233.656C203.213 234.205 203.312 234.868 203.312 235.644C203.312 236.424 203.214 237.091 203.018 237.642C202.821 238.191 202.537 238.611 202.166 238.901C201.794 239.188 201.344 239.332 200.816 239.332ZM200.816 238.561C201.34 238.561 201.746 238.308 202.036 237.803C202.326 237.299 202.471 236.579 202.471 235.644C202.471 235.022 202.404 234.493 202.271 234.056C202.14 233.619 201.951 233.286 201.703 233.057C201.458 232.828 201.162 232.713 200.816 232.713C200.297 232.713 199.892 232.969 199.6 233.481C199.308 233.99 199.162 234.711 199.162 235.644C199.162 236.266 199.227 236.794 199.358 237.228C199.489 237.663 199.677 237.994 199.922 238.221C200.17 238.447 200.468 238.561 200.816 238.561ZM207.028 239.332C206.734 239.327 206.439 239.271 206.145 239.164C205.85 239.056 205.582 238.875 205.338 238.62C205.095 238.363 204.9 238.016 204.753 237.579C204.606 237.14 204.532 236.588 204.532 235.924C204.532 235.289 204.592 234.725 204.711 234.235C204.83 233.741 205.003 233.327 205.23 232.99C205.456 232.651 205.73 232.394 206.05 232.219C206.373 232.044 206.736 231.956 207.14 231.956C207.542 231.956 207.9 232.037 208.213 232.198C208.529 232.357 208.786 232.579 208.984 232.864C209.183 233.149 209.312 233.477 209.37 233.849H208.515C208.435 233.526 208.281 233.259 208.052 233.046C207.823 232.834 207.519 232.727 207.14 232.727C206.584 232.727 206.146 232.969 205.826 233.453C205.508 233.937 205.348 234.616 205.345 235.49H205.402C205.532 235.291 205.688 235.122 205.868 234.981C206.05 234.839 206.251 234.729 206.471 234.652C206.69 234.575 206.923 234.536 207.168 234.536C207.58 234.536 207.956 234.639 208.297 234.845C208.638 235.048 208.912 235.33 209.118 235.689C209.323 236.047 209.426 236.457 209.426 236.92C209.426 237.364 209.327 237.771 209.128 238.14C208.929 238.507 208.65 238.799 208.29 239.016C207.933 239.231 207.512 239.336 207.028 239.332ZM207.028 238.561C207.323 238.561 207.587 238.487 207.82 238.34C208.056 238.192 208.242 237.995 208.378 237.747C208.516 237.5 208.585 237.224 208.585 236.92C208.585 236.623 208.518 236.353 208.385 236.11C208.254 235.865 208.073 235.67 207.841 235.525C207.612 235.38 207.351 235.307 207.056 235.307C206.834 235.307 206.627 235.352 206.436 235.441C206.244 235.527 206.076 235.646 205.931 235.798C205.788 235.95 205.676 236.124 205.594 236.32C205.513 236.514 205.472 236.719 205.472 236.934C205.472 237.219 205.538 237.485 205.671 237.733C205.807 237.981 205.992 238.181 206.225 238.333C206.461 238.485 206.729 238.561 207.028 238.561ZM211.084 239.29C210.911 239.29 210.763 239.228 210.639 239.104C210.515 238.98 210.453 238.832 210.453 238.659C210.453 238.486 210.515 238.337 210.639 238.214C210.763 238.09 210.911 238.028 211.084 238.028C211.257 238.028 211.406 238.09 211.529 238.214C211.653 238.337 211.715 238.486 211.715 238.659C211.715 238.773 211.686 238.878 211.628 238.974C211.571 239.07 211.496 239.147 211.4 239.206C211.306 239.262 211.201 239.29 211.084 239.29ZM213.186 239.234V238.603L215.556 236.008C215.834 235.705 216.063 235.441 216.243 235.216C216.423 234.989 216.556 234.777 216.642 234.578C216.731 234.377 216.776 234.167 216.776 233.947C216.776 233.695 216.715 233.476 216.593 233.292C216.474 233.107 216.311 232.964 216.103 232.864C215.895 232.763 215.661 232.713 215.401 232.713C215.126 232.713 214.885 232.77 214.679 232.885C214.476 232.997 214.318 233.155 214.206 233.358C214.096 233.562 214.041 233.8 214.041 234.073H213.214C213.214 233.653 213.311 233.283 213.505 232.966C213.699 232.648 213.963 232.4 214.297 232.222C214.634 232.045 215.011 231.956 215.429 231.956C215.85 231.956 216.223 232.045 216.548 232.222C216.873 232.4 217.127 232.64 217.312 232.941C217.497 233.243 217.589 233.578 217.589 233.947C217.589 234.211 217.541 234.469 217.445 234.722C217.352 234.972 217.188 235.251 216.954 235.56C216.723 235.866 216.402 236.24 215.99 236.682L214.378 238.406V238.462H217.715V239.234H213.186ZM221.505 239.332C220.977 239.332 220.527 239.188 220.155 238.901C219.783 238.611 219.499 238.191 219.303 237.642C219.107 237.091 219.009 236.424 219.009 235.644C219.009 234.868 219.107 234.205 219.303 233.656C219.502 233.105 219.787 232.684 220.159 232.394C220.532 232.102 220.981 231.956 221.505 231.956C222.028 231.956 222.476 232.102 222.847 232.394C223.221 232.684 223.506 233.105 223.703 233.656C223.901 234.205 224.001 234.868 224.001 235.644C224.001 236.424 223.903 237.091 223.706 237.642C223.51 238.191 223.226 238.611 222.854 238.901C222.483 239.188 222.033 239.332 221.505 239.332ZM221.505 238.561C222.028 238.561 222.435 238.308 222.725 237.803C223.014 237.299 223.159 236.579 223.159 235.644C223.159 235.022 223.093 234.493 222.96 234.056C222.829 233.619 222.639 233.286 222.392 233.057C222.146 232.828 221.851 232.713 221.505 232.713C220.986 232.713 220.58 232.969 220.288 233.481C219.996 233.99 219.85 234.711 219.85 235.644C219.85 236.266 219.915 236.794 220.046 237.228C220.177 237.663 220.365 237.994 220.611 238.221C220.859 238.447 221.156 238.561 221.505 238.561ZM225.333 239.234V238.603L227.703 236.008C227.981 235.705 228.21 235.441 228.39 235.216C228.57 234.989 228.703 234.777 228.789 234.578C228.878 234.377 228.923 234.167 228.923 233.947C228.923 233.695 228.862 233.476 228.74 233.292C228.621 233.107 228.458 232.964 228.25 232.864C228.042 232.763 227.808 232.713 227.548 232.713C227.273 232.713 227.032 232.77 226.826 232.885C226.623 232.997 226.465 233.155 226.353 233.358C226.243 233.562 226.188 233.8 226.188 234.073H225.361C225.361 233.653 225.458 233.283 225.652 232.966C225.846 232.648 226.11 232.4 226.444 232.222C226.781 232.045 227.158 231.956 227.576 231.956C227.997 231.956 228.37 232.045 228.695 232.222C229.02 232.4 229.274 232.64 229.459 232.941C229.644 233.243 229.736 233.578 229.736 233.947C229.736 234.211 229.688 234.469 229.592 234.722C229.499 234.972 229.335 235.251 229.101 235.56C228.87 235.866 228.549 236.24 228.137 236.682L226.525 238.406V238.462H229.862V239.234H225.333ZM231.31 239.234V238.603L233.68 236.008C233.958 235.705 234.187 235.441 234.367 235.216C234.547 234.989 234.68 234.777 234.767 234.578C234.855 234.377 234.9 234.167 234.9 233.947C234.9 233.695 234.839 233.476 234.717 233.292C234.598 233.107 234.435 232.964 234.227 232.864C234.019 232.763 233.785 232.713 233.526 232.713C233.25 232.713 233.009 232.77 232.803 232.885C232.6 232.997 232.442 233.155 232.33 233.358C232.22 233.562 232.165 233.8 232.165 234.073H231.338C231.338 233.653 231.435 233.283 231.629 232.966C231.823 232.648 232.087 232.4 232.421 232.222C232.758 232.045 233.135 231.956 233.554 231.956C233.974 231.956 234.347 232.045 234.672 232.222C234.997 232.4 235.251 232.64 235.436 232.941C235.621 233.243 235.713 233.578 235.713 233.947C235.713 234.211 235.665 234.469 235.569 234.722C235.476 234.972 235.312 235.251 235.079 235.56C234.847 235.866 234.526 236.24 234.114 236.682L232.502 238.406V238.462H235.839V239.234H231.31Z" fill="#8A8AA8"/>
<rect x="174.817" y="223.576" width="99.4781" height="24.3156" rx="4.17656" stroke="#DFDEED" stroke-width="0.759375"/>
</g>
</g>
<defs>
<filter id="filter0_d_68_6084" x="0" y="0" width="299" height="276" filterUnits="userSpaceOnUse" color-interpolation-filters="sRGB">
<feFlood flood-opacity="0" result="BackgroundImageFix"/>
<feColorMatrix in="SourceAlpha" type="matrix" values="0 0 0 0 0 0 0 0 0 0 0 0 0 0 0 0 0 0 127 0" result="hardAlpha"/>
<feOffset dx="2.5" dy="2.5"/>
<feGaussianBlur stdDeviation="6.25"/>
<feComposite in2="hardAlpha" operator="out"/>
<feColorMatrix type="matrix" values="0 0 0 0 0.22084 0 0 0 0 0.22084 0 0 0 0 0.983333 0 0 0 0.1 0"/>
<feBlend mode="normal" in2="BackgroundImageFix" result="effect1_dropShadow_68_6084"/>
<feBlend mode="normal" in="SourceGraphic" in2="effect1_dropShadow_68_6084" result="shape"/>
</filter>
<filter id="filter1_d_68_6084" x="4.3376" y="4.62129" width="288.562" height="264.913" filterUnits="userSpaceOnUse" color-interpolation-filters="sRGB">
<feFlood flood-opacity="0" result="BackgroundImageFix"/>
<feColorMatrix in="SourceAlpha" type="matrix" values="0 0 0 0 0 0 0 0 0 0 0 0 0 0 0 0 0 0 127 0" result="hardAlpha"/>
<feOffset dx="1.51875" dy="1.51875"/>
<feGaussianBlur stdDeviation="3.79688"/>
<feComposite in2="hardAlpha" operator="out"/>
<feColorMatrix type="matrix" values="0 0 0 0 0.22084 0 0 0 0 0.22084 0 0 0 0 0.983333 0 0 0 0.1 0"/>
<feBlend mode="normal" in2="BackgroundImageFix" result="effect1_dropShadow_68_6084"/>
<feBlend mode="normal" in="SourceGraphic" in2="effect1_dropShadow_68_6084" result="shape"/>
</filter>
<clipPath id="clip0_68_6084">
<rect width="12.15" height="12.15" fill="white" transform="translate(22.5625 22.8462)"/>
</clipPath>
<clipPath id="clip1_68_6084">
<rect width="12.15" height="12.15" fill="white" transform="translate(122.8 22.8462)"/>
</clipPath>
<clipPath id="clip2_68_6084">
<rect width="12.15" height="12.15" fill="white" transform="translate(141.025 229.659)"/>
</clipPath>
</defs>
</svg>
