<svg width="40" height="40" viewBox="0 0 40 40" fill="none" xmlns="http://www.w3.org/2000/svg">
<rect width="40" height="40" rx="6" fill="#FAFAFA"/>
<path fill-rule="evenodd" clip-rule="evenodd" d="M11.875 14.1666C11.875 13.8214 12.1548 13.5416 12.5 13.5416H19.1667C19.5118 13.5416 19.7917 13.8214 19.7917 14.1666C19.7917 14.5118 19.5118 14.7916 19.1667 14.7916H12.5C12.1548 14.7916 11.875 14.5118 11.875 14.1666Z" fill="#262541"/>
<path fill-rule="evenodd" clip-rule="evenodd" d="M11.875 20C11.875 19.6548 12.1548 19.375 12.5 19.375H23.3333C23.6785 19.375 23.9583 19.6548 23.9583 20C23.9583 20.3451 23.6785 20.625 23.3333 20.625H12.5C12.1548 20.625 11.875 20.3451 11.875 20Z" fill="#262541"/>
<path fill-rule="evenodd" clip-rule="evenodd" d="M11.875 25.8333C11.875 25.4881 12.1548 25.2083 12.5 25.2083H27.5C27.8452 25.2083 28.125 25.4881 28.125 25.8333C28.125 26.1785 27.8452 26.4583 27.5 26.4583H12.5C12.1548 26.4583 11.875 26.1785 11.875 25.8333Z" fill="#262541"/>
</svg>
