<svg width="629" height="536" viewBox="0 0 629 536" fill="none" xmlns="http://www.w3.org/2000/svg">
<g opacity="0.12">
<path d="M339.107 326C306.555 343.323 274.302 352.359 248.494 353.002C222.609 353.647 203.56 345.864 196.802 330.029C190.044 314.194 196.63 292.769 213.382 270.724C230.085 248.744 256.685 226.46 289.237 209.137C321.788 191.814 354.042 182.778 379.85 182.135C405.735 181.489 424.784 189.272 431.542 205.108C438.299 220.943 431.714 242.368 414.962 264.413C398.259 286.393 371.659 308.677 339.107 326Z" stroke="white" stroke-width="2"/>
<path d="M369.2 396.516C297.85 434.487 227.104 454.322 170.424 455.735C113.669 457.15 71.3704 440.107 56.303 404.799C41.2355 369.491 56.0234 322.068 92.7555 273.731C129.438 225.459 187.795 176.59 259.144 138.62C330.494 100.65 401.24 80.8144 457.919 79.4014C514.675 77.9865 556.974 95.0299 572.041 130.338C587.108 165.646 572.32 213.069 535.588 261.405C498.906 309.677 440.549 358.546 369.2 396.516Z" stroke="white" stroke-width="2"/>
<path d="M356.256 366.185C301.594 395.275 247.405 410.465 204.004 411.547C160.527 412.631 128.228 399.571 116.735 372.638C105.242 345.706 116.502 309.465 144.64 272.438C172.729 235.475 217.426 198.041 272.088 168.951C326.749 139.862 380.939 124.672 424.34 123.59C467.817 122.506 500.115 135.566 511.608 162.498C523.101 189.431 511.842 225.671 483.703 262.699C455.614 299.662 410.917 337.096 356.256 366.185Z" stroke="white" stroke-width="2"/>
</g>
</svg>
