<svg width="10" height="10" viewBox="0 0 10 10" fill="none" xmlns="http://www.w3.org/2000/svg">
<path fill-rule="evenodd" clip-rule="evenodd" d="M0.189895 0.189161C0.433973 -0.0549161 0.829701 -0.0549157 1.07378 0.189162L5.00069 4.11608L8.92758 0.189164C9.17166 -0.0549151 9.56739 -0.0549167 9.81147 0.18916C10.0555 0.433237 10.0555 0.828965 9.81147 1.07304L5.88458 4.99997L9.81147 8.92686C10.0555 9.17094 10.0555 9.56667 9.81147 9.81074C9.56739 10.0548 9.17166 10.0548 8.92759 9.81074L5.00069 5.88385L1.07378 9.81075C0.829698 10.0548 0.43397 10.0548 0.189893 9.81074C-0.0541841 9.56666 -0.0541829 9.17094 0.189896 8.92686L4.11681 4.99997L0.189894 1.07304C-0.0541837 0.828967 -0.0541833 0.433239 0.189895 0.189161Z" fill="#575775"/>
</svg>
