<svg width="610" height="240" viewBox="0 0 610 240" fill="none" xmlns="http://www.w3.org/2000/svg">
<path opacity="0.8" d="M386.994 251.207C368.941 230.593 360.351 197.258 361.123 159.928C361.896 122.602 372.032 81.3537 391.371 45.0536C410.71 8.75354 435.568 -15.685 460.108 -25.8713C484.65 -36.0589 508.826 -31.9789 526.879 -11.3649C544.931 9.2491 553.522 42.5844 552.749 79.9143C551.977 117.24 541.84 158.489 522.501 194.789C503.163 231.089 478.304 255.527 453.765 265.714C429.223 275.901 405.047 271.821 386.994 251.207Z" stroke="#575775"/>
<path opacity="0.8" d="M401.576 248.559C386.453 231.29 380.288 201.338 382.665 166.713C385.04 132.105 395.946 92.9542 414.839 57.4896C433.733 22.025 457.014 -2.99505 479.363 -14.7954C501.723 -26.6016 523.067 -25.142 538.19 -7.87323C553.313 9.39559 559.478 39.3475 557.102 73.973C554.727 108.581 543.821 147.732 524.927 183.196C506.033 218.661 482.752 243.681 460.403 255.481C438.043 267.288 416.699 265.828 401.576 248.559Z" stroke="#575775"/>
<path opacity="0.8" d="M423.073 256.913C407.943 239.637 401.484 210.24 403.374 176.536C405.264 142.845 415.497 104.96 433.646 70.8927C451.796 36.8254 474.402 13.0689 496.261 2.18127C518.13 -8.71062 539.177 -6.69744 554.307 10.5789C569.437 27.8553 575.896 57.2522 574.006 90.9563C572.116 124.647 561.883 162.532 543.734 196.6C525.585 230.667 502.978 254.423 481.119 265.311C459.251 276.203 438.203 274.19 423.073 256.913Z" stroke="#575775"/>
<path opacity="0.8" d="M219.145 -62.9869C225.127 -34.922 206.457 -4.22469 171.077 22.7298C135.73 49.6582 83.8498 72.7263 23.8139 85.5234C-36.2221 98.3205 -92.9992 98.4136 -136.255 88.2398C-179.552 78.0562 -209.117 57.6406 -215.099 29.5757C-221.081 1.51078 -202.412 -29.1865 -167.031 -56.141C-131.684 -83.0695 -79.8039 -106.137 -19.768 -118.935C40.268 -131.732 97.0451 -131.825 140.301 -121.651C183.598 -111.467 213.163 -91.0518 219.145 -62.9869Z" stroke="#575775"/>
<path opacity="0.8" d="M196.601 -71.5271C199.105 -59.7842 195.641 -47.301 187.136 -34.7532C178.629 -22.2038 165.103 -9.62845 147.569 2.25956C112.501 26.034 61.4896 47.0008 2.84539 59.5012C-55.7988 72.0017 -110.926 73.6594 -152.64 66.2514C-173.499 62.5472 -190.977 56.5808 -203.862 48.591C-216.745 40.6023 -224.997 30.6164 -227.5 18.8735C-230.004 7.13058 -226.54 -5.35265 -218.035 -17.9005C-209.529 -30.4499 -196.002 -43.0252 -178.468 -54.9132C-143.4 -78.6877 -92.3887 -99.6544 -33.7445 -112.155C24.8998 -124.655 80.0274 -126.313 121.741 -118.905C142.6 -115.201 160.078 -109.234 172.963 -101.245C185.846 -93.2559 194.098 -83.2701 196.601 -71.5271Z" stroke="#575775"/>
<path opacity="0.8" d="M174.609 -93.131C177.113 -81.3809 173.877 -68.944 165.793 -56.4884C157.708 -44.0304 144.792 -31.5868 128.013 -19.861C94.4566 3.58931 45.5323 24.1104 -10.8065 36.1195C-67.1453 48.1285 -120.185 49.3419 -160.387 41.6138C-180.49 37.7495 -197.357 31.6544 -209.82 23.5764C-222.28 15.5 -230.307 5.46393 -232.812 -6.28619C-235.316 -18.0363 -232.08 -30.4731 -223.996 -42.9288C-215.911 -55.3868 -202.995 -67.8304 -186.216 -79.5562C-152.66 -103.006 -103.735 -123.528 -47.3964 -135.537C8.94245 -147.546 61.9824 -148.759 102.185 -141.031C122.287 -137.167 139.154 -131.072 151.617 -122.994C164.077 -114.917 172.104 -104.881 174.609 -93.131Z" stroke="#575775"/>
</svg>
