<svg fill="none" viewBox="0 0 278 207"><path stroke="#575775" d="M219.145-62.987c5.982 28.065-12.688 58.762-48.068 85.717C135.73 49.658 83.85 72.726 23.814 85.523-36.222 98.32-93 98.413-136.255 88.24c-43.297-10.184-72.862-30.6-78.844-58.664-5.982-28.065 12.687-58.763 48.068-85.717 35.347-26.929 87.227-49.997 147.263-62.794 60.036-12.797 116.813-12.89 160.069-2.716 43.297 10.183 72.862 30.6 78.844 58.664z" opacity=".8"/><path stroke="#575775" d="M196.601-71.527c2.504 11.743-.96 24.226-9.465 36.774-8.507 12.55-22.033 25.125-39.567 37.013C112.501 26.034 61.489 47 2.845 59.5-55.799 72-110.926 73.658-152.64 66.25c-20.859-3.704-38.337-9.67-51.222-17.66-12.883-7.989-21.135-17.975-23.638-29.717-2.504-11.743.96-24.227 9.465-36.774 8.506-12.55 22.033-25.125 39.567-37.013 35.068-23.775 86.08-44.741 144.724-57.242 58.644-12.5 113.771-14.158 155.485-6.75 20.859 3.704 38.337 9.671 51.222 17.66 12.883 7.99 21.135 17.975 23.638 29.718z" opacity=".8"/><path stroke="#575775" d="M174.608-93.13c2.505 11.75-.731 24.186-8.815 36.642-8.086 12.458-21.002 24.901-37.781 36.627C94.456 3.59 45.532 24.111-10.807 36.12c-56.339 12.01-109.379 13.223-149.581 5.495-20.102-3.864-36.969-9.96-49.432-18.037-12.461-8.077-20.487-18.113-22.992-29.863-2.505-11.75.732-24.187 8.816-36.643 8.085-12.457 21.001-24.901 37.78-36.627 33.556-23.45 82.48-43.971 138.82-55.98 56.338-12.009 109.378-13.223 149.58-5.495 20.102 3.865 36.97 9.96 49.432 18.038 12.461 8.076 20.488 18.112 22.992 29.862z" opacity=".8"/></svg>