<svg fill="none" viewBox="0 0 772 704"><path stroke="#575775" d="M219.145-62.987c5.982 28.065-12.688 58.762-48.068 85.717C135.73 49.658 83.85 72.726 23.814 85.523-36.222 98.32-93 98.413-136.255 88.24c-43.297-10.184-72.862-30.6-78.844-58.664-5.982-28.065 12.687-58.763 48.068-85.717 35.347-26.929 87.227-49.997 147.263-62.794 60.036-12.797 116.813-12.89 160.069-2.716 43.297 10.183 72.862 30.6 78.844 58.664z" opacity=".8"/><path stroke="#575775" d="M196.601-71.527c2.504 11.743-.96 24.226-9.465 36.774-8.507 12.55-22.033 25.125-39.567 37.013C112.501 26.034 61.489 47 2.845 59.5-55.799 72-110.926 73.658-152.64 66.25c-20.859-3.704-38.337-9.67-51.222-17.66-12.883-7.989-21.135-17.975-23.638-29.717-2.504-11.743.96-24.227 9.465-36.774 8.506-12.55 22.033-25.125 39.567-37.013 35.068-23.775 86.08-44.741 144.724-57.242 58.644-12.5 113.771-14.158 155.485-6.75 20.859 3.704 38.337 9.671 51.222 17.66 12.883 7.99 21.135 17.975 23.638 29.718z" opacity=".8"/><path stroke="#575775" d="M174.608-93.13c2.505 11.75-.731 24.186-8.815 36.642-8.086 12.458-21.002 24.901-37.781 36.627C94.456 3.59 45.532 24.111-10.807 36.12c-56.339 12.01-109.379 13.223-149.581 5.495-20.102-3.864-36.969-9.96-49.432-18.037-12.461-8.077-20.487-18.113-22.992-29.863-2.505-11.75.732-24.187 8.816-36.643 8.085-12.457 21.001-24.901 37.78-36.627 33.556-23.45 82.48-43.971 138.82-55.98 56.338-12.009 109.378-13.223 149.58-5.495 20.102 3.865 36.97 9.96 49.432 18.038 12.461 8.076 20.488 18.112 22.992 29.862zm366.064 911.031c-17.096-23.047-12.859-58.725 8.135-97.938 20.974-39.174 58.591-81.702 107.892-118.273 49.302-36.571 100.914-60.232 144.489-68.938 43.616-8.715 78.989-2.419 96.085 20.628 17.096 23.046 12.858 58.725-8.135 97.937-20.974 39.175-58.591 81.703-107.893 118.274-49.301 36.571-100.913 60.232-144.488 68.938-43.616 8.714-78.989 2.419-96.085-20.628z" opacity=".8"/><path stroke="#575775" d="M564.726 816.309c-7.153-9.644-9.186-22.438-6.659-37.384 2.527-14.949 9.611-32.006 20.626-50.101 22.028-36.19 59.728-76.445 107.887-112.169 48.158-35.723 97.62-60.122 138.644-70.705 20.513-5.291 38.891-7.121 53.93-5.203 15.037 1.918 26.691 7.575 33.844 17.219 7.154 9.643 9.187 22.437 6.66 37.384-2.528 14.948-9.611 32.005-20.626 50.101-22.029 36.189-59.729 76.445-107.887 112.168-48.159 35.724-97.621 60.123-138.645 70.705-20.513 5.291-38.891 7.122-53.93 5.203-15.037-1.918-26.691-7.575-33.844-17.218z" opacity=".8"/><path stroke="#575775" d="M593.704 826.829c-7.157-9.649-9.377-22.307-7.195-36.994 2.182-14.691 8.764-31.374 19.159-49.009 20.789-35.267 56.775-74.25 103.041-108.569 46.265-34.319 94.012-57.447 133.794-67.111 19.891-4.831 37.767-6.291 52.459-4.117 14.689 2.173 26.158 7.97 33.316 17.619 7.157 9.649 9.378 22.307 7.196 36.995-2.183 14.69-8.765 31.374-19.16 49.008-20.789 35.267-56.775 74.251-103.04 108.57-46.266 34.319-94.013 57.447-133.795 67.11-19.891 4.832-37.767 6.291-52.459 4.118-14.689-2.174-26.158-7.97-33.316-17.62z" opacity=".8"/></svg>