<svg fill="none" viewBox="0 0 25 28"><path fill="#988CDA" d="M12.465 24.641l-.254-.01a12.282 12.282 0 01-8.478-3.67 12.132 12.132 0 01-3.48-8.516C.254 5.723 5.749.252 12.5.252s12.247 5.47 12.247 12.193c0 2.713-.976 5.398-2.9 7.983a22.228 22.228 0 01-4.375 4.36 21.592 21.592 0 01-5.006 2.842v-2.99z"/><path fill="#fff" d="M12.499.505a12.055 12.055 0 018.48 3.505 11.907 11.907 0 013.514 8.435c0 2.657-.96 5.297-2.85 7.832a21.918 21.918 0 01-4.326 4.31 21.22 21.22 0 01-4.599 2.665v-2.86l-.496-.012a12.027 12.027 0 01-8.306-3.593 11.881 11.881 0 01-3.408-8.342c0-6.584 5.38-11.94 11.99-11.94zm0-.505a12.56 12.56 0 00-8.79 3.601 12.406 12.406 0 00-3.71 8.7 12.403 12.403 0 003.508 8.781 12.556 12.556 0 008.704 3.801V28a21.782 21.782 0 005.415-3.013 22.657 22.657 0 004.425-4.415c1.768-2.368 2.95-5.13 2.95-8.127 0-1.633-.322-3.25-.95-4.76a12.427 12.427 0 00-2.708-4.036A12.514 12.514 0 0017.286.95 12.578 12.578 0 0012.5 0z"/><path fill="#fff" fill-rule="evenodd" d="M12.5 5.295c-3.967 0-7.183 3.196-7.183 7.138 0 3.943 3.216 7.14 7.183 7.14 3.967 0 7.183-3.197 7.183-7.14 0-3.942-3.216-7.138-7.183-7.138zm-7.817 7.138c0-4.29 3.5-7.769 7.817-7.769s7.817 3.479 7.817 7.77c0 4.29-3.5 7.769-7.817 7.769s-7.817-3.479-7.817-7.77z" clip-rule="evenodd"/><path fill="#fff" d="M16.144 9.586a4.638 4.638 0 00-2.946-1.707V5.13l2.241-1.247a9.002 9.002 0 013.054 1.759c.015.856.03 1.714.043 2.572l-2.392 1.373z"/><path fill="#fff" d="M15.463 4.162a8.74 8.74 0 012.778 1.6l.038 2.311-2.077 1.193a4.883 4.883 0 00-2.75-1.599v-2.39l2.011-1.115zm-.05-.55l-2.469 1.37v3.12a4.392 4.392 0 013.131 1.814l2.717-1.559c-.015-.943-.03-1.887-.047-2.83l-.006-.008a9.35 9.35 0 00-3.32-1.91l-.006.003zm1.394 10.52a4.59 4.59 0 00.018-3.354l2.405-1.38 2.189 1.289a8.908 8.908 0 01-.006 3.533l-2.209 1.293-2.397-1.38z"/><path fill="#fff" d="M19.229 9.69l1.964 1.157a8.74 8.74 0 01-.006 3.214l-.474.276-.657.378-.336.198-.516.3-2.082-1.197a4.859 4.859 0 00.01-3.125l2.093-1.2m0-.586l-2.72 1.565a4.343 4.343 0 01-.019 3.57l2.72 1.561 1.106-.647 1.325-.776a9.182 9.182 0 00.008-3.854l-2.412-1.421-.008.002zm-6.027 10.628v-2.748a4.641 4.641 0 002.919-1.667l2.398 1.376-.024 1.135-.029 1.428a9.035 9.035 0 01-3.014 1.728l-2.25-1.252z"/><path fill="#fff" d="M16.169 15.64l2.085 1.195-.009.378-.013.606c0 .175-.008.464-.015.757 0 .197-.007.397-.011.56a8.68 8.68 0 01-1.27.89 8.81 8.81 0 01-1.473.681l-1.033-.576-.978-.545v-2.39a4.882 4.882 0 002.717-1.557m-.127-.653a4.392 4.392 0 01-3.098 1.777v3.12l2.474 1.376a9.314 9.314 0 003.29-1.892l.032-1.537.028-1.285-2.722-1.562-.004.003zm-6.479 6.002a9.039 9.039 0 01-3.011-1.719l-.03-1.429c-.007-.329-.016-.756-.022-1.135l2.396-1.378a4.645 4.645 0 002.919 1.66v2.747l-2.252 1.254z"/><path fill="#fff" d="M8.84 15.65a4.903 4.903 0 002.723 1.55v2.386l-2.03 1.126a8.79 8.79 0 01-2.736-1.561c0-.17 0-.354-.01-.538-.007-.273-.012-.55-.017-.78 0-.285-.014-.646-.02-.987l2.084-1.195m.127-.652l-2.717 1.56c.007.415.017.914.025 1.286l.032 1.54a9.17 9.17 0 001.581 1.127c.542.31 1.114.563 1.708.756l2.481-1.38v-3.124a4.396 4.396 0 01-1.745-.552 4.38 4.38 0 01-1.364-1.213H8.96zm-5.376-.777a9.094 9.094 0 01-.006-3.538l1.288-.757.911-.537 2.401 1.374a4.596 4.596 0 00.018 3.382l-2.394 1.367-2.218-1.291z"/><path fill="#fff" d="M5.78 9.678l2.088 1.2a4.85 4.85 0 00.015 3.153l-2.078 1.193-.957-.56-1.04-.601a8.74 8.74 0 010-3.217l1.188-.7.785-.464m0-.585l-2.426 1.43a9.364 9.364 0 00.008 3.86l2.443 1.428 2.712-1.563a4.343 4.343 0 01-.015-3.595L5.777 9.093l.004.004zm.691-.899l.02-1.141c0-.303.017-1.044.023-1.43a8.984 8.984 0 013.057-1.748l2.247 1.25v2.747a4.628 4.628 0 00-2.953 1.7L6.472 8.197z"/><path fill="#fff" d="M9.547 4.154l1.038.578.978.546v2.385A4.889 4.889 0 008.807 9.25L6.726 8.06v-.354c0-.252.008-.504.01-.638 0-.276.017-.916.023-1.32a8.682 8.682 0 012.788-1.594m.052-.55a9.23 9.23 0 00-3.335 1.913c0 .335-.019 1.205-.025 1.54 0 .27-.016.884-.022 1.29l2.716 1.557A4.392 4.392 0 0112.07 8.1V4.983L9.6 3.604z"/></svg>