<svg xmlns:xlink="http://www.w3.org/1999/xlink" fill="none" viewBox="0 0 744 1084"><g stroke="#fff" stroke-width="2" opacity=".08"><path d="M431.423 609.221c-41.741 41.838-87.119 72.075-126.708 87.165-39.686 15.127-73.144 14.9-91.53-3.443-18.385-18.343-18.689-51.801-3.655-91.521 14.999-39.624 45.131-85.073 86.872-126.91 41.741-41.838 87.119-72.076 126.708-87.165 39.686-15.127 73.144-14.9 91.529 3.443 18.386 18.343 18.69 51.8 3.656 91.521-14.999 39.624-45.131 85.072-86.872 126.91z"/><path d="M512.475 690.086c-91.425 91.637-190.856 157.908-277.672 190.999-86.913 33.128-160.773 32.87-201.54-7.803-40.768-40.673-41.197-114.532-8.27-201.521 32.89-86.893 98.93-186.477 190.355-278.114 91.425-91.637 190.857-157.908 277.673-191 86.912-33.128 160.772-32.869 201.54 7.804 40.767 40.673 41.196 114.532 8.27 201.521-32.89 86.893-98.931 186.477-190.356 278.114z"/><path d="M477.612 655.304c-70.055 70.217-146.236 120.989-212.739 146.337-66.599 25.385-123.081 25.141-154.221-5.928-31.14-31.068-31.516-87.549-6.285-154.207 25.194-66.561 75.79-142.86 145.844-213.077 70.055-70.217 146.236-120.989 212.739-146.337 66.599-25.385 123.081-25.141 154.221 5.928 31.141 31.068 31.516 87.549 6.285 154.207-25.194 66.561-75.789 142.86-145.844 213.077z"/></g><rect width="47" height="47" x="532.5" y="243.5" fill="#148581" fill-opacity=".6" rx="23.5"/><path fill="url(#a)" d="M540 251h32v32h-32z"/><rect width="47" height="47" x="532.5" y="243.5" stroke="#D3F8F7" stroke-dasharray="2 2" rx="23.5"/><rect width="43" height="43" x="84.5" y="778.5" fill="#148581" fill-opacity=".6" rx="21.5"/><path fill="url(#b)" d="M96 790h20v20H96z"/><rect width="43" height="43" x="84.5" y="778.5" stroke="#D3F8F7" stroke-dasharray="2 2" rx="21.5"/><rect width="47" height="47" x="144.5" y="875.5" fill="#148581" fill-opacity=".6" rx="23.5"/><path fill="url(#c)" d="M152 883h32v32h-32z"/><rect width="47" height="47" x="144.5" y="875.5" stroke="#D3F8F7" stroke-dasharray="2 2" rx="23.5"/><rect width="47" height="46" x="631.5" y="159.5" fill="#148581" fill-opacity=".5" rx="23"/><path fill="url(#d)" d="M639 167h32v32h-32z"/><rect width="47" height="46" x="631.5" y="159.5" stroke="#D3F8F7" stroke-dasharray="2 2" rx="23"/><rect width="55" height="55" x="10.5" y="836.5" fill="#148581" fill-opacity=".6" rx="27.5"/><path fill="#F9F9FC" fill-rule="evenodd" d="M36.017 851.56c.813-1.636 3.153-1.636 3.965 0l1.322 2.662a1 1 0 11-1.791.889l-1.322-2.661a.194.194 0 00-.077-.087.222.222 0 00-.114-.03.222.222 0 00-.114.03.194.194 0 00-.077.087l-.66 1.331a1.001 1.001 0 01-1.792-.89l.66-1.331zm-1.052 4.368a1 1 0 01.451 1.341l-1.07 2.157a1 1 0 01-.752.545l-2.117.307a1 1 0 11-.288-1.979l1.598-.232.838-1.688a1.001 1.001 0 011.34-.451zm6.605 1.079a1 1 0 011.34.451l.303.609 1.417.206a1 1 0 01-.287 1.979l-1.937-.281a1 1 0 01-.752-.545l-.535-1.079a1 1 0 01.451-1.34zm5.8 2.675a1 1 0 011.133-.846l1.936.281c1.807.263 2.544 2.484 1.222 3.764l-1.4 1.357a1 1 0 01-1.392-1.437l1.401-1.357a.203.203 0 00-.119-.347l.144-.99-.144.99-1.936-.282a1 1 0 01-.846-1.133zm-20.328-.78a1 1 0 01.287 1.979l-1.48.215a.204.204 0 00-.119.348l1.897 1.838a1 1 0 11-1.391 1.436l-1.897-1.837c-1.322-1.28-.585-3.501 1.222-3.764l1.48-.215zm20.44 6.635a1 1 0 01-.023 1.414l-1.021.989.24 1.396a1 1 0 01-1.97.34l-.331-1.917a1 1 0 01.29-.888l1.4-1.357a1 1 0 011.415.023zm-18.49.459a1 1 0 011.415-.023l.926.898c.238.23.346.562.29.888l-.3 1.744a1 1 0 11-1.972-.34l.211-1.223-.547-.53a1 1 0 01-.022-1.414zm8.545 6.022a.999.999 0 01.926 0l1.732.905a1 1 0 01-.927 1.773L38 874.032l-1.633.854a1 1 0 11-.926-1.772l2.096-1.096zm8.647.335a1 1 0 011.156.816l.33 1.916c.313 1.814-1.596 3.169-3.207 2.327l-1.732-.906a1 1 0 11.927-1.772l1.731.905a.201.201 0 00.228-.016.216.216 0 00.072-.087.186.186 0 00.01-.111l-.33-1.916a1 1 0 01.815-1.156zm-16.452.487a1 1 0 01.815 1.155l-.246 1.43a.186.186 0 00.082.198.201.201 0 00.228.016l1.13-.59a1 1 0 11.926 1.772l-1.13.591c-1.611.842-3.52-.513-3.207-2.327l.247-1.43a1 1 0 011.155-.815z" clip-rule="evenodd"/><rect width="55" height="55" x="10.5" y="836.5" stroke="#D3F8F7" stroke-dasharray="2 2" rx="27.5"/><defs><pattern id="a" width="1" height="1" patternContentUnits="objectBoundingBox"><use transform="scale(.00625)" xlink:href="#e"/></pattern><pattern id="b" width="1" height="1" patternContentUnits="objectBoundingBox"><use transform="scale(.00625)" xlink:href="#f"/></pattern><pattern id="c" width="1" height="1" patternContentUnits="objectBoundingBox"><use transform="scale(.00625)" xlink:href="#g"/></pattern><pattern id="d" width="1" height="1" patternContentUnits="objectBoundingBox"><use transform="scale(.00625)" xlink:href="#h"/></pattern></defs></svg>