<svg xmlns:xlink="http://www.w3.org/1999/xlink" fill="none" viewBox="0 0 1402 1069"><rect width="43" height="43" x="224.5" y="687.5" fill="#148581" fill-opacity=".6" rx="21.5"/><path fill="url(#a)" d="M236 699h20v20h-20z"/><rect width="43" height="43" x="224.5" y="687.5" stroke="#D3F8F7" stroke-dasharray="2 2" rx="21.5"/><g stroke="#fff" stroke-width="2" opacity=".08"><path d="M756.898 652.141c-72.746 34.667-144.878 52.777-202.667 54.068-57.892 1.292-100.96-14.283-116.287-46.445-15.327-32.162-.297-75.423 37.17-119.575 37.401-44.073 96.9-88.691 169.646-123.358 72.746-34.667 144.877-52.778 202.666-54.068 57.893-1.292 100.961 14.283 116.288 46.445 15.327 32.162.297 75.423-37.171 119.575-37.401 44.073-96.9 88.691-169.645 123.358z"/><path d="M824.025 793.003C664.732 868.914 506.734 908.597 380.08 911.425c-126.757 2.829-221.687-31.244-255.55-102.304-33.864-71.06-.536-166.254 81.5-262.925C288 449.604 418.339 351.879 577.632 275.968c159.292-75.911 317.291-115.594 443.948-118.421 126.75-2.83 221.68 31.244 255.55 102.303 33.86 71.06.53 166.255-81.5 262.926-81.97 96.592-212.313 194.316-371.605 270.227z"/><path d="M795.152 732.415c-122.066 58.171-243.131 88.575-340.165 90.741-97.136 2.168-169.759-23.949-195.649-78.277-25.891-54.329-.434-127.186 62.433-201.267 62.8-74.002 162.668-148.884 284.735-207.055 122.066-58.171 243.131-88.575 340.164-90.741 97.14-2.168 169.76 23.948 195.65 78.277 25.89 54.329.43 127.186-62.43 201.267-62.8 74.002-162.672 148.884-284.738 207.055z"/></g><rect width="47" height="47" x="932.5" y="378.5" fill="#148581" fill-opacity=".6" rx="23.5"/><path fill="url(#b)" d="M940 386h32v32h-32z"/><rect width="47" height="47" x="932.5" y="378.5" stroke="#D3F8F7" stroke-dasharray="2 2" rx="23.5"/><rect width="75" height="75" x="1146.5" y="143.5" fill="#148581" fill-opacity=".5" rx="37.5"/><path fill="url(#c)" d="M1156 155h56v56h-56z"/><rect width="75" height="75" x="1146.5" y="143.5" stroke="#D3F8F7" stroke-dasharray="2 2" rx="37.5"/><rect width="63" height="63" x="1120.5" y="357.5" fill="#148581" fill-opacity=".6" rx="31.5"/><path fill="url(#d)" d="M1128 365h48v48h-48z"/><rect width="63" height="63" x="1120.5" y="357.5" stroke="#D3F8F7" stroke-dasharray="2 2" rx="31.5"/><rect width="47" height="47" x="330.5" y="785.5" fill="#148581" fill-opacity=".6" rx="23.5"/><path fill="#F9F9FC" fill-rule="evenodd" d="M344.25 818a.75.75 0 01.75-.75h18a.75.75 0 010 1.5h-18a.75.75 0 01-.75-.75zm12.27-18.53a.75.75 0 011.061 0l4.949 4.949a.75.75 0 010 1.061l-8.435 8.435a1.75 1.75 0 01-1.237.513h-4.536a.75.75 0 01-.75-.75v-4.536c0-.464.185-.909.513-1.237l5.606-5.607m0 0l2.829-2.828zm3.359-1.237l-1.768 1.767 3.89 3.889 1.767-1.767-3.889-3.889zm1.061 6.717l-3.889-3.889-5.076 5.076a.252.252 0 00-.074.177v3.786h3.786c.066 0 .13-.027.177-.074l5.076-5.076z" clip-rule="evenodd"/><rect width="47" height="47" x="330.5" y="785.5" stroke="#D3F8F7" stroke-dasharray="2 2" rx="23.5"/><rect width="63" height="63" x="123.5" y="816.5" fill="#148581" fill-opacity=".6" rx="31.5"/><path fill="#F9F9FC" fill-rule="evenodd" d="M152.522 832.45c1.015-2.044 3.941-2.045 4.956 0l1.652 3.327a1.25 1.25 0 11-2.239 1.112l-1.652-3.327a.251.251 0 00-.096-.109.283.283 0 00-.143-.036.283.283 0 00-.143.036.251.251 0 00-.096.109l-.826 1.664a1.25 1.25 0 01-2.239-1.112l.826-1.664zm-1.315 5.46a1.25 1.25 0 01.564 1.676l-1.339 2.696a1.25 1.25 0 01-.94.681l-2.646.385a1.25 1.25 0 11-.359-2.474l1.997-.29 1.047-2.11a1.25 1.25 0 011.676-.564zm8.255 1.349a1.25 1.25 0 011.676.563l.378.762 1.772.257a1.25 1.25 0 01-.36 2.474l-2.42-.351a1.25 1.25 0 01-.94-.682l-.669-1.348a1.25 1.25 0 01.563-1.675zm7.25 3.343a1.25 1.25 0 011.417-1.057l2.42.352c2.259.328 3.18 3.104 1.528 4.704l-1.751 1.696a1.25 1.25 0 01-1.74-1.796l1.752-1.696a.254.254 0 00-.149-.434l.18-1.237-.18 1.237-2.42-.352a1.25 1.25 0 01-1.057-1.417zm-25.41-.975a1.251 1.251 0 01.36 2.474l-1.851.269a.255.255 0 00-.149.435h.001l2.371 2.297a1.25 1.25 0 11-1.739 1.796l-2.372-2.297c-1.652-1.6-.731-4.376 1.528-4.705l1.851-.269zm25.55 8.294a1.25 1.25 0 01-.028 1.767l-1.277 1.237.301 1.744a1.25 1.25 0 01-2.464.425l-.413-2.395c-.07-.407.065-.823.362-1.111l1.751-1.695a1.25 1.25 0 011.768.028zm-23.111.574a1.25 1.25 0 011.768-.028l1.158 1.121c.297.288.432.703.362 1.111l-.376 2.18a1.25 1.25 0 01-2.464-.425l.264-1.529-.684-.662a1.25 1.25 0 01-.028-1.768zm10.68 7.527a1.253 1.253 0 011.158 0l2.164 1.132a1.25 1.25 0 11-1.158 2.215l-1.585-.828-2.041 1.067a1.25 1.25 0 11-1.158-2.216l2.62-1.37zm10.809.419a1.25 1.25 0 011.444 1.02l.414 2.395c.391 2.268-1.995 3.962-4.01 2.908l-2.164-1.131a1.25 1.25 0 011.158-2.216l2.165 1.132a.25.25 0 00.147.033.28.28 0 00.137-.053.264.264 0 00.09-.109.233.233 0 00.013-.139l-.413-2.395a1.25 1.25 0 011.019-1.445zm-20.565.609a1.25 1.25 0 011.019 1.444l-.308 1.787a.234.234 0 00.012.139.275.275 0 00.091.109.28.28 0 00.137.053.252.252 0 00.147-.033l1.412-.738a1.25 1.25 0 111.159 2.215l-1.412.739c-2.015 1.053-4.401-.642-4.01-2.909l.309-1.787a1.25 1.25 0 011.444-1.019z" clip-rule="evenodd"/><rect width="63" height="63" x="123.5" y="816.5" stroke="#D3F8F7" stroke-dasharray="2 2" rx="31.5"/><defs><pattern id="a" width="1" height="1" patternContentUnits="objectBoundingBox"><use transform="scale(.00625)" xlink:href="#e"/></pattern><pattern id="b" width="1" height="1" patternContentUnits="objectBoundingBox"><use transform="scale(.00625)" xlink:href="#f"/></pattern><pattern id="c" width="1" height="1" patternContentUnits="objectBoundingBox"><use transform="scale(.00625)" xlink:href="#g"/></pattern><pattern id="d" width="1" height="1" patternContentUnits="objectBoundingBox"><use transform="scale(.00625)" xlink:href="#h"/></pattern></defs></svg>