<svg fill="none" viewBox="0 0 1189 316"><path stroke="#575775" d="M262.914-16.174c.131 28.696-24.409 54.938-64.545 74.108-40.097 19.15-95.592 31.15-156.976 31.43-61.384.28-116.986-11.213-157.257-29.998-40.309-18.802-65.087-44.82-65.218-73.515-.13-28.695 24.409-54.938 64.545-74.107 40.098-19.151 95.592-31.15 156.977-31.43 61.384-.28 116.986 11.212 157.256 29.997 40.309 18.802 65.087 44.82 65.218 73.515z" opacity=".8"/><path stroke="#575775" d="M242.586-29.133c.055 12.006-5.882 23.52-16.769 34.07-10.887 10.55-26.695 20.1-46.286 28.161-39.18 16.12-93.396 26.24-153.357 26.513-59.961.273-114.268-9.35-153.593-25.113-19.664-7.882-35.558-17.289-46.541-27.739-10.982-10.449-17.024-21.909-17.079-33.915-.055-12.007 5.882-23.52 16.769-34.07 10.888-10.55 26.695-20.1 46.286-28.162 39.18-16.12 93.396-26.239 153.357-26.512 59.962-.273 114.268 9.35 153.593 25.113 19.664 7.882 35.558 17.288 46.541 27.739C236.49-52.6 242.531-41.14 242.586-29.133z" opacity=".8"/><path stroke="#575775" d="M225.464-54.77c.054 12.015-5.651 23.53-16.106 34.074-10.457 10.547-25.64 20.093-44.458 28.15-37.635 16.11-89.717 26.219-147.32 26.482-57.605.262-109.777-9.37-147.557-25.138-18.891-7.884-34.16-17.292-44.713-27.743-10.55-10.448-16.361-21.911-16.415-33.925-.055-12.014 5.65-23.529 16.105-34.073 10.457-10.547 25.64-20.094 44.458-28.15 37.635-16.111 89.717-26.219 147.321-26.482 57.604-.263 109.776 9.37 147.556 25.138 18.891 7.884 34.16 17.292 44.713 27.742 10.55 10.45 16.361 21.912 16.416 33.926z" opacity=".8"/><g opacity=".4"><mask id="a" fill="#fff"><path d="M729 316a222 222 0 11444 0H729z"/></mask><path stroke="#575775" stroke-width="4" d="M729 316a222 222 0 11444 0H729z" mask="url(#a)"/></g><g opacity=".4"><mask id="b" fill="#fff"><path d="M713 316a237.996 237.996 0 0169.709-168.291 237.996 237.996 0 01336.581-.001A238.018 238.018 0 011189 316H713z"/></mask><path stroke="#575775" stroke-width="4" d="M713 316a237.996 237.996 0 0169.709-168.291 237.996 237.996 0 01336.581-.001A238.018 238.018 0 011189 316H713z" mask="url(#b)"/></g><g opacity=".4"><mask id="c" fill="#fff"><path d="M746 316a205 205 0 01410 0H746z"/></mask><path stroke="#575775" stroke-width="4" d="M746 316a205 205 0 01410 0H746z" mask="url(#c)"/></g><circle cx="642" cy="142" r="7" fill="#575775"/><circle cx="689" cy="62" r="11" fill="#575775"/><circle cx="678" cy="228" r="11" fill="#575775"/></svg>