<svg width="444" height="222" viewBox="0 0 444 222" fill="none" xmlns="http://www.w3.org/2000/svg">
<g opacity="0.4">
<mask id="path-1-inside-1_29_3130" fill="white">
<path d="M0 222C5.14728e-06 163.122 23.3892 106.655 65.0223 65.0223C106.655 23.3893 163.122 3.4392e-05 222 0C280.878 -3.43919e-05 337.344 23.3891 378.978 65.0221C420.611 106.655 444 163.122 444 222L222 222L0 222Z"/>
</mask>
<path d="M0 222C5.14728e-06 163.122 23.3892 106.655 65.0223 65.0223C106.655 23.3893 163.122 3.4392e-05 222 0C280.878 -3.43919e-05 337.344 23.3891 378.978 65.0221C420.611 106.655 444 163.122 444 222L222 222L0 222Z" stroke="#575775" stroke-width="4" mask="url(#path-1-inside-1_29_3130)"/>
</g>
</svg>
