<svg width="226" height="35" viewBox="0 0 226 35" fill="none" xmlns="http://www.w3.org/2000/svg">
<path opacity="0.8" d="M225.463 -54.7694C225.518 -42.7554 219.813 -31.2404 209.358 -20.6959C198.901 -10.1495 183.718 -0.602553 164.9 7.45349C127.265 23.5647 75.1831 33.673 17.5791 33.9357C-40.0248 34.1983 -92.1967 24.5653 -129.977 8.79799C-148.868 0.91389 -164.137 -8.49419 -174.69 -18.9448C-185.24 -29.3935 -191.051 -40.856 -191.105 -52.87C-191.16 -64.884 -185.455 -76.399 -175 -86.9434C-164.543 -97.4899 -149.36 -107.037 -130.542 -115.093C-92.907 -131.204 -40.825 -141.312 16.7789 -141.575C74.3828 -141.838 126.555 -132.205 164.335 -116.437C183.226 -108.553 198.495 -99.1452 209.048 -88.6945C219.598 -78.2458 225.409 -66.7833 225.463 -54.7694Z" stroke="#575775"/>
</svg>
