<svg width="16" height="10" viewBox="0 0 16 10" fill="none" xmlns="http://www.w3.org/2000/svg">
<path fill-rule="evenodd" clip-rule="evenodd" d="M0.25 5C0.25 4.58579 0.585786 4.25 1 4.25H15C15.4142 4.25 15.75 4.58579 15.75 5C15.75 5.41421 15.4142 5.75 15 5.75H1C0.585786 5.75 0.25 5.41421 0.25 5Z" fill="#575775"/>
<path fill-rule="evenodd" clip-rule="evenodd" d="M15.5303 4.46967C15.8232 4.76256 15.8232 5.23744 15.5303 5.53033L11.5303 9.53033C11.2374 9.82322 10.7626 9.82322 10.4697 9.53033C10.1768 9.23744 10.1768 8.76256 10.4697 8.46967L14.4697 4.46967C14.7626 4.17678 15.2374 4.17678 15.5303 4.46967Z" fill="#575775"/>
<path fill-rule="evenodd" clip-rule="evenodd" d="M10.4697 0.46967C10.7626 0.176777 11.2374 0.176777 11.5303 0.46967L15.5303 4.46967C15.8232 4.76256 15.8232 5.23744 15.5303 5.53033C15.2374 5.82322 14.7626 5.82322 14.4697 5.53033L10.4697 1.53033C10.1768 1.23744 10.1768 0.762563 10.4697 0.46967Z" fill="#575775"/>
</svg>
