<svg width="64" height="64" viewBox="0 0 64 64" fill="none" xmlns="http://www.w3.org/2000/svg">
<rect x="0.5" y="0.5" width="63" height="63" rx="31.5" fill="#148581" fill-opacity="0.6"/>
<path fill-rule="evenodd" clip-rule="evenodd" d="M29.5219 16.4505C30.5372 14.4057 33.463 14.4053 34.4782 16.4506L36.13 19.7775C36.437 20.3959 36.1846 21.146 35.5662 21.453C34.9479 21.76 34.1978 21.5076 33.8908 20.8893L32.2389 17.5622L32.2389 17.5621C32.2097 17.5033 32.1755 17.4726 32.1429 17.4534C32.1058 17.4316 32.0563 17.4167 32.0001 17.4167C31.9439 17.4167 31.8944 17.4316 31.8572 17.4535C31.8246 17.4727 31.7904 17.5033 31.7612 17.5622C31.7611 17.5622 31.7611 17.5622 31.7611 17.5622L30.9353 19.2257C30.6284 19.8441 29.8782 20.0965 29.2599 19.7895C28.6415 19.4825 28.3891 18.7324 28.6961 18.1141L29.5219 16.4505L29.5219 16.4505ZM28.2069 21.9103C28.8252 22.2173 29.0777 22.9674 28.7707 23.5858L27.4319 26.2824C27.2495 26.65 26.8982 26.9046 26.4921 26.9636L23.8465 27.3481C23.1633 27.4474 22.529 26.974 22.4297 26.2909C22.3304 25.6077 22.8037 24.9734 23.4869 24.8741L25.4841 24.5838L26.5314 22.4741C26.8384 21.8558 27.5885 21.6033 28.2069 21.9103ZM36.4626 23.2588C37.0809 22.9518 37.831 23.2042 38.138 23.8226L38.516 24.584L40.2878 24.8415C40.971 24.9408 41.4443 25.5751 41.345 26.2583C41.2457 26.9414 40.6114 27.4148 39.9283 27.3155L37.5079 26.9637C37.1018 26.9047 36.7505 26.6501 36.5681 26.2825L35.8987 24.9342C35.5918 24.3159 35.8442 23.5657 36.4626 23.2588ZM43.7119 26.6022C43.8111 25.919 44.4455 25.4457 45.1286 25.545L47.549 25.8967C49.8079 26.225 50.7292 29.0011 49.0768 30.6012C49.0768 30.6012 49.0768 30.6012 49.0767 30.6012L47.3256 32.297C46.8297 32.7773 46.0383 32.7646 45.5581 32.2687C45.0778 31.7727 45.0905 30.9814 45.5864 30.5011L47.3376 28.8053L47.3377 28.8052C47.4838 28.6637 47.4148 28.4035 47.1894 28.3707L47.3692 27.1337L47.1894 28.3707L44.7691 28.019C44.0859 27.9197 43.6126 27.2854 43.7119 26.6022ZM18.3024 25.6276C18.9855 25.5283 19.6199 26.0016 19.7191 26.6848C19.8184 27.368 19.3451 28.0023 18.6619 28.1016L16.8107 28.3706C16.5856 28.4033 16.5161 28.6634 16.6626 28.8053C16.6626 28.8053 16.6626 28.8053 16.6626 28.8053L19.0342 31.1021C19.5301 31.5824 19.5428 32.3738 19.0626 32.8697C18.5823 33.3656 17.7909 33.3783 17.295 32.898L14.9233 30.6012L14.9233 30.6011C13.2712 29.001 14.1919 26.225 16.4511 25.8966L16.4511 25.8966L18.3024 25.6276ZM43.852 33.921C44.3322 34.4169 44.3195 35.2083 43.8236 35.6885L42.547 36.9248L42.848 38.6696C42.9654 39.3499 42.509 39.9965 41.8287 40.1139C41.1484 40.2313 40.5018 39.7749 40.3844 39.0946L39.9711 36.6989C39.9008 36.2917 40.0364 35.876 40.3333 35.5885L42.0844 33.8926C42.5804 33.4124 43.3717 33.4251 43.852 33.921ZM20.741 34.4952C21.2213 33.9992 22.0127 33.9865 22.5086 34.4668L23.6667 35.5883C23.9636 35.8758 24.0992 36.2915 24.0289 36.6987L23.6528 38.8792C23.5355 39.5595 22.8888 40.0159 22.2085 39.8986C21.5282 39.7812 21.0719 39.1346 21.1892 38.4543L21.453 36.9247L20.7694 36.2627C20.2735 35.7825 20.2608 34.9911 20.741 34.4952ZM31.4208 42.0224C31.7837 41.8327 32.2164 41.8327 32.5792 42.0224L34.7436 43.154C35.3553 43.4739 35.592 44.2292 35.2721 44.8409C34.9522 45.4527 34.1969 45.6893 33.5852 45.3695L32 44.5406L29.9591 45.6078C29.3473 45.9277 28.592 45.691 28.2721 45.0793C27.9523 44.4675 28.1889 43.7122 28.8007 43.3924L31.4208 42.0224ZM42.2303 42.4414C42.9106 42.3241 43.5572 42.7805 43.6745 43.4608L44.0877 45.8564C44.4788 48.1236 42.0926 49.8176 40.0783 48.7645L37.914 47.6328C37.3022 47.3129 37.0656 46.5577 37.3855 45.9459C37.7054 45.3341 38.4606 45.0975 39.0724 45.4174L41.2367 46.549C41.2976 46.5808 41.3455 46.5858 41.3844 46.5822C41.4284 46.5781 41.4769 46.561 41.5212 46.5289C41.5656 46.4969 41.5954 46.4575 41.6115 46.4204C41.6255 46.3882 41.6351 46.3454 41.6241 46.2814L41.6241 46.2814L41.2109 43.8857C41.0936 43.2054 41.5499 42.5588 42.2303 42.4414ZM21.6649 43.0498C22.3452 43.1671 22.8016 43.8138 22.6843 44.4941L22.3759 46.2816L22.3759 46.2816C22.3649 46.3454 22.3745 46.3883 22.3885 46.4205C22.4046 46.4576 22.4344 46.497 22.4788 46.5291C22.5232 46.5611 22.5717 46.5783 22.6157 46.5824C22.6545 46.586 22.7024 46.581 22.7633 46.5492L22.7633 46.5492L24.1754 45.8109C24.7872 45.491 25.5424 45.7276 25.8623 46.3394C26.1822 46.9512 25.9455 47.7064 25.3338 48.0263L23.9217 48.7646C23.9217 48.7646 23.9217 48.7646 23.9216 48.7646C21.9073 49.8179 19.5212 48.1235 19.9123 45.8566C19.9123 45.8566 19.9123 45.8566 19.9123 45.8566L20.2206 44.0691C20.338 43.3888 20.9846 42.9324 21.6649 43.0498Z" fill="#F9F9FC"/>
<rect x="0.5" y="0.5" width="63" height="63" rx="31.5" stroke="#D3F8F7" stroke-dasharray="2 2"/>
</svg>
