<svg width="244" height="61" viewBox="0 0 244 61" fill="none" xmlns="http://www.w3.org/2000/svg">
<path opacity="0.8" d="M242.586 -29.1333C242.641 -17.1267 236.704 -5.61254 225.817 4.93619C214.93 15.4862 199.122 25.0375 179.531 33.0982C140.351 49.2185 86.1348 59.3372 26.1737 59.6106C-33.7874 59.884 -88.0938 50.2601 -127.419 34.4978C-147.083 26.6161 -162.977 17.2093 -173.96 6.75901C-184.942 -3.69001 -190.984 -15.1495 -191.039 -27.1561C-191.094 -39.1627 -185.157 -50.6769 -174.27 -61.2256C-163.382 -71.7756 -147.575 -81.3269 -127.984 -89.3876C-88.804 -105.508 -34.5876 -115.627 25.3735 -115.9C85.3345 -116.173 139.641 -106.55 178.966 -90.7872C198.63 -82.9055 214.524 -73.4987 225.507 -63.0484C236.49 -52.5994 242.531 -41.1399 242.586 -29.1333Z" stroke="#575775"/>
</svg>
