<svg width="476" height="238" viewBox="0 0 476 238" fill="none" xmlns="http://www.w3.org/2000/svg">
<g opacity="0.4">
<mask id="path-1-inside-1_29_3131" fill="white">
<path d="M0 238C5.51826e-06 174.878 25.0749 114.342 69.7085 69.7086C114.342 25.075 174.878 3.68707e-05 238 0C301.121 -3.68706e-05 361.658 25.0748 406.291 69.7084C450.925 114.342 476 174.878 476 238L238 238L0 238Z"/>
</mask>
<path d="M0 238C5.51826e-06 174.878 25.0749 114.342 69.7085 69.7086C114.342 25.075 174.878 3.68707e-05 238 0C301.121 -3.68706e-05 361.658 25.0748 406.291 69.7084C450.925 114.342 476 174.878 476 238L238 238L0 238Z" stroke="#575775" stroke-width="4" mask="url(#path-1-inside-1_29_3131)"/>
</g>
</svg>
