<svg fill="none" viewBox="0 0 32 32"><g clip-path="url(#clip0_3646_46141)"><path fill="#262541" d="M15.96 28.162l-.285-.012a13.626 13.626 0 01-9.496-4.195 14.013 14.013 0 01-3.896-9.732C2.283 6.54 8.436.288 15.998.288c7.561 0 13.717 6.252 13.717 13.935 0 3.1-1.093 6.17-3.248 9.123a25.15 25.15 0 01-4.9 4.983 24.016 24.016 0 01-5.607 3.247v-3.415z"/><path fill="#fff" d="M15.998.577a13.366 13.366 0 019.499 4.006 13.75 13.75 0 013.934 9.64c0 3.037-1.074 6.054-3.192 8.951a24.807 24.807 0 01-4.844 4.925 23.587 23.587 0 01-5.15 3.046v-3.269l-.557-.013a13.344 13.344 0 01-9.303-4.106 13.723 13.723 0 01-3.817-9.534C2.568 6.698 8.593.577 15.998.577zm0-.577a13.923 13.923 0 00-9.844 4.116A14.32 14.32 0 002 14.058a14.33 14.33 0 003.929 10.036 13.933 13.933 0 009.748 4.344V32a24.206 24.206 0 006.065-3.444 25.644 25.644 0 004.956-5.045C28.677 20.804 30 17.65 30 14.223a14.386 14.386 0 00-1.062-5.44 14.226 14.226 0 00-3.034-4.613 14 14 0 00-4.544-3.084A13.842 13.842 0 0015.998 0z"/><path fill="#fff" fill-rule="evenodd" d="M16 6.051c-4.444 0-8.045 3.653-8.045 8.159s3.601 8.158 8.044 8.158c4.443 0 8.045-3.652 8.045-8.158 0-4.506-3.602-8.159-8.045-8.159zM7.243 14.21c0-4.904 3.92-8.88 8.755-8.88 4.836 0 8.756 3.976 8.756 8.88 0 4.904-3.92 8.879-8.755 8.879-4.836 0-8.756-3.975-8.756-8.88z" clip-rule="evenodd"/><path fill="#fff" d="M20.082 10.955a5.174 5.174 0 00-3.299-1.95V5.862l2.51-1.425a10.033 10.033 0 013.42 2.01c.017.978.033 1.959.048 2.94l-2.679 1.568z"/><path fill="#fff" d="M19.32 4.757a9.782 9.782 0 013.11 1.828c.015.88.03 1.76.043 2.642l-2.326 1.363a5.447 5.447 0 00-3.08-1.827V6.03l2.252-1.274zm-.058-.629l-2.764 1.566V9.26a4.85 4.85 0 011.975.65 4.923 4.923 0 011.531 1.423l3.043-1.782-.052-3.235-.007-.008a10.423 10.423 0 00-3.718-2.184l-.008.004zm1.562 12.023c.48-1.23.487-2.598.02-3.832l2.694-1.579 2.451 1.473a10.373 10.373 0 01-.007 4.038L23.51 17.73l-2.685-1.579z"/><path fill="#fff" d="M23.536 11.075l2.2 1.321a10.183 10.183 0 01-.007 3.673l-.53.316-.736.432-.377.227-.577.343-2.332-1.368a5.66 5.66 0 00.011-3.572l2.344-1.372m0-.67l-3.046 1.79a5.05 5.05 0 01-.021 4.079l3.046 1.784 1.24-.74 1.483-.886a10.7 10.7 0 00.008-4.405l-2.7-1.624-.01.003zm-6.749 12.148v-3.141a5.175 5.175 0 003.27-1.906l2.685 1.573-.026 1.297-.033 1.632a10.07 10.07 0 01-3.376 1.975l-2.52-1.43z"/><path fill="#fff" d="M20.11 17.874l2.335 1.366-.01.433-.014.692c0 .2-.01.53-.017.865 0 .226-.009.454-.013.641a9.717 9.717 0 01-1.421 1.016 9.773 9.773 0 01-1.65.779l-1.158-.66-1.095-.622v-2.73a5.443 5.443 0 003.043-1.78m-.142-.747a4.925 4.925 0 01-1.521 1.392 4.853 4.853 0 01-1.949.64v3.564l2.77 1.574a10.381 10.381 0 003.686-2.162l.035-1.757.031-1.47-3.048-1.784-.005.003zm-7.258 6.86a10.072 10.072 0 01-3.372-1.965l-.033-1.633c-.009-.376-.019-.865-.026-1.297l2.684-1.576a5.18 5.18 0 003.269 1.899v3.138l-2.522 1.434z"/><path fill="#fff" d="M11.9 17.887a5.466 5.466 0 003.05 1.771v2.726l-2.274 1.287a9.797 9.797 0 01-3.064-1.784c0-.193 0-.404-.011-.614-.008-.313-.013-.629-.019-.892 0-.326-.016-.739-.023-1.128l2.334-1.366m.142-.745l-3.043 1.783.029 1.47.035 1.76c.544.491 1.138.923 1.771 1.287.607.354 1.248.644 1.913.865l2.779-1.577v-3.57a4.853 4.853 0 01-1.954-.632 4.923 4.923 0 01-1.528-1.386h-.002zm-6.02-.888a10.601 10.601 0 01-.008-4.044l1.443-.864 1.02-.614 2.69 1.57a5.352 5.352 0 00.02 3.865L8.499 17.73l-2.484-1.476z"/><path fill="#fff" d="M8.473 11.062l2.34 1.37a5.648 5.648 0 00.016 3.604L8.501 17.4l-1.072-.64-1.165-.688a10.189 10.189 0 01-.166-2.058c.013-.543.068-1.084.166-1.618l1.332-.801.878-.53m0-.668c-.905.545-1.813 1.09-2.716 1.635a10.915 10.915 0 00.009 4.41l2.736 1.632 3.037-1.786a5.049 5.049 0 01-.017-4.108L8.47 10.393l.004.004zm.774-1.028l.021-1.304c0-.346.02-1.192.027-1.635 1-.888 2.164-1.567 3.424-1.996l2.516 1.428v3.14a5.162 5.162 0 00-3.307 1.941L9.248 9.37z"/><path fill="#fff" d="M12.692 4.748l1.163.66 1.096.624v2.726a5.452 5.452 0 00-3.087 1.814L9.533 9.21v-.404c0-.288.008-.576.011-.73 0-.315.019-1.046.026-1.508a9.677 9.677 0 013.122-1.82m.059-.63a10.29 10.29 0 00-3.736 2.186c0 .383-.02 1.378-.028 1.761 0 .307-.017 1.01-.024 1.473l3.042 1.78A4.926 4.926 0 0113.541 9.9a4.85 4.85 0 011.978-.644V5.694L12.751 4.12z"/></g><defs><clipPath id="clip0_3646_46141"><path fill="#fff" d="M0 0h28v32H0z" transform="translate(2)"/></clipPath></defs></svg>