<svg xmlns="http://www.w3.org/2000/svg" width="962" height="432" fill="none"><path fill="#EFEFF6" d="m221.514 280 177.88-123.017c18.045-12.479 40.729 7.585 30.547 27.018L305.896 420.746A20.999 20.999 0 0 1 287.295 432H67.72c-20.633 0-28.894-26.642-11.882-38.315L221.514 280ZM670.439 279.765l218.727-128.857c18.865-11.113 40.017 10.446 28.546 29.096L768.865 422.002A21 21 0 0 1 750.978 432H487.54c-21.426 0-29.095-28.318-10.598-39.13l193.497-113.105Z"/><path fill="#fff" stroke="#148783" stroke-width="2" d="M306 14v417h-26V14c0-7.18 5.82-13 13-13s13 5.82 13 13ZM834 14v417h-26V14c0-7.18 5.82-13 13-13s13 5.82 13 13Z"/><path fill="#fff" stroke="#148783" stroke-width="2" d="M304.6 1h504.8c4.497 0 7.809 0 10.427.215 2.607.213 4.436.632 5.983 1.42a15.001 15.001 0 0 1 6.555 6.555c.788 1.547 1.207 3.377 1.42 5.983.214 2.618.215 5.93.215 10.427V27H280v-1.4c0-4.497.001-7.81.215-10.427.213-2.607.632-4.436 1.42-5.983a15.001 15.001 0 0 1 6.555-6.555c1.547-.788 3.376-1.207 5.983-1.42C296.791 1 300.103 1 304.6 1Z"/><path fill="#148783" d="M594.881 262.551c-12.69 0-23.627-3.006-32.813-9.02-9.185-6.06-16.264-14.749-21.236-26.065-4.971-11.364-7.433-25.024-7.386-40.98.047-15.957 2.533-29.498 7.457-40.625 4.972-11.174 12.027-19.674 21.165-25.497 9.186-5.872 20.123-8.807 32.813-8.807 12.689 0 23.627 2.935 32.812 8.807 9.233 5.823 16.335 14.323 21.307 25.497 4.972 11.174 7.434 24.716 7.386 40.625 0 16.004-2.485 29.687-7.457 41.051-4.972 11.364-12.05 20.052-21.236 26.065-9.138 5.966-20.076 8.949-32.812 8.949Zm0-28.764c7.575 0 13.707-3.859 18.395-11.577 4.687-7.765 7.007-19.673 6.96-35.724 0-10.512-1.066-19.176-3.196-25.995-2.131-6.865-5.09-11.979-8.878-15.34-3.788-3.362-8.215-5.043-13.281-5.043-7.529 0-13.613 3.812-18.253 11.435-4.64 7.575-6.984 19.223-7.031 34.943-.048 10.653.97 19.484 3.054 26.491 2.13 7.008 5.113 12.24 8.948 15.696 3.836 3.409 8.263 5.114 13.282 5.114Z"/><path fill="#148783" d="m562.068 253.531-1.101 1.67.006.004 1.095-1.674Zm-21.236-26.065-1.832.802.001.002 1.831-.804Zm-7.386-40.98-2-.006 2 .006Zm7.457-40.625-1.827-.813-.001.003 1.828.81Zm21.165-25.497 1.075 1.686.002-.001-1.077-1.685Zm65.625 0-1.077 1.685.01.006 1.067-1.691ZM649 145.861l1.827-.813-1.827.813Zm7.386 40.625-2-.006v.006h2Zm-7.457 41.051-1.832-.802 1.832.802Zm-21.236 26.065 1.094 1.675.002-.001-1.096-1.674Zm-14.417-31.392 1.709 1.038.003-.004-1.712-1.034Zm6.96-35.724h-2v.006l2-.006Zm-3.196-25.995-1.91.593.001.004 1.909-.597Zm-8.878-15.34 1.328-1.496-1.328 1.496Zm-31.534 6.392 1.705 1.044.003-.004-1.708-1.04Zm-7.031 34.943 2 .009v-.003l-2-.006Zm3.054 26.491-1.918.57.004.012 1.914-.582Zm8.948 15.696-1.339 1.486.011.009 1.328-1.495Zm13.282 31.878c-12.363 0-22.906-2.925-31.717-8.693l-2.191 3.347c9.559 6.258 20.891 9.346 33.908 9.346v-4Zm-31.711-8.689c-8.826-5.823-15.67-14.192-20.507-25.201l-3.662 1.609c5.107 11.624 12.42 20.633 21.966 26.931l2.203-3.339Zm-20.505-25.198c-4.833-11.047-7.266-24.417-7.219-40.172l-4-.012c-.048 16.158 2.444 30.108 7.554 41.788l3.665-1.604Zm-7.219-40.172c.047-15.762 2.503-29.014 7.286-39.822l-3.657-1.619c-5.066 11.446-7.581 25.278-7.629 41.429l4 .012Zm7.285-39.818c4.833-10.863 11.646-19.037 20.412-24.624l-2.15-3.373c-9.511 6.061-16.807 14.885-21.917 26.371l3.655 1.626Zm20.414-24.625c8.814-5.634 19.364-8.492 31.736-8.492v-4c-13.008 0-24.333 3.013-33.89 9.121l2.154 3.371Zm31.736-8.492c12.371 0 22.921 2.858 31.735 8.492l2.154-3.371c-9.557-6.108-20.882-9.121-33.889-9.121v4Zm31.745 8.498c8.859 5.588 15.716 13.761 20.547 24.619l3.654-1.626c-5.112-11.491-12.46-20.316-22.067-26.376l-2.134 3.383Zm20.547 24.619c4.828 10.851 7.26 24.098 7.213 39.806l4 .012c.048-16.11-2.443-29.947-7.559-41.444l-3.654 1.626Zm7.213 39.812c0 15.804-2.455 29.2-7.289 40.249l3.664 1.604c5.11-11.679 7.625-25.65 7.625-41.853h-4Zm-7.289 40.249c-4.837 11.056-11.68 19.42-20.499 25.194l2.191 3.347c9.551-6.253 16.866-15.265 21.972-26.937l-3.664-1.604ZM626.6 251.928c-8.762 5.72-19.305 8.623-31.719 8.623v4c13.058 0 24.391-3.062 33.906-9.274l-2.187-3.349Zm-31.719-16.141c8.418 0 15.135-4.358 20.104-12.539l-3.419-2.076c-4.406 7.255-9.952 10.615-16.685 10.615v4Zm20.107-12.543c4.972-8.237 7.295-20.591 7.248-36.764l-4 .012c.047 15.929-2.27 27.391-6.673 34.685l3.425 2.067Zm7.248-36.758c0-10.628-1.075-19.512-3.287-26.591l-3.818 1.193c2.049 6.557 3.105 15.003 3.105 25.398h4Zm-3.286-26.587c-2.196-7.076-5.308-12.559-9.46-16.244l-2.656 2.991c3.424 3.039 6.23 7.783 8.296 14.438l3.82-1.185Zm-9.46-16.244c-4.154-3.687-9.054-5.547-14.609-5.547v4c4.577 0 8.532 1.502 11.953 4.538l2.656-2.991Zm-14.609-5.547c-8.366 0-15.037 4.305-19.962 12.395l3.417 2.08c4.356-7.157 9.854-10.475 16.545-10.475v-4Zm-19.959 12.39c-4.928 8.046-7.278 20.14-7.325 35.982l4 .012c.047-15.598 2.384-26.8 6.736-33.905l-3.411-2.089Zm-7.325 35.979c-.048 10.768.978 19.81 3.136 27.07l3.835-1.14c-2.009-6.755-3.018-15.374-2.971-25.912l-4-.018Zm3.14 27.082c2.195 7.217 5.328 12.819 9.523 16.6l2.678-2.971c-3.474-3.132-6.307-7.995-8.374-14.793l-3.827 1.164Zm9.534 16.609c4.192 3.727 9.089 5.619 14.61 5.619v-4c-4.517 0-8.475-1.517-11.953-4.609l-2.657 2.99Z"/><path fill="#F9F9FC" d="M601.731 208.839c-3.452 2.059-5.045 4.25-10.222 14.01-1.128 1.992-2.124 3.054-3.12 3.187-1.991.266-3.186 3.055-4.181 9.495-.731 4.581-.664 4.913.597 5.976 1.394 1.062 1.394 1.062-.863 3.253l-2.323 2.191-3.784-3.585c-5.177-4.913-11.615-9.163-16.527-11.022-8.961-3.253-27.679-5.777-47.99-6.507-12.147-.465-12.28-.465-19.183-3.121-3.85-1.394-9.558-3.187-12.678-3.917-4.911-1.195-6.173-1.262-9.69-.598-4.315.864-11.616 3.984-12.944 5.644-.464.531-.995 3.054-1.128 5.511l-.332 4.449 3.584 4.98c1.991 2.722 4.116 6.44 4.779 8.299.664 1.793 1.992 4.648 2.854 6.308.93 1.66 1.925 4.781 2.191 6.905.664 4.382 1.46 5.644 2.854 4.515.73-.664 1.128-.265 2.124 1.859.996 2.191 1.527 2.656 3.12 2.656 1.792 0 1.858-.133 1.858-2.921 0-1.66.266-3.121.531-3.32.332-.199 1.195.996 1.992 2.589 1.327 2.723 1.659 2.988 3.783 2.988 2.921 0 3.319-.996 1.991-4.249-.597-1.394-.929-2.656-.73-2.855.199-.199 2.39.465 4.978 1.461 4.448 1.792 4.713 1.792 6.372.73.93-.598 1.66-1.328 1.66-1.66 0-.332-.863-2.59-1.991-4.98-1.062-2.39-1.726-4.382-1.461-4.382.199 0 6.505 1.992 14.006 4.449 16.66 5.577 16.527 5.378 11.018 12.15-4.314 5.246-11.881 12.549-17.789 17.131l-3.916 2.988-11.748.664-11.683.664-4.248-2.192c-7.434-3.718-8.894-4.05-12.014-2.855-2.655 1.063-3.053.996-12.478-1.195-9.293-2.125-10.488-2.656-26.684-10.69l-16.926-8.432-1.46 1.593c-.73.864-1.858 2.191-2.389 2.988l-.93 1.328-11.881-2.324c-11.549-2.257-12.213-2.456-22.833-7.635-11.616-5.644-13.807-6.308-29.538-8.898-12.08-1.992-18.983-2.788-31.196-3.718-10.953-.797-16.13-1.992-18.652-4.316-.996-.929-2.987-1.992-4.514-2.39-3.717-.93-12.346-5.644-19.713-10.557-6.837-4.648-10.753-6.175-18.32-7.304-5.974-.929-14.404-.398-16.594 1.063-2.722 1.726-3.651 4.581-3.385 10.424l.199 5.312 2.987 2.589c5.044 4.515 10.753 7.237 16.262 7.901 6.305.664 10.952 3.055 15.266 7.769 9.094 10.026 11.417 11.354 19.117 10.491 13.939-1.528 15.532-1.66 20.51-.996 6.903.863 12.678 2.722 33.055 10.69 9.293 3.651 20.245 7.502 24.294 8.498 4.779 1.262 10.222 3.32 15.731 6.043 7.899 3.851 8.761 4.448 14.271 10.158 3.186 3.387 7.301 8.034 9.093 10.292 3.253 4.183 8.696 8.167 20.909 15.47 4.58 2.723 4.978 3.121 4.978 5.113 0 2.125-.199 2.258-11.948 8.432-6.571 3.52-13.408 7.238-15.134 8.367-3.119 1.991-3.451 2.058-18.917 3.253-21.705 1.726-35.245 1.859-39.825.398-7.434-2.324-13.342-2.589-35.843-1.792l-21.374.796-3.916-2.855c-2.124-1.593-4.646-4.05-5.642-5.378-.995-1.394-3.385-3.452-5.243-4.515-4.182-2.39-7.966-2.589-14.935-.664-6.903 1.926-9.89 1.727-21.373-1.66-11.682-3.452-15.134-3.652-22.568-1.593-9.691 2.656-13.939 6.44-13.939 12.35 0 2.323.398 3.054 3.252 5.71 3.452 3.253 8.098 5.909 12.346 6.971 1.461.399 6.837 1.063 11.948 1.461 15.997 1.195 29.604 2.722 36.175 3.984 15.731 3.121 19.714 4.249 34.516 9.96 23.364 9.03 24.824 9.428 52.105 13.877 27.413 4.515 51.972 7.303 69.363 7.768 10.886.332 12.678.199 28.542-2.058 10.62-1.527 21.705-2.656 29.802-3.055 24.626-1.195 35.91-3.917 42.946-10.357 1.991-1.86 2.057-1.86 9.624-1.66 9.027.332 13.807-.664 20.842-4.183 4.448-2.258 8.563-5.047 29.87-20.318 5.31-3.785 12.478-8.167 16.726-10.225 8.961-4.382 15.599-9.296 24.56-18.193l6.704-6.706 17.058-.664c21.838-.93 31.728-2.523 39.029-6.441 5.443-2.987 6.107-4.116 17.192-30.874 8.164-19.787 9.757-24.235 14.536-40.702 1.527-5.245 3.253-9.893 4.049-10.756.73-.73 3.385-2.855 5.908-4.648 4.314-3.054 5.907-5.179 5.907-8.1 0-.598-1.593-2.789-3.518-4.914-2.721-2.921-3.982-3.784-5.509-3.784-1.261 0-3.053-.93-5.244-2.656-3.651-2.922-4.115-3.054-6.637-1.859-1.394.597-1.66 1.128-1.328 2.324.465 1.859.066 1.925-2.19.132l-1.793-1.394-.199 1.726c-.132.996-.464 1.594-.73 1.461-.995-.664-8.761-1.66-9.757-1.261-.531.199-1.394 1.195-1.925 2.191l-.929 1.859 3.451 1.261c3.319 1.262 3.452 1.461 4.58 5.179.598 2.125.996 4.117.863 4.383-.199.265-1.327.663-2.655.863-2.058.398-2.655.132-7.036-3.586-3.783-3.12-5.243-3.984-7.036-3.984-2.256 0-5.509 2.391-5.509 4.051 0 .464 2.854 3.651 6.306 7.171 3.518 3.519 6.903 7.303 7.633 8.366 1.726 2.655 2.323 7.17 1.394 10.424-.929 3.054-6.438 15.138-14.138 31.14l-5.31 11.022-11.019-.265-11.084-.332-9.293-4.316c-5.244-2.391-11.218-5.777-13.74-7.702l-4.514-3.387v-6.307l.067-6.374 7.965-8.898c7.235-8.034 7.899-9.03 7.567-10.756-.332-1.461.199-3.453 1.991-7.569 3.253-7.636 3.518-9.495 1.593-13.213-2.124-4.25-8.961-10.69-13.673-12.815-3.054-1.394-5.111-1.793-10.156-1.992-6.04-.265-6.438-.199-9.757 1.726Z"/><mask id="a" fill="#fff"><path d="M597.731 204.839c-3.452 2.059-5.045 4.25-10.222 14.01-1.128 1.992-2.124 3.054-3.12 3.187-1.991.266-3.186 3.055-4.181 9.495-.731 4.581-.664 4.913.597 5.976 1.394 1.062 1.394 1.062-.863 3.253l-2.323 2.191-3.784-3.585c-5.177-4.913-11.615-9.163-16.527-11.022-8.961-3.253-27.679-5.777-47.99-6.507-12.147-.465-12.28-.465-19.183-3.121-3.85-1.394-9.558-3.187-12.678-3.917-4.911-1.195-6.173-1.262-9.69-.598-4.315.864-11.616 3.984-12.944 5.644-.464.531-.995 3.054-1.128 5.511l-.332 4.449 3.584 4.98c1.991 2.722 4.116 6.44 4.779 8.299.664 1.793 1.992 4.648 2.854 6.308.93 1.66 1.925 4.781 2.191 6.905.664 4.382 1.46 5.644 2.854 4.515.73-.664 1.128-.265 2.124 1.859.996 2.191 1.527 2.656 3.12 2.656 1.792 0 1.858-.133 1.858-2.921 0-1.66.266-3.121.531-3.32.332-.199 1.195.996 1.992 2.589 1.327 2.723 1.659 2.988 3.783 2.988 2.921 0 3.319-.996 1.991-4.249-.597-1.394-.929-2.656-.73-2.855.199-.199 2.39.465 4.978 1.461 4.448 1.792 4.713 1.792 6.372.73.93-.598 1.66-1.328 1.66-1.66 0-.332-.863-2.59-1.991-4.98-1.062-2.39-1.726-4.382-1.461-4.382.199 0 6.505 1.992 14.006 4.449 16.66 5.577 16.527 5.378 11.018 12.15-4.314 5.246-11.881 12.549-17.789 17.131l-3.916 2.988-11.748.664-11.683.664-4.248-2.192c-7.434-3.718-8.894-4.05-12.014-2.855-2.655 1.063-3.053.996-12.478-1.195-9.293-2.125-10.488-2.656-26.684-10.69l-16.926-8.432-1.46 1.593c-.73.864-1.858 2.191-2.389 2.988l-.93 1.328-11.881-2.324c-11.549-2.257-12.213-2.456-22.833-7.635-11.616-5.644-13.807-6.308-29.538-8.898-12.08-1.992-18.983-2.788-31.196-3.718-10.953-.797-16.13-1.992-18.652-4.316-.996-.929-2.987-1.992-4.514-2.39-3.717-.93-12.346-5.644-19.713-10.557-6.837-4.648-10.753-6.175-18.32-7.304-5.974-.929-14.404-.398-16.594 1.063-2.722 1.726-3.651 4.581-3.385 10.424l.199 5.312 2.987 2.589c5.044 4.515 10.753 7.237 16.262 7.901 6.305.664 10.952 3.055 15.266 7.769 9.094 10.026 11.417 11.354 19.117 10.491 13.939-1.528 15.532-1.66 20.51-.996 6.903.863 12.678 2.722 33.055 10.69 9.293 3.651 20.245 7.502 24.294 8.498 4.779 1.262 10.222 3.32 15.731 6.043 7.899 3.851 8.761 4.448 14.271 10.158 3.186 3.387 7.301 8.034 9.093 10.292 3.253 4.183 8.696 8.167 20.909 15.47 4.58 2.723 4.978 3.121 4.978 5.113 0 2.125-.199 2.258-11.948 8.432-6.571 3.52-13.408 7.238-15.134 8.367-3.119 1.991-3.451 2.058-18.917 3.253-21.705 1.726-35.245 1.859-39.825.398-7.434-2.324-13.342-2.589-35.843-1.792l-21.374.796-3.916-2.855c-2.124-1.593-4.646-4.05-5.642-5.378-.995-1.394-3.385-3.452-5.243-4.515-4.182-2.39-7.966-2.589-14.935-.664-6.903 1.926-9.89 1.727-21.373-1.66-11.682-3.452-15.134-3.652-22.568-1.593-9.691 2.656-13.939 6.44-13.939 12.35 0 2.323.398 3.054 3.252 5.71 3.452 3.253 8.098 5.909 12.346 6.971 1.461.399 6.837 1.063 11.948 1.461 15.997 1.195 29.604 2.722 36.175 3.984 15.731 3.121 19.714 4.249 34.516 9.96 23.364 9.03 24.824 9.428 52.105 13.877 27.413 4.515 51.972 7.303 69.363 7.768 10.886.332 12.678.199 28.542-2.058 10.62-1.527 21.705-2.656 29.802-3.055 24.626-1.195 35.91-3.917 42.946-10.357 1.991-1.86 2.057-1.86 9.624-1.66 9.027.332 13.807-.664 20.842-4.183 4.448-2.258 8.563-5.047 29.87-20.318 5.31-3.785 12.478-8.167 16.726-10.225 8.961-4.382 15.599-9.296 24.56-18.193l6.704-6.706 17.058-.664c21.838-.93 31.728-2.523 39.029-6.441 5.443-2.987 6.107-4.116 17.192-30.874 8.164-19.787 9.757-24.235 14.536-40.702 1.527-5.245 3.253-9.893 4.049-10.756.73-.73 3.385-2.855 5.908-4.648 4.314-3.054 5.907-5.179 5.907-8.1 0-.598-1.593-2.789-3.518-4.914-2.721-2.921-3.982-3.784-5.509-3.784-1.261 0-3.053-.93-5.244-2.656-3.651-2.922-4.115-3.054-6.637-1.859-1.394.597-1.66 1.128-1.328 2.324.465 1.859.066 1.925-2.19.132l-1.793-1.394-.199 1.726c-.132.996-.464 1.594-.73 1.461-.995-.664-8.761-1.66-9.757-1.261-.531.199-1.394 1.195-1.925 2.191l-.929 1.859 3.451 1.261c3.319 1.262 3.452 1.461 4.58 5.179.598 2.125.996 4.117.863 4.383-.199.265-1.327.663-2.655.863-2.058.398-2.655.132-7.036-3.586-3.783-3.12-5.243-3.984-7.036-3.984-2.256 0-5.509 2.391-5.509 4.051 0 .464 2.854 3.651 6.306 7.171 3.518 3.519 6.903 7.303 7.633 8.366 1.726 2.655 2.323 7.17 1.394 10.424-.929 3.054-6.438 15.138-14.138 31.14l-5.31 11.022-11.019-.265-11.084-.332-9.293-4.316c-5.244-2.391-11.218-5.777-13.74-7.702l-4.514-3.387v-6.307l.067-6.374 7.965-8.898c7.235-8.034 7.899-9.03 7.567-10.756-.332-1.461.199-3.453 1.991-7.569 3.253-7.636 3.518-9.495 1.593-13.213-2.124-4.25-8.961-10.69-13.673-12.815-3.054-1.394-5.111-1.793-10.156-1.992-6.04-.265-6.438-.199-9.757 1.726Z"/></mask><path stroke="#148783" stroke-width="2" d="M597.731 204.839c-3.452 2.059-5.045 4.25-10.222 14.01-1.128 1.992-2.124 3.054-3.12 3.187-1.991.266-3.186 3.055-4.181 9.495-.731 4.581-.664 4.913.597 5.976 1.394 1.062 1.394 1.062-.863 3.253l-2.323 2.191-3.784-3.585c-5.177-4.913-11.615-9.163-16.527-11.022-8.961-3.253-27.679-5.777-47.99-6.507-12.147-.465-12.28-.465-19.183-3.121-3.85-1.394-9.558-3.187-12.678-3.917-4.911-1.195-6.173-1.262-9.69-.598-4.315.864-11.616 3.984-12.944 5.644-.464.531-.995 3.054-1.128 5.511l-.332 4.449 3.584 4.98c1.991 2.722 4.116 6.44 4.779 8.299.664 1.793 1.992 4.648 2.854 6.308.93 1.66 1.925 4.781 2.191 6.905.664 4.382 1.46 5.644 2.854 4.515.73-.664 1.128-.265 2.124 1.859.996 2.191 1.527 2.656 3.12 2.656 1.792 0 1.858-.133 1.858-2.921 0-1.66.266-3.121.531-3.32.332-.199 1.195.996 1.992 2.589 1.327 2.723 1.659 2.988 3.783 2.988 2.921 0 3.319-.996 1.991-4.249-.597-1.394-.929-2.656-.73-2.855.199-.199 2.39.465 4.978 1.461 4.448 1.792 4.713 1.792 6.372.73.93-.598 1.66-1.328 1.66-1.66 0-.332-.863-2.59-1.991-4.98-1.062-2.39-1.726-4.382-1.461-4.382.199 0 6.505 1.992 14.006 4.449 16.66 5.577 16.527 5.378 11.018 12.15-4.314 5.246-11.881 12.549-17.789 17.131l-3.916 2.988-11.748.664-11.683.664-4.248-2.192c-7.434-3.718-8.894-4.05-12.014-2.855-2.655 1.063-3.053.996-12.478-1.195-9.293-2.125-10.488-2.656-26.684-10.69l-16.926-8.432-1.46 1.593c-.73.864-1.858 2.191-2.389 2.988l-.93 1.328-11.881-2.324c-11.549-2.257-12.213-2.456-22.833-7.635-11.616-5.644-13.807-6.308-29.538-8.898-12.08-1.992-18.983-2.788-31.196-3.718-10.953-.797-16.13-1.992-18.652-4.316-.996-.929-2.987-1.992-4.514-2.39-3.717-.93-12.346-5.644-19.713-10.557-6.837-4.648-10.753-6.175-18.32-7.304-5.974-.929-14.404-.398-16.594 1.063-2.722 1.726-3.651 4.581-3.385 10.424l.199 5.312 2.987 2.589c5.044 4.515 10.753 7.237 16.262 7.901 6.305.664 10.952 3.055 15.266 7.769 9.094 10.026 11.417 11.354 19.117 10.491 13.939-1.528 15.532-1.66 20.51-.996 6.903.863 12.678 2.722 33.055 10.69 9.293 3.651 20.245 7.502 24.294 8.498 4.779 1.262 10.222 3.32 15.731 6.043 7.899 3.851 8.761 4.448 14.271 10.158 3.186 3.387 7.301 8.034 9.093 10.292 3.253 4.183 8.696 8.167 20.909 15.47 4.58 2.723 4.978 3.121 4.978 5.113 0 2.125-.199 2.258-11.948 8.432-6.571 3.52-13.408 7.238-15.134 8.367-3.119 1.991-3.451 2.058-18.917 3.253-21.705 1.726-35.245 1.859-39.825.398-7.434-2.324-13.342-2.589-35.843-1.792l-21.374.796-3.916-2.855c-2.124-1.593-4.646-4.05-5.642-5.378-.995-1.394-3.385-3.452-5.243-4.515-4.182-2.39-7.966-2.589-14.935-.664-6.903 1.926-9.89 1.727-21.373-1.66-11.682-3.452-15.134-3.652-22.568-1.593-9.691 2.656-13.939 6.44-13.939 12.35 0 2.323.398 3.054 3.252 5.71 3.452 3.253 8.098 5.909 12.346 6.971 1.461.399 6.837 1.063 11.948 1.461 15.997 1.195 29.604 2.722 36.175 3.984 15.731 3.121 19.714 4.249 34.516 9.96 23.364 9.03 24.824 9.428 52.105 13.877 27.413 4.515 51.972 7.303 69.363 7.768 10.886.332 12.678.199 28.542-2.058 10.62-1.527 21.705-2.656 29.802-3.055 24.626-1.195 35.91-3.917 42.946-10.357 1.991-1.86 2.057-1.86 9.624-1.66 9.027.332 13.807-.664 20.842-4.183 4.448-2.258 8.563-5.047 29.87-20.318 5.31-3.785 12.478-8.167 16.726-10.225 8.961-4.382 15.599-9.296 24.56-18.193l6.704-6.706 17.058-.664c21.838-.93 31.728-2.523 39.029-6.441 5.443-2.987 6.107-4.116 17.192-30.874 8.164-19.787 9.757-24.235 14.536-40.702 1.527-5.245 3.253-9.893 4.049-10.756.73-.73 3.385-2.855 5.908-4.648 4.314-3.054 5.907-5.179 5.907-8.1 0-.598-1.593-2.789-3.518-4.914-2.721-2.921-3.982-3.784-5.509-3.784-1.261 0-3.053-.93-5.244-2.656-3.651-2.922-4.115-3.054-6.637-1.859-1.394.597-1.66 1.128-1.328 2.324.465 1.859.066 1.925-2.19.132l-1.793-1.394-.199 1.726c-.132.996-.464 1.594-.73 1.461-.995-.664-8.761-1.66-9.757-1.261-.531.199-1.394 1.195-1.925 2.191l-.929 1.859 3.451 1.261c3.319 1.262 3.452 1.461 4.58 5.179.598 2.125.996 4.117.863 4.383-.199.265-1.327.663-2.655.863-2.058.398-2.655.132-7.036-3.586-3.783-3.12-5.243-3.984-7.036-3.984-2.256 0-5.509 2.391-5.509 4.051 0 .464 2.854 3.651 6.306 7.171 3.518 3.519 6.903 7.303 7.633 8.366 1.726 2.655 2.323 7.17 1.394 10.424-.929 3.054-6.438 15.138-14.138 31.14l-5.31 11.022-11.019-.265-11.084-.332-9.293-4.316c-5.244-2.391-11.218-5.777-13.74-7.702l-4.514-3.387v-6.307l.067-6.374 7.965-8.898c7.235-8.034 7.899-9.03 7.567-10.756-.332-1.461.199-3.453 1.991-7.569 3.253-7.636 3.518-9.495 1.593-13.213-2.124-4.25-8.961-10.69-13.673-12.815-3.054-1.394-5.111-1.793-10.156-1.992-6.04-.265-6.438-.199-9.757 1.726Z" mask="url(#a)"/><path fill="#148783" d="M394.949 234.852v-27.414l59.588-93.893h24.361v37.216h-14.134l-34.872 55.256v1.136h86.293v27.699H394.949ZM465.19 259v-32.528l.711-12.003V113.545h32.883V259H465.19Z"/><path fill="#148783" d="M394.949 234.852h-2v2h2v-2Zm0-27.414-1.689-1.072-.311.49v.582h2Zm59.588-93.893v-2h-1.1l-.589.929 1.689 1.071Zm24.361 0h2v-2h-2v2Zm0 37.216v2h2v-2h-2Zm-14.134 0v-2h-1.103l-.588.933 1.691 1.067Zm-34.872 55.256-1.691-1.067-.309.489v.578h2Zm0 1.136h-2v2h2v-2Zm86.293 0h2v-2h-2v2Zm0 27.699v2h2v-2h-2ZM465.19 259h-2v2h2v-2Zm0-32.528-1.996-.119-.004.059v.06h2Zm.711-12.003 1.996.118.004-.059v-.059h-2Zm0-100.924v-2h-2v2h2Zm32.883 0h2v-2h-2v2Zm0 145.455v2h2v-2h-2Zm-101.835-24.148v-27.414h-4v27.414h4Zm-.311-26.343 59.588-93.892-3.378-2.143-59.588 93.892 3.378 2.143Zm57.899-92.964h24.361v-4h-24.361v4Zm22.361-2v37.216h4v-37.216h-4Zm2 35.216h-14.134v4h14.134v-4Zm-15.825.933-34.872 55.256 3.382 2.134 34.873-55.255-3.383-2.135Zm-35.181 56.323v1.136h4v-1.136h-4Zm2 3.136h86.293v-4h-86.293v4Zm84.293-2v27.699h4v-27.699h-4Zm2 25.699H394.949v4h121.236v-4ZM467.19 259v-32.528h-4V259h4Zm-.003-32.41.71-12.003-3.993-.236-.71 12.002 3.993.237Zm.714-12.121V113.545h-4v100.924h4Zm-2-98.924h32.883v-4h-32.883v4Zm30.883-2V259h4V113.545h-4Zm2 143.455H465.19v4h33.594v-4Z"/><path fill="#F9F9FC" d="M496.953 81.923c-4.623 1.213-9.048 3.908-12.615 7.68-8.85 9.229-9.84 25.06-2.179 35.367 5.746 7.679 13.803 11.519 23.512 10.98 4.557-.202 6.34-.674 9.774-2.425 8.057-4.042 13.473-11.452 15.124-20.614 3.501-19.131-14.926-36.107-33.616-30.988Z"/><path stroke="#148783" d="m500.085 80.406-.005.001c-4.525 1.187-8.87 3.829-12.378 7.54l-.003.002c-8.68 9.052-9.655 24.61-2.139 34.722 5.646 7.546 13.544 11.309 23.083 10.78h.005c2.268-.101 3.813-.268 5.209-.617 1.392-.349 2.659-.886 4.361-1.754l.003-.002c7.91-3.968 13.232-11.242 14.856-20.255v-.002c3.435-18.772-14.66-35.437-32.992-30.415Z"/><path fill="#148783" d="M674.949 234.852v-27.414l59.588-93.893h24.361v37.216h-14.134l-34.872 55.256v1.136h86.293v27.699H674.949ZM745.19 259v-32.528l.711-12.003V113.545h32.883V259H745.19Z"/><path fill="#148783" d="M674.949 234.852h-2v2h2v-2Zm0-27.414-1.689-1.072-.311.49v.582h2Zm59.588-93.893v-2h-1.1l-.589.929 1.689 1.071Zm24.361 0h2v-2h-2v2Zm0 37.216v2h2v-2h-2Zm-14.134 0v-2h-1.103l-.588.933 1.691 1.067Zm-34.872 55.256-1.691-1.067-.309.489v.578h2Zm0 1.136h-2v2h2v-2Zm86.293 0h2v-2h-2v2Zm0 27.699v2h2v-2h-2ZM745.19 259h-2v2h2v-2Zm0-32.528-1.996-.119-.004.059v.06h2Zm.711-12.003 1.996.118.004-.059v-.059h-2Zm0-100.924v-2h-2v2h2Zm32.883 0h2v-2h-2v2Zm0 145.455v2h2v-2h-2Zm-101.835-24.148v-27.414h-4v27.414h4Zm-.311-26.343 59.588-93.892-3.378-2.143-59.588 93.892 3.378 2.143Zm57.899-92.964h24.361v-4h-24.361v4Zm22.361-2v37.216h4v-37.216h-4Zm2 35.216h-14.134v4h14.134v-4Zm-15.825.933-34.872 55.256 3.382 2.134 34.873-55.255-3.383-2.135Zm-35.181 56.323v1.136h4v-1.136h-4Zm2 3.136h86.293v-4h-86.293v4Zm84.293-2v27.699h4v-27.699h-4Zm2 25.699H674.949v4h121.236v-4ZM747.19 259v-32.528h-4V259h4Zm-.003-32.41.71-12.003-3.993-.236-.71 12.002 3.993.237Zm.714-12.121V113.545h-4v100.924h4Zm-2-98.924h32.883v-4h-32.883v4Zm30.883-2V259h4V113.545h-4Zm2 143.455H745.19v4h33.594v-4Z"/></svg>