<svg width="962" height="432" viewBox="0 0 962 432" fill="none" xmlns="http://www.w3.org/2000/svg">
<path d="M221.514 280L399.394 156.983C417.439 144.504 440.123 164.568 429.941 184.001L305.896 420.746C302.271 427.665 295.106 432 287.295 432H67.72C47.0875 432 38.8259 405.358 55.8384 393.685L221.514 280Z" fill="#EFEFF6"/>
<path d="M670.439 279.765L889.166 150.908C908.031 139.795 929.183 161.354 917.712 180.004L768.865 422.002C765.044 428.215 758.272 432 750.978 432H487.54C466.114 432 458.445 403.682 476.942 392.87L670.439 279.765Z" fill="#EFEFF6"/>
<path d="M306 14V431H280V14C280 6.8203 285.82 1 293 1C300.18 1 306 6.8203 306 14Z" fill="white" stroke="#148783" stroke-width="2"/>
<path d="M834 14V431H808V14C808 6.8203 813.82 1 821 1C828.18 1 834 6.8203 834 14Z" fill="white" stroke="#148783" stroke-width="2"/>
<path d="M304.6 1H809.4C813.897 1 817.209 1.00078 819.827 1.21467C822.434 1.4276 824.263 1.84675 825.81 2.6349C828.632 4.073 830.927 6.36771 832.365 9.19014C833.153 10.737 833.572 12.5665 833.785 15.1727C833.999 17.7905 834 21.1031 834 25.6V27H280V25.6C280 21.1031 280.001 17.7905 280.215 15.1727C280.428 12.5665 280.847 10.737 281.635 9.19014C283.073 6.36771 285.368 4.073 288.19 2.6349C289.737 1.84676 291.566 1.4276 294.173 1.21467C296.791 1.00078 300.103 1 304.6 1Z" fill="white" stroke="#148783" stroke-width="2"/>
<path d="M594.881 262.551C582.191 262.551 571.254 259.545 562.068 253.531C552.883 247.471 545.804 238.782 540.832 227.466C535.861 216.102 533.399 202.442 533.446 186.486C533.493 170.529 535.979 156.988 540.903 145.861C545.875 134.687 552.93 126.187 562.068 120.364C571.254 114.492 582.191 111.557 594.881 111.557C607.57 111.557 618.508 114.492 627.693 120.364C636.926 126.187 644.028 134.687 649 145.861C653.972 157.035 656.434 170.577 656.386 186.486C656.386 202.49 653.901 216.173 648.929 227.537C643.957 238.901 636.879 247.589 627.693 253.602C618.555 259.568 607.617 262.551 594.881 262.551ZM594.881 233.787C602.456 233.787 608.588 229.928 613.276 222.21C617.963 214.445 620.283 202.537 620.236 186.486C620.236 175.974 619.17 167.31 617.04 160.491C614.909 153.626 611.95 148.512 608.162 145.151C604.374 141.789 599.947 140.108 594.881 140.108C587.352 140.108 581.268 143.92 576.628 151.543C571.988 159.118 569.644 170.766 569.597 186.486C569.549 197.139 570.567 205.97 572.651 212.977C574.781 219.985 577.764 225.217 581.599 228.673C585.435 232.082 589.862 233.787 594.881 233.787Z" fill="#148783"/>
<path d="M562.068 253.531L560.967 255.201L560.973 255.205L562.068 253.531ZM540.832 227.466L539 228.268L539.001 228.27L540.832 227.466ZM533.446 186.486L531.446 186.48L531.446 186.48L533.446 186.486ZM540.903 145.861L539.076 145.048L539.075 145.051L540.903 145.861ZM562.068 120.364L563.143 122.05L563.145 122.049L562.068 120.364ZM627.693 120.364L626.616 122.049L626.626 122.055L627.693 120.364ZM649 145.861L650.827 145.048L650.827 145.048L649 145.861ZM656.386 186.486L654.386 186.48V186.486H656.386ZM648.929 227.537L647.097 226.735L647.097 226.735L648.929 227.537ZM627.693 253.602L628.787 255.277L628.789 255.276L627.693 253.602ZM613.276 222.21L614.985 223.248L614.988 223.244L613.276 222.21ZM620.236 186.486L618.236 186.486L618.236 186.492L620.236 186.486ZM617.04 160.491L615.13 161.084L615.131 161.088L617.04 160.491ZM608.162 145.151L609.49 143.655L609.49 143.655L608.162 145.151ZM576.628 151.543L578.333 152.587L578.336 152.583L576.628 151.543ZM569.597 186.486L571.597 186.495L571.597 186.492L569.597 186.486ZM572.651 212.977L570.733 213.547L570.737 213.559L572.651 212.977ZM581.599 228.673L580.26 230.159L580.271 230.168L581.599 228.673ZM594.881 260.551C582.518 260.551 571.975 257.626 563.164 251.858L560.973 255.205C570.532 261.463 581.864 264.551 594.881 264.551V260.551ZM563.17 251.862C554.344 246.039 547.5 237.67 542.663 226.661L539.001 228.27C544.108 239.894 551.421 248.903 560.967 255.201L563.17 251.862ZM542.665 226.664C537.832 215.617 535.399 202.247 535.446 186.492L531.446 186.48C531.398 202.638 533.89 216.588 539 228.268L542.665 226.664ZM535.446 186.492C535.493 170.73 537.949 157.478 542.732 146.67L539.075 145.051C534.009 156.497 531.494 170.329 531.446 186.48L535.446 186.492ZM542.731 146.674C547.564 135.811 554.377 127.637 563.143 122.05L560.993 118.677C551.482 124.738 544.186 133.562 539.076 145.048L542.731 146.674ZM563.145 122.049C571.959 116.415 582.509 113.557 594.881 113.557V109.557C581.873 109.557 570.548 112.57 560.991 118.678L563.145 122.049ZM594.881 113.557C607.252 113.557 617.802 116.415 626.616 122.049L628.77 118.678C619.213 112.57 607.888 109.557 594.881 109.557V113.557ZM626.626 122.055C635.485 127.643 642.342 135.816 647.173 146.674L650.827 145.048C645.715 133.557 638.367 124.732 628.76 118.672L626.626 122.055ZM647.173 146.674C652.001 157.525 654.433 170.772 654.386 186.48L658.386 186.492C658.434 170.382 655.943 156.545 650.827 145.048L647.173 146.674ZM654.386 186.486C654.386 202.29 651.931 215.686 647.097 226.735L650.761 228.339C655.871 216.66 658.386 202.689 658.386 186.486H654.386ZM647.097 226.735C642.26 237.791 635.417 246.155 626.598 251.929L628.789 255.276C638.34 249.023 645.655 240.011 650.761 228.339L647.097 226.735ZM626.6 251.928C617.838 257.648 607.295 260.551 594.881 260.551V264.551C607.939 264.551 619.272 261.489 628.787 255.277L626.6 251.928ZM594.881 235.787C603.299 235.787 610.016 231.429 614.985 223.248L611.566 221.172C607.16 228.427 601.614 231.787 594.881 231.787V235.787ZM614.988 223.244C619.96 215.007 622.283 202.653 622.236 186.48L618.236 186.492C618.283 202.421 615.966 213.883 611.563 221.177L614.988 223.244ZM622.236 186.486C622.236 175.858 621.161 166.974 618.949 159.895L615.131 161.088C617.18 167.645 618.236 176.091 618.236 186.486H622.236ZM618.95 159.899C616.754 152.823 613.642 147.34 609.49 143.655L606.834 146.646C610.258 149.685 613.064 154.429 615.13 161.084L618.95 159.899ZM609.49 143.655C605.336 139.968 600.436 138.108 594.881 138.108V142.108C599.458 142.108 603.413 143.61 606.834 146.646L609.49 143.655ZM594.881 138.108C586.515 138.108 579.844 142.413 574.919 150.503L578.336 152.583C582.692 145.426 588.19 142.108 594.881 142.108V138.108ZM574.922 150.498C569.994 158.544 567.644 170.638 567.597 186.48L571.597 186.492C571.644 170.894 573.981 159.692 578.333 152.587L574.922 150.498ZM567.597 186.477C567.549 197.245 568.575 206.287 570.733 213.547L574.568 212.407C572.559 205.652 571.55 197.033 571.597 186.495L567.597 186.477ZM570.737 213.559C572.932 220.776 576.065 226.378 580.26 230.159L582.938 227.188C579.464 224.056 576.631 219.193 574.564 212.395L570.737 213.559ZM580.271 230.168C584.463 233.895 589.36 235.787 594.881 235.787V231.787C590.364 231.787 586.406 230.27 582.928 227.178L580.271 230.168Z" fill="#148783"/>
<path d="M601.731 208.839C598.279 210.898 596.686 213.089 591.509 222.849C590.381 224.841 589.385 225.903 588.389 226.036C586.398 226.302 585.203 229.091 584.208 235.531C583.477 240.112 583.544 240.444 584.805 241.507C586.199 242.569 586.199 242.569 583.942 244.76L581.619 246.951L577.835 243.366C572.658 238.453 566.22 234.203 561.308 232.344C552.347 229.091 533.629 226.567 513.318 225.837C501.171 225.372 501.038 225.372 494.135 222.716C490.285 221.322 484.577 219.529 481.457 218.799C476.546 217.604 475.284 217.537 471.767 218.201C467.452 219.065 460.151 222.185 458.823 223.845C458.359 224.376 457.828 226.899 457.695 229.356L457.363 233.805L460.947 238.785C462.938 241.507 465.063 245.225 465.726 247.084C466.39 248.877 467.718 251.732 468.58 253.392C469.51 255.052 470.505 258.173 470.771 260.297C471.435 264.679 472.231 265.941 473.625 264.812C474.355 264.148 474.753 264.547 475.749 266.671C476.745 268.862 477.276 269.327 478.869 269.327C480.661 269.327 480.727 269.194 480.727 266.406C480.727 264.746 480.993 263.285 481.258 263.086C481.59 262.887 482.453 264.082 483.25 265.675C484.577 268.398 484.909 268.663 487.033 268.663C489.954 268.663 490.352 267.667 489.024 264.414C488.427 263.02 488.095 261.758 488.294 261.559C488.493 261.36 490.684 262.024 493.272 263.02C497.72 264.812 497.985 264.812 499.644 263.75C500.574 263.152 501.304 262.422 501.304 262.09C501.304 261.758 500.441 259.5 499.313 257.11C498.251 254.72 497.587 252.728 497.852 252.728C498.051 252.728 504.357 254.72 511.858 257.177C528.518 262.754 528.385 262.555 522.876 269.327C518.562 274.573 510.995 281.876 505.087 286.458L501.171 289.446L489.423 290.11L477.74 290.774L473.492 288.582C466.058 284.864 464.598 284.532 461.478 285.727C458.823 286.79 458.425 286.723 449 284.532C439.707 282.407 438.512 281.876 422.316 273.842L405.39 265.41L403.93 267.003C403.2 267.867 402.072 269.194 401.541 269.991L400.611 271.319L388.73 268.995C377.181 266.738 376.517 266.539 365.897 261.36C354.281 255.716 352.09 255.052 336.359 252.462C324.279 250.47 317.376 249.674 305.163 248.744C294.21 247.947 289.033 246.752 286.511 244.428C285.515 243.499 283.524 242.436 281.997 242.038C278.28 241.108 269.651 236.394 262.284 231.481C255.447 226.833 251.531 225.306 243.964 224.177C237.99 223.248 229.56 223.779 227.37 225.24C224.648 226.966 223.719 229.821 223.985 235.664L224.184 240.976L227.171 243.565C232.215 248.08 237.924 250.802 243.433 251.466C249.738 252.13 254.385 254.521 258.699 259.235C267.793 269.261 270.116 270.589 277.816 269.726C291.755 268.198 293.348 268.066 298.326 268.73C305.229 269.593 311.004 271.452 331.381 279.42C340.674 283.071 351.626 286.922 355.675 287.918C360.454 289.18 365.897 291.238 371.406 293.961C379.305 297.812 380.167 298.409 385.677 304.119C388.863 307.506 392.978 312.153 394.77 314.411C398.023 318.594 403.466 322.578 415.679 329.881C420.259 332.604 420.657 333.002 420.657 334.994C420.657 337.119 420.458 337.252 408.709 343.426C402.138 346.946 395.301 350.664 393.575 351.793C390.456 353.784 390.124 353.851 374.658 355.046C352.953 356.772 339.413 356.905 334.833 355.444C327.399 353.12 321.491 352.855 298.99 353.652L277.616 354.448L273.7 351.593C271.576 350 269.054 347.543 268.058 346.215C267.063 344.821 264.673 342.763 262.815 341.7C258.633 339.31 254.849 339.111 247.88 341.036C240.977 342.962 237.99 342.763 226.507 339.376C214.825 335.924 211.373 335.724 203.939 337.783C194.248 340.439 190 344.223 190 350.133C190 352.456 190.398 353.187 193.252 355.843C196.704 359.096 201.35 361.752 205.598 362.814C207.059 363.213 212.435 363.877 217.546 364.275C233.543 365.47 247.15 366.997 253.721 368.259C269.452 371.38 273.435 372.508 288.237 378.219C311.601 387.249 313.061 387.647 340.342 392.096C367.755 396.611 392.314 399.399 409.705 399.864C420.591 400.196 422.383 400.063 438.247 397.806C448.867 396.279 459.952 395.15 468.049 394.751C492.675 393.556 503.959 390.834 510.995 384.394C512.986 382.534 513.052 382.534 520.619 382.734C529.646 383.066 534.426 382.07 541.461 378.551C545.909 376.293 550.024 373.504 571.331 358.233C576.641 354.448 583.809 350.066 588.057 348.008C597.018 343.626 603.656 338.712 612.617 329.815L619.321 323.109L636.379 322.445C658.217 321.515 668.107 319.922 675.408 316.004C680.851 313.017 681.515 311.888 692.6 285.13C700.764 265.343 702.357 260.895 707.136 244.428C708.663 239.183 710.389 234.535 711.185 233.672C711.915 232.942 714.57 230.817 717.093 229.024C721.407 225.97 723 223.845 723 220.924C723 220.326 721.407 218.135 719.482 216.01C716.761 213.089 715.5 212.226 713.973 212.226C712.712 212.226 710.92 211.296 708.729 209.57C705.078 206.648 704.614 206.516 702.092 207.711C700.698 208.308 700.432 208.839 700.764 210.035C701.229 211.894 700.83 211.96 698.574 210.167L696.781 208.773L696.582 210.499C696.45 211.495 696.118 212.093 695.852 211.96C694.857 211.296 687.091 210.3 686.095 210.699C685.564 210.898 684.701 211.894 684.17 212.89L683.241 214.749L686.692 216.01C690.011 217.272 690.144 217.471 691.272 221.189C691.87 223.314 692.268 225.306 692.135 225.572C691.936 225.837 690.808 226.235 689.48 226.435C687.422 226.833 686.825 226.567 682.444 222.849C678.661 219.729 677.201 218.865 675.408 218.865C673.152 218.865 669.899 221.256 669.899 222.916C669.899 223.38 672.753 226.567 676.205 230.087C679.723 233.606 683.108 237.39 683.838 238.453C685.564 241.108 686.161 245.623 685.232 248.877C684.303 251.931 678.794 264.015 671.094 280.017L665.784 291.039L654.765 290.774L643.681 290.442L634.388 286.126C629.144 283.735 623.17 280.349 620.648 278.424L616.134 275.037V268.73L616.201 262.356L624.166 253.458C631.401 245.424 632.065 244.428 631.733 242.702C631.401 241.241 631.932 239.249 633.724 235.133C636.977 227.497 637.242 225.638 635.317 221.92C633.193 217.67 626.356 211.23 621.644 209.105C618.59 207.711 616.533 207.312 611.488 207.113C605.448 206.848 605.05 206.914 601.731 208.839Z" fill="#F9F9FC"/>
<mask id="path-9-inside-1_6_680" fill="white">
<path d="M597.731 204.839C594.279 206.898 592.686 209.089 587.509 218.849C586.381 220.841 585.385 221.903 584.389 222.036C582.398 222.302 581.203 225.091 580.208 231.531C579.477 236.112 579.544 236.444 580.805 237.507C582.199 238.569 582.199 238.569 579.942 240.76L577.619 242.951L573.835 239.366C568.658 234.453 562.22 230.203 557.308 228.344C548.347 225.091 529.629 222.567 509.318 221.837C497.171 221.372 497.038 221.372 490.135 218.716C486.285 217.322 480.577 215.529 477.457 214.799C472.546 213.604 471.284 213.537 467.767 214.201C463.452 215.065 456.151 218.185 454.823 219.845C454.359 220.376 453.828 222.899 453.695 225.356L453.363 229.805L456.947 234.785C458.938 237.507 461.063 241.225 461.726 243.084C462.39 244.877 463.718 247.732 464.58 249.392C465.51 251.052 466.505 254.173 466.771 256.297C467.435 260.679 468.231 261.941 469.625 260.812C470.355 260.148 470.753 260.547 471.749 262.671C472.745 264.862 473.276 265.327 474.869 265.327C476.661 265.327 476.727 265.194 476.727 262.406C476.727 260.746 476.993 259.285 477.258 259.086C477.59 258.887 478.453 260.082 479.25 261.675C480.577 264.398 480.909 264.663 483.033 264.663C485.954 264.663 486.352 263.667 485.024 260.414C484.427 259.02 484.095 257.758 484.294 257.559C484.493 257.36 486.684 258.024 489.272 259.02C493.72 260.812 493.985 260.812 495.644 259.75C496.574 259.152 497.304 258.422 497.304 258.09C497.304 257.758 496.441 255.5 495.313 253.11C494.251 250.72 493.587 248.728 493.852 248.728C494.051 248.728 500.357 250.72 507.858 253.177C524.518 258.754 524.385 258.555 518.876 265.327C514.562 270.573 506.995 277.876 501.087 282.458L497.171 285.446L485.423 286.11L473.74 286.774L469.492 284.582C462.058 280.864 460.598 280.532 457.478 281.727C454.823 282.79 454.425 282.723 445 280.532C435.707 278.407 434.512 277.876 418.316 269.842L401.39 261.41L399.93 263.003C399.2 263.867 398.072 265.194 397.541 265.991L396.611 267.319L384.73 264.995C373.181 262.738 372.517 262.539 361.897 257.36C350.281 251.716 348.09 251.052 332.359 248.462C320.279 246.47 313.376 245.674 301.163 244.744C290.21 243.947 285.033 242.752 282.511 240.428C281.515 239.499 279.524 238.436 277.997 238.038C274.28 237.108 265.651 232.394 258.284 227.481C251.447 222.833 247.531 221.306 239.964 220.177C233.99 219.248 225.56 219.779 223.37 221.24C220.648 222.966 219.719 225.821 219.985 231.664L220.184 236.976L223.171 239.565C228.215 244.08 233.924 246.802 239.433 247.466C245.738 248.13 250.385 250.521 254.699 255.235C263.793 265.261 266.116 266.589 273.816 265.726C287.755 264.198 289.348 264.066 294.326 264.73C301.229 265.593 307.004 267.452 327.381 275.42C336.674 279.071 347.626 282.922 351.675 283.918C356.454 285.18 361.897 287.238 367.406 289.961C375.305 293.812 376.167 294.409 381.677 300.119C384.863 303.506 388.978 308.153 390.77 310.411C394.023 314.594 399.466 318.578 411.679 325.881C416.259 328.604 416.657 329.002 416.657 330.994C416.657 333.119 416.458 333.252 404.709 339.426C398.138 342.946 391.301 346.664 389.575 347.793C386.456 349.784 386.124 349.851 370.658 351.046C348.953 352.772 335.413 352.905 330.833 351.444C323.399 349.12 317.491 348.855 294.99 349.652L273.616 350.448L269.7 347.593C267.576 346 265.054 343.543 264.058 342.215C263.063 340.821 260.673 338.763 258.815 337.7C254.633 335.31 250.849 335.111 243.88 337.036C236.977 338.962 233.99 338.763 222.507 335.376C210.825 331.924 207.373 331.724 199.939 333.783C190.248 336.439 186 340.223 186 346.133C186 348.456 186.398 349.187 189.252 351.843C192.704 355.096 197.35 357.752 201.598 358.814C203.059 359.213 208.435 359.877 213.546 360.275C229.543 361.47 243.15 362.997 249.721 364.259C265.452 367.38 269.435 368.508 284.237 374.219C307.601 383.249 309.061 383.647 336.342 388.096C363.755 392.611 388.314 395.399 405.705 395.864C416.591 396.196 418.383 396.063 434.247 393.806C444.867 392.279 455.952 391.15 464.049 390.751C488.675 389.556 499.959 386.834 506.995 380.394C508.986 378.534 509.052 378.534 516.619 378.734C525.646 379.066 530.426 378.07 537.461 374.551C541.909 372.293 546.024 369.504 567.331 354.233C572.641 350.448 579.809 346.066 584.057 344.008C593.018 339.626 599.656 334.712 608.617 325.815L615.321 319.109L632.379 318.445C654.217 317.515 664.107 315.922 671.408 312.004C676.851 309.017 677.515 307.888 688.6 281.13C696.764 261.343 698.357 256.895 703.136 240.428C704.663 235.183 706.389 230.535 707.185 229.672C707.915 228.942 710.57 226.817 713.093 225.024C717.407 221.97 719 219.845 719 216.924C719 216.326 717.407 214.135 715.482 212.01C712.761 209.089 711.5 208.226 709.973 208.226C708.712 208.226 706.92 207.296 704.729 205.57C701.078 202.648 700.614 202.516 698.092 203.711C696.698 204.308 696.432 204.839 696.764 206.035C697.229 207.894 696.83 207.96 694.574 206.167L692.781 204.773L692.582 206.499C692.45 207.495 692.118 208.093 691.852 207.96C690.857 207.296 683.091 206.3 682.095 206.699C681.564 206.898 680.701 207.894 680.17 208.89L679.241 210.749L682.692 212.01C686.011 213.272 686.144 213.471 687.272 217.189C687.87 219.314 688.268 221.306 688.135 221.572C687.936 221.837 686.808 222.235 685.48 222.435C683.422 222.833 682.825 222.567 678.444 218.849C674.661 215.729 673.201 214.865 671.408 214.865C669.152 214.865 665.899 217.256 665.899 218.916C665.899 219.38 668.753 222.567 672.205 226.087C675.723 229.606 679.108 233.39 679.838 234.453C681.564 237.108 682.161 241.623 681.232 244.877C680.303 247.931 674.794 260.015 667.094 276.017L661.784 287.039L650.765 286.774L639.681 286.442L630.388 282.126C625.144 279.735 619.17 276.349 616.648 274.424L612.134 271.037V264.73L612.201 258.356L620.166 249.458C627.401 241.424 628.065 240.428 627.733 238.702C627.401 237.241 627.932 235.249 629.724 231.133C632.977 223.497 633.242 221.638 631.317 217.92C629.193 213.67 622.356 207.23 617.644 205.105C614.59 203.711 612.533 203.312 607.488 203.113C601.448 202.848 601.05 202.914 597.731 204.839Z"/>
</mask>
<path d="M597.731 204.839C594.279 206.898 592.686 209.089 587.509 218.849C586.381 220.841 585.385 221.903 584.389 222.036C582.398 222.302 581.203 225.091 580.208 231.531C579.477 236.112 579.544 236.444 580.805 237.507C582.199 238.569 582.199 238.569 579.942 240.76L577.619 242.951L573.835 239.366C568.658 234.453 562.22 230.203 557.308 228.344C548.347 225.091 529.629 222.567 509.318 221.837C497.171 221.372 497.038 221.372 490.135 218.716C486.285 217.322 480.577 215.529 477.457 214.799C472.546 213.604 471.284 213.537 467.767 214.201C463.452 215.065 456.151 218.185 454.823 219.845C454.359 220.376 453.828 222.899 453.695 225.356L453.363 229.805L456.947 234.785C458.938 237.507 461.063 241.225 461.726 243.084C462.39 244.877 463.718 247.732 464.58 249.392C465.51 251.052 466.505 254.173 466.771 256.297C467.435 260.679 468.231 261.941 469.625 260.812C470.355 260.148 470.753 260.547 471.749 262.671C472.745 264.862 473.276 265.327 474.869 265.327C476.661 265.327 476.727 265.194 476.727 262.406C476.727 260.746 476.993 259.285 477.258 259.086C477.59 258.887 478.453 260.082 479.25 261.675C480.577 264.398 480.909 264.663 483.033 264.663C485.954 264.663 486.352 263.667 485.024 260.414C484.427 259.02 484.095 257.758 484.294 257.559C484.493 257.36 486.684 258.024 489.272 259.02C493.72 260.812 493.985 260.812 495.644 259.75C496.574 259.152 497.304 258.422 497.304 258.09C497.304 257.758 496.441 255.5 495.313 253.11C494.251 250.72 493.587 248.728 493.852 248.728C494.051 248.728 500.357 250.72 507.858 253.177C524.518 258.754 524.385 258.555 518.876 265.327C514.562 270.573 506.995 277.876 501.087 282.458L497.171 285.446L485.423 286.11L473.74 286.774L469.492 284.582C462.058 280.864 460.598 280.532 457.478 281.727C454.823 282.79 454.425 282.723 445 280.532C435.707 278.407 434.512 277.876 418.316 269.842L401.39 261.41L399.93 263.003C399.2 263.867 398.072 265.194 397.541 265.991L396.611 267.319L384.73 264.995C373.181 262.738 372.517 262.539 361.897 257.36C350.281 251.716 348.09 251.052 332.359 248.462C320.279 246.47 313.376 245.674 301.163 244.744C290.21 243.947 285.033 242.752 282.511 240.428C281.515 239.499 279.524 238.436 277.997 238.038C274.28 237.108 265.651 232.394 258.284 227.481C251.447 222.833 247.531 221.306 239.964 220.177C233.99 219.248 225.56 219.779 223.37 221.24C220.648 222.966 219.719 225.821 219.985 231.664L220.184 236.976L223.171 239.565C228.215 244.08 233.924 246.802 239.433 247.466C245.738 248.13 250.385 250.521 254.699 255.235C263.793 265.261 266.116 266.589 273.816 265.726C287.755 264.198 289.348 264.066 294.326 264.73C301.229 265.593 307.004 267.452 327.381 275.42C336.674 279.071 347.626 282.922 351.675 283.918C356.454 285.18 361.897 287.238 367.406 289.961C375.305 293.812 376.167 294.409 381.677 300.119C384.863 303.506 388.978 308.153 390.77 310.411C394.023 314.594 399.466 318.578 411.679 325.881C416.259 328.604 416.657 329.002 416.657 330.994C416.657 333.119 416.458 333.252 404.709 339.426C398.138 342.946 391.301 346.664 389.575 347.793C386.456 349.784 386.124 349.851 370.658 351.046C348.953 352.772 335.413 352.905 330.833 351.444C323.399 349.12 317.491 348.855 294.99 349.652L273.616 350.448L269.7 347.593C267.576 346 265.054 343.543 264.058 342.215C263.063 340.821 260.673 338.763 258.815 337.7C254.633 335.31 250.849 335.111 243.88 337.036C236.977 338.962 233.99 338.763 222.507 335.376C210.825 331.924 207.373 331.724 199.939 333.783C190.248 336.439 186 340.223 186 346.133C186 348.456 186.398 349.187 189.252 351.843C192.704 355.096 197.35 357.752 201.598 358.814C203.059 359.213 208.435 359.877 213.546 360.275C229.543 361.47 243.15 362.997 249.721 364.259C265.452 367.38 269.435 368.508 284.237 374.219C307.601 383.249 309.061 383.647 336.342 388.096C363.755 392.611 388.314 395.399 405.705 395.864C416.591 396.196 418.383 396.063 434.247 393.806C444.867 392.279 455.952 391.15 464.049 390.751C488.675 389.556 499.959 386.834 506.995 380.394C508.986 378.534 509.052 378.534 516.619 378.734C525.646 379.066 530.426 378.07 537.461 374.551C541.909 372.293 546.024 369.504 567.331 354.233C572.641 350.448 579.809 346.066 584.057 344.008C593.018 339.626 599.656 334.712 608.617 325.815L615.321 319.109L632.379 318.445C654.217 317.515 664.107 315.922 671.408 312.004C676.851 309.017 677.515 307.888 688.6 281.13C696.764 261.343 698.357 256.895 703.136 240.428C704.663 235.183 706.389 230.535 707.185 229.672C707.915 228.942 710.57 226.817 713.093 225.024C717.407 221.97 719 219.845 719 216.924C719 216.326 717.407 214.135 715.482 212.01C712.761 209.089 711.5 208.226 709.973 208.226C708.712 208.226 706.92 207.296 704.729 205.57C701.078 202.648 700.614 202.516 698.092 203.711C696.698 204.308 696.432 204.839 696.764 206.035C697.229 207.894 696.83 207.96 694.574 206.167L692.781 204.773L692.582 206.499C692.45 207.495 692.118 208.093 691.852 207.96C690.857 207.296 683.091 206.3 682.095 206.699C681.564 206.898 680.701 207.894 680.17 208.89L679.241 210.749L682.692 212.01C686.011 213.272 686.144 213.471 687.272 217.189C687.87 219.314 688.268 221.306 688.135 221.572C687.936 221.837 686.808 222.235 685.48 222.435C683.422 222.833 682.825 222.567 678.444 218.849C674.661 215.729 673.201 214.865 671.408 214.865C669.152 214.865 665.899 217.256 665.899 218.916C665.899 219.38 668.753 222.567 672.205 226.087C675.723 229.606 679.108 233.39 679.838 234.453C681.564 237.108 682.161 241.623 681.232 244.877C680.303 247.931 674.794 260.015 667.094 276.017L661.784 287.039L650.765 286.774L639.681 286.442L630.388 282.126C625.144 279.735 619.17 276.349 616.648 274.424L612.134 271.037V264.73L612.201 258.356L620.166 249.458C627.401 241.424 628.065 240.428 627.733 238.702C627.401 237.241 627.932 235.249 629.724 231.133C632.977 223.497 633.242 221.638 631.317 217.92C629.193 213.67 622.356 207.23 617.644 205.105C614.59 203.711 612.533 203.312 607.488 203.113C601.448 202.848 601.05 202.914 597.731 204.839Z" stroke="#148783" stroke-width="2" mask="url(#path-9-inside-1_6_680)"/>
<path d="M394.949 234.852V207.438L454.537 113.545H478.898V150.761H464.764L429.892 206.017V207.153H516.185V234.852H394.949ZM465.19 259V226.472L465.901 214.469V113.545H498.784V259H465.19Z" fill="#148783"/>
<path d="M394.949 234.852H392.949V236.852H394.949V234.852ZM394.949 207.438L393.26 206.366L392.949 206.856V207.438H394.949ZM454.537 113.545V111.545H453.437L452.848 112.474L454.537 113.545ZM478.898 113.545H480.898V111.545H478.898V113.545ZM478.898 150.761V152.761H480.898V150.761H478.898ZM464.764 150.761V148.761H463.661L463.073 149.694L464.764 150.761ZM429.892 206.017L428.201 204.95L427.892 205.439V206.017H429.892ZM429.892 207.153H427.892V209.153H429.892V207.153ZM516.185 207.153H518.185V205.153H516.185V207.153ZM516.185 234.852V236.852H518.185V234.852H516.185ZM465.19 259H463.19V261H465.19V259ZM465.19 226.472L463.194 226.353L463.19 226.412V226.472H465.19ZM465.901 214.469L467.897 214.587L467.901 214.528V214.469H465.901ZM465.901 113.545V111.545H463.901V113.545H465.901ZM498.784 113.545H500.784V111.545H498.784V113.545ZM498.784 259V261H500.784V259H498.784ZM396.949 234.852V207.438H392.949V234.852H396.949ZM396.638 208.509L456.226 114.617L452.848 112.474L393.26 206.366L396.638 208.509ZM454.537 115.545H478.898V111.545H454.537V115.545ZM476.898 113.545V150.761H480.898V113.545H476.898ZM478.898 148.761H464.764V152.761H478.898V148.761ZM463.073 149.694L428.201 204.95L431.583 207.084L466.456 151.829L463.073 149.694ZM427.892 206.017V207.153H431.892V206.017H427.892ZM429.892 209.153H516.185V205.153H429.892V209.153ZM514.185 207.153V234.852H518.185V207.153H514.185ZM516.185 232.852H394.949V236.852H516.185V232.852ZM467.19 259V226.472H463.19V259H467.19ZM467.187 226.59L467.897 214.587L463.904 214.351L463.194 226.353L467.187 226.59ZM467.901 214.469V113.545H463.901V214.469H467.901ZM465.901 115.545H498.784V111.545H465.901V115.545ZM496.784 113.545V259H500.784V113.545H496.784ZM498.784 257H465.19V261H498.784V257Z" fill="#148783"/>
<path d="M496.953 81.9234C492.33 83.136 487.905 85.8306 484.338 89.603C475.488 98.832 474.498 114.663 482.159 124.97C487.905 132.649 495.962 136.489 505.671 135.95C510.228 135.748 512.011 135.276 515.445 133.525C523.502 129.483 528.918 122.073 530.569 112.911C534.07 93.7797 515.643 76.8037 496.953 81.9234Z" fill="#F9F9FC"/>
<path d="M500.085 80.4057L500.08 80.4071C495.555 81.5939 491.21 84.2359 487.702 87.9465L487.699 87.9491C479.019 97.0013 478.044 112.559 485.56 122.671C491.206 130.217 499.104 133.98 508.643 133.451L508.643 133.451L508.648 133.451C510.916 133.35 512.461 133.183 513.857 132.834C515.249 132.485 516.516 131.948 518.218 131.08L518.221 131.078C526.131 127.11 531.453 119.836 533.077 110.823L533.077 110.821C536.512 92.049 518.417 75.3841 500.085 80.4057Z" stroke="#148783"/>
<path d="M674.949 234.852V207.438L734.537 113.545H758.898V150.761H744.764L709.892 206.017V207.153H796.185V234.852H674.949ZM745.19 259V226.472L745.901 214.469V113.545H778.784V259H745.19Z" fill="#148783"/>
<path d="M674.949 234.852H672.949V236.852H674.949V234.852ZM674.949 207.438L673.26 206.366L672.949 206.856V207.438H674.949ZM734.537 113.545V111.545H733.437L732.848 112.474L734.537 113.545ZM758.898 113.545H760.898V111.545H758.898V113.545ZM758.898 150.761V152.761H760.898V150.761H758.898ZM744.764 150.761V148.761H743.661L743.073 149.694L744.764 150.761ZM709.892 206.017L708.201 204.95L707.892 205.439V206.017H709.892ZM709.892 207.153H707.892V209.153H709.892V207.153ZM796.185 207.153H798.185V205.153H796.185V207.153ZM796.185 234.852V236.852H798.185V234.852H796.185ZM745.19 259H743.19V261H745.19V259ZM745.19 226.472L743.194 226.353L743.19 226.412V226.472H745.19ZM745.901 214.469L747.897 214.587L747.901 214.528V214.469H745.901ZM745.901 113.545V111.545H743.901V113.545H745.901ZM778.784 113.545H780.784V111.545H778.784V113.545ZM778.784 259V261H780.784V259H778.784ZM676.949 234.852V207.438H672.949V234.852H676.949ZM676.638 208.509L736.226 114.617L732.848 112.474L673.26 206.366L676.638 208.509ZM734.537 115.545H758.898V111.545H734.537V115.545ZM756.898 113.545V150.761H760.898V113.545H756.898ZM758.898 148.761H744.764V152.761H758.898V148.761ZM743.073 149.694L708.201 204.95L711.583 207.084L746.456 151.829L743.073 149.694ZM707.892 206.017V207.153H711.892V206.017H707.892ZM709.892 209.153H796.185V205.153H709.892V209.153ZM794.185 207.153V234.852H798.185V207.153H794.185ZM796.185 232.852H674.949V236.852H796.185V232.852ZM747.19 259V226.472H743.19V259H747.19ZM747.187 226.59L747.897 214.587L743.904 214.351L743.194 226.353L747.187 226.59ZM747.901 214.469V113.545H743.901V214.469H747.901ZM745.901 115.545H778.784V111.545H745.901V115.545ZM776.784 113.545V259H780.784V113.545H776.784ZM778.784 257H745.19V261H778.784V257Z" fill="#148783"/>
</svg>
