<svg width="1060" height="685" viewBox="0 0 1060 685" fill="none" xmlns="http://www.w3.org/2000/svg">
<path d="M77.0832 273.023C77.3704 273.147 77.7412 273.116 77.8707 273.048C78.0662 272.999 78.7417 272.917 79.42 272.944C80.2506 272.945 80.5755 272.828 80.5216 272.414C80.4474 272.066 81.189 272.004 82.2435 272.218C84.0678 272.632 87.3269 272.726 87.931 272.405C88.0604 272.337 87.877 271.992 87.5183 271.629C87.1394 271.332 87.6424 271.342 88.6362 271.754C90.0034 272.245 90.2879 272.26 89.7283 271.727C89.2348 271.215 89.7378 271.224 91.4988 271.727C94.383 272.574 95.8352 272.079 97.4168 269.745C98.3674 268.41 98.4105 268.387 98.1935 269.332C98.1207 269.924 98.1517 270.295 98.3674 270.18C98.5832 270.066 98.4874 270.615 98.1355 271.41L97.5153 272.846L98.8879 271.785C99.616 271.177 100.425 270.304 100.633 269.862C100.987 269.176 100.987 269.176 100.857 270.075C100.723 270.865 100.815 271.038 101.338 270.981C101.686 270.907 101.564 271.304 100.966 271.843C100.41 272.359 100.053 272.936 100.168 273.152C100.397 273.584 102.285 272.138 102.72 271.188C102.844 270.9 103.336 270.473 103.725 270.267C104.89 269.648 104.404 271.233 103.034 272.404C101.621 273.597 101.478 274.89 102.914 273.74C104.307 272.613 104.292 272.897 102.815 275.01C101.737 276.523 101.662 277.006 102.304 278.214C102.693 278.948 103.052 281.081 103.095 282.828C103.095 284.599 103.291 286.32 103.451 286.623C103.612 286.925 103.756 288.342 103.748 289.784C103.74 291.227 103.93 292.731 104.159 293.162C104.388 293.594 104.335 294.95 104.057 296.094C103.762 297.412 103.817 298.766 104.207 299.5C104.573 300.19 104.952 302.257 105.041 304.091C105.188 307.388 104.222 316.919 103.467 319.976C103.068 321.516 102.55 321.791 98.8581 322.757C97.7281 323.025 97.685 323.048 98.7394 323.262C99.3772 323.421 102.336 322.846 105.288 322.051C111.89 320.314 115.36 320.076 119.341 321.114C124.797 322.531 128.695 325.495 134.977 332.946C139.077 337.85 141.854 340.579 146.51 344.136C148.448 345.596 150.041 347.239 150.614 348.318C151.256 349.526 152.487 350.698 154.353 351.92C156.707 353.435 158.029 353.84 162.281 354.347C165.79 354.806 172.412 356.544 183.845 360.152C195.08 363.7 201.087 365.321 202.768 365.258C204.559 365.192 206.511 364.597 210.532 362.793C218.295 359.388 221.401 359.508 229.561 363.306C232.789 364.8 233.857 365.561 234.745 367.025L235.949 368.875L233.939 369.777C232.254 370.562 231.598 370.578 229.786 369.771C225.125 367.766 222.246 367.137 220.334 367.6C214.359 369.059 213.487 370.02 217.927 370.151C221.361 370.263 224.067 370.983 224.572 371.932C225.672 374.003 222.675 375.651 218.963 374.912C216.196 374.39 214.885 374.423 211.358 374.969C209.202 375.285 207.515 375.13 204.717 374.237C201.037 373.038 198.543 372.925 191.696 373.575C189.798 373.753 185.651 373.965 182.44 374.066C165.796 374.499 156.768 372.712 145.98 366.88C141.084 364.225 140.136 363.899 138.945 364.366C137.993 364.761 136.766 364.638 135.046 364.003L132.486 363.039L132.664 366.706C132.864 371.248 133.866 373.759 136.216 375.995C137.224 376.954 139.323 379.656 140.868 382.044C144.773 387.937 145.516 388.814 148.054 390.675C150.724 392.576 151.491 394.437 150.906 397.293C150.651 398.479 150.719 399.439 151.12 399.779C151.499 400.076 152.331 401.017 153.051 401.852C157.957 407.544 157.934 407.501 159.478 407.179C166.87 405.576 170.784 405.654 184.016 407.753C189.084 408.546 196.041 409.663 199.552 410.232C203.04 410.758 208.017 411.378 210.601 411.555C213.25 411.752 215.644 412.195 215.979 412.515C216.315 412.834 217.22 414.954 217.932 417.231C218.644 419.509 219.666 421.953 220.251 422.638C220.951 423.539 223.897 425.127 228.912 427.276C236.512 430.542 241.195 433.421 242.318 435.535C242.662 436.182 243.684 436.856 244.916 437.198C248.987 438.299 252.698 441.639 268.567 458.492C286.457 477.481 293.87 483.833 300.414 485.944C301.693 486.372 302.913 487.107 303.188 487.624C303.738 488.66 306.814 490.18 314.161 492.971C316.942 494.038 320.549 495.829 322.13 497.036C324.8 498.937 325.273 499.515 327.087 503.033C330.571 509.592 330.406 512.612 326.49 515.135C323.671 516.91 319.747 517.334 316.527 516.168C315.292 515.718 310.939 512.94 306.865 509.959C299.588 504.696 299.41 504.57 292.539 502.466C288.75 501.27 284.909 499.77 284.063 499.113C283.061 498.373 281.435 496.249 279.614 493.343C274.835 485.702 269.114 481.494 252.882 473.852C243.838 469.638 240.479 467.273 236.289 462.197C234.892 460.505 232.94 458.498 231.893 457.672C229.685 455.912 229.275 455.245 229.654 453.771C230.132 451.857 228.673 451.194 223.086 450.676C217.126 450.081 215.623 450.271 214.784 451.712C213.778 453.464 211.602 455.616 210.559 455.838C210.015 455.961 209.245 455.762 208.887 455.399C208.462 455.016 206.925 454.726 205.396 454.764C203.91 454.779 200.231 454.52 197.272 454.156C191.266 453.474 187.9 453.491 176.159 454.197C166.185 454.793 160.291 454.217 153.351 451.985C150.398 451.008 147.869 450.415 147.832 450.657C147.728 450.878 150.372 456.167 153.65 462.338C160.527 475.282 165.809 486.473 171.386 499.887C176.339 511.917 176.864 512.8 180.402 516.232C185.934 521.647 187.202 523.408 193.048 534.41C200.521 548.477 203.689 552.879 210.414 558.767C213.095 561.105 213.66 561.856 215.748 565.892C217.631 569.539 218.333 570.549 219.645 571.457C220.822 572.215 222.041 573.78 224.048 577.14C226.76 581.619 226.808 581.815 226.249 583.053C225.793 584.069 224.765 584.947 222.007 586.524C219.55 587.939 218.393 588.886 218.34 589.412C218.268 590.004 218.009 590.141 217.221 590.117C216.52 590.047 215.979 590.279 215.622 590.856C215.265 591.433 214.81 591.619 214.04 591.42C213.469 591.281 212.463 591.262 211.876 591.408C210.462 591.661 208.005 589.536 205.803 586.225C204.576 584.331 203.855 582.557 203.006 579.19C200.582 569.524 194.225 561.725 178.55 549.195C174.468 545.886 168.801 540.321 166.159 536.911C165.098 535.538 162.564 531.186 160.499 527.193C156.639 519.617 153.58 515.212 148.169 509.4C144.419 505.362 143.646 505.053 140.885 506.52C137.001 508.583 137.744 509.461 127.864 490.865C115.394 467.392 111.1 458.165 103.79 439.199C101.363 432.964 100.442 431.96 97.5189 432.185C93.8108 432.495 92.8238 431.47 91.9297 426.247C90.7902 419.936 90.2373 418.791 86.3673 414.319C83.6907 411.26 82.1481 408.981 80.1996 405.313C77.7239 400.653 72.9734 393.274 72.2695 393.094C72.1374 393.054 71.8609 393.367 71.7396 393.763C71.598 394.226 71.1517 394.739 70.7634 394.946C69.771 395.473 69.0443 398.791 68.9567 403.209C68.8759 407.014 69.3101 408.664 70.4482 408.724C71.4109 408.765 74.8131 416.419 77.0408 423.423C79.8375 432.228 79.4101 431.736 84.2386 431.661C89.5041 431.574 91.8745 431.975 94.3354 433.378C96.9081 434.888 103.225 440.218 103.176 440.853C103.161 441.138 102.605 441.654 101.958 441.998C100.577 442.732 98.9915 442.246 95.6839 440.186C92.8415 438.377 91.218 438.133 90.3739 439.356C89.596 440.599 90.6086 441.776 96.0656 445.903C98.428 447.747 100.732 449.897 101.211 450.694C102.011 452.095 101.97 452.227 100.61 452.895C99.4853 453.381 99.275 453.714 99.6188 454.362C99.9397 454.966 99.7523 455.342 98.8894 455.8C98.0264 456.259 96.6443 456.053 93.539 455.102C88.5378 453.499 88.3099 454.007 93.2504 455.809C95.1692 456.504 96.8088 457.404 96.9289 457.838C97.2862 459.031 95.6264 459.968 93.7845 459.73C92.5345 459.564 92.014 459.73 91.6365 460.373C91.1349 461.303 89.5142 461.169 84.4752 459.807C82.2976 459.249 81.4305 458.658 80.0336 456.966C77.5552 453.967 76.4576 452.005 75.0444 447.887C73.6109 443.835 70.5378 438.884 64.598 431.141C60.1037 425.285 54.319 415.854 52.4581 411.31C51.2957 408.497 51.0678 407.235 51.2026 403.844C51.3696 398.223 50.7749 394.5 49.2836 392.526C48.2453 391.196 48.1145 390.325 48.0685 386.698C48.0321 384.339 47.5533 378.23 46.9895 373.108C45.7636 361.532 45.6651 358.431 46.5603 353.972C48.0002 346.789 51.0731 342.888 58.5377 338.922C62.8525 336.63 63.7329 335.996 66.4998 332.977C74.2042 324.568 75.6388 320.708 73.217 314.691C71.282 309.799 64.6463 296.893 64.3523 297.381C63.9546 298.09 63.3491 295.701 63.3382 293.493C63.3395 289.122 64.4559 284.767 66.0429 282.651C66.9328 281.514 67.5611 280.406 67.4033 280.213C66.9961 279.655 71.0479 276.451 73.1271 275.678C74.5564 275.14 75.0283 274.779 74.822 274.391C74.6157 274.002 74.7222 273.89 75.36 274.049C75.9088 274.145 76.254 273.962 76.3753 273.565C76.4967 273.169 76.8189 272.942 77.0832 273.023ZM89.8334 448.44C92.2363 450.151 96.1966 452.086 95.8298 451.395C95.4859 450.748 91.3922 447.833 89.3561 446.812C87.1879 445.751 87.5425 446.835 89.8334 448.44ZM86.3776 452.765C86.7336 453.019 87.153 453.183 87.3687 453.069C87.5413 452.977 87.4671 452.629 87.1543 452.353C86.7983 452.099 86.379 451.935 86.1632 452.049C85.9906 452.141 86.0648 452.489 86.3776 452.765Z" fill="#F9F9FC"/>
<mask id="path-2-inside-1_9_697" fill="white">
<path d="M80.9461 270.141C81.2333 270.265 81.6042 270.234 81.7336 270.165C81.9291 270.117 82.6047 270.035 83.2829 270.062C84.1135 270.063 84.4385 269.946 84.3845 269.532C84.3103 269.184 85.0519 269.122 86.1064 269.336C87.9308 269.75 91.1898 269.844 91.7939 269.523C91.9233 269.455 91.7399 269.109 91.3813 268.747C91.0024 268.45 91.5053 268.46 92.4991 268.872C93.8663 269.363 94.1509 269.378 93.5913 268.845C93.0977 268.333 93.6007 268.342 95.3617 268.845C98.2459 269.692 99.6981 269.197 101.28 266.863C102.23 265.528 102.273 265.505 102.056 266.45C101.984 267.042 102.015 267.413 102.23 267.298C102.446 267.184 102.35 267.733 101.998 268.528L101.378 269.964L102.751 268.903C103.479 268.295 104.288 267.422 104.496 266.98C104.85 266.294 104.85 266.294 104.719 267.193C104.586 267.983 104.678 268.156 105.201 268.099C105.549 268.025 105.427 268.421 104.829 268.961C104.273 269.477 103.916 270.054 104.03 270.27C104.26 270.702 106.147 269.256 106.583 268.305C106.707 268.018 107.199 267.591 107.587 267.385C108.752 266.766 108.267 268.351 106.897 269.522C105.484 270.715 105.341 272.008 106.777 270.858C108.17 269.731 108.155 270.015 106.677 272.128C105.6 273.641 105.525 274.124 106.166 275.332C106.556 276.065 106.915 278.199 106.958 279.946C106.958 281.717 107.154 283.438 107.314 283.74C107.475 284.042 107.619 285.46 107.611 286.902C107.603 288.345 107.793 289.849 108.022 290.28C108.251 290.712 108.197 292.068 107.92 293.211C107.624 294.53 107.68 295.884 108.069 296.617C108.436 297.308 108.815 299.375 108.904 301.209C109.051 304.506 108.085 314.037 107.33 317.094C106.931 318.634 106.413 318.909 102.721 319.875C101.591 320.143 101.548 320.166 102.602 320.38C103.24 320.539 106.198 319.963 109.151 319.169C115.753 317.432 119.222 317.194 123.204 318.232C128.66 319.649 132.558 322.612 138.84 330.063C142.94 334.967 145.717 337.697 150.373 341.253C152.311 342.714 153.904 344.357 154.477 345.436C155.118 346.644 156.35 347.816 158.216 349.038C160.57 350.553 161.892 350.958 166.144 351.464C169.653 351.924 176.275 353.662 187.708 357.27C198.943 360.817 204.95 362.439 206.631 362.376C208.422 362.31 210.374 361.715 214.395 359.911C222.158 356.506 225.264 356.626 233.424 360.424C236.652 361.918 237.72 362.679 238.608 364.143L239.812 365.993L237.802 366.895C236.116 367.68 235.461 367.696 233.649 366.888C228.987 364.883 226.109 364.255 224.197 364.718C218.222 366.177 217.35 367.138 221.79 367.269C225.224 367.381 227.93 368.101 228.435 369.05C229.535 371.121 226.538 372.769 222.825 372.03C220.059 371.508 218.748 371.541 215.221 372.087C213.065 372.402 211.378 372.247 208.58 371.355C204.9 370.156 202.406 370.043 195.558 370.693C193.661 370.871 189.514 371.083 186.303 371.184C169.659 371.617 160.631 369.83 149.843 363.998C144.947 361.343 143.999 361.017 142.808 361.483C141.856 361.879 140.629 361.756 138.909 361.121L136.349 360.157L136.527 363.824C136.727 368.366 137.729 370.876 140.079 373.113C141.086 374.072 143.186 376.774 144.731 379.162C148.636 385.054 149.379 385.932 151.917 387.793C154.587 389.694 155.354 391.555 154.769 394.411C154.514 395.597 154.582 396.557 154.983 396.897C155.362 397.194 156.194 398.135 156.914 398.97C161.82 404.662 161.797 404.619 163.341 404.297C170.733 402.694 174.647 402.772 187.879 404.871C192.947 405.664 199.904 406.781 203.415 407.35C206.903 407.876 211.88 408.496 214.464 408.673C217.113 408.869 219.507 409.313 219.842 409.633C220.178 409.952 221.083 412.072 221.795 414.349C222.507 416.627 223.529 419.071 224.114 419.756C224.814 420.657 227.76 422.245 232.775 424.394C240.375 427.66 245.058 430.539 246.181 432.653C246.525 433.3 247.547 433.974 248.779 434.315C252.85 435.417 256.561 438.757 272.43 455.61C290.32 474.599 297.733 480.951 304.277 483.062C305.555 483.49 306.776 484.225 307.051 484.742C307.601 485.778 310.677 487.297 318.024 490.088C320.805 491.156 324.411 492.947 325.993 494.154C328.663 496.055 329.136 496.633 330.95 500.151C334.434 506.71 334.269 509.73 330.353 512.253C327.533 514.027 323.61 514.452 320.39 513.286C319.155 512.836 314.802 510.058 310.728 507.077C303.451 501.814 303.273 501.688 296.402 499.584C292.613 498.388 288.772 496.888 287.926 496.231C286.924 495.491 285.298 493.367 283.477 490.461C278.698 482.82 272.977 478.612 256.745 470.97C247.701 466.756 244.342 464.391 240.151 459.315C238.755 457.622 236.803 455.616 235.756 454.79C233.548 453.03 233.138 452.363 233.517 450.889C233.995 448.975 232.536 448.312 226.949 447.794C220.989 447.199 219.486 447.389 218.647 448.83C217.641 450.582 215.465 452.734 214.421 452.956C213.878 453.079 213.108 452.879 212.749 452.517C212.325 452.134 210.788 451.844 209.258 451.882C207.773 451.897 204.094 451.638 201.134 451.274C195.129 450.592 191.763 450.609 180.021 451.315C170.047 451.911 164.154 451.335 157.213 449.103C154.26 448.126 151.732 447.533 151.694 447.774C151.591 447.996 154.235 453.285 157.513 459.455C164.39 472.4 169.672 483.591 175.249 497.005C180.202 509.035 180.727 509.918 184.265 513.35C189.797 518.765 191.065 520.526 196.91 531.528C204.383 545.595 207.552 549.997 214.277 555.885C216.957 558.223 217.522 558.974 219.611 563.01C221.494 566.657 222.196 567.667 223.508 568.575C224.685 569.332 225.904 570.898 227.911 574.258C230.622 578.737 230.671 578.933 230.111 580.171C229.656 581.187 228.628 582.065 225.87 583.641C223.413 585.057 222.256 586.004 222.203 586.53C222.131 587.122 221.872 587.259 221.084 587.235C220.383 587.165 219.842 587.397 219.485 587.974C219.128 588.551 218.673 588.737 217.903 588.538C217.332 588.399 216.326 588.38 215.739 588.526C214.325 588.779 211.868 586.654 209.666 583.343C208.439 581.449 207.717 579.675 206.869 576.308C204.445 566.642 198.088 558.843 182.413 546.312C178.331 543.004 172.664 537.439 170.022 534.029C168.961 532.656 166.427 528.304 164.362 524.311C160.502 516.735 157.443 512.33 152.032 506.518C148.282 502.48 147.509 502.171 144.748 503.638C140.864 505.701 141.607 506.579 131.727 487.982C119.257 464.51 114.963 455.283 107.653 436.317C105.226 430.082 104.305 429.078 101.382 429.303C97.6737 429.613 96.6867 428.588 95.7926 423.365C94.6531 417.054 94.1002 415.909 90.2302 411.437C87.5536 408.377 86.011 406.099 84.0625 402.431C81.5868 397.771 76.8363 390.392 76.1324 390.212C76.0003 390.172 75.7239 390.485 75.6025 390.881C75.4609 391.344 75.0146 391.857 74.6263 392.064C73.6339 392.591 72.9072 395.909 72.8197 400.327C72.7388 404.132 73.1731 405.782 74.3111 405.841C75.2738 405.883 78.676 413.537 80.9037 420.541C83.7004 429.346 83.273 428.854 88.1015 428.779C93.367 428.692 95.7374 429.093 98.1983 430.496C100.771 432.006 107.088 437.336 107.038 437.971C107.024 438.256 106.468 438.772 105.821 439.116C104.44 439.85 102.854 439.364 99.5468 437.304C96.7044 435.495 95.0809 435.251 94.2369 436.474C93.4589 437.717 94.4715 438.894 99.9285 443.021C102.291 444.864 104.595 447.015 105.074 447.812C105.874 449.213 105.833 449.345 104.473 450.013C103.348 450.499 103.138 450.832 103.482 451.48C103.803 452.084 103.615 452.46 102.752 452.918C101.889 453.377 100.507 453.171 97.4019 452.22C92.4007 450.617 92.1728 451.125 97.1133 452.927C99.0321 453.622 100.672 454.522 100.792 454.956C101.149 456.149 99.4893 457.086 97.6474 456.848C96.3974 456.682 95.877 456.848 95.4994 457.491C94.9978 458.421 93.3771 458.286 88.3381 456.925C86.1605 456.367 85.2935 455.776 83.8965 454.084C81.4181 451.085 80.3205 449.123 78.9073 445.005C77.4738 440.953 74.4008 436.002 68.461 428.258C63.9667 422.403 58.1819 412.972 56.321 408.428C55.1586 405.615 54.9307 404.353 55.0655 400.962C55.2326 395.341 54.6378 391.618 53.1465 389.644C52.1082 388.314 51.9774 387.443 51.9315 383.816C51.895 381.456 51.4162 375.348 50.8524 370.226C49.6265 358.65 49.528 355.549 50.4232 351.089C51.8631 343.907 54.936 340.006 62.4006 336.04C66.7154 333.748 67.5958 333.114 70.3627 330.095C78.0671 321.686 79.5017 317.826 77.0799 311.809C75.1449 306.917 68.5092 294.011 68.2152 294.499C67.8175 295.208 67.212 292.819 67.2012 290.611C67.2024 286.24 68.3188 281.885 69.9058 279.769C70.7957 278.632 71.424 277.524 71.2662 277.331C70.859 276.773 74.9108 273.569 76.99 272.796C78.4193 272.258 78.8912 271.897 78.6849 271.509C78.4786 271.12 78.5851 271.008 79.2229 271.167C79.7717 271.263 80.1169 271.08 80.2382 270.683C80.3596 270.287 80.6819 270.06 80.9461 270.141ZM93.6964 445.558C96.0992 447.269 100.059 449.204 99.6927 448.513C99.3488 447.866 95.2551 444.951 93.219 443.93C91.0508 442.869 91.4054 443.953 93.6964 445.558ZM90.2406 449.883C90.5965 450.137 91.0159 450.301 91.2316 450.187C91.4042 450.095 91.33 449.747 91.0172 449.471C90.6612 449.217 90.2419 449.053 90.0261 449.167C89.8536 449.259 89.9277 449.607 90.2406 449.883Z"/>
</mask>
<path d="M80.9461 270.141C81.2333 270.265 81.6042 270.234 81.7336 270.165C81.9291 270.117 82.6047 270.035 83.2829 270.062C84.1135 270.063 84.4385 269.946 84.3845 269.532C84.3103 269.184 85.0519 269.122 86.1064 269.336C87.9308 269.75 91.1898 269.844 91.7939 269.523C91.9233 269.455 91.7399 269.109 91.3813 268.747C91.0024 268.45 91.5053 268.46 92.4991 268.872C93.8663 269.363 94.1509 269.378 93.5913 268.845C93.0977 268.333 93.6007 268.342 95.3617 268.845C98.2459 269.692 99.6981 269.197 101.28 266.863C102.23 265.528 102.273 265.505 102.056 266.45C101.984 267.042 102.015 267.413 102.23 267.298C102.446 267.184 102.35 267.733 101.998 268.528L101.378 269.964L102.751 268.903C103.479 268.295 104.288 267.422 104.496 266.98C104.85 266.294 104.85 266.294 104.719 267.193C104.586 267.983 104.678 268.156 105.201 268.099C105.549 268.025 105.427 268.421 104.829 268.961C104.273 269.477 103.916 270.054 104.03 270.27C104.26 270.702 106.147 269.256 106.583 268.305C106.707 268.018 107.199 267.591 107.587 267.385C108.752 266.766 108.267 268.351 106.897 269.522C105.484 270.715 105.341 272.008 106.777 270.858C108.17 269.731 108.155 270.015 106.677 272.128C105.6 273.641 105.525 274.124 106.166 275.332C106.556 276.065 106.915 278.199 106.958 279.946C106.958 281.717 107.154 283.438 107.314 283.74C107.475 284.042 107.619 285.46 107.611 286.902C107.603 288.345 107.793 289.849 108.022 290.28C108.251 290.712 108.197 292.068 107.92 293.211C107.624 294.53 107.68 295.884 108.069 296.617C108.436 297.308 108.815 299.375 108.904 301.209C109.051 304.506 108.085 314.037 107.33 317.094C106.931 318.634 106.413 318.909 102.721 319.875C101.591 320.143 101.548 320.166 102.602 320.38C103.24 320.539 106.198 319.963 109.151 319.169C115.753 317.432 119.222 317.194 123.204 318.232C128.66 319.649 132.558 322.612 138.84 330.063C142.94 334.967 145.717 337.697 150.373 341.253C152.311 342.714 153.904 344.357 154.477 345.436C155.118 346.644 156.35 347.816 158.216 349.038C160.57 350.553 161.892 350.958 166.144 351.464C169.653 351.924 176.275 353.662 187.708 357.27C198.943 360.817 204.95 362.439 206.631 362.376C208.422 362.31 210.374 361.715 214.395 359.911C222.158 356.506 225.264 356.626 233.424 360.424C236.652 361.918 237.72 362.679 238.608 364.143L239.812 365.993L237.802 366.895C236.116 367.68 235.461 367.696 233.649 366.888C228.987 364.883 226.109 364.255 224.197 364.718C218.222 366.177 217.35 367.138 221.79 367.269C225.224 367.381 227.93 368.101 228.435 369.05C229.535 371.121 226.538 372.769 222.825 372.03C220.059 371.508 218.748 371.541 215.221 372.087C213.065 372.402 211.378 372.247 208.58 371.355C204.9 370.156 202.406 370.043 195.558 370.693C193.661 370.871 189.514 371.083 186.303 371.184C169.659 371.617 160.631 369.83 149.843 363.998C144.947 361.343 143.999 361.017 142.808 361.483C141.856 361.879 140.629 361.756 138.909 361.121L136.349 360.157L136.527 363.824C136.727 368.366 137.729 370.876 140.079 373.113C141.086 374.072 143.186 376.774 144.731 379.162C148.636 385.054 149.379 385.932 151.917 387.793C154.587 389.694 155.354 391.555 154.769 394.411C154.514 395.597 154.582 396.557 154.983 396.897C155.362 397.194 156.194 398.135 156.914 398.97C161.82 404.662 161.797 404.619 163.341 404.297C170.733 402.694 174.647 402.772 187.879 404.871C192.947 405.664 199.904 406.781 203.415 407.35C206.903 407.876 211.88 408.496 214.464 408.673C217.113 408.869 219.507 409.313 219.842 409.633C220.178 409.952 221.083 412.072 221.795 414.349C222.507 416.627 223.529 419.071 224.114 419.756C224.814 420.657 227.76 422.245 232.775 424.394C240.375 427.66 245.058 430.539 246.181 432.653C246.525 433.3 247.547 433.974 248.779 434.315C252.85 435.417 256.561 438.757 272.43 455.61C290.32 474.599 297.733 480.951 304.277 483.062C305.555 483.49 306.776 484.225 307.051 484.742C307.601 485.778 310.677 487.297 318.024 490.088C320.805 491.156 324.411 492.947 325.993 494.154C328.663 496.055 329.136 496.633 330.95 500.151C334.434 506.71 334.269 509.73 330.353 512.253C327.533 514.027 323.61 514.452 320.39 513.286C319.155 512.836 314.802 510.058 310.728 507.077C303.451 501.814 303.273 501.688 296.402 499.584C292.613 498.388 288.772 496.888 287.926 496.231C286.924 495.491 285.298 493.367 283.477 490.461C278.698 482.82 272.977 478.612 256.745 470.97C247.701 466.756 244.342 464.391 240.151 459.315C238.755 457.622 236.803 455.616 235.756 454.79C233.548 453.03 233.138 452.363 233.517 450.889C233.995 448.975 232.536 448.312 226.949 447.794C220.989 447.199 219.486 447.389 218.647 448.83C217.641 450.582 215.465 452.734 214.421 452.956C213.878 453.079 213.108 452.879 212.749 452.517C212.325 452.134 210.788 451.844 209.258 451.882C207.773 451.897 204.094 451.638 201.134 451.274C195.129 450.592 191.763 450.609 180.021 451.315C170.047 451.911 164.154 451.335 157.213 449.103C154.26 448.126 151.732 447.533 151.694 447.774C151.591 447.996 154.235 453.285 157.513 459.455C164.39 472.4 169.672 483.591 175.249 497.005C180.202 509.035 180.727 509.918 184.265 513.35C189.797 518.765 191.065 520.526 196.91 531.528C204.383 545.595 207.552 549.997 214.277 555.885C216.957 558.223 217.522 558.974 219.611 563.01C221.494 566.657 222.196 567.667 223.508 568.575C224.685 569.332 225.904 570.898 227.911 574.258C230.622 578.737 230.671 578.933 230.111 580.171C229.656 581.187 228.628 582.065 225.87 583.641C223.413 585.057 222.256 586.004 222.203 586.53C222.131 587.122 221.872 587.259 221.084 587.235C220.383 587.165 219.842 587.397 219.485 587.974C219.128 588.551 218.673 588.737 217.903 588.538C217.332 588.399 216.326 588.38 215.739 588.526C214.325 588.779 211.868 586.654 209.666 583.343C208.439 581.449 207.717 579.675 206.869 576.308C204.445 566.642 198.088 558.843 182.413 546.312C178.331 543.004 172.664 537.439 170.022 534.029C168.961 532.656 166.427 528.304 164.362 524.311C160.502 516.735 157.443 512.33 152.032 506.518C148.282 502.48 147.509 502.171 144.748 503.638C140.864 505.701 141.607 506.579 131.727 487.982C119.257 464.51 114.963 455.283 107.653 436.317C105.226 430.082 104.305 429.078 101.382 429.303C97.6737 429.613 96.6867 428.588 95.7926 423.365C94.6531 417.054 94.1002 415.909 90.2302 411.437C87.5536 408.377 86.011 406.099 84.0625 402.431C81.5868 397.771 76.8363 390.392 76.1324 390.212C76.0003 390.172 75.7239 390.485 75.6025 390.881C75.4609 391.344 75.0146 391.857 74.6263 392.064C73.6339 392.591 72.9072 395.909 72.8197 400.327C72.7388 404.132 73.1731 405.782 74.3111 405.841C75.2738 405.883 78.676 413.537 80.9037 420.541C83.7004 429.346 83.273 428.854 88.1015 428.779C93.367 428.692 95.7374 429.093 98.1983 430.496C100.771 432.006 107.088 437.336 107.038 437.971C107.024 438.256 106.468 438.772 105.821 439.116C104.44 439.85 102.854 439.364 99.5468 437.304C96.7044 435.495 95.0809 435.251 94.2369 436.474C93.4589 437.717 94.4715 438.894 99.9285 443.021C102.291 444.864 104.595 447.015 105.074 447.812C105.874 449.213 105.833 449.345 104.473 450.013C103.348 450.499 103.138 450.832 103.482 451.48C103.803 452.084 103.615 452.46 102.752 452.918C101.889 453.377 100.507 453.171 97.4019 452.22C92.4007 450.617 92.1728 451.125 97.1133 452.927C99.0321 453.622 100.672 454.522 100.792 454.956C101.149 456.149 99.4893 457.086 97.6474 456.848C96.3974 456.682 95.877 456.848 95.4994 457.491C94.9978 458.421 93.3771 458.286 88.3381 456.925C86.1605 456.367 85.2935 455.776 83.8965 454.084C81.4181 451.085 80.3205 449.123 78.9073 445.005C77.4738 440.953 74.4008 436.002 68.461 428.258C63.9667 422.403 58.1819 412.972 56.321 408.428C55.1586 405.615 54.9307 404.353 55.0655 400.962C55.2326 395.341 54.6378 391.618 53.1465 389.644C52.1082 388.314 51.9774 387.443 51.9315 383.816C51.895 381.456 51.4162 375.348 50.8524 370.226C49.6265 358.65 49.528 355.549 50.4232 351.089C51.8631 343.907 54.936 340.006 62.4006 336.04C66.7154 333.748 67.5958 333.114 70.3627 330.095C78.0671 321.686 79.5017 317.826 77.0799 311.809C75.1449 306.917 68.5092 294.011 68.2152 294.499C67.8175 295.208 67.212 292.819 67.2012 290.611C67.2024 286.24 68.3188 281.885 69.9058 279.769C70.7957 278.632 71.424 277.524 71.2662 277.331C70.859 276.773 74.9108 273.569 76.99 272.796C78.4193 272.258 78.8912 271.897 78.6849 271.509C78.4786 271.12 78.5851 271.008 79.2229 271.167C79.7717 271.263 80.1169 271.08 80.2382 270.683C80.3596 270.287 80.6819 270.06 80.9461 270.141ZM93.6964 445.558C96.0992 447.269 100.059 449.204 99.6927 448.513C99.3488 447.866 95.2551 444.951 93.219 443.93C91.0508 442.869 91.4054 443.953 93.6964 445.558ZM90.2406 449.883C90.5965 450.137 91.0159 450.301 91.2316 450.187C91.4042 450.095 91.33 449.747 91.0172 449.471C90.6612 449.217 90.2419 449.053 90.0261 449.167C89.8536 449.259 89.9277 449.607 90.2406 449.883Z" stroke="#148783" stroke-width="2" mask="url(#path-2-inside-1_9_697)"/>
<path d="M369.514 496L547.394 372.983C565.439 360.504 588.123 380.568 577.941 400.001L453.896 636.746C450.271 643.665 443.106 648 435.295 648H215.72C195.087 648 186.826 621.358 203.838 609.685L369.514 496Z" fill="#EFEFF6"/>
<path d="M799.561 495.765L580.834 366.908C561.969 355.795 540.817 377.354 552.288 396.004L701.135 638.002C704.956 644.215 711.728 648 719.022 648H982.46C1003.89 648 1011.56 619.682 993.058 608.87L799.561 495.765Z" fill="#EFEFF6"/>
<path d="M569.672 561.753C534.821 561.753 504.782 553.495 479.553 536.98C454.325 520.335 434.884 496.472 421.23 465.392C407.575 434.182 400.813 396.665 400.943 352.841C401.073 309.017 407.901 271.825 421.425 241.266C435.079 210.576 454.455 187.233 479.553 171.238C504.782 155.113 534.821 147.05 569.672 147.05C604.523 147.05 634.563 155.113 659.791 171.238C685.149 187.233 704.655 210.576 718.31 241.266C731.964 271.955 738.726 309.147 738.596 352.841C738.596 396.795 731.769 434.377 718.115 465.587C704.46 496.797 685.019 520.66 659.791 537.175C634.693 553.56 604.653 561.753 569.672 561.753ZM569.672 482.753C590.479 482.753 607.319 472.154 620.193 450.958C633.068 429.631 639.44 396.925 639.31 352.841C639.31 323.972 636.384 300.174 630.532 281.448C624.68 262.592 616.552 248.548 606.149 239.315C595.746 230.082 583.587 225.465 569.672 225.465C548.996 225.465 532.285 235.934 519.541 256.871C506.797 277.677 500.36 309.667 500.23 352.841C500.1 382.101 502.896 406.353 508.618 425.6C514.47 444.846 522.662 459.215 533.196 468.708C543.729 478.071 555.888 482.753 569.672 482.753Z" fill="white"/>
<path d="M479.553 536.98L476.528 541.565L476.537 541.571L476.545 541.576L479.553 536.98ZM421.23 465.392L416.197 467.594L416.201 467.602L421.23 465.392ZM400.943 352.841L395.45 352.825L395.45 352.825L400.943 352.841ZM421.425 241.266L416.406 239.033L416.402 239.043L421.425 241.266ZM479.553 171.238L482.506 175.87L482.512 175.866L479.553 171.238ZM659.791 171.238L656.833 175.866L656.847 175.875L656.861 175.884L659.791 171.238ZM718.31 241.266L723.329 239.033L723.329 239.033L718.31 241.266ZM738.596 352.841L733.103 352.825L733.103 352.833V352.841H738.596ZM718.115 465.587L713.082 463.386L713.082 463.386L718.115 465.587ZM659.791 537.175L662.794 541.775L662.8 541.771L659.791 537.175ZM620.193 450.958L624.888 453.809L624.892 453.803L624.896 453.796L620.193 450.958ZM639.31 352.841H633.817V352.849L633.817 352.857L639.31 352.841ZM630.532 281.448L625.286 283.077L625.289 283.087L630.532 281.448ZM606.149 239.315L609.795 235.207L609.795 235.207L606.149 239.315ZM519.541 256.871L524.225 259.74L524.229 259.733L524.233 259.727L519.541 256.871ZM500.23 352.841L505.723 352.866L505.723 352.858L500.23 352.841ZM508.618 425.6L503.353 427.165L503.357 427.181L503.362 427.197L508.618 425.6ZM533.196 468.708L529.518 472.789L529.532 472.801L529.546 472.814L533.196 468.708ZM569.672 556.26C535.719 556.26 506.763 548.227 482.562 532.384L476.545 541.576C502.8 558.764 533.923 567.246 569.672 567.246V556.26ZM482.579 532.395C458.339 516.402 439.542 493.418 426.259 463.183L416.201 467.602C430.226 499.527 450.312 524.268 476.528 541.565L482.579 532.395ZM426.262 463.191C412.988 432.85 406.308 396.128 406.436 352.858L395.45 352.825C395.319 397.202 402.163 435.515 416.197 467.594L426.262 463.191ZM406.436 352.858C406.565 309.568 413.311 273.173 426.448 243.489L416.402 239.043C402.49 270.478 395.582 308.466 395.45 352.825L406.436 352.858ZM426.444 243.498C439.718 213.663 458.431 191.213 482.506 175.87L476.601 166.606C450.48 183.253 430.441 207.488 416.406 239.033L426.444 243.498ZM482.512 175.866C506.719 160.393 535.694 152.543 569.672 152.543V141.557C533.948 141.557 502.844 149.833 476.595 166.61L482.512 175.866ZM569.672 152.543C603.65 152.543 632.625 160.393 656.833 175.866L662.749 166.61C636.501 149.833 605.396 141.557 569.672 141.557V152.543ZM656.861 175.884C681.191 191.231 700.024 213.678 713.291 243.498L723.329 239.033C709.287 207.473 689.108 183.236 662.722 166.592L656.861 175.884ZM713.291 243.498C726.551 273.301 733.232 309.683 733.103 352.825L744.089 352.858C744.221 308.612 737.377 270.609 723.329 239.033L713.291 243.498ZM733.103 352.841C733.103 396.248 726.359 433.04 713.082 463.386L723.147 467.789C737.18 435.715 744.089 397.342 744.089 352.841H733.103ZM713.082 463.386C699.799 493.749 681.005 516.722 656.783 532.579L662.8 541.771C689.033 524.598 709.122 499.846 723.147 467.789L713.082 463.386ZM656.788 532.576C632.724 548.286 603.769 556.26 569.672 556.26V567.246C605.538 567.246 636.662 558.835 662.794 541.775L656.788 532.576ZM569.672 488.246C592.793 488.246 611.242 476.277 624.888 453.809L615.499 448.106C603.397 468.032 588.165 477.26 569.672 477.26V488.246ZM624.896 453.796C638.553 431.173 644.934 397.243 644.803 352.825L633.817 352.857C633.946 396.607 627.582 428.088 615.491 448.119L624.896 453.796ZM644.803 352.841C644.803 323.653 641.85 299.253 635.775 279.81L625.289 283.087C630.917 301.096 633.817 324.292 633.817 352.841H644.803ZM635.778 279.82C629.747 260.388 621.199 245.327 609.795 235.207L602.503 243.423C611.906 251.768 619.613 264.797 625.286 283.077L635.778 279.82ZM609.795 235.207C598.386 225.081 584.93 219.973 569.672 219.973V230.958C582.243 230.958 593.105 235.083 602.503 243.423L609.795 235.207ZM569.672 219.973C546.696 219.973 528.373 231.797 514.849 254.015L524.233 259.727C536.198 240.071 551.296 230.958 569.672 230.958V219.973ZM514.857 254.002C501.321 276.101 494.868 309.316 494.737 352.825L505.723 352.858C505.852 310.019 512.273 279.254 524.225 259.74L514.857 254.002ZM494.737 352.817C494.606 382.392 497.425 407.226 503.353 427.165L513.883 424.034C508.367 405.481 505.594 381.809 505.723 352.866L494.737 352.817ZM503.362 427.197C509.389 447.02 517.995 462.404 529.518 472.789L536.873 464.628C527.329 456.027 519.55 442.672 513.873 424.002L503.362 427.197ZM529.546 472.814C541.06 483.049 554.51 488.246 569.672 488.246V477.26C557.266 477.26 546.398 473.094 536.845 464.603L529.546 472.814Z" fill="#148783"/>
<path d="M744.43 458.545L757.051 436.636L826.208 422.871C831.451 421.738 836.027 420.576 839.937 419.386C843.87 418.155 847.229 416.592 850.013 414.699C852.821 412.765 855.124 410.239 856.92 407.121C858.929 403.634 859.883 400.222 859.783 396.886C859.707 393.508 858.725 390.375 856.839 387.485C854.952 384.594 852.285 382.157 848.839 380.171C845.351 378.162 841.881 377.12 838.428 377.043C834.999 376.925 831.778 377.774 828.764 379.59C825.792 381.43 823.207 384.258 821.009 388.073L792.146 371.446C797.086 362.871 803.28 356.577 810.729 352.562C818.178 348.547 826.359 346.867 835.272 347.521C844.249 348.157 853.374 351.146 862.646 356.487C872.206 361.994 879.592 368.38 884.806 375.646C890.019 382.911 892.899 390.526 893.447 398.492C894.059 406.44 892.191 414.189 887.842 421.738C885.077 426.538 881.371 430.742 876.725 434.349C872.079 437.957 865.61 441.17 857.32 443.989C849.07 446.832 838.078 449.598 824.344 452.287L801.254 457.51L800.793 458.31L851.873 487.735L837.727 512.29L744.43 458.545Z" fill="#148783"/>
<path d="M744.43 458.545L742.697 457.546L741.699 459.279L743.432 460.278L744.43 458.545ZM757.051 436.636L756.661 434.674L755.771 434.852L755.318 435.638L757.051 436.636ZM826.208 422.871L826.599 424.832L826.615 424.829L826.631 424.825L826.208 422.871ZM839.937 419.386L840.519 421.299L840.527 421.297L840.534 421.295L839.937 419.386ZM850.013 414.699L851.138 416.353L851.148 416.346L850.013 414.699ZM859.783 396.886L857.784 396.931L857.784 396.938L857.784 396.946L859.783 396.886ZM856.839 387.485L855.164 388.578L855.164 388.578L856.839 387.485ZM838.428 377.043L838.36 379.042L838.372 379.042L838.384 379.042L838.428 377.043ZM828.764 379.59L827.732 377.877L827.722 377.883L827.712 377.89L828.764 379.59ZM821.009 388.073L820.011 389.806L821.744 390.804L822.742 389.071L821.009 388.073ZM792.146 371.446L790.413 370.448L789.415 372.181L791.148 373.179L792.146 371.446ZM810.729 352.562L811.678 354.323L811.678 354.323L810.729 352.562ZM835.272 347.521L835.126 349.515L835.13 349.516L835.272 347.521ZM884.806 375.646L886.43 374.48L886.43 374.48L884.806 375.646ZM893.447 398.492L891.452 398.629L891.452 398.637L891.453 398.646L893.447 398.492ZM876.725 434.349L875.499 432.769L875.499 432.769L876.725 434.349ZM857.32 443.989L856.676 442.096L856.668 442.099L857.32 443.989ZM824.344 452.287L823.96 450.324L823.931 450.33L823.903 450.336L824.344 452.287ZM801.254 457.51L800.813 455.559L799.958 455.752L799.521 456.511L801.254 457.51ZM800.793 458.31L799.06 457.312L798.062 459.045L799.795 460.043L800.793 458.31ZM851.873 487.735L853.606 488.733L854.604 487L852.871 486.002L851.873 487.735ZM837.727 512.29L836.729 514.023L838.462 515.022L839.46 513.289L837.727 512.29ZM746.163 459.543L758.784 437.634L755.318 435.638L742.697 457.546L746.163 459.543ZM757.441 438.597L826.599 424.832L825.818 420.909L756.661 434.674L757.441 438.597ZM826.631 424.825C831.912 423.684 836.543 422.51 840.519 421.299L839.354 417.473C835.511 418.643 830.99 419.791 825.786 420.916L826.631 424.825ZM840.534 421.295C844.614 420.017 848.159 418.378 851.138 416.353L848.889 413.045C846.298 414.807 843.125 416.292 839.339 417.477L840.534 421.295ZM851.148 416.346C854.215 414.234 856.716 411.481 858.653 408.119L855.187 406.123C853.531 408.997 851.428 411.296 848.879 413.052L851.148 416.346ZM858.653 408.119C860.809 404.377 861.896 400.602 861.782 396.826L857.784 396.946C857.871 399.841 857.049 402.89 855.187 406.123L858.653 408.119ZM861.783 396.84C861.698 393.082 860.599 389.587 858.513 386.391L855.164 388.578C856.852 391.163 857.716 393.935 857.784 396.931L861.783 396.84ZM858.513 386.391C856.43 383.2 853.514 380.557 849.837 378.438L847.84 381.904C851.056 383.757 853.474 385.989 855.164 388.578L858.513 386.391ZM849.837 378.438C846.107 376.29 842.313 375.129 838.473 375.043L838.384 379.042C841.45 379.111 844.595 380.035 847.84 381.904L849.837 378.438ZM838.497 375.044C834.67 374.913 831.068 375.867 827.732 377.877L829.797 381.303C832.487 379.682 835.327 378.938 838.36 379.042L838.497 375.044ZM827.712 377.89C824.394 379.943 821.597 383.045 819.276 387.075L822.742 389.071C824.817 385.47 827.19 382.917 829.817 381.291L827.712 377.89ZM822.007 386.34L793.144 369.713L791.148 373.179L820.011 389.806L822.007 386.34ZM793.879 372.444C798.665 364.136 804.608 358.133 811.678 354.323L809.78 350.801C801.952 355.02 795.506 361.606 790.413 370.448L793.879 372.444ZM811.678 354.323C818.773 350.499 826.57 348.888 835.126 349.515L835.418 345.526C826.148 344.846 817.584 346.596 809.78 350.801L811.678 354.323ZM835.13 349.516C843.754 350.127 852.589 353.002 861.648 358.22L863.645 354.754C854.159 349.29 844.744 346.187 835.413 345.526L835.13 349.516ZM861.648 358.22C871.017 363.617 878.167 369.825 883.181 376.812L886.43 374.48C881.017 366.935 873.395 360.371 863.645 354.754L861.648 358.22ZM883.181 376.812C888.204 383.812 890.932 391.077 891.452 398.629L895.442 398.355C894.866 389.975 891.834 382.01 886.43 374.48L883.181 376.812ZM891.453 398.646C892.032 406.155 890.277 413.505 886.109 420.739L889.575 422.736C894.106 414.872 896.087 406.725 895.441 398.338L891.453 398.646ZM886.109 420.739C883.482 425.301 879.953 429.311 875.499 432.769L877.952 435.929C882.79 432.172 886.673 427.775 889.575 422.736L886.109 420.739ZM875.499 432.769C871.091 436.191 864.849 439.316 856.676 442.096L857.964 445.883C866.372 443.023 873.066 439.722 877.952 435.929L875.499 432.769ZM856.668 442.099C848.542 444.899 837.65 447.644 823.96 450.324L824.728 454.25C838.506 451.553 849.598 448.766 857.971 445.88L856.668 442.099ZM823.903 450.336L800.813 455.559L801.695 459.461L824.785 454.238L823.903 450.336ZM799.521 456.511L799.06 457.312L802.526 459.308L802.987 458.508L799.521 456.511ZM799.795 460.043L850.874 489.468L852.871 486.002L801.791 456.577L799.795 460.043ZM850.14 486.737L835.994 511.292L839.46 513.289L853.606 488.733L850.14 486.737ZM838.725 510.557L745.428 456.812L743.432 460.278L836.729 514.023L838.725 510.557Z" fill="#148783"/>
<path d="M362.048 494.674C351.988 498.032 342.443 499.197 333.414 498.168C324.385 497.139 316.538 494.192 309.873 489.329C303.252 484.451 298.473 477.91 295.535 469.706L327.872 458.911C329.835 463.896 333.266 467.294 338.163 469.103C343.044 470.868 348.158 470.858 353.502 469.074C357.679 467.68 361.077 465.522 363.696 462.601C366.315 459.68 367.99 456.251 368.722 452.313C369.439 448.33 369.048 444.167 367.549 439.826C366.11 435.365 363.892 431.787 360.896 429.093C357.945 426.384 354.523 424.657 350.63 423.91C346.767 423.103 342.724 423.404 338.502 424.813C334.49 426.103 330.987 428.245 327.994 431.241C325.046 434.222 323.168 437.57 322.361 441.283L291.077 445.587L272.245 369.211L360.767 339.66L369.74 366.54L308.637 386.938L316.333 420.533L317.142 420.263C318.158 415.681 320.791 411.308 325.041 407.144C329.322 402.919 334.718 399.72 341.23 397.546C349.494 394.788 357.505 394.26 365.261 395.964C373.048 397.607 379.937 401.198 385.929 406.735C391.965 412.258 396.445 419.398 399.369 428.155C402.532 437.632 403.09 446.78 401.043 455.6C399.04 464.405 394.717 472.238 388.072 479.098C381.457 485.899 372.782 491.091 362.048 494.674Z" fill="#148783"/>
<path d="M333.414 498.168L333.187 500.155L333.187 500.155L333.414 498.168ZM309.873 489.329L308.686 490.939L308.694 490.945L309.873 489.329ZM295.535 469.706L294.902 467.809L292.963 468.456L293.652 470.38L295.535 469.706ZM327.872 458.911L329.732 458.178L329.037 456.414L327.238 457.014L327.872 458.911ZM338.163 469.103L337.469 470.979L337.476 470.982L337.483 470.984L338.163 469.103ZM363.696 462.601L362.207 461.266L362.207 461.266L363.696 462.601ZM368.722 452.313L370.689 452.678L370.691 452.667L368.722 452.313ZM367.549 439.826L365.646 440.44L365.652 440.459L365.658 440.479L367.549 439.826ZM360.896 429.093L359.544 430.567L359.551 430.574L359.559 430.58L360.896 429.093ZM350.63 423.91L350.221 425.867L350.237 425.871L350.253 425.874L350.63 423.91ZM338.502 424.813L339.114 426.717L339.125 426.714L339.136 426.71L338.502 424.813ZM327.994 431.241L326.579 429.828L326.572 429.835L327.994 431.241ZM322.361 441.283L322.634 443.264L324.019 443.074L324.316 441.708L322.361 441.283ZM291.077 445.587L289.136 446.065L289.566 447.813L291.35 447.568L291.077 445.587ZM272.245 369.211L271.612 367.314L269.862 367.898L270.303 369.689L272.245 369.211ZM360.767 339.66L362.664 339.027L362.031 337.13L360.134 337.763L360.767 339.66ZM369.74 366.54L370.373 368.437L372.271 367.804L371.637 365.907L369.74 366.54ZM308.637 386.938L308.004 385.04L306.283 385.615L306.688 387.384L308.637 386.938ZM316.333 420.533L314.384 420.98L314.876 423.128L316.966 422.43L316.333 420.533ZM317.142 420.263L317.775 422.161L318.849 421.802L319.094 420.696L317.142 420.263ZM325.041 407.144L326.441 408.572L326.446 408.567L325.041 407.144ZM365.261 395.964L364.832 397.917L364.84 397.919L364.848 397.921L365.261 395.964ZM385.929 406.735L384.571 408.204L384.579 408.211L385.929 406.735ZM401.043 455.6L399.095 455.148L399.093 455.157L401.043 455.6ZM388.072 479.098L389.505 480.493L389.508 480.49L388.072 479.098ZM361.415 492.777C351.585 496.058 342.335 497.172 333.64 496.181L333.187 500.155C342.551 501.222 352.39 500.007 362.681 496.571L361.415 492.777ZM333.64 496.181C324.92 495.187 317.409 492.352 311.051 487.714L308.694 490.945C315.666 496.033 323.85 499.091 333.187 500.155L333.64 496.181ZM311.059 487.719C304.778 483.091 300.23 476.885 297.418 469.032L293.652 470.38C296.716 478.935 301.726 485.811 308.686 490.939L311.059 487.719ZM296.168 471.603L328.505 460.808L327.238 457.014L294.902 467.809L296.168 471.603ZM326.011 459.644C328.177 465.143 332.022 468.967 337.469 470.979L338.856 467.227C334.509 465.621 331.494 462.649 329.732 458.178L326.011 459.644ZM337.483 470.984C342.825 472.915 348.403 472.885 354.136 470.971L352.869 467.177C347.913 468.832 343.264 468.821 338.842 467.222L337.483 470.984ZM354.136 470.971C358.6 469.481 362.307 467.146 365.185 463.937L362.207 461.266C359.847 463.898 356.758 465.879 352.869 467.177L354.136 470.971ZM365.185 463.937C368.054 460.736 369.891 456.969 370.689 452.678L366.756 451.947C366.09 455.533 364.575 458.625 362.207 461.266L365.185 463.937ZM370.691 452.667C371.476 448.304 371.035 443.794 369.439 439.173L365.658 440.479C367.061 444.541 367.402 448.356 366.754 451.958L370.691 452.667ZM369.452 439.212C367.923 434.47 365.532 430.572 362.234 427.606L359.559 430.58C362.252 433.002 364.297 436.259 365.646 440.44L369.452 439.212ZM362.249 427.62C359.028 424.663 355.269 422.763 351.007 421.945L350.253 425.874C353.778 426.55 356.863 428.106 359.544 430.567L362.249 427.62ZM351.039 421.952C346.786 421.064 342.383 421.409 337.869 422.916L339.136 426.71C343.065 425.399 346.747 425.142 350.221 425.867L351.039 421.952ZM337.89 422.909C333.574 424.297 329.796 426.608 326.579 429.828L329.409 432.655C332.179 429.883 335.407 427.909 339.114 426.717L337.89 422.909ZM326.572 429.835C323.385 433.057 321.303 436.736 320.407 440.858L324.316 441.708C325.034 438.403 326.706 435.387 329.416 432.648L326.572 429.835ZM322.089 439.302L290.805 443.605L291.35 447.568L322.634 443.264L322.089 439.302ZM293.019 445.108L274.187 368.732L270.303 369.689L289.136 446.065L293.019 445.108ZM272.879 371.108L361.4 341.557L360.134 337.763L271.612 367.314L272.879 371.108ZM358.87 340.293L367.843 367.173L371.637 365.907L362.664 339.027L358.87 340.293ZM369.107 364.643L308.004 385.04L309.271 388.835L370.373 368.437L369.107 364.643ZM306.688 387.384L314.384 420.98L318.283 420.087L310.587 386.491L306.688 387.384ZM316.966 422.43L317.775 422.161L316.508 418.366L315.7 418.636L316.966 422.43ZM319.094 420.696C320.006 416.582 322.394 412.538 326.441 408.572L323.642 405.715C319.188 410.078 316.309 414.78 315.189 419.83L319.094 420.696ZM326.446 408.567C330.48 404.586 335.6 401.534 341.864 399.444L340.597 395.649C333.836 397.906 328.164 401.253 323.637 405.72L326.446 408.567ZM341.864 399.444C349.819 396.788 357.462 396.299 364.832 397.917L365.69 394.01C357.547 392.222 349.169 392.788 340.597 395.649L341.864 399.444ZM364.848 397.921C372.273 399.488 378.838 402.905 384.571 408.204L387.286 405.266C381.036 399.491 373.823 395.727 365.674 394.007L364.848 397.921ZM384.579 408.211C390.333 413.475 394.642 420.311 397.472 428.789L401.266 427.522C398.249 418.484 393.597 411.04 387.279 405.259L384.579 408.211ZM397.472 428.789C400.531 437.952 401.05 446.724 399.095 455.148L402.991 456.052C405.13 446.836 404.534 437.311 401.266 427.522L397.472 428.789ZM399.093 455.157C397.176 463.584 393.041 471.093 386.635 477.707L389.508 480.49C396.393 473.382 400.905 465.227 402.993 456.044L399.093 455.157ZM386.638 477.704C380.285 484.235 371.904 489.276 361.415 492.777L362.681 496.571C373.66 492.906 382.628 487.563 389.505 480.493L386.638 477.704Z" fill="#148783"/>
<path d="M554.248 359.434C554.338 360.377 556.023 360.986 556.741 360.364C557.031 360.174 557.494 360.155 557.77 360.359C559.131 361.433 560.413 360.482 561.36 357.766C562.424 354.689 564.62 351.297 565.189 351.826C565.413 352.013 565.061 353.611 564.419 355.399C563.488 357.892 563.406 358.665 563.941 359.125C565.147 360.148 566.395 359.129 567.819 355.999C570.398 350.391 572.195 349.438 575.041 352.254C576.869 353.995 576.906 354.578 575.374 356.817C574.216 358.436 574.553 360.545 575.997 361.017C576.925 361.321 577.473 361.044 578.494 359.494C579.635 357.927 579.909 357.788 580.17 358.559C580.624 359.963 582.741 361.17 584.749 361.143C585.675 361.103 586.414 361.288 586.329 361.546C586.262 361.752 584.976 362.016 583.449 361.973C579.829 362.044 574.55 363.17 573.542 364.153C572.893 364.74 572.81 365.17 573.26 365.888C573.71 366.606 574.311 366.689 576.643 366.368C579.506 365.992 585.288 365.773 586.113 366.043C587.247 366.414 585.965 367.193 583.975 367.341C579.756 367.672 572.8 369.734 572.479 370.714C571.905 372.467 573.571 372.784 579.52 371.878C585.281 371.023 587.22 371.03 586.933 371.907C586.866 372.113 584.279 372.865 581.245 373.584C575.281 374.886 574.083 375.407 574.311 376.452C574.627 377.755 577.202 377.913 581.967 376.961C584.658 376.415 587.11 376.076 587.368 376.16C588.502 376.532 586.945 377.278 582.849 378.277C578.582 379.278 577.214 380.315 578.901 381.267C580.588 382.219 595.43 378.914 600.582 376.433C603.971 374.802 608.755 374.314 619.463 374.394C624.131 374.438 631.833 374.105 636.55 373.651L645.142 372.868L651.73 369.315C657.958 365.988 658.404 365.848 659.918 366.63C661.38 367.394 661.826 367.254 664.957 365.539C666.856 364.448 670.223 362.011 672.461 360.06C677.379 355.675 678.8 354.998 688.737 352.2C700.868 348.807 708.943 344.2 718.76 334.968C720.502 333.311 730.141 326.019 740.192 318.69C754.823 308.008 759.184 305.154 762.078 304.16L765.692 302.888L766.756 299.64L767.837 296.339L772.8 293.911C775.573 292.592 779.011 290.635 780.43 289.615C783.114 287.696 785.17 287.17 791.826 286.723C797.966 286.279 808.3 283.839 820.875 279.963C827.367 277.921 834.426 275.893 836.654 275.366C843.544 273.854 844.742 273.333 845.35 271.476C845.654 270.548 845.73 268.746 845.586 267.443C845.368 265.145 845.402 265.041 847.125 263.093C848.062 261.973 850.576 260.227 852.698 259.151C858.431 256.29 862.894 253.469 865.011 251.365C866.018 250.381 867.061 249.638 867.37 249.739C867.68 249.84 870.111 248.867 872.799 247.634C875.435 246.385 880.433 244.196 883.875 242.754C887.299 241.363 893.785 238.119 898.233 235.522C902.681 232.925 908.976 229.391 912.228 227.657C918.644 224.277 931.866 219.471 933.79 219.873C935.559 220.224 939.588 219.602 940.699 218.824C941.229 218.426 941.88 218.183 942.086 218.25C942.344 218.335 944.296 217.604 946.453 216.597C948.558 215.573 951.419 214.683 952.722 214.539C959.583 213.988 962.48 213.509 964.603 212.606C967.12 211.546 972.039 207.161 972.545 205.614C973.27 203.225 970.454 199.619 966.325 197.582C962.868 195.936 958.355 195.943 953.628 197.65C948.25 199.6 942.812 199.818 935.906 198.241C931.181 197.151 925.689 197.008 925.369 197.988C925.284 198.246 924.14 199.299 922.876 200.369C921.56 201.423 919.82 203.251 919.037 204.422C915.885 208.814 914.775 209.764 910.715 211.004C904.685 212.855 892.122 215.65 884.441 216.789C878.576 217.609 876.778 218.219 872.38 220.49C861.582 226.09 858.282 228.321 856.531 231.402C855.919 232.4 853.658 233.202 845.416 235.356C839.744 236.81 834.86 237.952 834.602 237.867C834.293 237.766 833.362 236.947 832.413 236.008C830.257 233.875 829.019 233.47 827.342 234.405C826.589 234.787 824.157 235.589 821.912 236.167C819.667 236.745 815.47 237.883 812.574 238.705C806.578 240.452 784.853 243.502 785.14 242.625C785.258 242.264 787.159 238.376 789.366 233.903C794.987 222.668 801.226 211.808 804.89 206.898L808.025 202.729L807.397 200.81L806.769 198.892L810.153 193.091C814.863 184.984 816.561 181.543 818.131 176.748C819.144 173.654 819.773 172.432 820.492 172.154C821.023 171.928 821.841 170.997 822.351 169.964C824.253 166.248 825.904 163.82 828.497 160.958C832.438 156.595 836.351 150.226 841.069 140.523C847.538 127.396 851.281 121.371 856.74 115.508C859.3 112.748 862.08 109.662 862.916 108.68C863.803 107.714 865.221 106.523 866.128 106.02C867.034 105.518 868.657 104.051 869.714 102.741C873.005 98.794 874.866 97.1197 878.681 94.8859C887.798 89.5354 894.851 83.1662 895.28 79.938C895.61 77.3624 894.12 74.7621 891.089 72.6847C883.908 67.7638 876.688 68.54 868.796 75.2053C862.663 80.3341 857.326 86.8657 844.928 104.502C840.466 110.806 836.952 114.737 828.449 122.744C820.92 129.871 816.177 135.113 812.175 140.882C808.43 146.393 803.336 156.544 802.617 160.134C802.249 161.955 801.282 164.036 799.359 167.118C796.602 171.354 787.245 183.363 786.218 183.883C785.945 184.022 784.225 183.345 782.367 182.394C779.098 180.695 778.943 180.645 777.643 181.475C776.908 181.977 776.158 182.873 775.955 183.492C775.769 184.059 772.214 189.86 768.027 196.369C756.234 214.775 750.024 224.846 747.356 229.853C744.163 235.944 741.369 239.769 737.033 243.944C735.052 245.808 733.176 247.877 732.836 248.565C732.327 249.597 731.967 249.651 729.905 249.147C728.599 248.776 726.984 248.476 726.332 248.376C724.838 248.23 722.704 250.215 721.978 252.432C721.555 253.721 720.701 254.412 717.501 255.99C715.327 257.049 711.958 259.143 710.01 260.732C708.079 262.269 705.566 264.016 704.488 264.519C702.468 265.456 691.87 266.611 684.475 266.701C679.533 266.796 665.627 268.637 661.961 269.721C654.251 271.992 639.801 281.421 635.524 286.986C633.547 289.536 632.127 290.384 624.782 293.46C621.786 294.763 618.229 296.91 615.016 299.398C610.111 303.216 608.833 304.853 609.341 306.789C609.639 307.971 606.925 310.68 603.316 312.81C601.828 313.693 599.059 315.869 597.164 317.647C595.269 319.424 592.194 322.014 590.365 323.414C586.401 326.455 584.028 328.818 580.465 333.247C579.016 335.057 577.053 337.04 576.13 337.594C575.189 338.2 573.858 339.477 573.142 340.441C571.915 342.095 570.769 342.633 564.944 344.38C564.121 344.625 562.002 346.215 560.227 347.974C557.478 350.614 556.814 351.596 555.562 354.897C554.818 356.994 554.194 359.074 554.248 359.434ZM588.939 342.417C597.462 338.185 603.43 334.258 607.184 330.463C610.12 327.427 618.21 322.597 618.85 323.435C619.523 324.169 622.795 323.242 628.376 320.673C637.619 316.334 636.487 316.477 638.785 319.571C640.67 322.186 641.02 323.557 640.243 325.929C639.72 327.528 640.495 328.124 643.001 328.145C644.785 328.102 645.765 328.422 647.813 329.664C650.154 331.059 650.687 331.176 652.727 330.874C656.533 330.236 661.618 328.132 663.205 326.425C664.417 325.166 665.461 324.766 668.548 324.406C670.675 324.189 672.837 324.212 673.37 324.501C674.299 324.976 674.214 325.063 672.229 326.069C670.877 326.711 668.572 328.868 666.082 331.764C661.426 337.262 660.692 337.935 653.947 344.063C650.634 347.031 648.57 349.325 648.232 350.356C647.945 351.233 646.615 352.853 645.334 353.975C643.062 355.857 642.223 356.153 634.131 357.5C629.313 358.264 622.731 359.706 619.562 360.666C613.309 362.501 602.114 364.431 600.464 363.89C599.948 363.722 598.432 362.597 597.122 361.369C594.069 358.485 590.047 357.168 584.608 357.214C582.36 357.277 580.523 357.133 580.454 356.996C580.35 356.79 580.843 355.981 581.525 355.12C582.547 353.741 582.767 353.071 582.754 350.669C582.746 349.125 582.549 347.633 582.342 347.394C581.53 346.386 582.658 345.556 588.939 342.417Z" fill="#05625F"/>
</svg>
