<svg xmlns="http://www.w3.org/2000/svg" width="1060" height="685" fill="none"><path fill="#F9F9FC" d="M77.083 273.023c.287.124.658.093.788.025.195-.049.87-.131 1.549-.104.83.001 1.156-.116 1.102-.53-.075-.348.667-.41 1.721-.196 1.825.414 5.084.508 5.688.187.13-.068-.054-.413-.413-.776-.379-.297.124-.287 1.118.125 1.367.491 1.652.506 1.092-.027-.493-.512.01-.503 1.77 0 2.885.847 4.337.352 5.919-1.982.95-1.335.993-1.358.776-.413-.072.592-.041.963.174.848.216-.114.12.435-.232 1.23l-.62 1.436 1.373-1.061c.728-.608 1.537-1.481 1.745-1.923.354-.686.354-.686.224.213-.134.79-.042.963.481.906.348-.074.226.323-.372.862-.556.516-.913 1.093-.798 1.309.229.432 2.117-1.014 2.552-1.964.124-.288.616-.715 1.005-.921 1.165-.619.679.966-.691 2.137-1.413 1.193-1.556 2.486-.12 1.336 1.393-1.127 1.378-.843-.099 1.27-1.078 1.513-1.153 1.996-.511 3.204.389.734.748 2.867.791 4.614 0 1.771.196 3.492.356 3.795.161.302.305 1.719.297 3.161-.008 1.443.182 2.947.411 3.378.229.432.176 1.788-.102 2.932-.295 1.318-.24 2.672.15 3.406.366.69.745 2.757.834 4.591.147 3.297-.819 12.828-1.574 15.885-.399 1.54-.917 1.815-4.609 2.781-1.13.268-1.173.291-.119.505.638.159 3.597-.416 6.549-1.211 6.602-1.737 10.072-1.975 14.053-.937 5.456 1.417 9.354 4.381 15.636 11.832 4.1 4.904 6.877 7.633 11.533 11.19 1.938 1.46 3.531 3.103 4.104 4.182.642 1.208 1.873 2.38 3.739 3.602 2.354 1.515 3.676 1.92 7.928 2.427 3.509.459 10.131 2.197 21.564 5.805 11.235 3.548 17.242 5.169 18.923 5.106 1.791-.066 3.743-.661 7.764-2.465 7.763-3.405 10.869-3.285 19.029.513 3.228 1.494 4.296 2.255 5.184 3.719l1.204 1.85-2.01.902c-1.685.785-2.341.801-4.153-.006-4.661-2.005-7.54-2.634-9.452-2.171-5.975 1.459-6.847 2.42-2.407 2.551 3.434.112 6.14.832 6.645 1.781 1.1 2.071-1.897 3.719-5.609 2.98-2.767-.522-4.078-.489-7.605.057-2.156.316-3.843.161-6.641-.732-3.68-1.199-6.174-1.312-13.021-.662-1.898.178-6.045.39-9.256.491-16.644.433-25.672-1.354-36.46-7.186-4.896-2.655-5.844-2.981-7.035-2.514-.952.395-2.179.272-3.899-.363l-2.56-.964.178 3.667c.2 4.542 1.202 7.053 3.552 9.289 1.008.959 3.107 3.661 4.652 6.049 3.905 5.893 4.648 6.77 7.186 8.631 2.67 1.901 3.437 3.762 2.852 6.618-.255 1.186-.187 2.146.214 2.486.379.297 1.211 1.238 1.931 2.073 4.906 5.692 4.883 5.649 6.427 5.327 7.392-1.603 11.306-1.525 24.538.574 5.068.793 12.025 1.91 15.536 2.479 3.488.526 8.465 1.146 11.049 1.323 2.649.197 5.043.64 5.378.96.336.319 1.241 2.439 1.953 4.716.712 2.278 1.734 4.722 2.319 5.407.7.901 3.646 2.489 8.661 4.638 7.6 3.266 12.283 6.145 13.406 8.259.344.647 1.366 1.321 2.598 1.663 4.071 1.101 7.782 4.441 23.651 21.294 17.89 18.989 25.303 25.341 31.847 27.452 1.279.428 2.499 1.163 2.774 1.68.55 1.036 3.626 2.556 10.973 5.347 2.781 1.067 6.388 2.858 7.969 4.065 2.67 1.901 3.143 2.479 4.957 5.997 3.484 6.559 3.319 9.579-.597 12.102-2.819 1.775-6.743 2.199-9.963 1.033-1.235-.45-5.588-3.228-9.662-6.209-7.277-5.263-7.455-5.389-14.326-7.493-3.789-1.196-7.63-2.696-8.476-3.353-1.002-.74-2.628-2.864-4.449-5.77-4.779-7.641-10.5-11.849-26.732-19.491-9.044-4.214-12.403-6.579-16.593-11.655-1.397-1.692-3.349-3.699-4.396-4.525-2.208-1.76-2.618-2.427-2.239-3.901.478-1.914-.981-2.577-6.568-3.095-5.96-.595-7.463-.405-8.302 1.036-1.006 1.752-3.182 3.904-4.225 4.126-.544.123-1.314-.076-1.672-.439-.425-.383-1.962-.673-3.491-.635-1.486.015-5.165-.244-8.124-.608-6.006-.682-9.372-.665-21.113.041-9.974.596-15.868.02-22.808-2.212-2.953-.977-5.482-1.57-5.519-1.328-.104.221 2.54 5.51 5.818 11.681 6.877 12.944 12.159 24.135 17.736 37.549 4.953 12.03 5.478 12.913 9.016 16.345 5.532 5.415 6.8 7.176 12.646 18.178 7.473 14.067 10.641 18.469 17.366 24.357 2.681 2.338 3.246 3.089 5.334 7.125 1.883 3.647 2.585 4.657 3.897 5.565 1.177.758 2.396 2.323 4.403 5.683 2.712 4.479 2.76 4.675 2.201 5.913-.456 1.016-1.484 1.894-4.242 3.471-2.457 1.415-3.614 2.362-3.667 2.888-.072.592-.331.729-1.119.705-.701-.07-1.242.162-1.599.739s-.812.763-1.582.564c-.571-.139-1.577-.158-2.164-.012-1.414.253-3.871-1.872-6.073-5.183-1.227-1.894-1.948-3.668-2.797-7.035-2.424-9.666-8.781-17.465-24.456-29.995-4.082-3.309-9.749-8.874-12.391-12.284-1.061-1.373-3.595-5.725-5.66-9.718-3.86-7.576-6.919-11.981-12.33-17.793-3.75-4.038-4.523-4.347-7.284-2.88-3.884 2.063-3.141 2.941-13.021-15.655-12.47-23.473-16.764-32.7-24.074-51.666-2.427-6.235-3.348-7.239-6.271-7.014-3.708.31-4.695-.715-5.59-5.938-1.139-6.311-1.692-7.456-5.562-11.928-2.676-3.059-4.219-5.338-6.167-9.006-2.476-4.66-7.227-12.039-7.93-12.219-.133-.04-.41.273-.53.669-.142.463-.588.976-.977 1.183-.992.527-1.719 3.845-1.806 8.263-.081 3.805.353 5.455 1.491 5.515.963.041 4.365 7.695 6.593 14.699 2.797 8.805 2.37 8.313 7.198 8.238 5.265-.087 7.635.314 10.096 1.717 2.573 1.51 8.89 6.84 8.841 7.475-.015.285-.571.801-1.218 1.145-1.381.734-2.966.248-6.274-1.812-2.843-1.809-4.466-2.053-5.31-.83-.778 1.243.235 2.42 5.692 6.547 2.362 1.844 4.666 3.994 5.145 4.791.8 1.401.759 1.533-.601 2.201-1.125.486-1.335.819-.991 1.467.32.604.133.98-.73 1.438-.863.459-2.245.253-5.35-.698-5.001-1.603-5.23-1.095-.289.707 1.92.695 3.559 1.595 3.679 2.029.357 1.193-1.303 2.13-3.145 1.892-1.25-.166-1.77 0-2.148.643-.501.93-2.122.796-7.16-.566-2.178-.558-3.046-1.149-4.442-2.841-2.479-2.999-3.576-4.961-4.99-9.079-1.433-4.052-4.506-9.003-10.446-16.746-4.494-5.856-10.279-15.287-12.14-19.831-1.162-2.813-1.39-4.075-1.255-7.466.167-5.621-.428-9.344-1.92-11.318-1.038-1.33-1.169-2.201-1.215-5.828-.036-2.359-.515-8.468-1.078-13.59-1.226-11.576-1.325-14.677-.43-19.136 1.44-7.183 4.513-11.084 11.978-15.05 4.315-2.292 5.195-2.926 7.962-5.945 7.704-8.409 9.139-12.269 6.717-18.286-1.935-4.892-8.57-17.798-8.865-17.31-.397.709-1.003-1.68-1.014-3.888.002-4.371 1.118-8.726 2.705-10.842.89-1.137 1.518-2.245 1.36-2.438-.407-.558 3.645-3.762 5.724-4.535 1.43-.538 1.901-.899 1.695-1.287-.206-.389-.1-.501.538-.342.549.096.894-.087 1.015-.484.122-.396.444-.623.708-.542Zm12.75 175.417c2.403 1.711 6.364 3.646 5.997 2.955-.344-.647-4.438-3.562-6.474-4.583-2.168-1.061-1.813.023.477 1.628Zm-3.455 4.325c.356.254.775.418.99.304.173-.092.1-.44-.214-.716-.356-.254-.775-.418-.99-.304-.173.092-.1.44.214.716Z"/><mask id="a" fill="#fff"><path d="M80.946 270.141c.287.124.658.093.788.024.195-.048.87-.13 1.549-.103.83.001 1.156-.116 1.102-.53-.075-.348.667-.41 1.721-.196 1.825.414 5.084.508 5.688.187.13-.068-.054-.414-.413-.776-.379-.297.124-.287 1.118.125 1.367.491 1.652.506 1.092-.027-.493-.512.01-.503 1.77 0 2.885.847 4.337.352 5.919-1.982.95-1.335.993-1.358.776-.413-.072.592-.041.963.174.848.216-.114.12.435-.232 1.23l-.62 1.436 1.373-1.061c.728-.608 1.537-1.481 1.745-1.923.354-.686.354-.686.223.213-.133.79-.041.963.482.906.348-.074.226.322-.372.862-.556.516-.913 1.093-.799 1.309.23.432 2.117-1.014 2.553-1.965.124-.287.616-.714 1.004-.92 1.165-.619.68.966-.69 2.137-1.413 1.193-1.556 2.486-.12 1.336 1.393-1.127 1.378-.843-.1 1.27-1.077 1.513-1.152 1.996-.511 3.204.39.733.749 2.867.792 4.614 0 1.771.196 3.492.356 3.794.161.302.305 1.72.297 3.162-.008 1.443.182 2.947.411 3.378.229.432.175 1.788-.102 2.931-.296 1.319-.24 2.673.149 3.406.367.691.746 2.758.835 4.592.147 3.297-.819 12.828-1.574 15.885-.399 1.54-.917 1.815-4.609 2.781-1.13.268-1.173.291-.119.505.638.159 3.596-.417 6.549-1.211 6.602-1.737 10.071-1.975 14.053-.937 5.456 1.417 9.354 4.38 15.636 11.831 4.1 4.904 6.877 7.634 11.533 11.19 1.938 1.461 3.531 3.104 4.104 4.183.641 1.208 1.873 2.38 3.739 3.602 2.354 1.515 3.676 1.92 7.928 2.426 3.509.46 10.131 2.198 21.564 5.806 11.235 3.547 17.242 5.169 18.923 5.106 1.791-.066 3.743-.661 7.764-2.465 7.763-3.405 10.869-3.285 19.029.513 3.228 1.494 4.296 2.255 5.184 3.719l1.204 1.85-2.01.902c-1.686.785-2.341.801-4.153-.007-4.662-2.005-7.54-2.633-9.452-2.17-5.975 1.459-6.847 2.42-2.407 2.551 3.434.112 6.14.832 6.645 1.781 1.1 2.071-1.897 3.719-5.61 2.98-2.766-.522-4.077-.489-7.604.057-2.156.315-3.843.16-6.641-.732-3.68-1.199-6.174-1.312-13.022-.662-1.897.178-6.044.39-9.255.491-16.644.433-25.672-1.354-36.46-7.186-4.896-2.655-5.844-2.981-7.035-2.515-.952.396-2.179.273-3.899-.362l-2.56-.964.178 3.667c.2 4.542 1.202 7.052 3.552 9.289 1.007.959 3.107 3.661 4.652 6.049 3.905 5.892 4.648 6.77 7.186 8.631 2.67 1.901 3.437 3.762 2.852 6.618-.255 1.186-.187 2.146.214 2.486.379.297 1.211 1.238 1.931 2.073 4.906 5.692 4.883 5.649 6.427 5.327 7.392-1.603 11.306-1.525 24.538.574 5.068.793 12.025 1.91 15.536 2.479 3.488.526 8.465 1.146 11.049 1.323 2.649.196 5.043.64 5.378.96.336.319 1.241 2.439 1.953 4.716.712 2.278 1.734 4.722 2.319 5.407.7.901 3.646 2.489 8.661 4.638 7.6 3.266 12.283 6.145 13.406 8.259.344.647 1.366 1.321 2.598 1.662 4.071 1.102 7.782 4.442 23.651 21.295 17.89 18.989 25.303 25.341 31.847 27.452 1.278.428 2.499 1.163 2.774 1.68.55 1.036 3.626 2.555 10.973 5.346 2.781 1.068 6.387 2.859 7.969 4.066 2.67 1.901 3.143 2.479 4.957 5.997 3.484 6.559 3.319 9.579-.597 12.102-2.82 1.774-6.743 2.199-9.963 1.033-1.235-.45-5.588-3.228-9.662-6.209-7.277-5.263-7.455-5.389-14.326-7.493-3.789-1.196-7.63-2.696-8.476-3.353-1.002-.74-2.628-2.864-4.449-5.77-4.779-7.641-10.5-11.849-26.732-19.491-9.044-4.214-12.403-6.579-16.594-11.655-1.396-1.693-3.348-3.699-4.395-4.525-2.208-1.76-2.618-2.427-2.239-3.901.478-1.914-.981-2.577-6.568-3.095-5.96-.595-7.463-.405-8.302 1.036-1.006 1.752-3.182 3.904-4.226 4.126-.543.123-1.313-.077-1.672-.439-.424-.383-1.961-.673-3.491-.635-1.485.015-5.164-.244-8.124-.608-6.005-.682-9.371-.665-21.113.041-9.974.596-15.867.02-22.808-2.212-2.953-.977-5.481-1.57-5.519-1.329-.103.222 2.541 5.511 5.819 11.681 6.877 12.945 12.159 24.136 17.736 37.55 4.953 12.03 5.478 12.913 9.016 16.345 5.532 5.415 6.8 7.176 12.645 18.178 7.473 14.067 10.642 18.469 17.367 24.357 2.68 2.338 3.245 3.089 5.334 7.125 1.883 3.647 2.585 4.657 3.897 5.565 1.177.757 2.396 2.323 4.403 5.683 2.711 4.479 2.76 4.675 2.2 5.913-.455 1.016-1.483 1.894-4.241 3.47-2.457 1.416-3.614 2.363-3.667 2.889-.072.592-.331.729-1.119.705-.701-.07-1.242.162-1.599.739s-.812.763-1.582.564c-.571-.139-1.577-.158-2.164-.012-1.414.253-3.871-1.872-6.073-5.183-1.227-1.894-1.949-3.668-2.797-7.035-2.424-9.666-8.781-17.465-24.456-29.996-4.082-3.308-9.749-8.873-12.391-12.283-1.061-1.373-3.595-5.725-5.66-9.718-3.86-7.576-6.919-11.981-12.33-17.793-3.75-4.038-4.523-4.347-7.284-2.88-3.884 2.063-3.141 2.941-13.021-15.656-12.47-23.472-16.764-32.699-24.074-51.665-2.427-6.235-3.348-7.239-6.271-7.014-3.708.31-4.695-.715-5.59-5.938-1.139-6.311-1.692-7.456-5.562-11.928-2.676-3.06-4.219-5.338-6.168-9.006-2.475-4.66-7.226-12.039-7.93-12.219-.132-.04-.408.273-.53.669-.141.463-.587.976-.976 1.183-.992.527-1.719 3.845-1.806 8.263-.081 3.805.353 5.455 1.491 5.514.963.042 4.365 7.696 6.593 14.7 2.796 8.805 2.369 8.313 7.198 8.238 5.265-.087 7.635.314 10.096 1.717 2.573 1.51 8.89 6.84 8.84 7.475-.014.285-.57.801-1.217 1.145-1.381.734-2.967.248-6.274-1.812-2.843-1.809-4.466-2.053-5.31-.83-.778 1.243.235 2.42 5.692 6.547 2.362 1.843 4.666 3.994 5.145 4.791.8 1.401.759 1.533-.601 2.201-1.125.486-1.335.819-.991 1.467.321.604.133.98-.73 1.438-.863.459-2.245.253-5.35-.698-5.001-1.603-5.23-1.095-.289.707 1.92.695 3.559 1.595 3.679 2.029.357 1.193-1.303 2.13-3.145 1.892-1.25-.166-1.77 0-2.148.643-.501.93-2.122.795-7.16-.566-2.178-.558-3.046-1.149-4.442-2.841-2.479-2.999-3.577-4.961-4.99-9.079-1.433-4.052-4.506-9.003-10.446-16.747-4.494-5.855-10.28-15.286-12.14-19.83-1.162-2.813-1.39-4.075-1.255-7.466.167-5.621-.428-9.344-1.92-11.318-1.038-1.33-1.169-2.201-1.215-5.828-.036-2.36-.515-8.468-1.079-13.59-1.225-11.576-1.324-14.677-.429-19.137 1.44-7.182 4.513-11.083 11.978-15.049 4.314-2.292 5.195-2.926 7.962-5.945 7.704-8.409 9.139-12.269 6.717-18.286-1.935-4.892-8.57-17.798-8.865-17.31-.398.709-1.003-1.68-1.014-3.888.001-4.371 1.118-8.726 2.705-10.842.89-1.137 1.518-2.245 1.36-2.438-.407-.558 3.645-3.762 5.724-4.535 1.43-.538 1.901-.899 1.695-1.287-.206-.389-.1-.501.538-.342.549.096.894-.087 1.015-.484.122-.396.444-.623.708-.542Zm12.75 175.417c2.403 1.711 6.363 3.646 5.997 2.955-.344-.647-4.438-3.562-6.474-4.583-2.168-1.061-1.814.023.477 1.628Zm-3.455 4.325c.356.254.775.418.99.304.173-.092.099-.44-.214-.716-.356-.254-.775-.418-.99-.304-.173.092-.1.44.214.716Z"/></mask><path stroke="#148783" stroke-width="2" d="M80.946 270.141c.287.124.658.093.788.024.195-.048.87-.13 1.549-.103.83.001 1.156-.116 1.102-.53-.075-.348.667-.41 1.721-.196 1.825.414 5.084.508 5.688.187.13-.068-.054-.414-.413-.776-.379-.297.124-.287 1.118.125 1.367.491 1.652.506 1.092-.027-.493-.512.01-.503 1.77 0 2.885.847 4.337.352 5.919-1.982.95-1.335.993-1.358.776-.413-.072.592-.041.963.174.848.216-.114.12.435-.232 1.23l-.62 1.436 1.373-1.061c.728-.608 1.537-1.481 1.745-1.923.354-.686.354-.686.223.213-.133.79-.041.963.482.906.348-.074.226.322-.372.862-.556.516-.913 1.093-.799 1.309.23.432 2.117-1.014 2.553-1.965.124-.287.616-.714 1.004-.92 1.165-.619.68.966-.69 2.137-1.413 1.193-1.556 2.486-.12 1.336 1.393-1.127 1.378-.843-.1 1.27-1.077 1.513-1.152 1.996-.511 3.204.39.733.749 2.867.792 4.614 0 1.771.196 3.492.356 3.794.161.302.305 1.72.297 3.162-.008 1.443.182 2.947.411 3.378.229.432.175 1.788-.102 2.931-.296 1.319-.24 2.673.149 3.406.367.691.746 2.758.835 4.592.147 3.297-.819 12.828-1.574 15.885-.399 1.54-.917 1.815-4.609 2.781-1.13.268-1.173.291-.119.505.638.159 3.596-.417 6.549-1.211 6.602-1.737 10.071-1.975 14.053-.937 5.456 1.417 9.354 4.38 15.636 11.831 4.1 4.904 6.877 7.634 11.533 11.19 1.938 1.461 3.531 3.104 4.104 4.183.641 1.208 1.873 2.38 3.739 3.602 2.354 1.515 3.676 1.92 7.928 2.426 3.509.46 10.131 2.198 21.564 5.806 11.235 3.547 17.242 5.169 18.923 5.106 1.791-.066 3.743-.661 7.764-2.465 7.763-3.405 10.869-3.285 19.029.513 3.228 1.494 4.296 2.255 5.184 3.719l1.204 1.85-2.01.902c-1.686.785-2.341.801-4.153-.007-4.662-2.005-7.54-2.633-9.452-2.17-5.975 1.459-6.847 2.42-2.407 2.551 3.434.112 6.14.832 6.645 1.781 1.1 2.071-1.897 3.719-5.61 2.98-2.766-.522-4.077-.489-7.604.057-2.156.315-3.843.16-6.641-.732-3.68-1.199-6.174-1.312-13.022-.662-1.897.178-6.044.39-9.255.491-16.644.433-25.672-1.354-36.46-7.186-4.896-2.655-5.844-2.981-7.035-2.515-.952.396-2.179.273-3.899-.362l-2.56-.964.178 3.667c.2 4.542 1.202 7.052 3.552 9.289 1.007.959 3.107 3.661 4.652 6.049 3.905 5.892 4.648 6.77 7.186 8.631 2.67 1.901 3.437 3.762 2.852 6.618-.255 1.186-.187 2.146.214 2.486.379.297 1.211 1.238 1.931 2.073 4.906 5.692 4.883 5.649 6.427 5.327 7.392-1.603 11.306-1.525 24.538.574 5.068.793 12.025 1.91 15.536 2.479 3.488.526 8.465 1.146 11.049 1.323 2.649.196 5.043.64 5.378.96.336.319 1.241 2.439 1.953 4.716.712 2.278 1.734 4.722 2.319 5.407.7.901 3.646 2.489 8.661 4.638 7.6 3.266 12.283 6.145 13.406 8.259.344.647 1.366 1.321 2.598 1.662 4.071 1.102 7.782 4.442 23.651 21.295 17.89 18.989 25.303 25.341 31.847 27.452 1.278.428 2.499 1.163 2.774 1.68.55 1.036 3.626 2.555 10.973 5.346 2.781 1.068 6.387 2.859 7.969 4.066 2.67 1.901 3.143 2.479 4.957 5.997 3.484 6.559 3.319 9.579-.597 12.102-2.82 1.774-6.743 2.199-9.963 1.033-1.235-.45-5.588-3.228-9.662-6.209-7.277-5.263-7.455-5.389-14.326-7.493-3.789-1.196-7.63-2.696-8.476-3.353-1.002-.74-2.628-2.864-4.449-5.77-4.779-7.641-10.5-11.849-26.732-19.491-9.044-4.214-12.403-6.579-16.594-11.655-1.396-1.693-3.348-3.699-4.395-4.525-2.208-1.76-2.618-2.427-2.239-3.901.478-1.914-.981-2.577-6.568-3.095-5.96-.595-7.463-.405-8.302 1.036-1.006 1.752-3.182 3.904-4.226 4.126-.543.123-1.313-.077-1.672-.439-.424-.383-1.961-.673-3.491-.635-1.485.015-5.164-.244-8.124-.608-6.005-.682-9.371-.665-21.113.041-9.974.596-15.867.02-22.808-2.212-2.953-.977-5.481-1.57-5.519-1.329-.103.222 2.541 5.511 5.819 11.681 6.877 12.945 12.159 24.136 17.736 37.55 4.953 12.03 5.478 12.913 9.016 16.345 5.532 5.415 6.8 7.176 12.645 18.178 7.473 14.067 10.642 18.469 17.367 24.357 2.68 2.338 3.245 3.089 5.334 7.125 1.883 3.647 2.585 4.657 3.897 5.565 1.177.757 2.396 2.323 4.403 5.683 2.711 4.479 2.76 4.675 2.2 5.913-.455 1.016-1.483 1.894-4.241 3.47-2.457 1.416-3.614 2.363-3.667 2.889-.072.592-.331.729-1.119.705-.701-.07-1.242.162-1.599.739s-.812.763-1.582.564c-.571-.139-1.577-.158-2.164-.012-1.414.253-3.871-1.872-6.073-5.183-1.227-1.894-1.949-3.668-2.797-7.035-2.424-9.666-8.781-17.465-24.456-29.996-4.082-3.308-9.749-8.873-12.391-12.283-1.061-1.373-3.595-5.725-5.66-9.718-3.86-7.576-6.919-11.981-12.33-17.793-3.75-4.038-4.523-4.347-7.284-2.88-3.884 2.063-3.141 2.941-13.021-15.656-12.47-23.472-16.764-32.699-24.074-51.665-2.427-6.235-3.348-7.239-6.271-7.014-3.708.31-4.695-.715-5.59-5.938-1.139-6.311-1.692-7.456-5.562-11.928-2.676-3.06-4.219-5.338-6.168-9.006-2.475-4.66-7.226-12.039-7.93-12.219-.132-.04-.408.273-.53.669-.141.463-.587.976-.976 1.183-.992.527-1.719 3.845-1.806 8.263-.081 3.805.353 5.455 1.491 5.514.963.042 4.365 7.696 6.593 14.7 2.796 8.805 2.369 8.313 7.198 8.238 5.265-.087 7.635.314 10.096 1.717 2.573 1.51 8.89 6.84 8.84 7.475-.014.285-.57.801-1.217 1.145-1.381.734-2.967.248-6.274-1.812-2.843-1.809-4.466-2.053-5.31-.83-.778 1.243.235 2.42 5.692 6.547 2.362 1.843 4.666 3.994 5.145 4.791.8 1.401.759 1.533-.601 2.201-1.125.486-1.335.819-.991 1.467.321.604.133.98-.73 1.438-.863.459-2.245.253-5.35-.698-5.001-1.603-5.23-1.095-.289.707 1.92.695 3.559 1.595 3.679 2.029.357 1.193-1.303 2.13-3.145 1.892-1.25-.166-1.77 0-2.148.643-.501.93-2.122.795-7.16-.566-2.178-.558-3.046-1.149-4.442-2.841-2.479-2.999-3.577-4.961-4.99-9.079-1.433-4.052-4.506-9.003-10.446-16.747-4.494-5.855-10.28-15.286-12.14-19.83-1.162-2.813-1.39-4.075-1.255-7.466.167-5.621-.428-9.344-1.92-11.318-1.038-1.33-1.169-2.201-1.215-5.828-.036-2.36-.515-8.468-1.079-13.59-1.225-11.576-1.324-14.677-.429-19.137 1.44-7.182 4.513-11.083 11.978-15.049 4.314-2.292 5.195-2.926 7.962-5.945 7.704-8.409 9.139-12.269 6.717-18.286-1.935-4.892-8.57-17.798-8.865-17.31-.398.709-1.003-1.68-1.014-3.888.001-4.371 1.118-8.726 2.705-10.842.89-1.137 1.518-2.245 1.36-2.438-.407-.558 3.645-3.762 5.724-4.535 1.43-.538 1.901-.899 1.695-1.287-.206-.389-.1-.501.538-.342.549.096.894-.087 1.015-.484.122-.396.444-.623.708-.542Zm12.75 175.417c2.403 1.711 6.363 3.646 5.997 2.955-.344-.647-4.438-3.562-6.474-4.583-2.168-1.061-1.814.023.477 1.628Zm-3.455 4.325c.356.254.775.418.99.304.173-.092.099-.44-.214-.716-.356-.254-.775-.418-.99-.304-.173.092-.1.44.214.716Z" mask="url(#a)"/><path fill="#EFEFF6" d="m369.514 496 177.88-123.017c18.045-12.479 40.729 7.585 30.547 27.018L453.896 636.746A20.999 20.999 0 0 1 435.295 648H215.72c-20.633 0-28.894-26.642-11.882-38.315L369.514 496Z"/><path fill="#EFEFF6" d="M799.561 495.765 580.834 366.908c-18.865-11.113-40.017 10.446-28.546 29.096l148.847 241.998A21 21 0 0 0 719.022 648H982.46c21.43 0 29.1-28.318 10.598-39.13L799.561 495.765Z"/><path fill="#fff" d="M569.672 561.753c-34.851 0-64.89-8.258-90.119-24.773-25.228-16.645-44.669-40.508-58.323-71.588-13.655-31.21-20.417-68.727-20.287-112.551.13-43.824 6.958-81.016 20.482-111.575 13.654-30.69 33.03-54.033 58.128-70.028 25.229-16.125 55.268-24.188 90.119-24.188s64.891 8.063 90.119 24.188c25.358 15.995 44.864 39.338 58.519 70.028 13.654 30.689 20.416 67.881 20.286 111.575 0 43.954-6.827 81.536-20.481 112.746-13.655 31.21-33.096 55.073-58.324 71.588-25.098 16.385-55.138 24.578-90.119 24.578Zm0-79c20.807 0 37.647-10.599 50.521-31.795 12.875-21.327 19.247-54.033 19.117-98.117 0-28.869-2.926-52.667-8.778-71.393-5.852-18.856-13.98-32.9-24.383-42.133-10.403-9.233-22.562-13.85-36.477-13.85-20.676 0-37.387 10.469-50.131 31.406-12.744 20.806-19.181 52.796-19.311 95.97-.13 29.26 2.666 53.512 8.388 72.759 5.852 19.246 14.044 33.615 24.578 43.108 10.533 9.363 22.692 14.045 36.476 14.045Z"/><path fill="#148783" d="m479.553 536.98-3.025 4.585.009.006.008.005 3.008-4.596Zm-58.323-71.588-5.033 2.202.004.008 5.029-2.21Zm-20.287-112.551-5.493-.016 5.493.016Zm20.482-111.575-5.019-2.233-.004.01 5.023 2.223Zm58.128-70.028 2.953 4.632.006-.004-2.959-4.628Zm180.238 0-2.958 4.628.014.009.014.009 2.93-4.646Zm58.519 70.028 5.019-2.233-5.019 2.233Zm20.286 111.575-5.493-.016v.016h5.493Zm-20.481 112.746-5.033-2.201 5.033 2.201Zm-58.324 71.588 3.003 4.6.006-.004-3.009-4.596Zm-39.598-86.217 4.695 2.851.004-.006.004-.007-4.703-2.838Zm19.117-98.117h-5.493v.016l5.493-.016Zm-8.778-71.393-5.246 1.629.003.01 5.243-1.639Zm-24.383-42.133 3.646-4.108-3.646 4.108Zm-86.608 17.556 4.684 2.869.004-.007.004-.006-4.692-2.856Zm-19.311 95.97 5.493.025v-.008l-5.493-.017Zm8.388 72.759-5.265 1.565.004.016.005.016 5.256-1.597Zm24.578 43.108-3.678 4.081.014.012.014.013 3.65-4.106Zm36.476 87.552c-33.953 0-62.909-8.033-87.11-23.876l-6.017 9.192c26.255 17.188 57.378 25.67 93.127 25.67V556.26Zm-87.093-23.865c-24.24-15.993-43.037-38.977-56.32-69.212l-10.058 4.419c14.025 31.925 34.111 56.666 60.327 73.963l6.051-9.17Zm-56.317-69.204c-13.274-30.341-19.954-67.063-19.826-110.333l-10.986-.033c-.131 44.377 6.713 82.69 20.747 114.769l10.065-4.403Zm-19.826-110.333c.129-43.29 6.875-79.685 20.012-109.369l-10.046-4.446c-13.912 31.435-20.82 69.423-20.952 113.782l10.986.033Zm20.008-109.36c13.274-29.835 31.987-52.285 56.062-67.628l-5.905-9.264c-26.121 16.647-46.16 40.882-60.195 72.427l10.038 4.465Zm56.068-67.632c24.207-15.473 53.182-23.323 87.16-23.323v-10.986c-35.724 0-66.828 8.276-93.077 25.053l5.917 9.256Zm87.16-23.323c33.978 0 62.953 7.85 87.161 23.323l5.916-9.256c-26.248-16.777-57.353-25.053-93.077-25.053v10.986Zm87.189 23.341c24.33 15.347 43.163 37.794 56.43 67.614l10.038-4.465c-14.042-31.56-34.221-55.797-60.607-72.441l-5.861 9.292Zm56.43 67.614c13.26 29.803 19.941 66.185 19.812 109.327l10.986.033c.132-44.246-6.712-82.249-20.76-113.825l-10.038 4.465Zm19.812 109.343c0 43.407-6.744 80.199-20.021 110.545l10.065 4.403c14.033-32.074 20.942-70.447 20.942-114.948h-10.986Zm-20.021 110.545c-13.283 30.363-32.077 53.336-56.299 69.193l6.017 9.192c26.233-17.173 46.322-41.925 60.347-73.982l-10.065-4.403Zm-56.294 69.19c-24.064 15.71-53.019 23.684-87.116 23.684v10.986c35.866 0 66.99-8.411 93.122-25.471l-6.006-9.199Zm-87.116-44.33c23.121 0 41.57-11.969 55.216-34.437l-9.389-5.703c-12.102 19.926-27.334 29.154-45.827 29.154v10.986Zm55.224-34.45c13.657-22.623 20.038-56.553 19.907-100.971l-10.986.032c.129 43.75-6.235 75.231-18.326 95.262l9.405 5.677Zm19.907-100.955c0-29.188-2.953-53.588-9.028-73.031l-10.486 3.277c5.628 18.009 8.528 41.205 8.528 69.754h10.986Zm-9.025-73.021c-6.031-19.432-14.579-34.493-25.983-44.613l-7.292 8.216c9.403 8.345 17.11 21.374 22.783 39.654l10.492-3.257Zm-25.983-44.613c-11.409-10.126-24.865-15.234-40.123-15.234v10.985c12.571 0 23.433 4.125 32.831 12.465l7.292-8.216Zm-40.123-15.234c-22.976 0-41.299 11.824-54.823 34.042l9.384 5.712c11.965-19.656 27.063-28.769 45.439-28.769v-10.985Zm-54.815 34.029c-13.536 22.099-19.989 55.314-20.12 98.823l10.986.033c.129-42.839 6.55-73.604 18.502-93.118l-9.368-5.738Zm-20.12 98.815c-.131 29.575 2.688 54.409 8.616 74.348l10.53-3.131c-5.516-18.553-8.289-42.225-8.16-71.168l-10.986-.049Zm8.625 74.38c6.027 19.823 14.633 35.207 26.156 45.592l7.355-8.161c-9.544-8.601-17.323-21.956-23-40.626l-10.511 3.195Zm26.184 45.617c11.514 10.235 24.964 15.432 40.126 15.432V477.26c-12.406 0-23.274-4.166-32.827-12.657l-7.299 8.211ZM744.43 458.545l12.621-21.909 69.157-13.765c5.243-1.133 9.819-2.295 13.729-3.485 3.933-1.231 7.292-2.794 10.076-4.687 2.808-1.934 5.111-4.46 6.907-7.578 2.009-3.487 2.963-6.899 2.863-10.235-.076-3.378-1.058-6.511-2.944-9.401-1.887-2.891-4.554-5.328-8-7.314-3.488-2.009-6.958-3.051-10.411-3.128-3.429-.118-6.65.731-9.664 2.547-2.972 1.84-5.557 4.668-7.755 8.483l-28.863-16.627c4.94-8.575 11.134-14.869 18.583-18.884 7.449-4.015 15.63-5.695 24.543-5.041 8.977.636 18.102 3.625 27.374 8.966 9.56 5.507 16.946 11.893 22.16 19.159 5.213 7.265 8.093 14.88 8.641 22.846.612 7.948-1.256 15.697-5.605 23.246-2.765 4.8-6.471 9.004-11.117 12.611-4.646 3.608-11.115 6.821-19.405 9.64-8.25 2.843-19.242 5.609-32.976 8.298l-23.09 5.223-.461.8 51.08 29.425-14.146 24.555-93.297-53.745Z"/><path fill="#148783" d="m744.43 458.545-1.733-.999-.998 1.733 1.733.999.998-1.733Zm12.621-21.909-.39-1.962-.89.178-.453.786 1.733.998Zm69.157-13.765.391 1.961.016-.003.016-.004-.423-1.954Zm13.729-3.485.582 1.913.008-.002.007-.002-.597-1.909Zm10.076-4.687 1.125 1.654.01-.007-1.135-1.647Zm9.77-17.813-1.999.045v.015l1.999-.06Zm-2.944-9.401-1.675 1.093 1.675-1.093Zm-18.411-10.442-.068 1.999h.024l.044-1.999Zm-9.664 2.547-1.032-1.713-.01.006-.01.007 1.052 1.7Zm-7.755 8.483-.998 1.733 1.733.998.998-1.733-1.733-.998Zm-28.863-16.627-1.733-.998-.998 1.733 1.733.998.998-1.733Zm18.583-18.884.949 1.761-.949-1.761Zm24.543-5.041-.146 1.994.004.001.142-1.995Zm49.534 28.125 1.624-1.166-1.624 1.166Zm8.641 22.846-1.995.137v.008l.001.009 1.994-.154Zm-16.722 35.857-1.226-1.58 1.226 1.58Zm-19.405 9.64-.644-1.893-.008.003.652 1.89Zm-32.976 8.298-.384-1.963-.029.006-.028.006.441 1.951Zm-23.09 5.223-.441-1.951-.855.193-.437.759 1.733.999Zm-.461.8-1.733-.998-.998 1.733 1.733.998.998-1.733Zm51.08 29.425 1.733.998.998-1.733-1.733-.998-.998 1.733Zm-14.146 24.555-.998 1.733 1.733.999.998-1.733-1.733-.999Zm-91.564-52.747 12.621-21.909-3.466-1.996-12.621 21.908 3.466 1.997Zm11.278-20.946 69.158-13.765-.781-3.923-69.157 13.765.78 3.923Zm69.19-13.772c5.281-1.141 9.912-2.315 13.888-3.526l-1.165-3.826c-3.843 1.17-8.364 2.318-13.568 3.443l.845 3.909Zm13.903-3.53c4.08-1.278 7.625-2.917 10.604-4.942l-2.249-3.308c-2.591 1.762-5.764 3.247-9.55 4.432l1.195 3.818Zm10.614-4.949c3.067-2.112 5.568-4.865 7.505-8.227l-3.466-1.996c-1.656 2.874-3.759 5.173-6.308 6.929l2.269 3.294Zm7.505-8.227c2.156-3.742 3.243-7.517 3.129-11.293l-3.998.12c.087 2.895-.735 5.944-2.597 9.177l3.466 1.996Zm3.13-11.279c-.085-3.758-1.184-7.253-3.27-10.449l-3.349 2.187c1.688 2.585 2.552 5.357 2.62 8.353l3.999-.091Zm-3.27-10.449c-2.083-3.191-4.999-5.834-8.676-7.953l-1.997 3.466c3.216 1.853 5.634 4.085 7.324 6.674l3.349-2.187Zm-8.676-7.953c-3.73-2.148-7.524-3.309-11.364-3.395l-.089 3.999c3.066.069 6.211.993 9.456 2.862l1.997-3.466Zm-11.34-3.394c-3.827-.131-7.429.823-10.765 2.833l2.065 3.426c2.69-1.621 5.53-2.365 8.563-2.261l.137-3.998Zm-10.785 2.846c-3.318 2.053-6.115 5.155-8.436 9.185l3.466 1.996c2.075-3.601 4.448-6.154 7.075-7.78l-2.105-3.401Zm-5.705 8.45-28.863-16.627-1.996 3.466 28.863 16.627 1.996-3.466Zm-28.128-13.896c4.786-8.308 10.729-14.311 17.799-18.121l-1.898-3.522c-7.828 4.219-14.274 10.805-19.367 19.647l3.466 1.996Zm17.799-18.121c7.095-3.824 14.892-5.435 23.448-4.808l.292-3.989c-9.27-.68-17.834 1.07-25.638 5.275l1.898 3.522Zm23.452-4.807c8.624.611 17.459 3.486 26.518 8.704l1.997-3.466c-9.486-5.464-18.901-8.567-28.232-9.228l-.283 3.99Zm26.518 8.704c9.369 5.397 16.519 11.605 21.533 18.592l3.249-2.332c-5.413-7.545-13.035-14.109-22.785-19.726l-1.997 3.466Zm21.533 18.592c5.023 7 7.751 14.265 8.271 21.817l3.99-.274c-.576-8.38-3.608-16.345-9.012-23.875l-3.249 2.332Zm8.272 21.834c.579 7.509-1.176 14.859-5.344 22.093l3.466 1.997c4.531-7.864 6.512-16.011 5.866-24.398l-3.988.308Zm-5.344 22.093c-2.627 4.562-6.156 8.572-10.61 12.03l2.453 3.16c4.838-3.757 8.721-8.154 11.623-13.193l-3.466-1.997Zm-10.61 12.03c-4.408 3.422-10.65 6.547-18.823 9.327l1.288 3.787c8.408-2.86 15.102-6.161 19.988-9.954l-2.453-3.16Zm-18.831 9.33c-8.126 2.8-19.018 5.545-32.708 8.225l.768 3.926c13.778-2.697 24.87-5.484 33.243-8.37l-1.303-3.781Zm-32.765 8.237-23.09 5.223.882 3.902 23.09-5.223-.882-3.902Zm-24.382 6.175-.461.801 3.466 1.996.461-.8-3.466-1.997Zm.274 3.532 51.079 29.425 1.997-3.466-51.08-29.425-1.996 3.466Zm50.345 26.694-14.146 24.555 3.466 1.997 14.146-24.556-3.466-1.996Zm-11.415 23.82-93.297-53.745-1.996 3.466 93.297 53.745 1.996-3.466ZM362.048 494.674c-10.06 3.358-19.605 4.523-28.634 3.494-9.029-1.029-16.876-3.976-23.541-8.839-6.621-4.878-11.4-11.419-14.338-19.623l32.337-10.795c1.963 4.985 5.394 8.383 10.291 10.192 4.881 1.765 9.995 1.755 15.339-.029 4.177-1.394 7.575-3.552 10.194-6.473 2.619-2.921 4.294-6.35 5.026-10.288.717-3.983.326-8.146-1.173-12.487-1.439-4.461-3.657-8.039-6.653-10.733-2.951-2.709-6.373-4.436-10.266-5.183-3.863-.807-7.906-.506-12.128.903-4.012 1.29-7.515 3.432-10.508 6.428-2.948 2.981-4.826 6.329-5.633 10.042l-31.284 4.304-18.832-76.376 88.522-29.551 8.973 26.88-61.103 20.398 7.696 33.595.809-.27c1.016-4.582 3.649-8.955 7.899-13.119 4.281-4.225 9.677-7.424 16.189-9.598 8.264-2.758 16.275-3.286 24.031-1.582 7.787 1.643 14.676 5.234 20.668 10.771 6.036 5.523 10.516 12.663 13.44 21.42 3.163 9.477 3.721 18.625 1.674 27.445-2.003 8.805-6.326 16.638-12.971 23.498-6.615 6.801-15.29 11.993-26.024 15.576Z"/><path fill="#148783" d="m333.414 498.168-.227 1.987.227-1.987Zm-23.541-8.839-1.187 1.61.008.006 1.179-1.616Zm-14.338-19.623-.633-1.897-1.939.647.689 1.924 1.883-.674Zm32.337-10.795 1.86-.733-.695-1.764-1.799.6.634 1.897Zm10.291 10.192-.694 1.876.007.003.007.002.68-1.881Zm25.533-6.502-1.489-1.335 1.489 1.335Zm5.026-10.288 1.967.365.002-.011-1.969-.354Zm-1.173-12.487-1.903.614.006.019.006.02 1.891-.653Zm-6.653-10.733-1.352 1.474.007.007.008.006 1.337-1.487Zm-10.266-5.183-.409 1.957.016.004.016.003.377-1.964Zm-12.128.903.612 1.904.011-.003.011-.004-.634-1.897Zm-10.508 6.428-1.415-1.413-.007.007 1.422 1.406Zm-5.633 10.042.273 1.981 1.385-.19.297-1.366-1.955-.425Zm-31.284 4.304-1.941.478.43 1.748 1.784-.245-.273-1.981Zm-18.832-76.376-.633-1.897-1.75.584.441 1.791 1.942-.478Zm88.522-29.551 1.897-.633-.633-1.897-1.897.633.633 1.897Zm8.973 26.88.633 1.897 1.898-.633-.634-1.897-1.897.633Zm-61.103 20.398-.633-1.898-1.721.575.405 1.769 1.949-.446Zm7.696 33.595-1.949.447.492 2.148 2.09-.698-.633-1.897Zm.809-.27.633 1.898 1.074-.359.245-1.106-1.952-.433Zm7.899-13.119 1.4 1.428.005-.005-1.405-1.423Zm40.22-11.18-.429 1.953.008.002.008.002.413-1.957Zm20.668 10.771-1.358 1.469.008.007 1.35-1.476Zm15.114 48.865-1.948-.452-.002.009 1.95.443Zm-12.971 23.498 1.433 1.395.003-.003-1.436-1.392Zm-26.657 13.679c-9.83 3.281-19.08 4.395-27.775 3.404l-.453 3.974c9.364 1.067 19.203-.148 29.494-3.584l-1.266-3.794Zm-27.775 3.404c-8.72-.994-16.231-3.829-22.589-8.467l-2.357 3.231c6.972 5.088 15.156 8.146 24.493 9.21l.453-3.974Zm-22.581-8.462c-6.281-4.628-10.829-10.834-13.641-18.687l-3.766 1.348c3.064 8.555 8.074 15.431 15.034 20.559l2.373-3.22Zm-14.891-16.116 32.337-10.795-1.267-3.794-32.336 10.795 1.266 3.794Zm29.843-11.959c2.166 5.499 6.011 9.323 11.458 11.335l1.387-3.752c-4.347-1.606-7.362-4.578-9.124-9.049l-3.721 1.466Zm11.472 11.34c5.342 1.931 10.92 1.901 16.653-.013l-1.267-3.794c-4.956 1.655-9.605 1.644-14.027.045l-1.359 3.762Zm16.653-.013c4.464-1.49 8.171-3.825 11.049-7.034l-2.978-2.671c-2.36 2.632-5.449 4.613-9.338 5.911l1.267 3.794Zm11.049-7.034c2.869-3.201 4.706-6.968 5.504-11.259l-3.933-.731c-.666 3.586-2.181 6.678-4.549 9.319l2.978 2.671Zm5.506-11.27c.785-4.363.344-8.873-1.252-13.494l-3.781 1.306c1.403 4.062 1.744 7.877 1.096 11.479l3.937.709Zm-1.239-13.455c-1.529-4.742-3.92-8.64-7.218-11.606l-2.675 2.974c2.693 2.422 4.738 5.679 6.087 9.86l3.806-1.228Zm-7.203-11.592c-3.221-2.957-6.98-4.857-11.242-5.675l-.754 3.929c3.525.676 6.61 2.232 9.291 4.693l2.705-2.947Zm-11.21-5.668c-4.253-.888-8.656-.543-13.17.964l1.267 3.794c3.929-1.311 7.611-1.568 11.085-.843l.818-3.915Zm-13.149.957c-4.316 1.388-8.094 3.699-11.311 6.919l2.83 2.827c2.77-2.772 5.998-4.746 9.705-5.938l-1.224-3.808Zm-11.318 6.926c-3.187 3.222-5.269 6.901-6.165 11.023l3.909.85c.718-3.305 2.39-6.321 5.1-9.06l-2.844-2.813Zm-4.483 9.467-31.284 4.303.545 3.963 31.284-4.304-.545-3.962Zm-29.07 5.806-18.832-76.376-3.884.957 18.833 76.376 3.883-.957Zm-20.14-74 88.521-29.551-1.266-3.794-88.522 29.551 1.267 3.794Zm85.991-30.815 8.973 26.88 3.794-1.266-8.973-26.88-3.794 1.266Zm10.237 24.35-61.103 20.397 1.267 3.795 61.102-20.398-1.266-3.794Zm-62.419 22.741 7.696 33.596 3.899-.893-7.696-33.596-3.899.893Zm10.278 35.046.809-.269-1.267-3.795-.808.27 1.266 3.794Zm2.128-1.734c.912-4.114 3.3-8.158 7.347-12.124l-2.799-2.857c-4.454 4.363-7.333 9.065-8.453 14.115l3.905.866Zm7.352-12.129c4.034-3.981 9.154-7.033 15.418-9.123l-1.267-3.795c-6.761 2.257-12.433 5.604-16.96 10.071l2.809 2.847Zm15.418-9.123c7.955-2.656 15.598-3.145 22.968-1.527l.858-3.907c-8.143-1.788-16.521-1.222-25.093 1.639l1.267 3.795Zm22.984-1.523c7.425 1.567 13.99 4.984 19.723 10.283l2.715-2.938c-6.25-5.775-13.463-9.539-21.612-11.259l-.826 3.914Zm19.731 10.29c5.754 5.264 10.063 12.1 12.893 20.578l3.794-1.267c-3.017-9.038-7.669-16.482-13.987-22.263l-2.7 2.952Zm12.893 20.578c3.059 9.163 3.578 17.935 1.623 26.359l3.896.904c2.139-9.216 1.543-18.741-1.725-28.53l-3.794 1.267Zm1.621 26.368c-1.917 8.427-6.052 15.936-12.458 22.55l2.873 2.783c6.885-7.108 11.397-15.263 13.485-24.446l-3.9-.887Zm-12.455 22.547c-6.353 6.531-14.734 11.572-25.223 15.073l1.266 3.794c10.979-3.665 19.947-9.008 26.824-16.078l-2.867-2.789Z"/><path fill="#05625F" d="M554.248 359.434c.09.943 1.775 1.552 2.493.93.29-.19.753-.209 1.029-.005 1.361 1.074 2.643.123 3.59-2.593 1.064-3.077 3.26-6.469 3.829-5.94.224.187-.128 1.785-.77 3.573-.931 2.493-1.013 3.266-.478 3.726 1.206 1.023 2.454.004 3.878-3.126 2.579-5.608 4.376-6.561 7.222-3.745 1.828 1.741 1.865 2.324.333 4.563-1.158 1.619-.821 3.728.623 4.2.928.304 1.476.027 2.497-1.523 1.141-1.567 1.415-1.706 1.676-.935.454 1.404 2.571 2.611 4.579 2.584.926-.04 1.665.145 1.58.403-.067.206-1.353.47-2.88.427-3.62.071-8.899 1.197-9.907 2.18-.649.587-.732 1.017-.282 1.735.45.718 1.051.801 3.383.48 2.863-.376 8.645-.595 9.47-.325 1.134.371-.148 1.15-2.138 1.298-4.219.331-11.175 2.393-11.496 3.373-.574 1.753 1.092 2.07 7.041 1.164 5.761-.855 7.7-.848 7.413.029-.067.206-2.654.958-5.688 1.677-5.964 1.302-7.162 1.823-6.934 2.868.316 1.303 2.891 1.461 7.656.509 2.691-.546 5.143-.885 5.401-.801 1.134.372-.423 1.118-4.519 2.117-4.267 1.001-5.635 2.038-3.948 2.99 1.687.952 16.529-2.353 21.681-4.834 3.389-1.631 8.173-2.119 18.881-2.039 4.668.044 12.37-.289 17.087-.743l8.592-.783 6.588-3.553c6.228-3.327 6.674-3.467 8.188-2.685 1.462.764 1.908.624 5.039-1.091 1.899-1.091 5.266-3.528 7.504-5.479 4.918-4.385 6.339-5.062 16.276-7.86 12.131-3.393 20.206-8 30.023-17.232 1.742-1.657 11.381-8.949 21.432-16.278 14.631-10.682 18.992-13.536 21.886-14.53l3.614-1.272 1.064-3.248 1.081-3.301 4.963-2.428c2.773-1.319 6.211-3.276 7.63-4.296 2.684-1.919 4.74-2.445 11.396-2.892 6.14-.444 16.474-2.884 29.049-6.76 6.492-2.042 13.551-4.07 15.779-4.597 6.89-1.512 8.088-2.033 8.696-3.89.304-.928.38-2.73.236-4.033-.218-2.298-.184-2.402 1.539-4.35.937-1.12 3.451-2.866 5.573-3.942 5.733-2.861 10.196-5.682 12.313-7.786 1.007-.984 2.05-1.727 2.359-1.626.31.101 2.741-.872 5.429-2.105 2.636-1.249 7.634-3.438 11.076-4.88 3.424-1.391 9.91-4.635 14.358-7.232 4.448-2.597 10.743-6.131 13.995-7.865 6.416-3.38 19.638-8.186 21.562-7.784 1.769.351 5.798-.271 6.909-1.049.53-.398 1.181-.641 1.387-.574.258.085 2.21-.646 4.367-1.653 2.105-1.024 4.966-1.914 6.269-2.058 6.861-.551 9.758-1.03 11.881-1.933 2.517-1.06 7.436-5.445 7.942-6.992.725-2.389-2.091-5.995-6.22-8.032-3.457-1.646-7.97-1.639-12.697.068-5.378 1.95-10.816 2.168-17.722.591-4.725-1.09-10.217-1.233-10.537-.253-.085.258-1.229 1.311-2.493 2.381-1.316 1.054-3.056 2.882-3.839 4.053-3.152 4.392-4.262 5.342-8.322 6.582-6.03 1.851-18.593 4.646-26.274 5.785-5.865.82-7.663 1.43-12.061 3.701-10.798 5.6-14.098 7.831-15.849 10.912-.612.998-2.873 1.8-11.115 3.954-5.672 1.454-10.556 2.596-10.814 2.511-.309-.101-1.24-.92-2.189-1.859-2.156-2.133-3.394-2.538-5.071-1.603-.753.382-3.185 1.184-5.43 1.762a480.94 480.94 0 0 0-9.338 2.538c-5.996 1.747-27.721 4.797-27.434 3.92.118-.361 2.019-4.249 4.226-8.722 5.621-11.235 11.86-22.095 15.524-27.005l3.135-4.169-.628-1.919-.628-1.918 3.384-5.801c4.71-8.107 6.408-11.548 7.978-16.343 1.013-3.094 1.642-4.316 2.361-4.594.531-.226 1.349-1.157 1.859-2.19 1.902-3.716 3.553-6.144 6.146-9.006 3.941-4.363 7.854-10.732 12.572-20.435 6.469-13.127 10.212-19.152 15.671-25.015 2.56-2.76 5.34-5.846 6.176-6.828.887-.966 2.305-2.157 3.212-2.66.906-.502 2.529-1.969 3.586-3.279 3.291-3.947 5.152-5.621 8.967-7.855 9.117-5.35 16.17-11.72 16.599-14.948.33-2.576-1.16-5.176-4.191-7.253-7.181-4.921-14.401-4.145-22.293 2.52-6.133 5.13-11.47 11.66-23.868 29.297-4.462 6.304-7.976 10.235-16.479 18.242-7.529 7.127-12.272 12.369-16.274 18.138-3.745 5.511-8.839 15.662-9.558 19.252-.368 1.821-1.335 3.902-3.258 6.984-2.757 4.236-12.114 16.245-13.141 16.765-.273.139-1.993-.538-3.851-1.489-3.269-1.699-3.424-1.749-4.724-.919-.735.502-1.485 1.398-1.688 2.017-.186.567-3.741 6.368-7.928 12.877-11.793 18.406-18.003 28.477-20.671 33.484-3.193 6.091-5.987 9.916-10.323 14.091-1.981 1.864-3.857 3.933-4.197 4.621-.509 1.032-.869 1.086-2.931.582-1.306-.371-2.921-.671-3.573-.771-1.494-.146-3.628 1.839-4.354 4.056-.423 1.289-1.277 1.98-4.477 3.558-2.174 1.059-5.543 3.153-7.491 4.742-1.931 1.537-4.444 3.284-5.522 3.787-2.02.937-12.618 2.092-20.013 2.182-4.942.095-18.848 1.936-22.514 3.02-7.71 2.271-22.16 11.7-26.437 17.265-1.977 2.55-3.397 3.398-10.742 6.474-2.996 1.303-6.553 3.45-9.766 5.938-4.905 3.818-6.183 5.455-5.675 7.391.298 1.182-2.416 3.891-6.025 6.021-1.488.883-4.257 3.059-6.152 4.837-1.895 1.777-4.97 4.367-6.799 5.767-3.964 3.041-6.337 5.404-9.9 9.833-1.449 1.81-3.412 3.793-4.335 4.347-.941.606-2.272 1.883-2.988 2.847-1.227 1.654-2.373 2.192-8.198 3.939-.823.245-2.942 1.835-4.717 3.594-2.749 2.64-3.413 3.622-4.665 6.923-.744 2.097-1.368 4.177-1.314 4.537Zm34.691-17.017c8.523-4.232 14.491-8.159 18.245-11.954 2.936-3.036 11.026-7.866 11.666-7.028.673.734 3.945-.193 9.526-2.762 9.243-4.339 8.111-4.196 10.409-1.102 1.885 2.615 2.235 3.986 1.458 6.358-.523 1.599.252 2.195 2.758 2.216 1.784-.043 2.764.277 4.812 1.519 2.341 1.395 2.874 1.512 4.914 1.21 3.806-.638 8.891-2.742 10.478-4.449 1.212-1.259 2.256-1.659 5.343-2.019 2.127-.217 4.289-.194 4.822.095.929.475.844.562-1.141 1.568-1.352.642-3.657 2.799-6.147 5.695-4.656 5.498-5.39 6.171-12.135 12.299-3.313 2.968-5.377 5.262-5.715 6.293-.287.877-1.617 2.497-2.898 3.619-2.272 1.882-3.111 2.178-11.203 3.525-4.818.764-11.4 2.206-14.569 3.166-6.253 1.835-17.448 3.765-19.098 3.224-.516-.168-2.032-1.293-3.342-2.521-3.053-2.884-7.075-4.201-12.514-4.155-2.248.063-4.085-.081-4.154-.218-.104-.206.389-1.015 1.071-1.876 1.022-1.379 1.242-2.049 1.229-4.451-.008-1.544-.205-3.036-.412-3.275-.812-1.008.316-1.838 6.597-4.977Z"/></svg>