<svg xmlns="http://www.w3.org/2000/svg" width="299" height="276" fill="none"><g filter="url(#a)"><g filter="url(#b)"><rect width="273.375" height="249.725" x="10.413" y="10.696" fill="#fff" rx="4.556"/><g clip-path="url(#c)"><path fill="#808181" d="m30.364 31.245-2.319-2.324 2.319-2.323-.714-.714-3.037 3.037 3.037 3.038.714-.714Z"/></g><path fill="#808181" d="M38.617 25.219h.803v2.213c0 .328.057.586.171.774a.935.935 0 0 0 .486.395c.209.075.456.113.74.113.18 0 .353-.007.522-.02a6.953 6.953 0 0 0 1.42-.278v.725a8.715 8.715 0 0 1-.43.123 5.907 5.907 0 0 1-1.511.175c-.458 0-.851-.066-1.181-.198a1.519 1.519 0 0 1-.758-.637c-.174-.294-.262-.684-.262-1.172V25.22Zm4.039 0h.802v6.627h-.802V25.22Zm4.391 6.73c-.479 0-.892-.105-1.24-.316a2.129 2.129 0 0 1-.799-.893c-.185-.384-.278-.831-.278-1.34 0-.51.093-.958.278-1.346.188-.39.449-.695.783-.913.337-.22.73-.33 1.178-.33.26 0 .515.043.767.13a1.9 1.9 0 0 1 .69.42c.207.192.372.447.495.764s.184.707.184 1.171v.324h-3.831v-.66h3.054c0-.28-.056-.531-.168-.751a1.267 1.267 0 0 0-.472-.521 1.323 1.323 0 0 0-.719-.191 1.37 1.37 0 0 0-.79.227 1.49 1.49 0 0 0-.507.582 1.71 1.71 0 0 0-.178.77v.44c0 .376.064.694.194.955a1.4 1.4 0 0 0 .547.592c.233.134.504.2.812.2.2 0 .382-.027.544-.083.163-.059.305-.145.423-.26.12-.116.21-.26.276-.433l.737.207c-.077.25-.208.47-.391.66-.184.188-.41.335-.68.44a2.52 2.52 0 0 1-.909.156Zm3.22 1.761v-6.834h.737v.79h.091c.056-.087.134-.197.233-.33.101-.137.246-.258.434-.363.19-.108.446-.162.77-.162.418 0 .787.105 1.107.314.319.21.568.506.747.89.18.384.269.837.269 1.359 0 .526-.09.983-.269 1.369a2.12 2.12 0 0 1-.744.893c-.317.21-.683.314-1.097.314-.32 0-.575-.053-.767-.159a1.423 1.423 0 0 1-.443-.366 4.89 4.89 0 0 1-.24-.343h-.065v2.628h-.763Zm.75-4.349c0 .375.055.706.165.993.11.285.271.509.483.67.211.16.47.24.776.24.32 0 .586-.084.8-.253.215-.17.377-.399.485-.686.11-.289.165-.61.165-.964 0-.35-.054-.665-.162-.945a1.46 1.46 0 0 0-.482-.67c-.214-.166-.482-.249-.806-.249-.31 0-.571.079-.783.236a1.418 1.418 0 0 0-.479.654 2.686 2.686 0 0 0-.162.974Zm4.803 2.485v-4.97h2.032c.535 0 .96.12 1.275.362.315.242.472.561.472.958 0 .302-.09.536-.268.702-.18.164-.41.275-.69.334.184.025.362.09.534.194a1.203 1.203 0 0 1 .605 1.087c0 .254-.064.482-.194.683-.13.2-.315.359-.556.475a1.98 1.98 0 0 1-.867.175H55.82Zm.724-.699h1.619c.263 0 .469-.062.618-.188a.633.633 0 0 0 .223-.51c0-.258-.075-.46-.223-.606-.15-.149-.355-.223-.618-.223h-1.618v1.527Zm0-2.187h1.308c.205 0 .38-.028.527-.084a.747.747 0 0 0 .337-.246.624.624 0 0 0 .12-.382.563.563 0 0 0-.262-.492c-.175-.12-.416-.181-.722-.181h-1.307v1.385Zm6.477 2.99c-.48 0-.892-.106-1.24-.317a2.129 2.129 0 0 1-.8-.893c-.185-.384-.277-.831-.277-1.34 0-.51.092-.958.278-1.346.188-.39.449-.695.783-.913.337-.22.73-.33 1.178-.33.259 0 .514.043.767.13a1.9 1.9 0 0 1 .689.42c.207.192.372.447.495.764s.185.707.185 1.171v.324h-3.832v-.66h3.055c0-.28-.056-.531-.168-.751a1.267 1.267 0 0 0-.473-.521 1.323 1.323 0 0 0-.718-.191 1.37 1.37 0 0 0-.79.227 1.49 1.49 0 0 0-.508.582c-.118.24-.178.496-.178.77v.44c0 .376.065.694.194.955a1.4 1.4 0 0 0 .547.592c.233.134.504.2.813.2.2 0 .381-.027.543-.083.164-.059.305-.145.424-.26.119-.116.21-.26.275-.433l.738.207c-.078.25-.208.47-.392.66-.183.188-.41.335-.68.44-.269.104-.572.156-.909.156Zm6.546-2.938v.711h-2.744v-.711h2.744Zm-2.563-2.136v4.97h-.764v-4.97h.764Zm3.145 0v4.97h-.763v-4.97h.763Zm2.055 1.799h1.424c.582 0 1.028.148 1.337.443.308.296.462.67.462 1.123 0 .298-.069.569-.207.812-.138.242-.34.435-.608.58-.268.142-.596.213-.984.213h-2.084v-4.97h.764v4.258h1.32c.302 0 .55-.08.744-.24a.76.76 0 0 0 .291-.614.808.808 0 0 0-.29-.644c-.195-.166-.443-.25-.745-.25h-1.424v-.711Z"/><g clip-path="url(#d)"><path fill="#808181" d="m127.149 31.245 2.318-2.324-2.318-2.323.713-.714 3.038 3.037-3.038 3.038-.713-.714Z"/></g><path fill="#0A3435" d="M32.494 51.783v7.732H31.33V52.78h-3.64v6.735H26.53v-7.732h5.965Zm5.623 4.345v.978h-3.14v-.978h3.14Zm-2.824-2.412v5.799h-1.106v-5.799h1.106Zm3.613 0v5.799h-1.102v-5.799h1.102ZM62.9 59.515v-7.732h2.831c.549 0 1.003.09 1.363.272.36.179.63.422.808.728.178.305.268.649.268 1.031 0 .322-.06.594-.178.816a1.462 1.462 0 0 1-.475.528c-.197.131-.413.227-.65.287v.076c.257.012.507.095.752.249.246.15.45.366.611.645.161.28.242.62.242 1.02 0 .395-.093.75-.28 1.064-.183.312-.468.56-.853.744-.385.181-.877.272-1.476.272H62.9Zm1.166-1h1.684c.559 0 .959-.109 1.2-.325.242-.217.363-.487.363-.812 0-.244-.062-.468-.185-.672a1.321 1.321 0 0 0-.529-.487 1.693 1.693 0 0 0-.808-.181h-1.725v2.476Zm0-3.387h1.563c.262 0 .497-.05.706-.151.211-.1.379-.242.502-.423.126-.184.189-.4.189-.65 0-.319-.112-.587-.336-.803-.224-.217-.568-.325-1.03-.325h-1.594v2.352Zm5.374-.438v-.974h4.893v.974h-1.891v4.825h-1.103V54.69H69.44ZM105.771 54.297h-1.178a1.784 1.784 0 0 0-.706-1.151 1.938 1.938 0 0 0-.6-.302 2.346 2.346 0 0 0-.698-.102c-.446 0-.845.112-1.197.336-.35.224-.627.552-.831.985-.201.433-.302.962-.302 1.586 0 .63.101 1.16.302 1.593.204.433.482.76.835.982.352.221.748.332 1.189.332.244 0 .476-.033.695-.098.221-.068.421-.168.6-.298a1.818 1.818 0 0 0 .713-1.137l1.178.004a3.16 3.16 0 0 1-.366 1.05 2.9 2.9 0 0 1-.691.823c-.279.229-.599.406-.959.532s-.752.189-1.178.189c-.669 0-1.266-.159-1.789-.476-.524-.32-.936-.777-1.239-1.37-.299-.594-.449-1.303-.449-2.126 0-.825.151-1.534.453-2.126.302-.594.715-1.049 1.239-1.366.523-.32 1.118-.48 1.785-.48.411 0 .793.06 1.148.178.357.116.678.287.963.513.284.224.519.499.706.823.186.322.312.691.377 1.106Zm1.306 7.393v-7.974h1.102v.94h.094c.066-.12.16-.26.283-.419.124-.159.295-.297.514-.415.219-.121.508-.181.868-.181.468 0 .886.118 1.254.354.367.237.655.578.864 1.024.212.445.317.981.317 1.608 0 .627-.104 1.164-.313 1.612-.209.445-.496.789-.861 1.03-.365.24-.781.36-1.249.36-.353 0-.641-.06-.865-.178a1.643 1.643 0 0 1-.521-.416 3.136 3.136 0 0 1-.291-.422h-.068v3.077h-1.128Zm1.106-5.075c0 .408.059.766.177 1.073.118.307.29.547.514.72.224.172.498.257.823.257.337 0 .619-.089.845-.268.227-.18.398-.426.514-.736.118-.31.177-.658.177-1.046 0-.382-.058-.726-.174-1.03a1.576 1.576 0 0 0-.513-.721c-.226-.176-.51-.265-.849-.265-.328 0-.604.085-.831.253a1.555 1.555 0 0 0-.51.706 2.963 2.963 0 0 0-.173 1.057ZM135.954 51.783h1.152v2.552c0 .355.062.636.185.842.123.204.302.349.536.434.237.086.523.129.861.129a7.926 7.926 0 0 0 1.098-.08c.184-.027.362-.059.533-.094.173-.038.334-.08.483-.125v.993c-.146.048-.301.09-.464.129-.162.035-.33.066-.506.094-.177.025-.36.045-.552.06a7.508 7.508 0 0 1-.592.023c-.564 0-1.051-.08-1.461-.242a1.927 1.927 0 0 1-.944-.773c-.219-.353-.329-.816-.329-1.39v-2.552Zm4.674 0h1.155v7.732h-1.155v-7.732Zm2.533 2.907v-.974h4.892v.974h-1.891v4.825h-1.102V54.69h-1.899ZM178.294 51.783v7.732h-1.163V52.78h-3.639v6.735h-1.163v-7.732h5.965Zm1.368 2.907v-.974h4.893v.974h-1.891v4.825h-1.103V54.69h-1.899ZM215.121 54.297h-1.178a1.784 1.784 0 0 0-.706-1.151 1.938 1.938 0 0 0-.6-.302 2.346 2.346 0 0 0-.698-.102c-.446 0-.845.112-1.197.336-.35.224-.627.552-.831.985-.201.433-.302.962-.302 1.586 0 .63.101 1.16.302 1.593.204.433.482.76.835.982.352.221.749.332 1.189.332.244 0 .476-.033.695-.098.221-.068.421-.168.6-.298a1.818 1.818 0 0 0 .713-1.137l1.178.004a3.16 3.16 0 0 1-.366 1.05 2.9 2.9 0 0 1-.691.823c-.279.229-.599.406-.959.532s-.752.189-1.178.189c-.669 0-1.266-.159-1.789-.476-.524-.32-.936-.777-1.238-1.37-.3-.594-.45-1.303-.45-2.126 0-.825.151-1.534.453-2.126.302-.594.715-1.049 1.239-1.366.523-.32 1.118-.48 1.785-.48.411 0 .793.06 1.148.178.358.116.678.287.963.513.284.224.52.499.706.823.186.322.312.691.377 1.106Zm5.779-2.74.469.713a1.546 1.546 0 0 1-.593.34 3.395 3.395 0 0 1-.759.124c-.287.016-.615.03-.985.042-.418.013-.762.103-1.031.272a1.612 1.612 0 0 0-.623.74c-.143.324-.237.732-.279 1.223h.071c.189-.36.451-.63.786-.808a2.388 2.388 0 0 1 1.136-.268c.468 0 .885.107 1.25.32.365.215.651.528.86.94.212.411.318.913.318 1.507 0 .602-.111 1.122-.333 1.56a2.406 2.406 0 0 1-.928 1.015c-.398.237-.867.355-1.409.355-.541 0-1.013-.122-1.415-.366-.401-.247-.711-.612-.933-1.095-.219-.483-.328-1.08-.328-1.79v-.574c0-1.326.236-2.324.709-2.993.474-.67 1.181-1.013 2.122-1.03.305-.008.577-.01.816-.005.239.003.448-.009.626-.034a.918.918 0 0 0 .453-.188Zm-2.046 7.127c.315 0 .585-.079.812-.237.229-.162.405-.39.528-.684.124-.294.185-.642.185-1.042 0-.392-.061-.726-.185-1a1.384 1.384 0 0 0-.528-.627 1.5 1.5 0 0 0-.823-.219 1.54 1.54 0 0 0-.634.125c-.187.08-.346.2-.48.358a1.722 1.722 0 0 0-.306.582c-.07.226-.108.487-.113.781 0 .6.137 1.076.412 1.431.276.355.654.532 1.132.532ZM245.149 59.515v-7.732h2.832c.549 0 1.003.09 1.363.272.36.179.629.422.808.728.178.305.268.649.268 1.031 0 .322-.059.594-.178.816a1.456 1.456 0 0 1-.475.528c-.197.131-.413.227-.65.287v.076c.257.012.507.095.752.249.246.15.45.366.611.645.161.28.242.62.242 1.02 0 .395-.093.75-.28 1.064-.183.312-.468.56-.853.744-.385.181-.877.272-1.476.272h-2.964Zm1.167-1H248c.559 0 .959-.109 1.2-.325.242-.217.363-.487.363-.812 0-.244-.062-.468-.185-.672a1.32 1.32 0 0 0-.529-.487 1.692 1.692 0 0 0-.808-.181h-1.725v2.476Zm0-3.387h1.563c.262 0 .497-.05.706-.151.211-.1.379-.242.502-.423.126-.184.189-.4.189-.65 0-.319-.112-.587-.336-.803-.224-.217-.568-.325-1.031-.325h-1.593v2.352Zm8.141 4.504c-.561 0-1.044-.127-1.449-.381a2.526 2.526 0 0 1-.929-1.061c-.216-.45-.325-.967-.325-1.548 0-.59.111-1.109.333-1.56a2.54 2.54 0 0 1 .936-1.06c.403-.254.877-.381 1.423-.381.441 0 .833.081 1.178.245.345.161.623.387.834.68.214.291.341.633.382 1.023h-1.099a1.316 1.316 0 0 0-.415-.703c-.214-.196-.501-.294-.861-.294-.315 0-.59.083-.827.25a1.602 1.602 0 0 0-.547.701c-.131.302-.196.66-.196 1.072 0 .423.064.788.192 1.095.128.307.31.545.544.714.236.169.514.253.834.253.214 0 .408-.04.581-.117.177-.08.324-.195.442-.344.121-.148.205-.327.253-.536h1.099c-.041.375-.163.71-.366 1.004a2.105 2.105 0 0 1-.82.695c-.34.169-.738.253-1.197.253ZM29.119 86.046v7.732h-.937v-6.75h-.045L26.25 88.28v-.952l1.933-1.283h.937ZM62.85 93.778v-.68l2.553-2.794c.299-.327.546-.611.74-.853.193-.244.337-.473.43-.687.096-.216.143-.443.143-.68 0-.271-.065-.507-.196-.706a1.273 1.273 0 0 0-.528-.46 1.712 1.712 0 0 0-.756-.163c-.297 0-.556.062-.777.186-.22.12-.39.29-.51.51a1.596 1.596 0 0 0-.177.77h-.891c0-.454.104-.851.313-1.194.209-.342.493-.609.853-.8a2.572 2.572 0 0 1 1.22-.287c.453 0 .854.096 1.204.287.35.191.624.45.823.774.199.325.298.686.298 1.083 0 .285-.051.563-.155.835-.1.27-.276.57-.528.902-.25.33-.595.733-1.038 1.208l-1.737 1.858v.06h3.594v.83H62.85ZM101.913 93.883a3.29 3.29 0 0 1-1.333-.256 2.287 2.287 0 0 1-.925-.714 1.918 1.918 0 0 1-.37-1.068h.952c.02.249.105.464.256.645.151.179.349.317.593.416.244.098.515.147.812.147.332 0 .626-.058.883-.174.257-.116.458-.277.604-.483a1.21 1.21 0 0 0 .219-.718c0-.284-.07-.534-.211-.75a1.404 1.404 0 0 0-.619-.514c-.272-.124-.604-.185-.997-.185h-.619v-.83h.619c.307 0 .576-.056.808-.167a1.25 1.25 0 0 0 .747-1.178c0-.261-.058-.49-.173-.683a1.192 1.192 0 0 0-.491-.453 1.59 1.59 0 0 0-.74-.163c-.267 0-.519.05-.755.148a1.41 1.41 0 0 0-.574.419c-.148.181-.229.4-.242.657h-.906a1.84 1.84 0 0 1 .367-1.065c.229-.307.528-.546.898-.717a2.906 2.906 0 0 1 1.227-.257c.478 0 .889.097 1.231.29.342.192.605.445.789.76.184.314.275.654.275 1.019 0 .435-.114.807-.343 1.114-.227.307-.535.52-.925.638v.06c.488.08.87.288 1.144.623.274.332.411.744.411 1.234 0 .42-.114.798-.343 1.133a2.336 2.336 0 0 1-.929.785 3.021 3.021 0 0 1-1.34.287ZM135.569 92.192v-.77l3.398-5.376h.559v1.193h-.378l-2.567 4.062v.06h4.576v.831h-5.588Zm3.64 1.586v-7.732h.891v7.732h-.891ZM174.617 93.883c-.443 0-.842-.088-1.197-.264a2.222 2.222 0 0 1-.853-.725 1.973 1.973 0 0 1-.351-1.05h.906c.035.35.193.64.475.869.285.227.625.34 1.02.34.317 0 .599-.075.845-.223a1.57 1.57 0 0 0 .586-.612 1.82 1.82 0 0 0 .215-.887c0-.337-.075-.638-.223-.902a1.633 1.633 0 0 0-.604-.63 1.708 1.708 0 0 0-.88-.235 2.412 2.412 0 0 0-.728.11c-.25.073-.455.167-.616.283l-.876-.106.469-3.805h4.016v.83h-3.231l-.272 2.28h.045c.159-.125.358-.23.597-.313.239-.083.488-.124.747-.124.473 0 .895.113 1.265.34.373.224.664.53.876.92.214.39.321.836.321 1.337 0 .493-.111.934-.332 1.321a2.43 2.43 0 0 1-.906.914 2.592 2.592 0 0 1-1.314.332Z"/><path fill="#808181" d="M211.218 93.883a2.896 2.896 0 0 1-.952-.18 2.28 2.28 0 0 1-.868-.586c-.262-.277-.472-.65-.631-1.121-.158-.474-.237-1.067-.237-1.782 0-.685.064-1.291.192-1.82.129-.531.315-.978.559-1.34.244-.365.539-.642.883-.83a2.42 2.42 0 0 1 1.174-.284c.433 0 .818.087 1.156.26.339.172.616.41.83.718.214.307.353.66.416 1.06h-.922a1.7 1.7 0 0 0-.498-.864c-.247-.229-.574-.343-.982-.343-.599 0-1.07.26-1.415.781-.343.521-.515 1.252-.517 2.194h.06a2.27 2.27 0 0 1 1.151-.903c.237-.083.487-.124.752-.124.443 0 .848.11 1.215.332.368.219.662.522.884.91.221.385.332.826.332 1.325 0 .478-.107.916-.321 1.314-.214.395-.515.71-.902.944-.385.231-.838.344-1.359.34Zm0-.83c.317 0 .601-.08.853-.238.254-.159.454-.371.6-.638.149-.267.223-.564.223-.891 0-.32-.072-.61-.215-.872a1.643 1.643 0 0 0-.585-.63 1.55 1.55 0 0 0-.846-.235c-.239 0-.462.048-.668.144a1.718 1.718 0 0 0-.544.385 1.848 1.848 0 0 0-.362.562 1.785 1.785 0 0 0 .679 2.167c.254.164.543.246.865.246ZM245.342 93.778l3.458-6.841v-.06h-3.987v-.831h4.954v.876l-3.443 6.856h-.982Z"/><path fill="#0A3435" d="M28.877 122.071c-.518 0-.976-.092-1.374-.276a2.254 2.254 0 0 1-.925-.766 1.926 1.926 0 0 1-.329-1.118 2.056 2.056 0 0 1 .73-1.604c.228-.189.484-.308.765-.359v-.045a1.493 1.493 0 0 1-.883-.623 1.887 1.887 0 0 1-.325-1.099 1.868 1.868 0 0 1 .299-1.053c.201-.31.478-.554.83-.732a2.654 2.654 0 0 1 1.212-.268c.448 0 .848.089 1.2.268.353.178.63.422.831.732.204.31.307.661.31 1.053a1.914 1.914 0 0 1-.336 1.099 1.49 1.49 0 0 1-.872.623v.045c.279.051.53.17.755.359a2.098 2.098 0 0 1 .74 1.604 1.953 1.953 0 0 1-.34 1.118c-.222.324-.53.58-.925.766-.393.184-.847.276-1.363.276Zm0-.831c.35 0 .652-.056.906-.17.254-.113.45-.273.59-.479.137-.207.208-.448.21-.725a1.39 1.39 0 0 0-.226-.774 1.533 1.533 0 0 0-.608-.528 1.9 1.9 0 0 0-.872-.193c-.33 0-.624.064-.883.193-.257.128-.46.304-.608.528a1.363 1.363 0 0 0-.215.774c-.003.277.064.518.2.725.138.206.336.366.592.479.257.114.562.17.914.17Zm0-3.669c.277 0 .522-.056.736-.166.217-.111.387-.266.51-.465a1.32 1.32 0 0 0 .189-.698 1.291 1.291 0 0 0-.185-.684 1.204 1.204 0 0 0-.502-.453 1.638 1.638 0 0 0-.748-.162c-.29 0-.542.054-.759.162a1.175 1.175 0 0 0-.502.453 1.264 1.264 0 0 0-.174.684c-.002.267.057.499.178.698.123.199.293.354.51.465.216.11.465.166.747.166ZM65.312 114.128c.317.002.634.062.951.181.317.118.607.314.869.589.261.272.471.643.63 1.113.159.471.238 1.061.238 1.771a7.72 7.72 0 0 1-.196 1.831c-.129.531-.315.979-.56 1.344a2.48 2.48 0 0 1-.883.831 2.405 2.405 0 0 1-1.17.283c-.433 0-.82-.086-1.159-.257a2.279 2.279 0 0 1-.83-.721 2.512 2.512 0 0 1-.412-1.076h.921c.083.355.248.648.495.88.249.229.577.343.985.343.597 0 1.067-.26 1.412-.781.347-.521.521-1.257.521-2.209h-.06a2.37 2.37 0 0 1-.502.548 2.221 2.221 0 0 1-1.401.479 2.35 2.35 0 0 1-1.22-.328 2.496 2.496 0 0 1-.883-.91 2.656 2.656 0 0 1-.328-1.329c0-.473.105-.906.317-1.299.214-.395.513-.71.898-.944.388-.234.843-.347 1.367-.339Zm0 .83c-.317 0-.603.079-.857.238a1.708 1.708 0 0 0-.6.634 1.79 1.79 0 0 0-.22.88c0 .322.071.615.212.88.144.261.339.47.585.626.25.154.533.231.85.231.239 0 .462-.047.668-.14a1.73 1.73 0 0 0 .54-.389c.156-.166.278-.354.366-.563a1.733 1.733 0 0 0-.087-1.51 1.734 1.734 0 0 0-.596-.641 1.542 1.542 0 0 0-.861-.246ZM102.019 114.233v7.732h-.937v-6.75h-.045l-1.888 1.253v-.951l1.933-1.284h.937Zm4.745 7.838c-.569 0-1.053-.155-1.453-.465-.401-.312-.706-.763-.918-1.355-.211-.594-.317-1.311-.317-2.152 0-.835.106-1.549.317-2.14.214-.594.521-1.047.921-1.36.403-.314.886-.471 1.45-.471s1.046.157 1.446.471c.403.313.71.766.921 1.36.214.591.321 1.305.321 2.14 0 .841-.106 1.558-.317 2.152-.211.592-.517 1.043-.917 1.355-.401.31-.885.465-1.454.465Zm0-.831c.564 0 1.002-.272 1.314-.815.312-.544.468-1.319.468-2.326 0-.669-.072-1.239-.215-1.71-.141-.471-.345-.829-.612-1.076a1.347 1.347 0 0 0-.955-.37c-.559 0-.995.276-1.31.827-.315.548-.472 1.325-.472 2.329 0 .67.071 1.238.212 1.707.141.468.343.824.607 1.068.267.244.588.366.963.366ZM138.469 114.233v7.732h-.936v-6.75h-.046l-1.887 1.253v-.951l1.933-1.284h.936Zm4.942 0v7.732h-.937v-6.75h-.045l-1.888 1.253v-.951l1.933-1.284h.937ZM174.919 114.233v7.732h-.937v-6.75h-.045l-1.888 1.253v-.951l1.933-1.284h.937Zm2.223 7.732v-.679l2.552-2.794c.3-.327.547-.612.74-.853.194-.245.338-.474.431-.688.095-.216.143-.442.143-.679 0-.272-.065-.507-.196-.706a1.278 1.278 0 0 0-.529-.461 1.714 1.714 0 0 0-.755-.162c-.297 0-.556.062-.777.185a1.277 1.277 0 0 0-.51.51 1.598 1.598 0 0 0-.177.77h-.891c0-.453.104-.851.313-1.193.209-.342.493-.609.853-.801a2.577 2.577 0 0 1 1.22-.286c.453 0 .854.095 1.204.286.35.192.624.45.823.774.199.325.298.686.298 1.084 0 .284-.051.562-.155.834-.1.27-.276.57-.528.903-.249.329-.595.732-1.038 1.208l-1.737 1.857v.061h3.594v.83h-4.878Z"/><path fill="#808181" d="M211.369 114.233v7.732h-.937v-6.75h-.045l-1.888 1.253v-.951l1.933-1.284h.937Zm4.836 7.838c-.498 0-.943-.086-1.333-.257a2.29 2.29 0 0 1-.925-.713 1.926 1.926 0 0 1-.37-1.069h.952c.02.249.105.464.256.646.151.178.349.317.593.415.244.098.515.147.812.147.332 0 .626-.058.883-.173.257-.116.458-.277.604-.484.146-.206.219-.445.219-.717 0-.284-.07-.535-.211-.751a1.41 1.41 0 0 0-.619-.514c-.272-.123-.604-.185-.997-.185h-.619v-.83h.619c.307 0 .576-.056.808-.166.234-.111.416-.267.547-.469.134-.201.2-.437.2-.709 0-.262-.058-.49-.173-.684a1.203 1.203 0 0 0-.491-.453 1.593 1.593 0 0 0-.74-.162 1.95 1.95 0 0 0-.755.147 1.42 1.42 0 0 0-.574.419 1.101 1.101 0 0 0-.242.657h-.906c.015-.405.138-.76.367-1.064.229-.307.528-.547.898-.718a2.909 2.909 0 0 1 1.227-.256c.478 0 .888.096 1.231.29.342.192.605.444.789.759.184.315.275.654.275 1.019 0 .436-.114.807-.343 1.114-.227.307-.535.52-.925.638v.061c.488.08.87.288 1.144.622.274.333.411.744.411 1.235 0 .42-.114.798-.343 1.133a2.334 2.334 0 0 1-.929.785 3.025 3.025 0 0 1-1.34.287ZM247.819 114.233v7.732h-.937v-6.75h-.045l-1.888 1.253v-.951l1.933-1.284h.937Zm2.042 6.146v-.77l3.398-5.376h.559v1.193h-.378l-2.567 4.062v.061h4.576v.83h-5.588Zm3.639 1.586v-7.732h.891v7.732h-.891Z"/><path fill="#0A3435" d="M29.119 142.421v7.732h-.937v-6.751h-.045l-1.888 1.254v-.952l1.933-1.283h.937Zm4.64 7.837c-.443 0-.842-.088-1.197-.264a2.223 2.223 0 0 1-.853-.725 1.975 1.975 0 0 1-.352-1.049h.907c.035.349.193.639.475.868.285.226.624.34 1.02.34.317 0 .599-.075.845-.223.25-.149.444-.352.585-.612.144-.261.216-.557.216-.887 0-.337-.075-.638-.223-.902a1.638 1.638 0 0 0-.604-.631 1.717 1.717 0 0 0-.88-.234 2.418 2.418 0 0 0-.729.11 2.02 2.02 0 0 0-.615.283l-.876-.106.468-3.805h4.017v.83h-3.231l-.272 2.281h.045c.159-.126.357-.231.597-.314.239-.083.488-.124.747-.124a2.377 2.377 0 0 1 2.14 1.261c.215.39.322.835.322 1.336 0 .493-.111.934-.333 1.321-.219.386-.52.69-.906.914a2.582 2.582 0 0 1-1.314.332Z"/><path fill="#E9FCFB" d="M59.013 133.318h30.375v25.819H59.013z"/><path fill="#148783" d="M68.606 142.421v7.732h-.936v-6.751h-.045l-1.888 1.254v-.952l1.933-1.283h.936Zm4.791 7.837a2.887 2.887 0 0 1-.951-.181 2.284 2.284 0 0 1-.869-.585c-.261-.277-.471-.651-.63-1.121-.159-.474-.238-1.068-.238-1.782 0-.685.064-1.291.193-1.82.128-.531.314-.978.558-1.34.245-.365.539-.642.884-.831a2.416 2.416 0 0 1 1.174-.283c.433 0 .818.087 1.155.261.34.171.617.41.83.717.215.307.353.661.416 1.061h-.921a1.707 1.707 0 0 0-.499-.865c-.246-.229-.573-.343-.981-.343-.6 0-1.071.26-1.416.781-.342.521-.514 1.252-.517 2.194h.06a2.275 2.275 0 0 1 1.152-.903c.236-.083.487-.124.751-.124.443 0 .848.11 1.216.332.367.219.662.522.883.91.222.385.332.827.332 1.325 0 .478-.107.916-.32 1.314a2.452 2.452 0 0 1-.903.944c-.385.231-.838.344-1.359.339Zm0-.83c.317 0 .602-.08.853-.238.254-.159.455-.371.6-.638.15-.267.223-.564.223-.891 0-.32-.071-.61-.215-.872a1.644 1.644 0 0 0-.585-.631 1.549 1.549 0 0 0-.846-.234c-.239 0-.462.048-.668.144a1.717 1.717 0 0 0-.544.385 1.856 1.856 0 0 0-.362.562 1.792 1.792 0 0 0 .083 1.522c.146.267.345.482.596.645.255.164.543.246.865.246Z"/><rect width="29.616" height="25.059" x="59.392" y="133.698" stroke="#148783" stroke-width=".759" rx="2.658"/><path fill="#E9FCFB" d="M92.425 132.559h36.45v28.188h-36.45z"/><path fill="#148783" d="M102.019 142.421v7.732h-.937v-6.751h-.045l-1.888 1.254v-.952l1.933-1.283h.937Zm2.465 7.732 3.458-6.841v-.061h-3.987v-.83h4.954v.876l-3.444 6.856h-.981Z"/><path fill="#E9FCFB" d="M128.875 132.559h36.45v28.188h-36.45z"/><path fill="#148783" d="M138.469 142.421v7.732h-.936v-6.751h-.046l-1.887 1.254v-.952l1.933-1.283h.936Zm4.7 7.837c-.518 0-.977-.092-1.374-.275a2.254 2.254 0 0 1-.925-.767 1.923 1.923 0 0 1-.329-1.117 2.062 2.062 0 0 1 .729-1.605c.229-.188.485-.308.766-.358v-.046a1.488 1.488 0 0 1-.883-.623 1.89 1.89 0 0 1-.325-1.098 1.863 1.863 0 0 1 .299-1.053 2.1 2.1 0 0 1 .83-.733 2.655 2.655 0 0 1 1.212-.268c.448 0 .848.089 1.201.268a2.1 2.1 0 0 1 .83.733c.204.309.307.66.31 1.053a1.92 1.92 0 0 1-.336 1.098c-.219.32-.51.528-.872.623v.046c.279.05.531.17.755.358a2.111 2.111 0 0 1 .74 1.605c-.003.418-.116.79-.34 1.117a2.26 2.26 0 0 1-.925.767c-.393.183-.847.275-1.363.275Zm0-.83c.35 0 .652-.057.906-.17.254-.113.451-.273.589-.48a1.29 1.29 0 0 0 .211-.724 1.39 1.39 0 0 0-.226-.774 1.537 1.537 0 0 0-.608-.529 1.913 1.913 0 0 0-.872-.192c-.33 0-.624.064-.883.192a1.53 1.53 0 0 0-.608.529 1.36 1.36 0 0 0-.215.774 1.26 1.26 0 0 0 .2.724c.138.207.336.367.592.48.257.113.562.17.914.17Zm0-3.67c.277 0 .522-.055.736-.166.217-.111.387-.266.51-.464.123-.199.186-.432.189-.699a1.3 1.3 0 0 0-.185-.683 1.21 1.21 0 0 0-.502-.453 1.642 1.642 0 0 0-.748-.162c-.289 0-.542.054-.759.162a1.175 1.175 0 0 0-.502.453 1.268 1.268 0 0 0-.174.683 1.3 1.3 0 0 0 .178.699c.123.198.293.353.51.464.216.111.465.166.747.166Z"/><path fill="#E9FCFB" d="M165.325 132.559h36.45v28.188h-36.45z"/><path fill="#148783" d="M174.919 142.421v7.732h-.937v-6.751h-.045l-1.888 1.254v-.952l1.933-1.283h.937Zm4.685-.106c.317.003.634.063.951.181.317.119.607.315.869.589.261.272.471.643.63 1.114.159.471.238 1.061.238 1.771 0 .687-.066 1.297-.196 1.831-.129.531-.315.979-.559 1.344a2.476 2.476 0 0 1-.884.83 2.392 2.392 0 0 1-1.17.283c-.433 0-.819-.085-1.159-.256a2.28 2.28 0 0 1-.831-.722 2.514 2.514 0 0 1-.411-1.075h.921c.083.354.248.648.495.879.249.229.577.344.985.344.597 0 1.067-.261 1.412-.782.347-.521.521-1.257.521-2.208h-.06a2.384 2.384 0 0 1-.502.547 2.2 2.2 0 0 1-.646.355 2.265 2.265 0 0 1-.755.125c-.443 0-.85-.11-1.22-.329a2.496 2.496 0 0 1-.883-.91 2.65 2.65 0 0 1-.328-1.329c0-.473.105-.906.317-1.298.214-.395.513-.71.898-.944.388-.234.843-.347 1.367-.34Zm0 .831a1.59 1.59 0 0 0-.857.237 1.712 1.712 0 0 0-.6.635 1.786 1.786 0 0 0-.219.879c0 .323.07.616.211.88.144.262.339.471.585.627.249.153.533.23.85.23.239 0 .462-.047.668-.14.206-.095.386-.225.54-.389.156-.166.278-.353.366-.562a1.727 1.727 0 0 0-.087-1.51 1.74 1.74 0 0 0-.596-.642 1.543 1.543 0 0 0-.861-.245Z"/><path fill="#E9FCFB" d="M201.775 132.559h36.45v28.188h-36.45z"/><path fill="#148783" d="M208.65 150.153v-.68l2.553-2.794c.299-.327.546-.611.74-.853.193-.244.337-.473.43-.687.096-.216.143-.443.143-.68 0-.271-.065-.507-.196-.706a1.273 1.273 0 0 0-.528-.46 1.719 1.719 0 0 0-.756-.162c-.297 0-.556.061-.777.185-.219.12-.389.29-.51.509a1.6 1.6 0 0 0-.177.77h-.891c0-.453.104-.85.313-1.193.209-.342.493-.609.853-.8a2.578 2.578 0 0 1 1.22-.287c.453 0 .854.096 1.204.287.35.191.624.449.823.774.199.325.298.686.298 1.083 0 .285-.051.563-.155.835-.1.269-.276.57-.528.902-.249.33-.595.732-1.038 1.208l-1.737 1.858v.06h3.594v.831h-4.878Zm8.959.105c-.569 0-1.053-.154-1.453-.464-.4-.312-.706-.764-.918-1.355-.211-.594-.317-1.312-.317-2.152 0-.836.106-1.549.317-2.141.214-.594.521-1.047.922-1.359.402-.315.885-.472 1.449-.472.564 0 1.046.157 1.446.472.403.312.71.765.921 1.359.214.592.321 1.305.321 2.141 0 .84-.105 1.558-.317 2.152-.211.591-.517 1.043-.917 1.355-.4.31-.885.464-1.454.464Zm0-.83c.564 0 1.002-.272 1.314-.816.312-.543.468-1.319.468-2.325 0-.67-.072-1.24-.215-1.711-.141-.47-.345-.829-.612-1.075a1.347 1.347 0 0 0-.955-.37c-.558 0-.995.275-1.31.826-.314.549-.472 1.325-.472 2.33 0 .669.071 1.238.212 1.706.141.468.343.824.608 1.069.266.244.587.366.962.366Z"/><path fill="#E9FCFB" d="M238.225 132.559h36.45v28.188h-36.45z"/><path fill="#148783" d="M245.1 150.153v-.68l2.553-2.794c.299-.327.546-.611.739-.853.194-.244.338-.473.431-.687.096-.216.143-.443.143-.68 0-.271-.065-.507-.196-.706a1.276 1.276 0 0 0-.529-.46 1.714 1.714 0 0 0-.755-.162c-.297 0-.556.061-.777.185-.219.12-.389.29-.51.509a1.6 1.6 0 0 0-.177.77h-.891c0-.453.104-.85.313-1.193.209-.342.493-.609.853-.8a2.578 2.578 0 0 1 1.22-.287c.453 0 .854.096 1.204.287.35.191.624.449.823.774.199.325.298.686.298 1.083 0 .285-.051.563-.155.835-.1.269-.276.57-.528.902-.249.33-.595.732-1.038 1.208l-1.737 1.858v.06h3.594v.831H245.1Zm9.156-7.732v7.732h-.937v-6.751h-.045l-1.888 1.254v-.952l1.933-1.283h.937Z"/><path fill="#E9FCFB" d="M19.525 160.746h36.45v28.188h-36.45z"/><path fill="#148783" d="M26.4 178.34v-.679l2.553-2.794c.3-.327.546-.612.74-.853a3.18 3.18 0 0 0 .43-.688c.096-.216.143-.442.143-.679 0-.272-.065-.507-.196-.706a1.28 1.28 0 0 0-.529-.461 1.716 1.716 0 0 0-.755-.162c-.297 0-.556.062-.777.185a1.276 1.276 0 0 0-.51.51 1.594 1.594 0 0 0-.177.77h-.891c0-.453.104-.851.313-1.193.209-.342.493-.609.853-.801a2.575 2.575 0 0 1 1.22-.286c.453 0 .854.095 1.204.286.35.192.624.45.823.774.199.325.298.686.298 1.084 0 .284-.051.562-.154.834-.101.27-.277.57-.53.903-.248.329-.594.732-1.037 1.208l-1.737 1.857v.061h3.594v.83h-4.877Zm6.437 0v-.679l2.552-2.794c.3-.327.547-.612.74-.853a3.18 3.18 0 0 0 .43-.688c.096-.216.144-.442.144-.679 0-.272-.065-.507-.196-.706a1.278 1.278 0 0 0-.529-.461 1.716 1.716 0 0 0-.755-.162c-.297 0-.556.062-.777.185a1.276 1.276 0 0 0-.51.51 1.594 1.594 0 0 0-.178.77h-.89c0-.453.104-.851.313-1.193.209-.342.493-.609.853-.801a2.575 2.575 0 0 1 1.22-.286c.453 0 .854.095 1.204.286.35.192.624.45.823.774.199.325.298.686.298 1.084 0 .284-.051.562-.155.834-.1.27-.276.57-.528.903-.25.329-.595.732-1.038 1.208l-1.737 1.857v.061h3.594v.83h-4.878Z"/><path fill="#E9FCFB" d="M55.975 160.746h36.45v28.188h-36.45z"/><path fill="#148783" d="M62.85 178.34v-.679l2.553-2.794c.299-.327.546-.612.74-.853.193-.245.337-.474.43-.688.096-.216.143-.442.143-.679 0-.272-.065-.507-.196-.706a1.279 1.279 0 0 0-.528-.461 1.716 1.716 0 0 0-.756-.162c-.297 0-.556.062-.777.185a1.275 1.275 0 0 0-.51.51 1.594 1.594 0 0 0-.177.77h-.891c0-.453.104-.851.313-1.193.209-.342.493-.609.853-.801a2.575 2.575 0 0 1 1.22-.286c.453 0 .854.095 1.204.286.35.192.624.45.823.774.199.325.298.686.298 1.084 0 .284-.051.562-.155.834-.1.27-.276.57-.528.903-.25.329-.595.732-1.038 1.208l-1.737 1.857v.061h3.594v.83H62.85Zm9.05.106a3.29 3.29 0 0 1-1.333-.257 2.285 2.285 0 0 1-.925-.713 1.923 1.923 0 0 1-.37-1.069h.952c.02.249.105.464.256.646.151.178.349.317.593.415.244.098.515.147.812.147.332 0 .626-.058.883-.173.257-.116.458-.277.604-.484.146-.206.22-.445.22-.717 0-.284-.071-.535-.212-.751a1.405 1.405 0 0 0-.62-.514c-.271-.123-.604-.185-.996-.185h-.62v-.83h.62c.307 0 .576-.056.808-.166.234-.111.416-.267.547-.469.134-.201.2-.437.2-.709 0-.262-.058-.49-.173-.684a1.198 1.198 0 0 0-.491-.453 1.591 1.591 0 0 0-.74-.162c-.267 0-.519.049-.755.147a1.416 1.416 0 0 0-.574.419 1.095 1.095 0 0 0-.242.657h-.906c.015-.405.138-.76.367-1.064.229-.307.528-.547.898-.718a2.905 2.905 0 0 1 1.227-.256c.478 0 .888.096 1.23.29.343.192.606.444.79.759.183.315.275.654.275 1.019 0 .436-.114.807-.343 1.114a1.74 1.74 0 0 1-.925.638v.061c.488.08.87.288 1.144.622.274.333.411.744.411 1.235 0 .42-.114.798-.343 1.133a2.333 2.333 0 0 1-.929.785c-.393.191-.84.287-1.34.287Z"/><path fill="#E9FCFB" d="M92.425 160.746h36.45v28.188h-36.45z"/><path fill="#148783" d="M99.3 178.34v-.679l2.552-2.794c.3-.327.547-.612.74-.853.194-.245.338-.474.431-.688.095-.216.143-.442.143-.679 0-.272-.065-.507-.196-.706a1.278 1.278 0 0 0-.529-.461 1.714 1.714 0 0 0-.755-.162c-.297 0-.556.062-.777.185a1.277 1.277 0 0 0-.51.51 1.598 1.598 0 0 0-.177.77h-.891c0-.453.104-.851.313-1.193.209-.342.493-.609.853-.801a2.577 2.577 0 0 1 1.22-.286c.453 0 .854.095 1.204.286.35.192.624.45.823.774.199.325.298.686.298 1.084 0 .284-.051.562-.155.834-.1.27-.276.57-.528.903-.249.329-.595.732-1.038 1.208l-1.737 1.857v.061h3.594v.83H99.3Zm6.09-1.586v-.77l3.398-5.376h.558v1.193h-.377l-2.567 4.062v.061h4.575v.83h-5.587Zm3.639 1.586v-7.732h.891v7.732h-.891Z"/><path fill="#E9FCFB" d="M131.913 161.506h30.375v25.819h-30.375z"/><path fill="#148783" d="M138.788 178.34v-.679l2.552-2.794c.3-.327.546-.612.74-.853.194-.245.337-.474.43-.688.096-.216.144-.442.144-.679 0-.272-.066-.507-.196-.706a1.284 1.284 0 0 0-.529-.461 1.717 1.717 0 0 0-.755-.162c-.297 0-.556.062-.778.185a1.268 1.268 0 0 0-.509.51 1.587 1.587 0 0 0-.178.77h-.891c0-.453.105-.851.313-1.193.209-.342.494-.609.854-.801a2.573 2.573 0 0 1 1.219-.286c.453 0 .855.095 1.204.286.35.192.625.45.823.774.199.325.299.686.299 1.084 0 .284-.052.562-.155.834-.101.27-.277.57-.529.903-.249.329-.595.732-1.038 1.208l-1.736 1.857v.061h3.594v.83h-4.878Zm8.853.106c-.443 0-.842-.088-1.197-.264a2.23 2.23 0 0 1-.853-.725 1.973 1.973 0 0 1-.351-1.05h.906c.035.35.194.639.476.868.284.227.624.34 1.019.34.317 0 .599-.074.846-.223a1.57 1.57 0 0 0 .585-.611c.143-.262.215-.558.215-.887 0-.338-.074-.638-.223-.903a1.633 1.633 0 0 0-.604-.63 1.695 1.695 0 0 0-.879-.234 2.416 2.416 0 0 0-.729.109 2.043 2.043 0 0 0-.615.283l-.876-.105.468-3.806h4.017v.831h-3.232l-.272 2.28h.046c.158-.126.357-.23.596-.313.239-.083.488-.125.748-.125.473 0 .894.113 1.264.34.373.224.665.531.876.921.214.39.321.836.321 1.337 0 .493-.111.933-.332 1.321a2.43 2.43 0 0 1-.906.914 2.592 2.592 0 0 1-1.314.332Z"/><rect width="29.616" height="25.059" x="132.292" y="161.885" stroke="#148783" stroke-width=".759" rx="2.658"/><path fill="#0A3435" d="M172.201 178.34v-.679l2.552-2.794c.299-.327.546-.612.74-.853.193-.245.337-.474.43-.688.096-.216.143-.442.143-.679 0-.272-.065-.507-.196-.706a1.275 1.275 0 0 0-.528-.461 1.717 1.717 0 0 0-.755-.162c-.297 0-.557.062-.778.185a1.277 1.277 0 0 0-.51.51 1.598 1.598 0 0 0-.177.77h-.891c0-.453.104-.851.313-1.193.209-.342.493-.609.853-.801a2.577 2.577 0 0 1 1.22-.286c.453 0 .854.095 1.204.286.35.192.624.45.823.774.199.325.298.686.298 1.084 0 .284-.051.562-.154.834-.101.27-.277.57-.529.903-.249.329-.595.732-1.038 1.208l-1.737 1.857v.061h3.594v.83h-4.877Zm9.004.106a2.911 2.911 0 0 1-.952-.181 2.277 2.277 0 0 1-.868-.586c-.262-.276-.472-.65-.631-1.121-.158-.473-.237-1.067-.237-1.782 0-.684.064-1.291.192-1.819.128-.532.315-.978.559-1.341.244-.365.538-.642.883-.83a2.418 2.418 0 0 1 1.174-.283c.433 0 .818.086 1.156.26.339.171.616.41.83.717.214.307.353.661.416 1.061h-.922a1.7 1.7 0 0 0-.498-.864c-.247-.229-.574-.344-.982-.344-.599 0-1.071.261-1.415.782-.343.521-.515 1.252-.518 2.193h.061a2.265 2.265 0 0 1 1.903-1.027c.443 0 .848.111 1.215.332.368.219.662.523.884.91.221.385.332.827.332 1.325 0 .479-.107.917-.321 1.314-.214.395-.515.71-.902.944-.385.232-.838.345-1.359.34Zm0-.831c.317 0 .601-.079.853-.238.254-.158.454-.371.6-.638.149-.266.223-.563.223-.891 0-.319-.072-.61-.215-.872a1.638 1.638 0 0 0-.586-.63 1.545 1.545 0 0 0-.845-.234c-.239 0-.462.048-.668.143a1.726 1.726 0 0 0-.544.385 1.848 1.848 0 0 0-.362.563 1.783 1.783 0 0 0 .679 2.167c.254.163.542.245.865.245Z"/><path fill="#808181" d="M208.65 178.34v-.679l2.553-2.794c.299-.327.546-.612.74-.853.193-.245.337-.474.43-.688.096-.216.143-.442.143-.679 0-.272-.065-.507-.196-.706a1.275 1.275 0 0 0-.528-.461 1.719 1.719 0 0 0-.756-.162c-.297 0-.556.062-.777.185a1.277 1.277 0 0 0-.51.51 1.598 1.598 0 0 0-.177.77h-.891c0-.453.104-.851.313-1.193.209-.342.493-.609.853-.801a2.577 2.577 0 0 1 1.22-.286c.453 0 .854.095 1.204.286.35.192.624.45.823.774.199.325.298.686.298 1.084 0 .284-.051.562-.155.834-.1.27-.276.57-.528.903-.249.329-.595.732-1.038 1.208l-1.737 1.857v.061h3.594v.83h-4.878Zm6.679 0 3.458-6.841v-.06H214.8v-.831h4.954v.876l-3.443 6.856h-.982ZM245.1 178.34v-.679l2.553-2.794a17.7 17.7 0 0 0 .739-.853c.194-.245.338-.474.431-.688.096-.216.143-.442.143-.679 0-.272-.065-.507-.196-.706a1.278 1.278 0 0 0-.529-.461 1.714 1.714 0 0 0-.755-.162c-.297 0-.556.062-.777.185a1.277 1.277 0 0 0-.51.51 1.598 1.598 0 0 0-.177.77h-.891c0-.453.104-.851.313-1.193.209-.342.493-.609.853-.801a2.577 2.577 0 0 1 1.22-.286c.453 0 .854.095 1.204.286.35.192.624.45.823.774.199.325.298.686.298 1.084 0 .284-.051.562-.155.834-.1.27-.276.57-.528.903-.249.329-.595.732-1.038 1.208l-1.737 1.857v.061h3.594v.83H245.1Zm8.914.106c-.519 0-.977-.092-1.374-.276a2.252 2.252 0 0 1-.925-.766 1.926 1.926 0 0 1-.329-1.118 2.062 2.062 0 0 1 .193-.906c.131-.279.309-.512.536-.698.229-.189.484-.308.766-.359v-.045a1.492 1.492 0 0 1-.883-.623 1.89 1.89 0 0 1-.325-1.099 1.874 1.874 0 0 1 .298-1.053 2.1 2.1 0 0 1 .831-.732 2.655 2.655 0 0 1 1.212-.268c.448 0 .848.089 1.2.268.353.178.63.422.831.732a1.9 1.9 0 0 1 .31 1.053 1.921 1.921 0 0 1-.336 1.099c-.219.32-.51.527-.873.623v.045c.28.051.532.17.756.359a2.111 2.111 0 0 1 .74 1.604 1.957 1.957 0 0 1-.34 1.118c-.222.324-.53.58-.925.766-.393.184-.847.276-1.363.276Zm0-.831a2.2 2.2 0 0 0 .906-.17c.254-.113.45-.273.589-.479.138-.207.209-.448.211-.725a1.39 1.39 0 0 0-.226-.774 1.535 1.535 0 0 0-.608-.528 1.9 1.9 0 0 0-.872-.193c-.33 0-.624.064-.884.193a1.532 1.532 0 0 0-.607.528 1.368 1.368 0 0 0-.216.774c-.002.277.065.518.201.725.138.206.336.366.592.479.257.114.562.17.914.17Zm0-3.669c.277 0 .522-.056.736-.166.217-.111.386-.266.51-.465.123-.199.186-.431.189-.698a1.303 1.303 0 0 0-.185-.684 1.207 1.207 0 0 0-.503-.453 1.637 1.637 0 0 0-.747-.162c-.29 0-.542.054-.759.162a1.175 1.175 0 0 0-.502.453 1.271 1.271 0 0 0-.174.684c-.002.267.057.499.178.698.123.199.293.354.509.465.217.11.466.166.748.166Z"/><path fill="#0A3435" d="M26.4 206.528v-.68l2.553-2.794c.3-.327.546-.611.74-.853.193-.244.337-.473.43-.687.096-.216.143-.443.143-.68 0-.271-.065-.507-.196-.706a1.277 1.277 0 0 0-.529-.46 1.716 1.716 0 0 0-.755-.162c-.297 0-.556.061-.777.185-.22.12-.39.29-.51.509a1.597 1.597 0 0 0-.177.77h-.891c0-.453.104-.85.313-1.193.209-.342.493-.609.853-.8a2.576 2.576 0 0 1 1.22-.287c.453 0 .854.096 1.204.287.35.191.624.449.823.774.199.325.298.686.298 1.083 0 .285-.051.563-.154.835-.101.269-.277.57-.53.902-.248.33-.594.732-1.037 1.208l-1.737 1.858v.06h3.594v.831h-4.877Zm8.899-7.838c.317.003.634.063.951.181.317.119.607.315.868.589.262.272.472.643.631 1.114.159.471.238 1.061.238 1.771a7.72 7.72 0 0 1-.197 1.831c-.128.531-.314.979-.558 1.344a2.477 2.477 0 0 1-.884.83 2.394 2.394 0 0 1-1.17.283c-.433 0-.82-.085-1.159-.256a2.272 2.272 0 0 1-.83-.722 2.508 2.508 0 0 1-.412-1.075h.921c.083.354.248.648.495.879.249.229.577.344.985.344.597 0 1.067-.261 1.412-.782.347-.521.521-1.257.521-2.208h-.06a2.367 2.367 0 0 1-.503.547 2.2 2.2 0 0 1-.645.355 2.265 2.265 0 0 1-.755.125c-.443 0-.85-.11-1.22-.329a2.49 2.49 0 0 1-.883-.91 2.651 2.651 0 0 1-.328-1.329c0-.473.105-.906.317-1.298.214-.395.513-.71.898-.944.388-.234.843-.347 1.367-.34Zm0 .831a1.59 1.59 0 0 0-.857.237 1.719 1.719 0 0 0-.6.635 1.786 1.786 0 0 0-.22.879c0 .323.071.616.212.88.143.262.338.471.585.627.25.153.533.23.85.23.239 0 .462-.047.668-.14.206-.095.386-.225.54-.389.156-.166.278-.353.366-.562a1.727 1.727 0 0 0-.087-1.51 1.743 1.743 0 0 0-.596-.642 1.54 1.54 0 0 0-.861-.245ZM65.463 206.633a3.29 3.29 0 0 1-1.333-.256 2.287 2.287 0 0 1-.925-.714 1.917 1.917 0 0 1-.37-1.068h.952c.02.249.105.464.256.645.151.179.349.317.593.415.244.099.515.148.812.148.332 0 .627-.058.883-.174.257-.116.458-.277.604-.483.146-.207.22-.446.22-.717 0-.285-.071-.535-.212-.752a1.396 1.396 0 0 0-.62-.513c-.271-.124-.603-.185-.996-.185h-.62v-.831h.62c.307 0 .576-.055.808-.166a1.255 1.255 0 0 0 .748-1.178c0-.262-.058-.489-.174-.683a1.185 1.185 0 0 0-.491-.453 1.591 1.591 0 0 0-.74-.162c-.267 0-.518.049-.755.147a1.398 1.398 0 0 0-.574.419 1.09 1.09 0 0 0-.242.657h-.906c.016-.405.138-.76.367-1.065.229-.307.528-.546.898-.717a2.905 2.905 0 0 1 1.227-.257c.478 0 .889.097 1.23.291.343.191.606.444.79.759.184.314.275.654.275 1.019 0 .435-.114.807-.343 1.114a1.746 1.746 0 0 1-.925.638v.06c.488.081.87.288 1.144.623.274.332.411.744.411 1.235 0 .42-.114.797-.343 1.132a2.333 2.333 0 0 1-.929.785c-.392.192-.84.287-1.34.287Zm6.678 0c-.568 0-1.053-.154-1.453-.464-.4-.312-.706-.764-.918-1.355-.21-.594-.317-1.312-.317-2.152 0-.836.106-1.549.317-2.141.215-.594.522-1.047.922-1.359.402-.315.886-.472 1.45-.472.563 0 1.045.157 1.445.472.403.312.71.765.921 1.359.215.592.321 1.305.321 2.141 0 .84-.105 1.558-.317 2.152-.211.591-.517 1.043-.917 1.355-.4.31-.885.464-1.454.464Zm0-.83c.564 0 1.002-.272 1.314-.816.312-.543.468-1.319.468-2.325 0-.67-.071-1.24-.215-1.711-.14-.47-.345-.829-.611-1.075a1.349 1.349 0 0 0-.956-.37c-.558 0-.995.275-1.31.826-.314.549-.472 1.325-.472 2.33 0 .669.071 1.238.212 1.706.14.468.344.824.608 1.069.266.244.587.366.962.366ZM101.913 206.633c-.498 0-.943-.085-1.333-.256a2.291 2.291 0 0 1-.925-.714 1.917 1.917 0 0 1-.37-1.068h.952c.02.249.105.464.256.645.151.179.349.317.593.415.244.099.515.148.812.148.332 0 .626-.058.883-.174.257-.116.458-.277.604-.483.146-.207.219-.446.219-.717 0-.285-.07-.535-.211-.752a1.401 1.401 0 0 0-.619-.513c-.272-.124-.604-.185-.997-.185h-.619v-.831h.619c.307 0 .576-.055.808-.166a1.25 1.25 0 0 0 .747-1.178c0-.262-.058-.489-.173-.683a1.19 1.19 0 0 0-.491-.453 1.593 1.593 0 0 0-.74-.162 1.95 1.95 0 0 0-.755.147 1.402 1.402 0 0 0-.574.419c-.148.181-.229.4-.242.657h-.906c.016-.405.138-.76.367-1.065.229-.307.528-.546.898-.717a2.91 2.91 0 0 1 1.227-.257c.478 0 .889.097 1.231.291.342.191.605.444.789.759.184.314.275.654.275 1.019 0 .435-.114.807-.343 1.114a1.748 1.748 0 0 1-.925.638v.06c.488.081.87.288 1.144.623.274.332.411.744.411 1.235 0 .42-.114.797-.343 1.132a2.334 2.334 0 0 1-.929.785 3.012 3.012 0 0 1-1.34.287Zm6.875-7.837v7.732h-.937v-6.751h-.045l-1.888 1.254v-.952l1.933-1.283h.937Z"/><rect width="99.478" height="24.316" x="19.905" y="223.576" fill="#fff" rx="4.177"/><path fill="#8A8AA8" d="M31.905 232.054v7.18h-.87v-6.268h-.041l-1.753 1.163v-.883l1.795-1.192h.869Zm4.449 7.278a2.708 2.708 0 0 1-.884-.168 2.12 2.12 0 0 1-.806-.544c-.243-.257-.438-.604-.586-1.041-.147-.439-.22-.991-.22-1.655 0-.635.06-1.199.178-1.689.12-.494.292-.908.52-1.245.226-.339.5-.596.82-.771a2.25 2.25 0 0 1 1.09-.263c.402 0 .76.081 1.072.242.316.159.573.381.772.666.198.285.327.613.385.985h-.855a1.586 1.586 0 0 0-.463-.803c-.229-.212-.533-.319-.911-.319-.556 0-.995.242-1.315.726-.318.484-.478 1.163-.48 2.037h.056a2.112 2.112 0 0 1 1.767-.954c.411 0 .787.103 1.129.309.34.203.614.485.82.844.206.358.309.768.309 1.231 0 .444-.1.851-.299 1.22a2.266 2.266 0 0 1-.837.876c-.358.215-.779.32-1.262.316Zm0-.771c.294 0 .558-.074.792-.221.236-.148.422-.345.557-.593.138-.247.207-.523.207-.827 0-.297-.066-.567-.2-.81a1.526 1.526 0 0 0-.543-.585 1.437 1.437 0 0 0-.785-.218c-.222 0-.43.045-.62.134a1.59 1.59 0 0 0-.506.357 1.732 1.732 0 0 0-.336.522 1.662 1.662 0 0 0 .631 2.013c.236.152.504.228.803.228Zm4.056.729a.607.607 0 0 1-.446-.186.607.607 0 0 1-.185-.445c0-.173.061-.322.185-.445a.607.607 0 0 1 .446-.186c.173 0 .321.062.445.186a.605.605 0 0 1 .186.445.66.66 0 0 1-.316.547.602.602 0 0 1-.315.084Zm4.192.042c-.528 0-.978-.144-1.35-.431-.37-.29-.655-.71-.851-1.259-.197-.551-.295-1.218-.295-1.998 0-.776.099-1.439.295-1.988.198-.551.484-.972.855-1.262.374-.292.823-.438 1.346-.438.524 0 .971.146 1.343.438.374.29.66.711.855 1.262.2.549.298 1.212.298 1.988 0 .78-.098 1.447-.294 1.998-.196.549-.48.969-.852 1.259-.372.287-.821.431-1.35.431Zm0-.771c.524 0 .93-.253 1.22-.758.29-.504.435-1.224.435-2.159 0-.622-.067-1.151-.2-1.588-.13-.437-.32-.77-.568-.999a1.254 1.254 0 0 0-.887-.344c-.518 0-.924.256-1.216.768-.292.509-.438 1.23-.438 2.163 0 .622.065 1.15.196 1.584.13.435.319.766.564.993.248.226.546.34.894.34Zm6.212.771a2.709 2.709 0 0 1-.883-.168 2.121 2.121 0 0 1-.806-.544c-.243-.257-.439-.604-.586-1.041-.147-.439-.22-.991-.22-1.655 0-.635.059-1.199.178-1.689.12-.494.292-.908.519-1.245.227-.339.5-.596.82-.771a2.249 2.249 0 0 1 1.09-.263c.402 0 .76.081 1.073.242.316.159.573.381.771.666.2.285.328.613.386.985h-.855a1.586 1.586 0 0 0-.463-.803c-.229-.212-.533-.319-.912-.319-.556 0-.994.242-1.314.726-.318.484-.478 1.163-.48 2.037h.056a2.121 2.121 0 0 1 1.069-.838c.22-.077.452-.116.698-.116.41 0 .787.103 1.128.309.342.203.615.485.82.844.206.358.31.768.31 1.231 0 .444-.1.851-.299 1.22a2.265 2.265 0 0 1-.838.876c-.357.215-.778.32-1.262.316Zm0-.771c.295 0 .559-.074.793-.221.236-.148.422-.345.557-.593.138-.247.207-.523.207-.827 0-.297-.067-.567-.2-.81a1.526 1.526 0 0 0-.543-.585 1.437 1.437 0 0 0-.786-.218c-.222 0-.428.045-.62.134-.192.086-.36.205-.505.357a1.728 1.728 0 0 0-.336.522 1.662 1.662 0 0 0 .631 2.013c.236.152.503.228.802.228Zm4.056.729a.607.607 0 0 1-.445-.186.607.607 0 0 1-.186-.445c0-.173.062-.322.186-.445a.607.607 0 0 1 .445-.186c.173 0 .322.062.446.186a.605.605 0 0 1 .185.445c0 .114-.029.219-.087.315a.66.66 0 0 1-.228.232.602.602 0 0 1-.316.084Zm2.102-.056v-.631l2.37-2.595c.278-.303.507-.567.687-.792.18-.227.313-.439.4-.638.088-.201.133-.411.133-.631a1.163 1.163 0 0 0-.673-1.083 1.584 1.584 0 0 0-.701-.151c-.276 0-.517.057-.723.172-.203.112-.36.27-.473.473-.11.204-.165.442-.165.715H57c0-.42.097-.79.291-1.107.194-.318.458-.566.792-.744a2.395 2.395 0 0 1 1.133-.266 2.3 2.3 0 0 1 1.118.266c.325.178.58.418.764.719.185.302.277.637.277 1.006 0 .264-.048.522-.144.775-.093.25-.257.529-.49.838-.232.306-.553.68-.965 1.122l-1.612 1.724v.056H61.5v.772h-4.529Zm8.319.098c-.528 0-.978-.144-1.35-.431-.371-.29-.655-.71-.852-1.259-.196-.551-.294-1.218-.294-1.998 0-.776.098-1.439.294-1.988.199-.551.484-.972.856-1.262.374-.292.822-.438 1.346-.438.523 0 .97.146 1.343.438.373.29.659.711.855 1.262.199.549.298 1.212.298 1.988 0 .78-.098 1.447-.295 1.998-.196.549-.48.969-.851 1.259-.372.287-.822.431-1.35.431Zm0-.771c.523 0 .93-.253 1.22-.758.29-.504.434-1.224.434-2.159 0-.622-.066-1.151-.2-1.588-.13-.437-.32-.77-.567-.999a1.254 1.254 0 0 0-.887-.344c-.519 0-.924.256-1.217.768-.292.509-.438 1.23-.438 2.163 0 .622.066 1.15.197 1.584.13.435.319.766.564.993.248.226.546.34.894.34Zm3.828.673v-.631l2.37-2.595c.278-.303.507-.567.687-.792.18-.227.313-.439.4-.638.088-.201.133-.411.133-.631a1.162 1.162 0 0 0-.673-1.083 1.584 1.584 0 0 0-.701-.151c-.276 0-.517.057-.723.172-.203.112-.36.27-.473.473-.11.204-.165.442-.165.715h-.827c0-.42.097-.79.291-1.107.194-.318.458-.566.792-.744a2.395 2.395 0 0 1 1.133-.266 2.3 2.3 0 0 1 1.118.266c.325.178.58.418.764.719.185.302.277.637.277 1.006 0 .264-.048.522-.144.775-.093.25-.257.529-.49.838-.232.306-.553.68-.964 1.122l-1.613 1.724v.056h3.337v.772H69.12Zm5.977 0v-.631l2.37-2.595c.278-.303.507-.567.687-.792.18-.227.313-.439.4-.638.088-.201.133-.411.133-.631a1.162 1.162 0 0 0-.673-1.083 1.584 1.584 0 0 0-.701-.151c-.276 0-.517.057-.722.172-.204.112-.362.27-.474.473-.11.204-.165.442-.165.715h-.827c0-.42.097-.79.291-1.107.194-.318.458-.566.792-.744a2.396 2.396 0 0 1 1.133-.266 2.3 2.3 0 0 1 1.118.266c.325.178.58.418.764.719.185.302.277.637.277 1.006 0 .264-.048.522-.143.775-.094.25-.258.529-.491.838-.232.306-.553.68-.964 1.122l-1.613 1.724v.056h3.337v.772h-4.529Z"/><rect width="99.478" height="24.316" x="19.905" y="223.576" stroke="#DFDEED" stroke-width=".759" rx="4.177"/><path stroke="#DFDEED" stroke-dasharray="1.52 1.52" stroke-width=".759" d="M125.838 235.354h10.631"/><g clip-path="url(#e)"><path fill="#8A8AA8" fill-rule="evenodd" d="M149.179 233.202a.38.38 0 0 1 .38-.379c.227 0 .448.024.66.071 1.323.292 2.323 1.445 2.323 2.838 0 1.618-1.346 2.91-2.983 2.91h-.868c-1.642 0-2.983-1.44-2.983-2.91a.38.38 0 0 1 .759 0c0 1.054 1.005 2.151 2.224 2.151h.868c1.239 0 2.224-.973 2.224-2.151 0-1.014-.731-1.876-1.727-2.096a2.322 2.322 0 0 0-.497-.054.38.38 0 0 1-.38-.38Zm-3.67-.379c1.642 0 2.983 1.44 2.983 2.909a.38.38 0 1 1-.759 0c0-1.053-1.005-2.15-2.224-2.15h-.868c-1.238 0-2.224.973-2.224 2.15 0 1.015.731 1.877 1.727 2.097.16.035.326.054.497.054a.38.38 0 1 1 0 .759c-.226 0-.447-.024-.66-.071-1.323-.292-2.323-1.445-2.323-2.839 0-1.617 1.346-2.909 2.983-2.909h.868Z" clip-rule="evenodd"/></g><rect width="20.503" height="20.503" x="136.848" y="225.482" stroke="#F0F0F4" stroke-width=".759" rx="10.252"/><path stroke="#DFDEED" stroke-dasharray="1.52 1.52" stroke-width=".759" d="M157.731 235.354h10.632"/><rect width="99.478" height="24.316" x="174.817" y="223.576" fill="#fff" rx="4.177"/><path fill="#8A8AA8" d="M184.293 239.234v-.631l2.37-2.595c.278-.303.507-.567.687-.792.18-.227.313-.439.4-.638a1.54 1.54 0 0 0 .133-.631c0-.252-.061-.471-.182-.655a1.177 1.177 0 0 0-.491-.428 1.585 1.585 0 0 0-.701-.151c-.276 0-.517.057-.722.172-.204.112-.361.27-.474.473a1.494 1.494 0 0 0-.164.715h-.828c0-.42.097-.79.291-1.107.194-.318.458-.566.793-.744a2.393 2.393 0 0 1 1.132-.266c.421 0 .793.089 1.118.266.325.178.58.418.764.719.185.302.277.637.277 1.006 0 .264-.048.522-.143.775-.094.25-.257.529-.491.838-.232.306-.553.68-.964 1.122l-1.613 1.724v.056h3.338v.772h-4.53Zm8.221.098c-.411 0-.782-.082-1.111-.246a2.061 2.061 0 0 1-.793-.673 1.841 1.841 0 0 1-.326-.974h.842c.032.325.18.593.441.806.265.21.58.316.947.316.294 0 .556-.069.785-.207.232-.138.413-.327.544-.568.133-.243.199-.518.199-.824 0-.313-.069-.592-.206-.838a1.517 1.517 0 0 0-.561-.585 1.59 1.59 0 0 0-.817-.218 2.263 2.263 0 0 0-.677.102 1.87 1.87 0 0 0-.571.263l-.813-.098.434-3.534h3.73v.771h-3.001l-.252 2.118h.042c.147-.117.332-.214.554-.291.222-.077.453-.116.694-.116a2.21 2.21 0 0 1 1.988 1.171c.198.362.298.776.298 1.241 0 .458-.103.867-.309 1.227-.203.358-.483.64-.841.848a2.4 2.4 0 0 1-1.22.309Zm4.109-.042a.608.608 0 0 1-.445-.186.607.607 0 0 1-.186-.445c0-.173.062-.322.186-.445a.608.608 0 0 1 .445-.186c.173 0 .322.062.446.186a.604.604 0 0 1 .185.445.658.658 0 0 1-.315.547.605.605 0 0 1-.316.084Zm4.193.042c-.528 0-.978-.144-1.349-.431-.372-.29-.656-.71-.852-1.259-.197-.551-.295-1.218-.295-1.998 0-.776.098-1.439.295-1.988.198-.551.483-.972.855-1.262.374-.292.823-.438 1.346-.438.524 0 .971.146 1.343.438.374.29.659.711.855 1.262.199.549.298 1.212.298 1.988 0 .78-.098 1.447-.294 1.998-.197.549-.481.969-.852 1.259-.372.287-.822.431-1.35.431Zm0-.771c.524 0 .93-.253 1.22-.758.29-.504.435-1.224.435-2.159 0-.622-.067-1.151-.2-1.588-.131-.437-.32-.77-.568-.999a1.253 1.253 0 0 0-.887-.344c-.519 0-.924.256-1.216.768-.292.509-.438 1.23-.438 2.163 0 .622.065 1.15.196 1.584.131.435.319.766.564.993.248.226.546.34.894.34Zm6.212.771a2.706 2.706 0 0 1-.883-.168 2.126 2.126 0 0 1-.807-.544c-.243-.257-.438-.604-.585-1.041-.147-.439-.221-.991-.221-1.655 0-.635.06-1.199.179-1.689.119-.494.292-.908.519-1.245.226-.339.5-.596.82-.771a2.25 2.25 0 0 1 1.09-.263c.402 0 .76.081 1.073.242.316.159.573.381.771.666.199.285.328.613.386.985h-.855a1.59 1.59 0 0 0-.463-.803c-.229-.212-.533-.319-.912-.319-.556 0-.994.242-1.314.726-.318.484-.478 1.163-.481 2.037h.057a2.102 2.102 0 0 1 1.766-.954c.412 0 .788.103 1.129.309.341.203.615.485.821.844.205.358.308.768.308 1.231 0 .444-.099.851-.298 1.22a2.268 2.268 0 0 1-.838.876c-.357.215-.778.32-1.262.316Zm0-.771c.295 0 .559-.074.792-.221a1.59 1.59 0 0 0 .558-.593c.138-.247.207-.523.207-.827a1.66 1.66 0 0 0-.2-.81 1.524 1.524 0 0 0-.544-.585 1.435 1.435 0 0 0-.785-.218c-.222 0-.429.045-.62.134-.192.086-.36.205-.505.357a1.727 1.727 0 0 0-.337.522 1.664 1.664 0 0 0 .077 1.413c.136.248.321.448.554.6.236.152.504.228.803.228Zm4.056.729a.607.607 0 0 1-.445-.186.607.607 0 0 1-.186-.445c0-.173.062-.322.186-.445a.607.607 0 0 1 .445-.186c.173 0 .322.062.445.186a.605.605 0 0 1 .186.445.598.598 0 0 1-.087.315.666.666 0 0 1-.228.232.605.605 0 0 1-.316.084Zm2.102-.056v-.631l2.37-2.595c.278-.303.507-.567.687-.792.18-.227.313-.439.399-.638.089-.201.134-.411.134-.631a1.16 1.16 0 0 0-.673-1.083 1.586 1.586 0 0 0-.702-.151c-.275 0-.516.057-.722.172-.203.112-.361.27-.473.473-.11.204-.165.442-.165.715h-.827c0-.42.097-.79.291-1.107.194-.318.458-.566.792-.744a2.396 2.396 0 0 1 1.132-.266c.421 0 .794.089 1.119.266.325.178.579.418.764.719.185.302.277.637.277 1.006 0 .264-.048.522-.144.775-.093.25-.257.529-.491.838-.231.306-.552.68-.964 1.122l-1.612 1.724v.056h3.337v.772h-4.529Zm8.319.098c-.528 0-.978-.144-1.35-.431-.372-.29-.656-.71-.852-1.259-.196-.551-.294-1.218-.294-1.998 0-.776.098-1.439.294-1.988.199-.551.484-.972.856-1.262.373-.292.822-.438 1.346-.438.523 0 .971.146 1.342.438.374.29.659.711.856 1.262.198.549.298 1.212.298 1.988 0 .78-.098 1.447-.295 1.998-.196.549-.48.969-.852 1.259-.371.287-.821.431-1.349.431Zm0-.771c.523 0 .93-.253 1.22-.758.289-.504.434-1.224.434-2.159 0-.622-.066-1.151-.199-1.588-.131-.437-.321-.77-.568-.999a1.255 1.255 0 0 0-.887-.344c-.519 0-.925.256-1.217.768-.292.509-.438 1.23-.438 2.163 0 .622.065 1.15.196 1.584.131.435.319.766.565.993.248.226.545.34.894.34Zm3.828.673v-.631l2.37-2.595c.278-.303.507-.567.687-.792.18-.227.313-.439.399-.638.089-.201.134-.411.134-.631a1.16 1.16 0 0 0-.673-1.083 1.586 1.586 0 0 0-.702-.151c-.275 0-.516.057-.722.172-.203.112-.361.27-.473.473-.11.204-.165.442-.165.715h-.827c0-.42.097-.79.291-1.107.194-.318.458-.566.792-.744a2.396 2.396 0 0 1 1.132-.266c.421 0 .794.089 1.119.266.325.178.579.418.764.719.185.302.277.637.277 1.006 0 .264-.048.522-.144.775-.093.25-.257.529-.491.838-.231.306-.552.68-.964 1.122l-1.612 1.724v.056h3.337v.772h-4.529Zm5.977 0v-.631l2.37-2.595c.278-.303.507-.567.687-.792.18-.227.313-.439.4-.638.088-.201.133-.411.133-.631a1.16 1.16 0 0 0-.673-1.083 1.585 1.585 0 0 0-.701-.151c-.276 0-.517.057-.723.172-.203.112-.361.27-.473.473-.11.204-.165.442-.165.715h-.827c0-.42.097-.79.291-1.107.194-.318.458-.566.792-.744a2.397 2.397 0 0 1 1.133-.266c.42 0 .793.089 1.118.266.325.178.579.418.764.719.185.302.277.637.277 1.006 0 .264-.048.522-.144.775-.093.25-.257.529-.49.838-.232.306-.553.68-.965 1.122l-1.612 1.724v.056h3.337v.772h-4.529Z"/><rect width="99.478" height="24.316" x="174.817" y="223.576" stroke="#DFDEED" stroke-width=".759" rx="4.177"/></g></g><defs><clipPath id="c"><path fill="#fff" d="M22.563 22.846h12.15v12.15h-12.15z"/></clipPath><clipPath id="d"><path fill="#fff" d="M122.8 22.846h12.15v12.15H122.8z"/></clipPath><clipPath id="e"><path fill="#fff" d="M141.025 229.659h12.15v12.15h-12.15z"/></clipPath><filter id="a" width="299" height="276" x="0" y="0" color-interpolation-filters="sRGB" filterUnits="userSpaceOnUse"><feFlood flood-opacity="0" result="BackgroundImageFix"/><feColorMatrix in="SourceAlpha" result="hardAlpha" values="0 0 0 0 0 0 0 0 0 0 0 0 0 0 0 0 0 0 127 0"/><feOffset dx="2.5" dy="2.5"/><feGaussianBlur stdDeviation="6.25"/><feComposite in2="hardAlpha" operator="out"/><feColorMatrix values="0 0 0 0 0.22084 0 0 0 0 0.22084 0 0 0 0 0.983333 0 0 0 0.1 0"/><feBlend in2="BackgroundImageFix" result="effect1_dropShadow_68_6084"/><feBlend in="SourceGraphic" in2="effect1_dropShadow_68_6084" result="shape"/></filter><filter id="b" width="288.562" height="264.913" x="4.338" y="4.621" color-interpolation-filters="sRGB" filterUnits="userSpaceOnUse"><feFlood flood-opacity="0" result="BackgroundImageFix"/><feColorMatrix in="SourceAlpha" result="hardAlpha" values="0 0 0 0 0 0 0 0 0 0 0 0 0 0 0 0 0 0 127 0"/><feOffset dx="1.519" dy="1.519"/><feGaussianBlur stdDeviation="3.797"/><feComposite in2="hardAlpha" operator="out"/><feColorMatrix values="0 0 0 0 0.22084 0 0 0 0 0.22084 0 0 0 0 0.983333 0 0 0 0.1 0"/><feBlend in2="BackgroundImageFix" result="effect1_dropShadow_68_6084"/><feBlend in="SourceGraphic" in2="effect1_dropShadow_68_6084" result="shape"/></filter></defs></svg>