<svg xmlns="http://www.w3.org/2000/svg" width="301" height="315" fill="none"><g filter="url(#a)"><rect width="277" height="291.012" x="10" y="10" fill="#fff" rx="4" shape-rendering="crispEdges"/><path fill="#262541" d="M26.852 38v-7.751h2.838c.55 0 1.006.09 1.366.272.361.18.631.423.81.73.18.306.27.65.27 1.034 0 .323-.06.596-.179.818-.118.219-.277.396-.477.53a2.1 2.1 0 0 1-.65.287v.076c.257.012.508.096.753.25.247.15.451.367.613.647.161.28.242.62.242 1.022 0 .396-.094.752-.28 1.067-.184.313-.47.561-.856.745-.386.182-.879.273-1.48.273h-2.97Zm1.17-1.003h1.687c.56 0 .961-.108 1.204-.325.242-.217.363-.489.363-.814 0-.245-.062-.47-.186-.674a1.325 1.325 0 0 0-.53-.488 1.698 1.698 0 0 0-.81-.182h-1.729v2.483Zm0-3.395h1.566c.262 0 .498-.05.708-.151.212-.101.38-.242.503-.424.126-.184.19-.401.19-.651 0-.32-.113-.59-.338-.806-.224-.217-.569-.326-1.033-.326h-1.597v2.358Zm6.821 2.812 2.562-4.227h1.22V38h-1.11v-4.231L34.965 38h-1.23v-5.813h1.108v4.227Zm4.735 3.263V37.02h.473c.121-.111.223-.244.306-.398.086-.154.158-.337.216-.548.06-.212.111-.46.152-.742.04-.285.075-.61.106-.977l.181-2.168h3.952v4.833h.893v2.657h-1.105V38h-4.054v1.677h-1.12Zm1.684-2.657h2.596v-3.864h-1.831l-.122 1.2c-.058.61-.13 1.14-.22 1.589-.087.447-.229.805-.423 1.075Zm11.023 2.96v-9.731h1.132v9.73h-1.132Zm0-1.863c-.411 0-.786-.07-1.124-.212a2.517 2.517 0 0 1-.874-.613 2.777 2.777 0 0 1-.568-.95 3.623 3.623 0 0 1-.197-1.222c0-.452.066-.862.197-1.23.134-.369.323-.685.568-.95.245-.265.536-.47.874-.613a2.842 2.842 0 0 1 1.124-.216h.28v6.006h-.28Zm0-.953h.16v-4.1h-.16c-.272 0-.51.056-.711.167-.202.109-.37.259-.504.45-.133.19-.234.408-.303.655a3.043 3.043 0 0 0-.098.784c0 .368.06.708.178 1.018.118.308.298.556.537.745.24.187.54.28.901.28Zm1.132.953h-.284v-6.006h.284c.411 0 .786.072 1.124.216.338.144.628.348.87.613.245.265.433.581.564.95.134.368.2.778.2 1.23 0 .446-.066.854-.2 1.222-.13.369-.319.685-.564.95-.242.265-.532.47-.87.613a2.888 2.888 0 0 1-1.124.212Zm0-.953c.272 0 .51-.053.711-.16a1.45 1.45 0 0 0 .504-.446c.133-.192.233-.41.299-.655.065-.247.098-.508.098-.783 0-.366-.06-.704-.178-1.014a1.68 1.68 0 0 0-.533-.754c-.24-.191-.54-.287-.901-.287h-.163v4.099h.163Zm6.465.953c-.545 0-1.02-.125-1.427-.374-.406-.25-.721-.6-.946-1.049-.224-.449-.337-.974-.337-1.574 0-.603.113-1.13.337-1.582.225-.452.54-.803.946-1.052.407-.25.882-.375 1.427-.375s1.02.125 1.427.375c.406.25.722.6.946 1.052.225.451.337.979.337 1.582 0 .6-.112 1.125-.337 1.574-.224.45-.54.799-.946 1.049-.406.25-.882.374-1.427.374Zm.004-.95c.353 0 .646-.093.878-.28.232-.186.404-.435.515-.745.113-.31.17-.653.17-1.026 0-.37-.057-.712-.17-1.022a1.665 1.665 0 0 0-.515-.753c-.232-.19-.525-.284-.878-.284-.356 0-.651.095-.886.284-.232.19-.405.44-.518.753-.111.31-.167.651-.167 1.022 0 .373.056.715.167 1.026.113.31.286.559.518.745.235.187.53.28.886.28Zm3.97 3.013v-7.993h1.104v.942h.095a3.16 3.16 0 0 1 .284-.42c.123-.159.295-.298.514-.416.22-.121.51-.182.871-.182.47 0 .888.119 1.257.356.368.237.657.579.866 1.025.212.447.318.984.318 1.613 0 .628-.105 1.167-.314 1.616-.21.446-.497.79-.863 1.033-.366.24-.783.36-1.253.36-.353 0-.642-.06-.866-.178a1.641 1.641 0 0 1-.523-.417 3.146 3.146 0 0 1-.291-.424h-.068v3.085h-1.132Zm1.108-5.087c0 .41.06.767.178 1.075.118.308.29.549.515.723.224.172.5.257.825.257.338 0 .62-.09.847-.268.228-.182.4-.428.515-.738.119-.31.178-.66.178-1.049a2.89 2.89 0 0 0-.174-1.033 1.581 1.581 0 0 0-.515-.723c-.227-.176-.51-.265-.851-.265-.328 0-.606.085-.833.254-.225.169-.395.405-.51.708a2.952 2.952 0 0 0-.175 1.06Zm8.731 1.507 1.878-4.413h.976L74.116 38h-.84l-2.385-5.813h.965l1.84 4.413Zm-2.153-4.413V38h-1.109v-5.813h1.109ZM75.879 38v-5.813h1.102V38h-1.102Zm3.719-1.586 2.562-4.227h1.219V38h-1.11v-4.231L79.72 38h-1.23v-5.813h1.109v4.227Z"/><rect width="245.131" height="29.297" x="26.41" y="49.968" fill="#fff" rx="4.509"/><rect width="117.237" height="20.279" x="30.919" y="54.477" fill="#EFEFF6" rx="3.279"/><path fill="#262541" d="M75.107 61.26h1.396c.59 0 1.114.13 1.571.389.46.257.819.62 1.079 1.086.262.465.393 1.005.393 1.62 0 .61-.13 1.147-.393 1.609-.26.461-.62.822-1.079 1.082-.457.257-.98.386-1.57.386h-1.397c-.59 0-1.115-.127-1.575-.382a2.805 2.805 0 0 1-1.082-1.075c-.26-.46-.39-.995-.39-1.608 0-.619.131-1.161.394-1.628.262-.467.622-.83 1.078-1.09.46-.26.984-.39 1.575-.39Zm0 1.01c-.404 0-.748.084-1.033.253a1.634 1.634 0 0 0-.655.72c-.151.312-.227.687-.227 1.123 0 .427.076.794.227 1.102.154.305.373.541.658.708.285.164.629.246 1.03.246h1.4c.401 0 .743-.082 1.026-.246a1.62 1.62 0 0 0 .65-.712c.152-.31.228-.68.228-1.109 0-.431-.076-.802-.227-1.113a1.611 1.611 0 0 0-.651-.719c-.283-.169-.625-.253-1.026-.253h-1.4Zm1.275-2.04v8.205h-1.147V60.23h1.147Zm6.977 8.005c-.545 0-1.021-.125-1.427-.375-.407-.25-.722-.6-.947-1.049-.224-.449-.336-.974-.336-1.574 0-.603.112-1.13.337-1.582.224-.452.54-.802.946-1.052.406-.25.882-.375 1.427-.375s1.02.125 1.426.375c.407.25.722.6.947 1.052.224.452.337.979.337 1.582 0 .6-.113 1.125-.337 1.574-.225.45-.54.799-.947 1.049-.406.25-.881.374-1.426.374Zm.003-.95c.354 0 .646-.094.878-.28.233-.187.404-.436.515-.746.114-.31.17-.652.17-1.026 0-.37-.056-.711-.17-1.022a1.664 1.664 0 0 0-.515-.753c-.232-.19-.524-.284-.878-.284-.355 0-.65.095-.885.284-.232.19-.405.44-.519.753-.11.31-.166.651-.166 1.022 0 .374.055.715.166 1.026.114.31.287.559.519.745.234.187.53.28.885.28Zm3.97 3.012v-7.993h1.105v.942h.094c.066-.12.16-.26.284-.42.124-.159.296-.298.515-.416.22-.121.51-.182.87-.182.47 0 .889.119 1.257.356.368.237.657.579.867 1.025.212.447.318.985.318 1.613s-.105 1.167-.314 1.616c-.21.447-.498.791-.863 1.033-.366.24-.784.36-1.253.36-.353 0-.642-.06-.867-.178a1.64 1.64 0 0 1-.522-.416 3.146 3.146 0 0 1-.292-.424h-.068v3.084h-1.131Zm1.109-5.087c0 .41.059.768.177 1.075.119.308.29.55.515.723.225.172.5.258.825.258.338 0 .62-.09.848-.27.227-.18.399-.427.515-.737.118-.31.178-.66.178-1.049a2.89 2.89 0 0 0-.174-1.033 1.581 1.581 0 0 0-.515-.723c-.227-.176-.511-.265-.852-.265-.328 0-.605.085-.832.254-.225.17-.395.405-.511.708a2.951 2.951 0 0 0-.174 1.06Zm8.731 1.507 1.877-4.413h.977l-2.434 5.813h-.84l-2.384-5.813h.965l1.839 4.413Zm-2.153-4.413v5.813h-1.11v-5.813h1.11Zm4.337 5.813v-5.813h1.101v5.813h-1.101Zm3.718-1.586 2.563-4.227h1.218v5.813h-1.109v-4.231l-2.551 4.231h-1.23v-5.813h1.109v4.227Z"/><path fill="#575775" d="M186.793 60.366h1.12l2.634 6.434h.091l2.634-6.434h1.12v7.751h-.878v-5.889h-.075l-2.423 5.89h-.847l-2.423-5.89h-.075v5.89h-.878v-7.752Zm11.071 7.887c-.368 0-.703-.069-1.003-.208a1.718 1.718 0 0 1-.715-.61c-.177-.267-.265-.59-.265-.968 0-.333.065-.603.197-.81.131-.21.306-.373.526-.492.219-.119.461-.207.726-.265.268-.06.536-.108.806-.144.354-.045.64-.08.86-.102.222-.025.383-.067.484-.125.103-.058.155-.159.155-.302v-.03c0-.374-.102-.664-.306-.871-.202-.207-.509-.31-.92-.31-.426 0-.761.093-1.003.28-.242.186-.413.386-.511.597l-.848-.302c.152-.354.353-.629.606-.825.255-.2.532-.339.832-.417.303-.08.601-.12.894-.12.186 0 .401.022.643.067.245.043.481.133.708.269.229.136.42.342.571.617.152.275.227.643.227 1.105v3.83h-.893v-.787h-.045a1.592 1.592 0 0 1-.303.405 1.74 1.74 0 0 1-.564.367c-.235.101-.521.151-.859.151Zm.136-.802c.353 0 .651-.07.893-.208a1.42 1.42 0 0 0 .742-1.23v-.818c-.038.046-.121.087-.25.125a4.195 4.195 0 0 1-.439.095 20.47 20.47 0 0 1-.855.113 3.42 3.42 0 0 0-.651.148 1.119 1.119 0 0 0-.484.299c-.122.131-.182.31-.182.538 0 .31.115.544.344.703.232.157.526.235.882.235Zm8.049-2.65v.833h-3.209v-.832h3.209Zm-2.997-2.497v5.813h-.893v-5.813h.893Zm3.679 0v5.813h-.894v-5.813h.894Zm1.631 5.813v-5.813h.893v5.813h-.893Zm.454-6.782a.634.634 0 0 1-.45-.178.57.57 0 0 1-.186-.428.57.57 0 0 1 .186-.427.634.634 0 0 1 .45-.178c.174 0 .323.06.447.178a.566.566 0 0 1 .189.427c0 .167-.063.31-.189.428a.624.624 0 0 1-.447.178Zm1.712 6.782 2.361-2.952-2.331-2.861h1.06l1.938 2.483h.484v-2.483h.893v2.483h.469l1.938-2.483h1.06l-2.316 2.861 2.346 2.952h-1.075l-1.968-2.498h-.454v2.498h-.893V65.62h-.454l-1.983 2.498h-1.075Zm9.179 0v-5.813h.893v2.528h.59l2.09-2.528h1.15l-2.346 2.8 2.376 3.013h-1.15l-1.908-2.452h-.802v2.452h-.893Zm6.617-1.317 2.801-4.496h1.03v5.813h-.894v-4.496l-2.785 4.496h-1.045v-5.813h.893V66.8Z"/><rect width="245.131" height="29.297" x="26.41" y="49.968" stroke="#F0F0F4" stroke-width=".82" rx="4.509"/><path fill="#262541" d="m31.45 107.676-2.604-3.474h-.825v3.474h-1.17v-7.751h1.17v3.274h.382l2.93-3.274h1.427l-3.1 3.47 3.217 4.281H31.45Zm4.442.117c-.546 0-1.021-.125-1.427-.374a2.53 2.53 0 0 1-.947-1.049c-.224-.449-.336-.974-.336-1.574 0-.603.112-1.131.336-1.582.225-.452.54-.803.947-1.052.406-.25.881-.375 1.426-.375.546 0 1.021.125 1.427.375.407.249.722.6.947 1.052.224.451.336.979.336 1.582 0 .6-.112 1.125-.337 1.574a2.53 2.53 0 0 1-.946 1.049c-.406.249-.881.374-1.426.374Zm.003-.95c.353 0 .646-.093.878-.28.232-.186.404-.435.515-.745a2.97 2.97 0 0 0 .17-1.026c0-.371-.056-.711-.17-1.022a1.662 1.662 0 0 0-.515-.753c-.232-.189-.525-.284-.878-.284-.356 0-.65.095-.885.284-.232.189-.405.44-.519.753a3.018 3.018 0 0 0-.166 1.022c0 .373.055.715.166 1.026.114.31.287.559.519.745.234.187.53.28.885.28Zm7.232-.567 1.877-4.413h.977l-2.434 5.813h-.84l-2.385-5.813h.966l1.839 4.413Zm-2.154-4.413v5.813h-1.108v-5.813h1.108Zm4.338 5.813v-5.813h1.101v5.813h-1.101Zm4.301.129c-.368 0-.701-.068-.999-.205a1.679 1.679 0 0 1-.708-.601c-.171-.263-.257-.585-.257-.966 0-.328.063-.598.19-.809.125-.212.296-.38.51-.504.215-.124.454-.217.72-.28.264-.063.534-.111.81-.144l.847-.098c.217-.028.375-.072.473-.133.098-.06.148-.159.148-.295v-.026c0-.331-.094-.587-.28-.769-.185-.181-.46-.272-.826-.272-.38 0-.68.084-.9.253a1.357 1.357 0 0 0-.45.557l-1.064-.242c.126-.354.31-.639.552-.856.245-.219.526-.378.844-.477a3.293 3.293 0 0 1 1.003-.151c.232 0 .478.028.738.083.263.053.508.152.734.295.23.144.418.35.564.617.147.265.22.61.22 1.034v3.86h-1.105v-.795h-.046c-.073.147-.182.29-.329.432a1.767 1.767 0 0 1-.564.352c-.23.093-.504.14-.825.14Zm.246-.909c.313 0 .58-.061.803-.185.224-.124.394-.285.51-.485.12-.201.178-.417.178-.647v-.749a.59.59 0 0 1-.234.113 3.547 3.547 0 0 1-.39.087c-.147.023-.289.045-.428.065l-.348.045c-.22.028-.42.075-.602.14-.179.066-.323.16-.431.284-.106.121-.16.283-.16.485 0 .28.104.492.311.635.207.142.47.212.791.212Zm8.07-2.615v.98H54.78v-.98h3.15Zm-2.83-2.418v5.813h-1.11v-5.813h1.11Zm3.621 0v5.813h-1.105v-5.813h1.105Zm.946 7.49v-2.657h.474c.12-.111.223-.244.306-.398.086-.154.158-.336.216-.548.06-.212.11-.46.151-.742.04-.285.076-.611.106-.977l.182-2.168h3.951v4.833h.893v2.657H64.84v-1.677h-4.053v1.677h-1.12Zm1.685-2.657h2.596v-3.864h-1.832l-.121 1.199a16.383 16.383 0 0 1-.22 1.59c-.088.447-.23.805-.423 1.075Zm7.392 1.109c-.368 0-.701-.068-.999-.205a1.679 1.679 0 0 1-.708-.601c-.171-.263-.257-.585-.257-.966 0-.328.063-.598.19-.809a1.4 1.4 0 0 1 .51-.504c.215-.124.454-.217.72-.28.264-.063.534-.111.81-.144l.847-.098c.217-.028.375-.072.473-.133.098-.06.148-.159.148-.295v-.026c0-.331-.094-.587-.28-.769-.185-.181-.46-.272-.825-.272-.381 0-.682.084-.901.253a1.357 1.357 0 0 0-.45.557l-1.064-.242c.126-.354.31-.639.552-.856.245-.219.526-.378.844-.477a3.292 3.292 0 0 1 1.003-.151c.233 0 .478.028.738.083.263.053.507.152.735.295.23.144.417.35.563.617.147.265.22.61.22 1.034v3.86h-1.105v-.795h-.046c-.073.147-.182.29-.329.432a1.765 1.765 0 0 1-.564.352c-.23.093-.504.14-.825.14Zm.246-.909c.313 0 .58-.061.803-.185.224-.124.394-.285.51-.485.12-.201.178-.417.178-.647v-.749a.591.591 0 0 1-.234.113 3.542 3.542 0 0 1-.39.087c-.146.023-.289.045-.428.065l-.348.045c-.22.028-.42.075-.602.14-.179.066-.323.16-.431.284-.106.121-.16.283-.16.485 0 .28.104.492.311.635.207.142.47.212.791.212Zm7.042.78v-7.751h1.048l3.361 5.745h.072v-5.745h1.063v7.751H80.53l-3.35-5.707h-.072v5.707H76.03Zm6.528-2.32v-.806h3.316v.806h-3.316Zm1.654-1.457c-.376 0-.701-.077-.976-.231a1.603 1.603 0 0 1-.632-.64 1.94 1.94 0 0 1-.223-.946v-.454c0-.358.074-.674.223-.946.149-.273.36-.486.632-.64.272-.154.594-.23.965-.23.376 0 .699.076.969.23.272.154.482.367.628.64.15.272.224.588.224.946v.454c0 .356-.074.67-.22.943a1.58 1.58 0 0 1-.625.643c-.27.154-.591.231-.965.231Zm0-.818c.278 0 .487-.091.629-.272.14-.184.212-.427.212-.727v-.454c0-.298-.071-.536-.212-.715-.142-.179-.355-.269-.64-.269-.283 0-.494.09-.636.269-.141.179-.212.417-.212.715v.454c0 .3.07.543.212.727.144.181.36.272.647.272Zm6.3-3.156v7.751h-1.174v-6.578h-.045l-1.855 1.211v-1.12l1.934-1.264h1.14Z"/><rect width="245.951" height="66.19" x="26" y="119.235" fill="#EFEFF6" rx="3.279"/><path fill="#575775" d="M36.207 130.935h1.397c.59 0 1.114.13 1.57.39.46.257.82.62 1.079 1.086.262.465.394 1.005.394 1.62 0 .611-.132 1.147-.394 1.609-.26.461-.62.822-1.079 1.082-.456.257-.98.386-1.57.386h-1.397c-.59 0-1.115-.127-1.574-.382a2.804 2.804 0 0 1-1.083-1.075c-.26-.459-.39-.995-.39-1.608 0-.619.132-1.161.394-1.628.262-.467.622-.83 1.079-1.09.459-.26.984-.39 1.574-.39Zm0 1.011c-.404 0-.748.084-1.033.253a1.64 1.64 0 0 0-.655.719c-.151.313-.227.688-.227 1.125 0 .426.076.793.227 1.101.154.305.373.541.659.708.285.164.628.246 1.03.246h1.4c.4 0 .742-.082 1.025-.246.285-.167.502-.404.651-.712.151-.31.227-.68.227-1.109 0-.431-.076-.802-.227-1.113a1.618 1.618 0 0 0-.65-.719c-.284-.169-.625-.253-1.026-.253h-1.4Zm1.276-2.04v8.205h-1.147v-8.205h1.147Zm5.242 10.067c-.169 0-.323-.014-.461-.041a1.448 1.448 0 0 1-.31-.084l.272-.927c.207.056.39.08.552.072a.662.662 0 0 0 .428-.182c.126-.113.237-.299.333-.556l.14-.386-2.127-5.889h1.211l1.473 4.511h.06l1.472-4.511h1.215l-2.395 6.589a2.618 2.618 0 0 1-.424.768 1.647 1.647 0 0 1-.614.477 2.005 2.005 0 0 1-.825.159Zm4.996-7.017v-.976h4.905v.976H50.73v4.837h-1.105v-4.837h-1.904Zm10.587-3.141.47.715a1.542 1.542 0 0 1-.595.341 3.45 3.45 0 0 1-.76.125c-.288.015-.617.029-.988.041-.42.013-.764.104-1.034.273-.27.166-.478.414-.624.742-.144.325-.237.734-.28 1.226h.072c.19-.361.451-.631.787-.81a2.397 2.397 0 0 1 1.14-.269c.469 0 .886.108 1.252.322.366.215.654.529.863.942.212.412.318.915.318 1.511 0 .603-.111 1.124-.333 1.563-.22.439-.53.778-.931 1.018-.399.237-.87.356-1.412.356-.542 0-1.016-.123-1.42-.368-.4-.247-.712-.613-.934-1.097-.22-.485-.33-1.083-.33-1.794v-.575c0-1.33.238-2.331.712-3.002.475-.671 1.184-1.015 2.127-1.033.306-.008.578-.009.818-.004.24.003.449-.009.628-.034a.932.932 0 0 0 .454-.189Zm-2.051 7.146c.315 0 .587-.08.814-.239.23-.161.406-.39.53-.685a2.69 2.69 0 0 0 .185-1.045c0-.393-.062-.727-.186-1.002a1.392 1.392 0 0 0-.53-.629 1.506 1.506 0 0 0-.825-.219c-.237 0-.449.041-.635.125-.187.08-.347.2-.481.359a1.727 1.727 0 0 0-.307.583 2.8 2.8 0 0 0-.113.783c0 .601.137 1.079.412 1.435.278.356.656.534 1.136.534Zm6.385.95c-.545 0-1.02-.125-1.427-.375a2.523 2.523 0 0 1-.946-1.049c-.225-.449-.337-.973-.337-1.574 0-.603.112-1.13.337-1.582a2.52 2.52 0 0 1 .946-1.052c.406-.25.882-.375 1.427-.375s1.02.125 1.427.375c.406.25.721.6.946 1.052.224.452.337.979.337 1.582 0 .601-.113 1.125-.337 1.574-.225.45-.54.799-.946 1.049-.407.25-.882.375-1.427.375Zm.003-.95c.354 0 .646-.094.879-.281.232-.186.403-.435.514-.745.114-.31.17-.652.17-1.026 0-.371-.056-.711-.17-1.022a1.662 1.662 0 0 0-.514-.753c-.233-.189-.525-.284-.879-.284-.355 0-.65.095-.885.284-.232.189-.405.44-.519.753a3.015 3.015 0 0 0-.166 1.022c0 .374.055.716.166 1.026.114.31.287.559.519.745.235.187.53.281.886.281Zm3.512.832-.004-.98h.208a.75.75 0 0 0 .405-.102.753.753 0 0 0 .273-.356c.07-.167.125-.396.162-.689.038-.295.066-.666.084-1.113l.102-2.573h4.057v5.813h-1.109v-4.837h-1.9l-.09 1.976a7.962 7.962 0 0 1-.148 1.256c-.073.359-.18.658-.322.897a1.39 1.39 0 0 1-.545.534c-.222.116-.492.174-.81.174h-.363Zm6.796 0v-5.813h1.132v2.437h.545l1.919-2.437h1.4l-2.252 2.827 2.279 2.986h-1.404l-1.753-2.324h-.734v2.324h-1.132Zm7.01-1.586 2.563-4.227h1.219v5.813h-1.11v-4.231l-2.55 4.231h-1.23v-5.813h1.109v4.227Z"/><rect width="112.318" height="28.694" x="32.968" y="146.482" fill="#fff" rx="4.509"/><rect width="13.117" height="13.117" x="42.397" y="154.271" fill="#fff" rx="1.64"/><rect width="9.838" height="9.838" x="44.036" y="155.91" fill="#2946E1" rx="1.64"/><path fill="#262541" d="M69.249 159.663h-.939a1.95 1.95 0 0 0-.791-1.227 2.136 2.136 0 0 0-.647-.318 2.607 2.607 0 0 0-.742-.106c-.47 0-.894.119-1.275.356-.379.237-.68.587-.905 1.049-.222.461-.333 1.028-.333 1.699s.111 1.237.333 1.699c.225.462.526.811.904 1.049.382.237.807.355 1.276.355.257 0 .505-.035.742-.106a2.15 2.15 0 0 0 .647-.314 1.993 1.993 0 0 0 .791-1.23h.939c-.071.396-.2.751-.386 1.064a2.894 2.894 0 0 1-.697.798c-.277.217-.589.383-.935.496-.343.114-.71.17-1.101.17-.661 0-1.249-.161-1.764-.484-.514-.323-.92-.782-1.215-1.378-.295-.595-.442-1.302-.442-2.119 0-.818.147-1.524.442-2.12.296-.595.7-1.054 1.215-1.377.515-.323 1.103-.485 1.764-.485.391 0 .758.057 1.101.171.346.113.658.28.935.499.278.217.51.482.697.795.186.31.315.665.386 1.064Zm2.288 4.011 2.801-4.496h1.03v5.813h-.893v-4.496l-2.786 4.496h-1.045v-5.813h.893v4.496Zm9.357-1.998v.833h-3.21v-.833h3.21Zm-2.997-2.498v5.813h-.893v-5.813h.893Zm3.679 0v5.813h-.894v-5.813h.894Zm1.63 5.813v-5.813h.894v5.813h-.893Zm.455-6.782a.634.634 0 0 1-.45-.178.57.57 0 0 1-.186-.427c0-.167.062-.309.186-.428a.634.634 0 0 1 .45-.178.62.62 0 0 1 .447.178c.126.119.189.261.189.428a.564.564 0 0 1-.19.427.62.62 0 0 1-.446.178Zm2.968 5.465 2.8-4.496h1.03v5.813h-.893v-4.496l-2.785 4.496h-1.045v-5.813h.893v4.496Zm2.21-6.434h.833c0 .409-.141.743-.424 1.003-.282.26-.666.39-1.15.39-.477 0-.857-.13-1.14-.39-.28-.26-.42-.594-.42-1.003h.833c0 .197.054.37.163.519.11.149.299.223.564.223.265 0 .454-.074.567-.223a.82.82 0 0 0 .174-.519Z"/><path fill="#575775" d="M129.589 162.759a.41.41 0 0 1-.58 0l-3.279-3.279a.41.41 0 0 1 .29-.7h6.559a.41.41 0 0 1 .289.7l-3.279 3.279Z"/><rect width="112.318" height="28.694" x="32.968" y="146.482" stroke="#F0F0F4" stroke-width=".82" rx="4.509"/><path fill="#575775" d="M153.209 130.042h1.158v6.737h2.558v-6.737h1.158v6.737h2.551v-6.737h1.155v7.751h-8.58v-7.751Zm12.747 7.869c-.545 0-1.021-.125-1.427-.375a2.522 2.522 0 0 1-.946-1.049c-.225-.449-.337-.973-.337-1.574 0-.603.112-1.13.337-1.582.224-.452.54-.802.946-1.052.406-.25.882-.375 1.427-.375s1.02.125 1.427.375c.406.25.721.6.946 1.052.224.452.337.979.337 1.582 0 .601-.113 1.125-.337 1.574-.225.45-.54.799-.946 1.049-.407.25-.882.375-1.427.375Zm.003-.95c.354 0 .646-.094.879-.281.232-.186.403-.435.514-.745.114-.31.171-.652.171-1.026 0-.371-.057-.711-.171-1.022a1.662 1.662 0 0 0-.514-.753c-.233-.189-.525-.284-.879-.284-.355 0-.65.095-.885.284-.232.189-.405.44-.519.753a3.018 3.018 0 0 0-.166 1.022c0 .374.055.716.166 1.026.114.31.287.559.519.745.235.187.53.281.885.281Zm3.97 3.012v-7.993h1.105v.942h.095c.065-.121.16-.261.283-.42.124-.159.296-.298.515-.416.22-.121.51-.182.871-.182.469 0 .888.119 1.256.356.369.237.657.579.867 1.026.212.446.318.984.318 1.612 0 .628-.105 1.167-.314 1.616-.21.447-.497.791-.863 1.033-.366.24-.784.36-1.253.36-.353 0-.642-.06-.867-.178a1.642 1.642 0 0 1-.522-.416 3.19 3.19 0 0 1-.291-.424h-.069v3.084h-1.131Zm1.109-5.086c0 .408.059.767.178 1.074.118.308.29.549.514.723.225.172.5.258.825.258.338 0 .621-.09.848-.269.227-.182.399-.428.515-.738.118-.31.178-.66.178-1.048 0-.384-.058-.728-.174-1.034a1.587 1.587 0 0 0-.515-.723c-.227-.176-.511-.265-.852-.265-.328 0-.605.085-.832.254a1.553 1.553 0 0 0-.511.708 2.955 2.955 0 0 0-.174 1.06Zm4.768-1.931v-.976h4.906v.976h-1.897v4.837h-1.105v-4.837h-1.904Zm7.211 3.251 2.563-4.227h1.218v5.813h-1.109v-4.231l-2.551 4.231h-1.23v-5.813h1.109v4.227Z"/><rect width="112.318" height="28.694" x="152.665" y="146.482" fill="#fff" rx="4.509"/><rect width="13.117" height="13.117" x="162.093" y="154.271" fill="#fff" rx="1.64"/><rect width="9.838" height="9.838" x="163.733" y="155.91" fill="#D62953" rx="1.64"/><path fill="#262541" d="M182.783 157.24h.939v2.589c0 .384.067.685.201.905.133.217.323.371.567.461.245.089.534.133.867.133.209 0 .413-.008.609-.023.197-.018.389-.042.576-.072.189-.03.373-.067.552-.11.182-.042.36-.09.534-.143v.847c-.169.053-.337.101-.504.144-.164.043-.335.08-.514.11-.177.03-.367.054-.572.072a9.334 9.334 0 0 1-.681.023c-.535 0-.995-.077-1.381-.231a1.778 1.778 0 0 1-.886-.746c-.204-.343-.307-.8-.307-1.37v-2.589Zm4.724 0h.938v7.751h-.938v-7.751Zm5.136 7.873c-.56 0-1.044-.124-1.45-.371a2.491 2.491 0 0 1-.935-1.045c-.217-.449-.325-.971-.325-1.567 0-.595.108-1.12.325-1.574.22-.457.525-.813.916-1.068.394-.257.853-.386 1.378-.386.303 0 .602.051.897.152.295.101.564.265.806.492.242.224.435.522.579.893.144.371.216.828.216 1.37v.379h-4.481v-.773h3.572c0-.328-.065-.62-.196-.878a1.486 1.486 0 0 0-.553-.609 1.545 1.545 0 0 0-.84-.223c-.356 0-.664.088-.924.265a1.746 1.746 0 0 0-.594.681c-.139.28-.208.58-.208.901v.514c0 .439.076.812.227 1.117.154.303.367.534.64.693.272.156.589.234.95.234.234 0 .446-.033.635-.098.192-.068.358-.169.496-.303.139-.136.246-.305.322-.507l.863.242c-.091.293-.244.55-.458.772-.215.22-.479.391-.795.515-.315.121-.67.182-1.063.182Zm3.765 2.058v-7.993h.863v.924h.106a8.11 8.11 0 0 1 .273-.386c.118-.159.288-.301.507-.424.222-.127.522-.19.901-.19.489 0 .921.123 1.294.367.374.245.665.592.874 1.041.21.449.315.979.315 1.59 0 .616-.105 1.149-.315 1.601a2.472 2.472 0 0 1-.87 1.044 2.276 2.276 0 0 1-1.283.368c-.373 0-.672-.062-.897-.186a1.668 1.668 0 0 1-.519-.428 5.782 5.782 0 0 1-.28-.401h-.075v3.073h-.894Zm.879-5.086c0 .439.064.826.193 1.162.128.333.316.594.563.783.248.187.551.28.909.28.373 0 .685-.098.935-.295.252-.199.441-.467.567-.802.129-.338.193-.714.193-1.128a3.06 3.06 0 0 0-.189-1.105 1.699 1.699 0 0 0-.564-.784c-.25-.194-.564-.291-.942-.291-.364 0-.669.092-.916.276a1.662 1.662 0 0 0-.56.765 3.143 3.143 0 0 0-.189 1.139Zm5.616 2.906v-5.813h2.377c.626 0 1.123.141 1.491.424.369.283.553.656.553 1.12 0 .353-.105.627-.314.822-.21.191-.479.321-.807.389.215.031.423.106.625.227.204.122.373.288.507.5.134.209.201.467.201.772 0 .298-.076.564-.227.799-.152.234-.369.42-.651.556-.283.136-.621.204-1.015.204h-2.74Zm.848-.817h1.892c.308 0 .549-.073.723-.22.174-.146.261-.345.261-.598 0-.3-.087-.536-.261-.707-.174-.174-.415-.261-.723-.261h-1.892v1.786Zm0-2.559h1.529c.24 0 .445-.032.617-.098a.866.866 0 0 0 .393-.288.726.726 0 0 0 .141-.446.658.658 0 0 0-.307-.575c-.204-.142-.486-.212-.844-.212h-1.529v1.619Zm7.498 3.498c-.524 0-.985-.125-1.381-.375a2.54 2.54 0 0 1-.923-1.049c-.22-.449-.33-.973-.33-1.574 0-.606.11-1.134.33-1.586.222-.451.529-.802.923-1.052.396-.25.857-.375 1.381-.375.525 0 .984.125 1.378.375.396.25.704.601.924 1.052.222.452.333.98.333 1.586 0 .601-.111 1.125-.333 1.574-.22.45-.528.799-.924 1.049-.394.25-.853.375-1.378.375Zm0-.803c.399 0 .727-.102.984-.306.258-.205.448-.473.572-.807.124-.333.185-.693.185-1.082 0-.389-.061-.751-.185-1.086a1.829 1.829 0 0 0-.572-.814c-.257-.207-.585-.31-.984-.31-.398 0-.726.103-.984.31a1.835 1.835 0 0 0-.571.814 3.104 3.104 0 0 0-.186 1.086c0 .389.062.749.186 1.082.124.334.314.602.571.807.258.204.586.306.984.306Zm7.889-2.634v.833h-3.21v-.833h3.21Zm-2.998-2.498v5.813h-.893v-5.813h.893Zm3.679 0v5.813h-.893v-5.813h.893Zm2.525 4.496 2.8-4.496h1.03v5.813h-.894v-4.496l-2.785 4.496h-1.045v-5.813h.894v4.496Zm6.359 0 2.801-4.496h1.029v5.813h-.893v-4.496l-2.786 4.496h-1.044v-5.813h.893v4.496Zm2.21-6.434h.833c0 .409-.142.743-.424 1.003-.283.26-.666.39-1.151.39-.477 0-.856-.13-1.139-.39-.28-.26-.42-.594-.42-1.003h.833c0 .197.054.37.162.519.111.149.299.223.564.223.265 0 .455-.074.568-.223a.82.82 0 0 0 .174-.519Z"/><path fill="#575775" d="M249.285 162.759a.41.41 0 0 1-.579 0l-3.28-3.279a.41.41 0 0 1 .29-.7h6.559a.41.41 0 0 1 .29.7l-3.28 3.279Z"/><rect width="112.318" height="28.694" x="152.665" y="146.482" stroke="#F0F0F4" stroke-width=".82" rx="4.509"/><path fill="#262541" d="m31.45 207.263-2.604-3.474h-.825v3.474h-1.17v-7.751h1.17v3.274h.382l2.93-3.274h1.427l-3.1 3.47 3.217 4.281H31.45Zm4.442.117c-.546 0-1.021-.125-1.427-.374a2.53 2.53 0 0 1-.947-1.049c-.224-.449-.336-.974-.336-1.574 0-.603.112-1.131.336-1.582.225-.452.54-.803.947-1.052.406-.25.881-.375 1.426-.375.546 0 1.021.125 1.427.375.407.249.722.6.947 1.052.224.451.336.979.336 1.582 0 .6-.112 1.125-.337 1.574a2.53 2.53 0 0 1-.946 1.049c-.406.249-.881.374-1.426.374Zm.003-.95c.353 0 .646-.093.878-.28.232-.186.404-.435.515-.745a2.97 2.97 0 0 0 .17-1.026c0-.371-.056-.712-.17-1.022a1.662 1.662 0 0 0-.515-.753c-.232-.189-.525-.284-.878-.284-.356 0-.65.095-.885.284-.232.189-.405.44-.519.753-.11.31-.166.651-.166 1.022 0 .373.055.715.166 1.026.114.31.287.559.519.745.234.187.53.28.885.28Zm7.232-.567 1.877-4.413h.977l-2.434 5.813h-.84l-2.385-5.813h.966l1.839 4.413Zm-2.154-4.413v5.813h-1.108v-5.813h1.108Zm4.338 5.813v-5.813h1.101v5.813h-1.101Zm4.301.129c-.368 0-.701-.069-.999-.205a1.68 1.68 0 0 1-.708-.602c-.171-.262-.257-.584-.257-.965 0-.328.063-.598.19-.81.125-.212.296-.379.51-.503.215-.124.454-.217.72-.28.264-.063.534-.111.81-.144l.847-.098c.217-.028.375-.072.473-.133.098-.06.148-.159.148-.295v-.026c0-.331-.094-.587-.28-.769-.185-.181-.46-.272-.826-.272-.38 0-.68.084-.9.253a1.357 1.357 0 0 0-.45.557l-1.064-.243c.126-.353.31-.638.552-.855.245-.219.526-.378.844-.477a3.293 3.293 0 0 1 1.003-.151c.232 0 .478.028.738.083.263.053.508.152.734.295.23.144.418.35.564.617.147.265.22.61.22 1.033v3.861h-1.105v-.795h-.046c-.073.146-.182.29-.329.432a1.767 1.767 0 0 1-.564.352c-.23.093-.504.14-.825.14Zm.246-.909c.313 0 .58-.062.803-.185.224-.124.394-.285.51-.485.12-.201.178-.417.178-.647v-.749a.59.59 0 0 1-.234.113 3.547 3.547 0 0 1-.39.087c-.147.023-.289.045-.428.065l-.348.045c-.22.028-.42.075-.602.14-.179.066-.323.16-.431.284-.106.121-.16.283-.16.484 0 .281.104.493.311.636.207.142.47.212.791.212Zm8.07-2.615v.98H54.78v-.98h3.15Zm-2.83-2.418v5.813h-1.11v-5.813h1.11Zm3.621 0v5.813h-1.105v-5.813h1.105Zm.946 7.49v-2.657h.474c.12-.111.223-.244.306-.398.086-.154.158-.337.216-.549a5.59 5.59 0 0 0 .151-.741c.04-.285.076-.611.106-.977l.182-2.168h3.951v4.833h.893v2.657H64.84v-1.677h-4.053v1.677h-1.12Zm1.685-2.657h2.596v-3.865h-1.832l-.121 1.2a16.383 16.383 0 0 1-.22 1.59c-.088.446-.23.805-.423 1.075Zm7.392 1.109c-.368 0-.701-.069-.999-.205a1.681 1.681 0 0 1-.708-.602c-.171-.262-.257-.584-.257-.965 0-.328.063-.598.19-.81.125-.212.296-.379.51-.503.215-.124.454-.217.72-.28.264-.063.534-.111.81-.144l.847-.098c.217-.028.375-.072.473-.133.098-.06.148-.159.148-.295v-.026c0-.331-.094-.587-.28-.769-.185-.181-.46-.272-.825-.272-.381 0-.682.084-.901.253a1.357 1.357 0 0 0-.45.557l-1.064-.243c.126-.353.31-.638.552-.855.245-.219.526-.378.844-.477a3.292 3.292 0 0 1 1.003-.151c.233 0 .478.028.738.083.263.053.507.152.735.295.23.144.417.35.563.617.147.265.22.61.22 1.033v3.861h-1.105v-.795h-.046a1.63 1.63 0 0 1-.329.432 1.765 1.765 0 0 1-.564.352c-.23.093-.504.14-.825.14Zm.246-.909c.313 0 .58-.062.803-.185.224-.124.394-.285.51-.485.12-.201.178-.417.178-.647v-.749a.591.591 0 0 1-.234.113 3.542 3.542 0 0 1-.39.087c-.146.023-.289.045-.428.065l-.348.045c-.22.028-.42.075-.602.14-.179.066-.323.16-.431.284-.106.121-.16.283-.16.484 0 .281.104.493.311.636.207.142.47.212.791.212Zm7.042.78v-7.751h1.048l3.361 5.745h.072v-5.745h1.063v7.751H80.53l-3.35-5.707h-.072v5.707H76.03Zm6.528-2.32v-.806h3.316v.806h-3.316Zm1.654-1.457c-.376 0-.701-.077-.976-.231a1.603 1.603 0 0 1-.632-.64 1.94 1.94 0 0 1-.223-.946v-.454c0-.358.074-.674.223-.946.149-.273.36-.486.632-.64a1.93 1.93 0 0 1 .965-.231c.376 0 .699.077.969.231.272.154.482.367.628.64.15.272.224.588.224.946v.454c0 .356-.074.67-.22.942a1.582 1.582 0 0 1-.625.644c-.27.154-.591.231-.965.231Zm0-.818c.278 0 .487-.091.629-.272.14-.184.212-.427.212-.727v-.454c0-.298-.071-.536-.212-.715-.142-.18-.355-.269-.64-.269-.283 0-.494.089-.636.269-.141.179-.212.417-.212.715v.454c0 .3.07.543.212.727.144.181.36.272.647.272Zm3.358 4.595v-.848l2.623-2.717c.28-.296.511-.554.693-.776.184-.225.322-.438.412-.64a1.55 1.55 0 0 0 .137-.643c0-.258-.06-.48-.182-.666a1.184 1.184 0 0 0-.496-.436 1.583 1.583 0 0 0-.708-.155c-.277 0-.52.057-.726.171a1.161 1.161 0 0 0-.477.48 1.515 1.515 0 0 0-.167.727h-1.116c0-.472.108-.884.325-1.238a2.21 2.21 0 0 1 .893-.821 2.754 2.754 0 0 1 1.291-.295c.487 0 .916.097 1.287.291.373.192.665.454.874.787.21.331.314.704.314 1.121 0 .287-.054.569-.162.844-.106.275-.292.581-.557.919-.265.336-.633.743-1.105 1.223l-1.54 1.612v.057h3.49v1.003H87.57Z"/><rect width="245.951" height="66.19" x="26" y="218.822" fill="#EFEFF6" rx="3.279"/><path fill="#575775" d="M36.207 230.522h1.397c.59 0 1.114.13 1.57.39.46.257.82.619 1.079 1.086.262.464.394 1.004.394 1.62 0 .611-.132 1.147-.394 1.609-.26.461-.62.822-1.079 1.082-.456.257-.98.386-1.57.386h-1.397c-.59 0-1.115-.127-1.574-.382a2.81 2.81 0 0 1-1.083-1.075c-.26-.459-.39-.995-.39-1.609 0-.618.132-1.16.394-1.627.262-.467.622-.83 1.079-1.09.459-.26.984-.39 1.574-.39Zm0 1.011c-.404 0-.748.084-1.033.253a1.635 1.635 0 0 0-.655.719c-.151.313-.227.688-.227 1.124 0 .427.076.794.227 1.102.154.305.373.541.659.708.285.164.628.246 1.03.246h1.4c.4 0 .742-.082 1.025-.246.285-.167.502-.404.651-.712.151-.31.227-.68.227-1.109 0-.431-.076-.802-.227-1.113a1.613 1.613 0 0 0-.65-.719c-.284-.169-.625-.253-1.026-.253h-1.4Zm1.276-2.04v8.205h-1.147v-8.205h1.147Zm5.242 10.067c-.169 0-.323-.014-.461-.041a1.448 1.448 0 0 1-.31-.084l.272-.927c.207.055.39.079.552.072a.662.662 0 0 0 .428-.182c.126-.113.237-.299.333-.556l.14-.386-2.127-5.889h1.211l1.473 4.511h.06l1.472-4.511h1.215l-2.395 6.589a2.618 2.618 0 0 1-.424.768 1.647 1.647 0 0 1-.614.477 2.005 2.005 0 0 1-.825.159Zm4.996-7.017v-.976h4.905v.976H50.73v4.837h-1.105v-4.837h-1.904Zm10.587-3.141.47.715a1.542 1.542 0 0 1-.595.341 3.45 3.45 0 0 1-.76.125c-.288.015-.617.029-.988.041-.42.013-.764.104-1.034.273-.27.166-.478.414-.624.742-.144.325-.237.734-.28 1.226h.072c.19-.361.451-.631.787-.81a2.397 2.397 0 0 1 1.14-.269c.469 0 .886.107 1.252.322.366.214.654.529.863.942.212.412.318.915.318 1.51 0 .604-.111 1.125-.333 1.564-.22.439-.53.778-.931 1.018-.399.237-.87.355-1.412.355-.542 0-1.016-.122-1.42-.367-.4-.247-.712-.613-.934-1.097-.22-.485-.33-1.083-.33-1.794v-.576c0-1.329.238-2.33.712-3.001.475-.671 1.184-1.015 2.127-1.033.306-.008.578-.009.818-.004.24.003.449-.009.628-.034a.932.932 0 0 0 .454-.189Zm-2.051 7.145c.315 0 .587-.079.814-.238.23-.161.406-.39.53-.685a2.69 2.69 0 0 0 .185-1.045c0-.393-.062-.728-.186-1.003a1.39 1.39 0 0 0-.53-.628 1.506 1.506 0 0 0-.825-.219c-.237 0-.449.041-.635.125-.187.08-.347.2-.481.359a1.727 1.727 0 0 0-.307.583 2.8 2.8 0 0 0-.113.783c0 .601.137 1.079.412 1.435.278.356.656.533 1.136.533Zm6.385.95c-.545 0-1.02-.124-1.427-.374a2.523 2.523 0 0 1-.946-1.049c-.225-.449-.337-.974-.337-1.574 0-.603.112-1.13.337-1.582a2.52 2.52 0 0 1 .946-1.052c.406-.25.882-.375 1.427-.375s1.02.125 1.427.375c.406.25.721.6.946 1.052.224.452.337.979.337 1.582 0 .6-.113 1.125-.337 1.574-.225.45-.54.799-.946 1.049-.407.25-.882.374-1.427.374Zm.003-.95c.354 0 .646-.093.879-.28.232-.186.403-.435.514-.745.114-.311.17-.652.17-1.026 0-.371-.056-.711-.17-1.022a1.662 1.662 0 0 0-.514-.753c-.233-.189-.525-.284-.879-.284-.355 0-.65.095-.885.284-.232.189-.405.44-.519.753a3.015 3.015 0 0 0-.166 1.022c0 .374.055.715.166 1.026.114.31.287.559.519.745.235.187.53.28.886.28Zm3.512.833-.004-.98h.208a.75.75 0 0 0 .405-.102.758.758 0 0 0 .273-.356c.07-.167.125-.396.162-.689.038-.295.066-.666.084-1.113l.102-2.573h4.057v5.813h-1.109v-4.837h-1.9l-.09 1.976a7.962 7.962 0 0 1-.148 1.256c-.073.359-.18.658-.322.897a1.397 1.397 0 0 1-.545.534c-.222.116-.492.174-.81.174h-.363Zm6.796 0v-5.813h1.132v2.437h.545l1.919-2.437h1.4l-2.252 2.827 2.279 2.986h-1.404l-1.753-2.324h-.734v2.324h-1.132Zm7.01-1.586 2.563-4.227h1.219v5.813h-1.11v-4.231l-2.55 4.231h-1.23v-5.813h1.109v4.227Z"/><rect width="112.318" height="28.694" x="32.968" y="246.069" fill="#fff" rx="4.509"/><rect width="13.117" height="13.117" x="42.397" y="253.858" fill="#fff" rx="1.64"/><rect width="9.838" height="9.838" x="44.036" y="255.497" fill="#FEC90F" rx="1.64"/><path fill="#262541" d="M67.599 256.827v7.751h-.94v-7.751h.94Zm-5.239 7.751 2.514-4.042-2.302-3.709h1.136l2.013 3.437h2.831l2.014-3.437H71.7l-2.316 3.724 2.513 4.027h-1.075l-2.104-3.436h-3.18l-2.119 3.436h-1.06Zm12.707.121c-.525 0-.985-.124-1.382-.374a2.544 2.544 0 0 1-.923-1.049c-.22-.449-.33-.974-.33-1.574 0-.606.11-1.134.33-1.586a2.54 2.54 0 0 1 .923-1.052c.397-.25.857-.375 1.382-.375.525 0 .984.125 1.377.375.397.25.704.6.924 1.052.222.452.333.98.333 1.586 0 .6-.111 1.125-.333 1.574-.22.45-.527.799-.924 1.049-.393.25-.852.374-1.377.374Zm0-.802c.398 0 .726-.102.984-.306.257-.205.448-.474.571-.807.124-.333.186-.693.186-1.082 0-.389-.062-.751-.186-1.086a1.83 1.83 0 0 0-.571-.814c-.258-.207-.586-.31-.984-.31-.399 0-.727.103-.984.31a1.83 1.83 0 0 0-.572.814 3.113 3.113 0 0 0-.185 1.086c0 .389.062.749.185 1.082.124.333.314.602.572.807.257.204.585.306.984.306Zm3.997.681v-5.813h2.377c.626 0 1.123.141 1.491.424.369.282.553.656.553 1.12 0 .353-.105.627-.314.821-.21.192-.478.322-.806.39.214.031.422.106.624.227a1.5 1.5 0 0 1 .507.5c.134.209.201.467.201.772 0 .298-.076.564-.227.799-.151.234-.368.42-.651.556-.283.136-.62.204-1.014.204h-2.74Zm.848-.817h1.893c.307 0 .548-.073.722-.22.175-.146.262-.345.262-.598 0-.3-.087-.536-.261-.707-.175-.174-.416-.262-.723-.262h-1.893v1.787Zm0-2.559h1.53c.239 0 .445-.032.616-.098a.87.87 0 0 0 .394-.288.73.73 0 0 0 .14-.446.66.66 0 0 0-.307-.576c-.204-.141-.486-.212-.844-.212h-1.529v1.62Zm4.804-1.604v-.833h4.723v.833h-1.907v4.98h-.893v-4.98h-1.923Zm6.92 3.663 2.8-4.496h1.03v5.813h-.893v-4.496l-2.786 4.496h-1.045v-5.813h.893v4.496Zm6.359 0 2.801-4.496h1.029v5.813h-.893v-4.496l-2.786 4.496h-1.044v-5.813h.893v4.496Zm2.21-6.434h.833c0 .409-.142.743-.424 1.003-.283.26-.666.39-1.15.39-.478 0-.857-.13-1.14-.39-.28-.26-.42-.594-.42-1.003h.833c0 .197.054.37.162.519.111.149.3.223.564.223.265 0 .455-.074.568-.223a.82.82 0 0 0 .174-.519Z"/><path fill="#575775" d="M129.589 262.346a.41.41 0 0 1-.58 0l-3.279-3.279a.41.41 0 0 1 .29-.7h6.559a.41.41 0 0 1 .289.7l-3.279 3.279Z"/><rect width="112.318" height="28.694" x="32.968" y="246.069" stroke="#F0F0F4" stroke-width=".82" rx="4.509"/><path fill="#575775" d="M153.209 229.629h1.158v6.737h2.558v-6.737h1.158v6.737h2.551v-6.737h1.155v7.751h-8.58v-7.751Zm12.747 7.868c-.545 0-1.021-.124-1.427-.374a2.522 2.522 0 0 1-.946-1.049c-.225-.449-.337-.974-.337-1.574 0-.603.112-1.13.337-1.582.224-.452.54-.802.946-1.052.406-.25.882-.375 1.427-.375s1.02.125 1.427.375c.406.25.721.6.946 1.052.224.452.337.979.337 1.582 0 .6-.113 1.125-.337 1.574-.225.45-.54.799-.946 1.049-.407.25-.882.374-1.427.374Zm.003-.95c.354 0 .646-.093.879-.28.232-.186.403-.435.514-.745.114-.311.171-.652.171-1.026 0-.371-.057-.711-.171-1.022a1.662 1.662 0 0 0-.514-.753c-.233-.189-.525-.284-.879-.284-.355 0-.65.095-.885.284-.232.189-.405.44-.519.753a3.018 3.018 0 0 0-.166 1.022c0 .374.055.715.166 1.026.114.31.287.559.519.745.235.187.53.28.885.28Zm3.97 3.013v-7.993h1.105v.942h.095c.065-.121.16-.261.283-.42.124-.159.296-.298.515-.416.22-.121.51-.182.871-.182.469 0 .888.119 1.256.356.369.237.657.579.867 1.025.212.447.318.985.318 1.613s-.105 1.167-.314 1.616c-.21.446-.497.791-.863 1.033-.366.24-.784.36-1.253.36-.353 0-.642-.06-.867-.178a1.644 1.644 0 0 1-.522-.417 3.124 3.124 0 0 1-.291-.423h-.069v3.084h-1.131Zm1.109-5.087c0 .409.059.767.178 1.075.118.308.29.549.514.723.225.172.5.258.825.258.338 0 .621-.09.848-.269.227-.182.399-.428.515-.738.118-.311.178-.66.178-1.049 0-.383-.058-.728-.174-1.033a1.587 1.587 0 0 0-.515-.723c-.227-.176-.511-.265-.852-.265-.328 0-.605.085-.832.254a1.553 1.553 0 0 0-.511.708 2.95 2.95 0 0 0-.174 1.059Zm4.768-1.93v-.976h4.906v.976h-1.897v4.837h-1.105v-4.837h-1.904Zm7.211 3.251 2.563-4.227h1.218v5.813h-1.109v-4.231l-2.551 4.231h-1.23v-5.813h1.109v4.227Z"/><rect width="112.318" height="28.694" x="152.665" y="246.069" fill="#fff" rx="4.509"/><rect width="13.117" height="13.117" x="162.093" y="253.858" fill="#fff" rx="1.64"/><rect width="9.018" height="9.018" x="164.143" y="255.907" fill="#fff" stroke="#DFDEED" stroke-width=".82" rx="1.23"/><path fill="#262541" d="M182.708 264.578v-7.751h4.678v.833h-3.74v2.422h1.968c.555 0 1.024.091 1.404.273.384.181.674.437.871.768.199.33.299.72.299 1.169 0 .45-.1.846-.299 1.189a2.03 2.03 0 0 1-.871.806c-.38.194-.849.291-1.404.291h-2.906Zm.938-.817h1.968c.354 0 .653-.071.897-.212a1.466 1.466 0 0 0 .754-1.272c0-.371-.143-.69-.428-.957-.285-.27-.693-.405-1.223-.405h-1.968v2.846Zm5.966.817v-5.813h.893v5.813h-.893Zm.454-6.782a.632.632 0 0 1-.45-.178.57.57 0 0 1-.186-.427.57.57 0 0 1 .186-.428.632.632 0 0 1 .45-.178c.174 0 .323.059.447.178a.566.566 0 0 1 .189.428.565.565 0 0 1-.189.427.622.622 0 0 1-.447.178Zm1.56 6.782v-.832h.212c.174 0 .32-.034.436-.102.116-.071.209-.193.28-.368a2.9 2.9 0 0 0 .166-.734 13.2 13.2 0 0 0 .087-1.203l.106-2.574h3.876v5.813h-.893v-4.98h-2.135l-.091 2.074a9.47 9.47 0 0 1-.128 1.26 3.048 3.048 0 0 1-.292.908c-.129.245-.3.429-.515.553-.214.124-.483.185-.806.185h-.303Zm7.695-1.317 2.801-4.496h1.029v5.813h-.893v-4.496l-2.786 4.496h-1.044v-5.813h.893v4.496Zm6.359 0 2.801-4.496h1.029v5.813h-.893v-4.496l-2.785 4.496h-1.045v-5.813h.893v4.496Zm2.21-6.434h.833c0 .409-.141.743-.424 1.003-.282.26-.666.39-1.15.39-.477 0-.857-.13-1.14-.39-.28-.26-.42-.594-.42-1.003h.833c0 .197.054.37.163.519.111.149.299.223.564.223.265 0 .454-.074.567-.223a.82.82 0 0 0 .174-.519Z"/><path fill="#575775" d="M249.285 262.346a.41.41 0 0 1-.579 0l-3.28-3.279a.41.41 0 0 1 .29-.7h6.559a.41.41 0 0 1 .29.7l-3.28 3.279Z"/><rect width="112.318" height="28.694" x="152.665" y="246.069" stroke="#F0F0F4" stroke-width=".82" rx="4.509"/></g><defs><filter id="a" width="300.013" height="314.025" x=".795" y=".795" color-interpolation-filters="sRGB" filterUnits="userSpaceOnUse"><feFlood flood-opacity="0" result="BackgroundImageFix"/><feColorMatrix in="SourceAlpha" result="hardAlpha" values="0 0 0 0 0 0 0 0 0 0 0 0 0 0 0 0 0 0 127 0"/><feOffset dx="2.301" dy="2.301"/><feGaussianBlur stdDeviation="5.753"/><feComposite in2="hardAlpha" operator="out"/><feColorMatrix values="0 0 0 0 0.22084 0 0 0 0 0.22084 0 0 0 0 0.983333 0 0 0 0.1 0"/><feBlend in2="BackgroundImageFix" result="effect1_dropShadow_68_6055"/><feBlend in="SourceGraphic" in2="effect1_dropShadow_68_6055" result="shape"/></filter></defs></svg>