<svg width="301" height="315" viewBox="0 0 301 315" fill="none" xmlns="http://www.w3.org/2000/svg">
<g filter="url(#filter0_d_68_6055)">
<rect x="10" y="10" width="277" height="291.012" rx="4" fill="white" shape-rendering="crispEdges"/>
<path d="M26.8516 38V30.2488H29.6901C30.2402 30.2488 30.6956 30.3397 31.0564 30.5213C31.4172 30.7005 31.6872 30.944 31.8664 31.2518C32.0455 31.5571 32.1351 31.9015 32.1351 32.285C32.1351 32.608 32.0758 32.8805 31.9572 33.1025C31.8386 33.322 31.6797 33.4987 31.4803 33.6324C31.2835 33.7636 31.0665 33.8595 30.8293 33.92V33.9957C31.0867 34.0083 31.3378 34.0916 31.5825 34.2455C31.8298 34.3969 32.0342 34.6126 32.1956 34.8927C32.3571 35.1728 32.4379 35.5134 32.4379 35.9146C32.4379 36.3107 32.3445 36.6665 32.1578 36.9819C31.9736 37.2948 31.6885 37.5433 31.3024 37.7275C30.9164 37.9092 30.4231 38 29.8226 38H26.8516ZM28.0211 36.997H29.7091C30.2692 36.997 30.6704 36.8885 30.9126 36.6716C31.1548 36.4546 31.2759 36.1833 31.2759 35.8578C31.2759 35.6131 31.2141 35.3885 31.0905 35.1841C30.9669 34.9798 30.7902 34.817 30.5606 34.6959C30.3335 34.5748 30.0636 34.5142 29.7507 34.5142H28.0211V36.997ZM28.0211 33.6021H29.5879C29.8504 33.6021 30.0863 33.5517 30.2957 33.4507C30.5076 33.3498 30.6754 33.2085 30.7991 33.0268C30.9252 32.8426 30.9883 32.6256 30.9883 32.3759C30.9883 32.0554 30.876 31.7867 30.6515 31.5697C30.4269 31.3527 30.0825 31.2442 29.6182 31.2442H28.0211V33.6021ZM34.8431 36.4142L37.4054 32.1866H38.6241V38H37.5151V33.7686L34.9642 38H33.7341V32.1866H34.8431V36.4142ZM39.5778 39.6766V37.0197H40.0509C40.172 36.9087 40.2742 36.7763 40.3575 36.6223C40.4433 36.4684 40.5152 36.2855 40.5732 36.0736C40.6338 35.8616 40.6842 35.6143 40.7246 35.3317C40.765 35.0466 40.8003 34.7211 40.8306 34.3553L41.0122 32.1866H44.9635V37.0197H45.8567V39.6766H44.7516V38H40.6981V39.6766H39.5778ZM41.262 37.0197H43.8584V33.1555H42.0265L41.9054 34.3553C41.8474 34.9659 41.7742 35.4958 41.6859 35.9449C41.5976 36.3915 41.4563 36.7498 41.262 37.0197ZM52.2851 39.9794V30.2488H53.4168V39.9794H52.2851ZM52.2851 38.1173C51.8739 38.1173 51.4992 38.0467 51.1611 37.9054C50.823 37.7616 50.5315 37.5572 50.2868 37.2923C50.042 37.0273 49.8528 36.7107 49.7191 36.3423C49.5879 35.9739 49.5223 35.5664 49.5223 35.1198C49.5223 34.6682 49.5879 34.2581 49.7191 33.8898C49.8528 33.5214 50.042 33.2047 50.2868 32.9398C50.5315 32.6748 50.823 32.4705 51.1611 32.3267C51.4992 32.1828 51.8739 32.1109 52.2851 32.1109H52.5652V38.1173H52.2851ZM52.2851 37.1636H52.4441V33.0647H52.2851C52.0126 33.0647 51.7754 33.1202 51.5736 33.2312C51.3717 33.3397 51.2039 33.4898 51.0702 33.6816C50.9365 33.8708 50.8356 34.0891 50.7674 34.3364C50.7018 34.5836 50.669 34.8448 50.669 35.1198C50.669 35.4882 50.7283 35.8276 50.8469 36.1379C50.9655 36.4457 51.1447 36.6943 51.3844 36.8835C51.6241 37.0702 51.9243 37.1636 52.2851 37.1636ZM53.4168 38.1173H53.1329V32.1109H53.4168C53.828 32.1109 54.2027 32.1828 54.5408 32.3267C54.8789 32.4705 55.1691 32.6748 55.4113 32.9398C55.6561 33.2047 55.8441 33.5214 55.9753 33.8898C56.109 34.2581 56.1759 34.6682 56.1759 35.1198C56.1759 35.5664 56.109 35.9739 55.9753 36.3423C55.8441 36.7107 55.6561 37.0273 55.4113 37.2923C55.1691 37.5572 54.8789 37.7616 54.5408 37.9054C54.2027 38.0467 53.828 38.1173 53.4168 38.1173ZM53.4168 37.1636C53.6893 37.1636 53.9265 37.1106 54.1283 37.0046C54.3302 36.8961 54.4979 36.7472 54.6317 36.558C54.7654 36.3662 54.8651 36.148 54.9307 35.9032C54.9963 35.656 55.0291 35.3948 55.0291 35.1198C55.0291 34.7539 54.9698 34.4158 54.8512 34.1055C54.7351 33.7926 54.5572 33.5416 54.3175 33.3523C54.0778 33.1606 53.7776 33.0647 53.4168 33.0647H53.254V37.1636H53.4168ZM59.8821 38.1173C59.3371 38.1173 58.8615 37.9924 58.4552 37.7426C58.049 37.4928 57.7336 37.1434 57.509 36.6943C57.2845 36.2451 57.1722 35.7203 57.1722 35.1198C57.1722 34.5168 57.2845 33.9894 57.509 33.5378C57.7336 33.0861 58.049 32.7354 58.4552 32.4856C58.8615 32.2358 59.3371 32.1109 59.8821 32.1109C60.4271 32.1109 60.9027 32.2358 61.3089 32.4856C61.7152 32.7354 62.0306 33.0861 62.2551 33.5378C62.4797 33.9894 62.592 34.5168 62.592 35.1198C62.592 35.7203 62.4797 36.2451 62.2551 36.6943C62.0306 37.1434 61.7152 37.4928 61.3089 37.7426C60.9027 37.9924 60.4271 38.1173 59.8821 38.1173ZM59.8859 37.1674C60.2391 37.1674 60.5318 37.074 60.7639 36.8873C60.9961 36.7006 61.1676 36.452 61.2787 36.1417C61.3922 35.8313 61.449 35.4894 61.449 35.116C61.449 34.7451 61.3922 34.4045 61.2787 34.0941C61.1676 33.7813 60.9961 33.5302 60.7639 33.341C60.5318 33.1517 60.2391 33.0571 59.8859 33.0571C59.5301 33.0571 59.2349 33.1517 59.0002 33.341C58.7681 33.5302 58.5953 33.7813 58.4817 34.0941C58.3707 34.4045 58.3152 34.7451 58.3152 35.116C58.3152 35.4894 58.3707 35.8313 58.4817 36.1417C58.5953 36.452 58.7681 36.7006 59.0002 36.8873C59.2349 37.074 59.5301 37.1674 59.8859 37.1674ZM63.8551 40.18V32.1866H64.9603V33.129H65.0549C65.1205 33.0079 65.2151 32.8679 65.3388 32.7089C65.4624 32.55 65.634 32.4112 65.8535 32.2926C66.073 32.1715 66.3632 32.1109 66.724 32.1109C67.1933 32.1109 67.6121 32.2295 67.9805 32.4667C68.3489 32.7039 68.6378 33.0458 68.8472 33.4924C69.0592 33.939 69.1651 34.4764 69.1651 35.1047C69.1651 35.7329 69.0604 36.2716 68.851 36.7208C68.6416 37.1674 68.3539 37.5118 67.9881 37.754C67.6222 37.9937 67.2046 38.1135 66.7353 38.1135C66.3821 38.1135 66.0932 38.0542 65.8686 37.9357C65.6466 37.8171 65.4725 37.6783 65.3463 37.5193C65.2202 37.3604 65.123 37.2191 65.0549 37.0954H64.9868V40.18H63.8551ZM64.9641 35.0933C64.9641 35.5021 65.0234 35.8604 65.1419 36.1682C65.2605 36.476 65.4321 36.717 65.6567 36.8911C65.8812 37.0626 66.1563 37.1484 66.4817 37.1484C66.8199 37.1484 67.1024 37.0589 67.3295 36.8797C67.5566 36.698 67.7282 36.452 67.8443 36.1417C67.9628 35.8313 68.0221 35.4819 68.0221 35.0933C68.0221 34.7098 67.9641 34.3654 67.848 34.0601C67.7345 33.7548 67.5629 33.5138 67.3333 33.3372C67.1062 33.1606 66.8224 33.0722 66.4817 33.0722C66.1537 33.0722 65.8762 33.1568 65.6491 33.3258C65.4245 33.4949 65.2542 33.7308 65.1382 34.0336C65.0221 34.3364 64.9641 34.6896 64.9641 35.0933ZM73.6955 36.5996L75.5727 32.1866H76.5492L74.1156 38H73.2754L70.891 32.1866H71.8561L73.6955 36.5996ZM71.542 32.1866V38H70.433V32.1866H71.542ZM75.8793 38V32.1866H76.9807V38H75.8793ZM79.5978 36.4142L82.1601 32.1866H83.3788V38H82.2699V33.7686L79.7189 38H78.4889V32.1866H79.5978V36.4142Z" fill="#262541"/>
<rect x="26.4099" y="49.9685" width="245.131" height="29.2975" rx="4.5091" fill="white"/>
<rect x="30.9189" y="54.4775" width="117.237" height="20.2793" rx="3.27935" fill="#EFEFF6"/>
<path d="M75.1069 61.2592H76.5034C77.0939 61.2592 77.6174 61.3892 78.0741 61.649C78.5333 61.9064 78.8929 62.2685 79.1528 62.7353C79.4152 63.1995 79.5464 63.7395 79.5464 64.3551C79.5464 64.9657 79.4152 65.5019 79.1528 65.9637C78.8929 66.4254 78.5333 66.7862 78.0741 67.0461C77.6174 67.3035 77.0939 67.4321 76.5034 67.4321H75.1069C74.5164 67.4321 73.9916 67.3047 73.5324 67.0499C73.0732 66.7925 72.7124 66.4342 72.45 65.975C72.1901 65.5158 72.0601 64.9796 72.0601 64.3665C72.0601 63.7483 72.1913 63.2058 72.4537 62.739C72.7162 62.2723 73.0757 61.9089 73.5324 61.649C73.9916 61.3892 74.5164 61.2592 75.1069 61.2592ZM75.1069 62.2697C74.7032 62.2697 74.3587 62.3543 74.0736 62.5233C73.7885 62.6898 73.5703 62.9295 73.4189 63.2424C73.2675 63.5553 73.1918 63.93 73.1918 64.3665C73.1918 64.7929 73.2675 65.16 73.4189 65.4679C73.5728 65.7732 73.7923 66.0091 74.0774 66.1756C74.3625 66.3396 74.7057 66.4216 75.1069 66.4216H76.5072C76.9084 66.4216 77.2503 66.3396 77.5329 66.1756C77.818 66.0091 78.035 65.7719 78.1839 65.4641C78.3353 65.1537 78.411 64.7841 78.411 64.3551C78.411 63.9237 78.3353 63.5528 78.1839 63.2424C78.035 62.9295 77.818 62.6898 77.5329 62.5233C77.2503 62.3543 76.9084 62.2697 76.5072 62.2697H75.1069ZM76.3823 60.2298V68.4351H75.2355V60.2298H76.3823ZM83.3586 68.2345C82.8136 68.2345 82.338 68.1096 81.9317 67.8598C81.5255 67.61 81.2101 67.2606 80.9855 66.8114C80.761 66.3623 80.6487 65.8375 80.6487 65.237C80.6487 64.634 80.761 64.1066 80.9855 63.655C81.2101 63.2033 81.5255 62.8526 81.9317 62.6028C82.338 62.353 82.8136 62.2281 83.3586 62.2281C83.9036 62.2281 84.3792 62.353 84.7854 62.6028C85.1917 62.8526 85.5071 63.2033 85.7316 63.655C85.9562 64.1066 86.0685 64.634 86.0685 65.237C86.0685 65.8375 85.9562 66.3623 85.7316 66.8114C85.5071 67.2606 85.1917 67.61 84.7854 67.8598C84.3792 68.1096 83.9036 68.2345 83.3586 68.2345ZM83.3624 67.2845C83.7156 67.2845 84.0083 67.1912 84.2404 67.0045C84.4726 66.8178 84.6441 66.5692 84.7552 66.2589C84.8687 65.9485 84.9255 65.6066 84.9255 65.2332C84.9255 64.8623 84.8687 64.5217 84.7552 64.2113C84.6441 63.8984 84.4726 63.6474 84.2404 63.4582C84.0083 63.2689 83.7156 63.1743 83.3624 63.1743C83.0066 63.1743 82.7114 63.2689 82.4767 63.4582C82.2446 63.6474 82.0718 63.8984 81.9582 64.2113C81.8472 64.5217 81.7917 64.8623 81.7917 65.2332C81.7917 65.6066 81.8472 65.9485 81.9582 66.2589C82.0718 66.5692 82.2446 66.8178 82.4767 67.0045C82.7114 67.1912 83.0066 67.2845 83.3624 67.2845ZM87.3316 70.2972V62.3038H88.4368V63.2462H88.5314C88.597 63.1251 88.6916 62.9851 88.8152 62.8261C88.9389 62.6671 89.1105 62.5284 89.33 62.4098C89.5495 62.2887 89.8397 62.2281 90.2005 62.2281C90.6698 62.2281 91.0886 62.3467 91.457 62.5839C91.8254 62.8211 92.1143 63.1629 92.3237 63.6095C92.5357 64.0561 92.6416 64.5936 92.6416 65.2218C92.6416 65.8501 92.5369 66.3888 92.3275 66.8379C92.1181 67.2845 91.8304 67.629 91.4646 67.8712C91.0987 68.1109 90.6811 68.2307 90.2118 68.2307C89.8586 68.2307 89.5697 68.1714 89.3451 68.0528C89.1231 67.9343 88.949 67.7955 88.8228 67.6365C88.6967 67.4776 88.5995 67.3363 88.5314 67.2126H88.4633V70.2972H87.3316ZM88.4406 65.2105C88.4406 65.6192 88.4999 65.9775 88.6184 66.2854C88.737 66.5932 88.9086 66.8342 89.1332 67.0083C89.3577 67.1798 89.6328 67.2656 89.9582 67.2656C90.2963 67.2656 90.5789 67.176 90.806 66.9969C91.0331 66.8152 91.2047 66.5692 91.3208 66.2589C91.4393 65.9485 91.4986 65.5991 91.4986 65.2105C91.4986 64.827 91.4406 64.4826 91.3245 64.1773C91.211 63.872 91.0394 63.631 90.8098 63.4544C90.5827 63.2777 90.2989 63.1894 89.9582 63.1894C89.6302 63.1894 89.3527 63.274 89.1256 63.443C88.901 63.6121 88.7307 63.848 88.6147 64.1508C88.4986 64.4535 88.4406 64.8068 88.4406 65.2105ZM97.172 66.7168L99.0492 62.3038H100.026L97.5921 68.1172H96.7519L94.3675 62.3038H95.3326L97.172 66.7168ZM95.0185 62.3038V68.1172H93.9095V62.3038H95.0185ZM99.3558 68.1172V62.3038H100.457V68.1172H99.3558ZM103.074 66.5314L105.637 62.3038H106.855V68.1172H105.746V63.8858L103.195 68.1172H101.965V62.3038H103.074V66.5314Z" fill="#262541"/>
<path d="M186.793 60.366H187.913L190.547 66.8001H190.638L193.272 60.366H194.392V68.1172H193.514V62.2281H193.439L191.016 68.1172H190.169L187.746 62.2281H187.671V68.1172H186.793V60.366ZM197.864 68.2534C197.496 68.2534 197.161 68.1841 196.861 68.0453C196.561 67.904 196.322 67.7009 196.146 67.4359C195.969 67.1685 195.881 66.8455 195.881 66.467C195.881 66.134 195.946 65.864 196.078 65.6571C196.209 65.4477 196.384 65.2837 196.604 65.1651C196.823 65.0465 197.065 64.9582 197.33 64.9001C197.598 64.8396 197.866 64.7916 198.136 64.7563C198.49 64.7109 198.776 64.6768 198.996 64.6541C199.218 64.6289 199.379 64.5873 199.48 64.5292C199.583 64.4712 199.635 64.3703 199.635 64.2265V64.1962C199.635 63.8228 199.533 63.5326 199.329 63.3257C199.127 63.1188 198.82 63.0153 198.409 63.0153C197.983 63.0153 197.648 63.1087 197.406 63.2954C197.164 63.4821 196.993 63.6815 196.895 63.8934L196.047 63.5906C196.199 63.2374 196.4 62.9623 196.653 62.7655C196.908 62.5662 197.185 62.4274 197.485 62.3492C197.788 62.2685 198.086 62.2281 198.379 62.2281C198.565 62.2281 198.78 62.2508 199.022 62.2962C199.267 62.3391 199.503 62.4287 199.73 62.565C199.959 62.7012 200.15 62.9068 200.301 63.1819C200.453 63.4569 200.528 63.8253 200.528 64.287V68.1172H199.635V67.33H199.59C199.529 67.4561 199.428 67.5911 199.287 67.7349C199.146 67.8787 198.958 68.0011 198.723 68.102C198.488 68.203 198.202 68.2534 197.864 68.2534ZM198 67.4511C198.353 67.4511 198.651 67.3817 198.893 67.2429C199.138 67.1041 199.322 66.925 199.446 66.7055C199.572 66.486 199.635 66.2551 199.635 66.0129V65.1954C199.597 65.2408 199.514 65.2824 199.385 65.3203C199.259 65.3556 199.113 65.3871 198.946 65.4149C198.782 65.4401 198.622 65.4628 198.466 65.483C198.312 65.5007 198.187 65.5158 198.091 65.5284C197.859 65.5587 197.642 65.6079 197.44 65.676C197.241 65.7416 197.079 65.8413 196.956 65.975C196.834 66.1062 196.774 66.2854 196.774 66.5125C196.774 66.8228 196.889 67.0575 197.118 67.2164C197.35 67.3729 197.644 67.4511 198 67.4511ZM206.049 64.8017V65.6344H202.84V64.8017H206.049ZM203.052 62.3038V68.1172H202.159V62.3038H203.052ZM206.731 62.3038V68.1172H205.837V62.3038H206.731ZM208.362 68.1172V62.3038H209.255V68.1172H208.362ZM208.816 61.3349C208.642 61.3349 208.492 61.2756 208.366 61.157C208.242 61.0384 208.18 60.8959 208.18 60.7293C208.18 60.5628 208.242 60.4203 208.366 60.3017C208.492 60.1831 208.642 60.1238 208.816 60.1238C208.99 60.1238 209.139 60.1831 209.263 60.3017C209.389 60.4203 209.452 60.5628 209.452 60.7293C209.452 60.8959 209.389 61.0384 209.263 61.157C209.139 61.2756 208.99 61.3349 208.816 61.3349ZM210.528 68.1172L212.889 65.1651L210.558 62.3038H211.618L213.556 64.7866H214.04V62.3038H214.933V64.7866H215.402L217.34 62.3038H218.4L216.084 65.1651L218.43 68.1172H217.355L215.387 65.6192H214.933V68.1172H214.04V65.6192H213.586L211.603 68.1172H210.528ZM219.707 68.1172V62.3038H220.6V64.832H221.19L223.28 62.3038H224.43L222.084 65.1045L224.46 68.1172H223.31L221.402 65.6647H220.6V68.1172H219.707ZM226.324 66.8001L229.125 62.3038H230.155V68.1172H229.261V63.6209L226.476 68.1172H225.431V62.3038H226.324V66.8001Z" fill="#575775"/>
<rect x="26.4099" y="49.9685" width="245.131" height="29.2975" rx="4.5091" stroke="#F0F0F4" stroke-width="0.819836"/>
<path d="M31.45 107.676L28.8461 104.202H28.0211V107.676H26.8516V99.9248H28.0211V103.199H28.4033L31.3327 99.9248H32.7596L29.6599 103.395L32.8769 107.676H31.45ZM35.8915 107.793C35.3465 107.793 34.8708 107.668 34.4646 107.419C34.0584 107.169 33.743 106.819 33.5184 106.37C33.2939 105.921 33.1816 105.396 33.1816 104.796C33.1816 104.193 33.2939 103.665 33.5184 103.214C33.743 102.762 34.0584 102.411 34.4646 102.162C34.8708 101.912 35.3465 101.787 35.8915 101.787C36.4365 101.787 36.9121 101.912 37.3183 102.162C37.7245 102.411 38.0399 102.762 38.2645 103.214C38.4891 103.665 38.6013 104.193 38.6013 104.796C38.6013 105.396 38.4891 105.921 38.2645 106.37C38.0399 106.819 37.7245 107.169 37.3183 107.419C36.9121 107.668 36.4365 107.793 35.8915 107.793ZM35.8952 106.843C36.2485 106.843 36.5412 106.75 36.7733 106.563C37.0054 106.377 37.177 106.128 37.288 105.818C37.4016 105.507 37.4583 105.165 37.4583 104.792C37.4583 104.421 37.4016 104.081 37.288 103.77C37.177 103.457 37.0054 103.206 36.7733 103.017C36.5412 102.828 36.2485 102.733 35.8952 102.733C35.5395 102.733 35.2443 102.828 35.0096 103.017C34.7775 103.206 34.6046 103.457 34.4911 103.77C34.3801 104.081 34.3246 104.421 34.3246 104.792C34.3246 105.165 34.3801 105.507 34.4911 105.818C34.6046 106.128 34.7775 106.377 35.0096 106.563C35.2443 106.75 35.5395 106.843 35.8952 106.843ZM43.127 106.276L45.0042 101.863H45.9807L43.5471 107.676H42.7069L40.3225 101.863H41.2876L43.127 106.276ZM40.9734 101.863V107.676H39.8645V101.863H40.9734ZM45.3108 107.676V101.863H46.4121V107.676H45.3108ZM49.6121 107.805C49.2438 107.805 48.9107 107.737 48.613 107.6C48.3152 107.462 48.0793 107.261 47.9052 106.999C47.7336 106.736 47.6479 106.414 47.6479 106.033C47.6479 105.705 47.7109 105.435 47.8371 105.224C47.9633 105.012 48.1336 104.844 48.348 104.72C48.5625 104.596 48.8022 104.503 49.0671 104.44C49.3321 104.377 49.6021 104.329 49.8771 104.296C50.2253 104.256 50.5079 104.223 50.7249 104.198C50.9419 104.17 51.0996 104.126 51.198 104.065C51.2964 104.005 51.3456 103.906 51.3456 103.77V103.744C51.3456 103.413 51.2522 103.157 51.0655 102.975C50.8813 102.794 50.6063 102.703 50.2404 102.703C49.8594 102.703 49.5592 102.787 49.3396 102.956C49.1227 103.123 48.9725 103.308 48.8893 103.513L47.8257 103.271C47.9519 102.917 48.1361 102.632 48.3783 102.415C48.6231 102.196 48.9044 102.037 49.2223 101.938C49.5402 101.837 49.8746 101.787 50.2253 101.787C50.4574 101.787 50.7034 101.815 50.9633 101.87C51.2257 101.923 51.4705 102.022 51.6975 102.165C51.9272 102.309 52.1151 102.515 52.2615 102.782C52.4078 103.047 52.481 103.392 52.481 103.816V107.676H51.3758V106.881H51.3304C51.2573 107.028 51.1475 107.171 51.0012 107.313C50.8548 107.454 50.6668 107.571 50.4372 107.665C50.2076 107.758 49.9326 107.805 49.6121 107.805ZM49.8582 106.896C50.171 106.896 50.4385 106.835 50.6605 106.711C50.8851 106.587 51.0554 106.426 51.1715 106.226C51.2901 106.025 51.3493 105.809 51.3493 105.579V104.83C51.309 104.87 51.2308 104.908 51.1147 104.943C51.0012 104.976 50.8712 105.005 50.7249 105.03C50.5785 105.053 50.436 105.075 50.2972 105.095C50.1584 105.112 50.0423 105.128 49.949 105.14C49.7295 105.168 49.5289 105.215 49.3472 105.28C49.1681 105.346 49.0242 105.44 48.9158 105.564C48.8098 105.685 48.7568 105.847 48.7568 106.049C48.7568 106.329 48.8602 106.541 49.0671 106.684C49.274 106.826 49.5377 106.896 49.8582 106.896ZM57.9282 104.281V105.261H54.7793V104.281H57.9282ZM55.0972 101.863V107.676H53.9883V101.863H55.0972ZM58.7192 101.863V107.676H57.6141V101.863H58.7192ZM59.6654 109.353V106.696H60.1385C60.2596 106.585 60.3618 106.452 60.4451 106.298C60.5309 106.144 60.6028 105.962 60.6608 105.75C60.7214 105.538 60.7718 105.29 60.8122 105.008C60.8526 104.723 60.8879 104.397 60.9182 104.031L61.0998 101.863H65.0511V106.696H65.9443V109.353H64.8392V107.676H60.7857V109.353H59.6654ZM61.3496 106.696H63.946V102.832H62.1141L61.993 104.031C61.935 104.642 61.8618 105.172 61.7735 105.621C61.6852 106.068 61.5439 106.426 61.3496 106.696ZM68.7422 107.805C68.3738 107.805 68.0408 107.737 67.743 107.6C67.4453 107.462 67.2094 107.261 67.0353 106.999C66.8637 106.736 66.7779 106.414 66.7779 106.033C66.7779 105.705 66.841 105.435 66.9671 105.224C67.0933 105.012 67.2636 104.844 67.4781 104.72C67.6926 104.596 67.9323 104.503 68.1972 104.44C68.4621 104.377 68.7321 104.329 69.0071 104.296C69.3553 104.256 69.6379 104.223 69.8549 104.198C70.0719 104.17 70.2296 104.126 70.328 104.065C70.4264 104.005 70.4756 103.906 70.4756 103.77V103.744C70.4756 103.413 70.3823 103.157 70.1955 102.975C70.0113 102.794 69.7363 102.703 69.3705 102.703C68.9895 102.703 68.6892 102.787 68.4697 102.956C68.2527 103.123 68.1026 103.308 68.0193 103.513L66.9558 103.271C67.0819 102.917 67.2661 102.632 67.5084 102.415C67.7531 102.196 68.0344 102.037 68.3524 101.938C68.6703 101.837 69.0046 101.787 69.3553 101.787C69.5875 101.787 69.8335 101.815 70.0934 101.87C70.3558 101.923 70.6005 102.022 70.8276 102.165C71.0572 102.309 71.2452 102.515 71.3915 102.782C71.5379 103.047 71.611 103.392 71.611 103.816V107.676H70.5059V106.881H70.4605C70.3873 107.028 70.2775 107.171 70.1312 107.313C69.9849 107.454 69.7969 107.571 69.5673 107.665C69.3377 107.758 69.0626 107.805 68.7422 107.805ZM68.9882 106.896C69.3011 106.896 69.5685 106.835 69.7906 106.711C70.0151 106.587 70.1854 106.426 70.3015 106.226C70.4201 106.025 70.4794 105.809 70.4794 105.579V104.83C70.439 104.87 70.3608 104.908 70.2447 104.943C70.1312 104.976 70.0013 105.005 69.8549 105.03C69.7086 105.053 69.566 105.075 69.4272 105.095C69.2885 105.112 69.1724 105.128 69.079 105.14C68.8595 105.168 68.6589 105.215 68.4773 105.28C68.2981 105.346 68.1543 105.44 68.0458 105.564C67.9398 105.685 67.8868 105.847 67.8868 106.049C67.8868 106.329 67.9903 106.541 68.1972 106.684C68.4041 106.826 68.6678 106.896 68.9882 106.896ZM76.0297 107.676V99.9248H77.0781L80.439 105.67H80.5109V99.9248H81.5744V107.676H80.5298L77.1803 101.969H77.1084V107.676H76.0297ZM82.5584 105.356V104.55H85.8739V105.356H82.5584ZM84.2124 103.899C83.8364 103.899 83.5109 103.822 83.2359 103.668C82.9634 103.514 82.7527 103.301 82.6039 103.028C82.455 102.756 82.3806 102.44 82.3806 102.082V101.628C82.3806 101.27 82.455 100.954 82.6039 100.682C82.7527 100.409 82.9634 100.196 83.2359 100.042C83.5084 99.8883 83.8301 99.8113 84.201 99.8113C84.577 99.8113 84.8999 99.8883 85.1699 100.042C85.4424 100.196 85.6519 100.409 85.7982 100.682C85.9471 100.954 86.0215 101.27 86.0215 101.628V102.082C86.0215 102.438 85.9483 102.752 85.802 103.025C85.6582 103.297 85.45 103.512 85.1775 103.668C84.9075 103.822 84.5858 103.899 84.2124 103.899ZM84.2124 103.081C84.4899 103.081 84.6994 102.99 84.8407 102.809C84.9819 102.625 85.0526 102.382 85.0526 102.082V101.628C85.0526 101.33 84.9819 101.092 84.8407 100.913C84.6994 100.734 84.4861 100.644 84.201 100.644C83.9184 100.644 83.7065 100.734 83.5652 100.913C83.4239 101.092 83.3532 101.33 83.3532 101.628V102.082C83.3532 102.382 83.4239 102.625 83.5652 102.809C83.709 102.99 83.9247 103.081 84.2124 103.081ZM90.5112 99.9248V107.676H89.3379V101.098H89.2925L87.4379 102.309V101.189L89.372 99.9248H90.5112Z" fill="#262541"/>
<rect x="26" y="119.235" width="245.951" height="66.1902" rx="3.27935" fill="#EFEFF6"/>
<path d="M36.2071 130.935H37.6037C38.1941 130.935 38.7177 131.065 39.1743 131.325C39.6336 131.582 39.9931 131.945 40.253 132.411C40.5154 132.876 40.6466 133.416 40.6466 134.031C40.6466 134.642 40.5154 135.178 40.253 135.64C39.9931 136.101 39.6336 136.462 39.1743 136.722C38.7177 136.979 38.1941 137.108 37.6037 137.108H36.2071C35.6167 137.108 35.0919 136.981 34.6326 136.726C34.1734 136.469 33.8126 136.11 33.5502 135.651C33.2903 135.192 33.1604 134.656 33.1604 134.043C33.1604 133.424 33.2916 132.882 33.554 132.415C33.8164 131.948 34.1759 131.585 34.6326 131.325C35.0919 131.065 35.6167 130.935 36.2071 130.935ZM36.2071 131.946C35.8034 131.946 35.459 132.03 35.1739 132.199C34.8887 132.366 34.6705 132.606 34.5191 132.918C34.3677 133.231 34.292 133.606 34.292 134.043C34.292 134.469 34.3677 134.836 34.5191 135.144C34.673 135.449 34.8925 135.685 35.1776 135.852C35.4628 136.016 35.8059 136.098 36.2071 136.098H37.6075C38.0086 136.098 38.3505 136.016 38.6331 135.852C38.9182 135.685 39.1352 135.448 39.2841 135.14C39.4355 134.83 39.5112 134.46 39.5112 134.031C39.5112 133.6 39.4355 133.229 39.2841 132.918C39.1352 132.606 38.9182 132.366 38.6331 132.199C38.3505 132.03 38.0086 131.946 37.6075 131.946H36.2071ZM37.4826 129.906V138.111H36.3358V129.906H37.4826ZM42.7254 139.973C42.5563 139.973 42.4024 139.959 42.2637 139.932C42.1249 139.906 42.0214 139.879 41.9533 139.848L42.2258 138.921C42.4327 138.977 42.6169 139.001 42.7784 138.993C42.9399 138.985 43.0824 138.925 43.2061 138.811C43.3322 138.698 43.4432 138.512 43.5391 138.255L43.6792 137.869L41.5521 131.98H42.7632L44.2355 136.491H44.2961L45.7683 131.98H46.9832L44.5875 138.569C44.4765 138.872 44.3352 139.128 44.1636 139.337C43.992 139.549 43.7876 139.708 43.5505 139.814C43.3133 139.92 43.0383 139.973 42.7254 139.973ZM47.7213 132.956V131.98H52.6263V132.956H50.7302V137.793H49.625V132.956H47.7213ZM58.3082 129.815L58.7775 130.53C58.6034 130.689 58.4053 130.803 58.1833 130.871C57.9638 130.936 57.7102 130.978 57.4225 130.996C57.1349 131.011 56.8056 131.025 56.4347 131.037C56.0159 131.05 55.6715 131.141 55.4015 131.31C55.1315 131.476 54.9233 131.724 54.777 132.052C54.6332 132.377 54.5398 132.786 54.4969 133.278H54.5688C54.7581 132.917 55.0205 132.647 55.3561 132.468C55.6942 132.289 56.0739 132.199 56.4953 132.199C56.9646 132.199 57.3822 132.307 57.748 132.521C58.1139 132.736 58.4015 133.05 58.611 133.463C58.8229 133.875 58.9289 134.378 58.9289 134.974C58.9289 135.577 58.8179 136.098 58.5958 136.537C58.3763 136.976 58.066 137.315 57.6648 137.555C57.2661 137.792 56.7955 137.911 56.2531 137.911C55.7106 137.911 55.2375 137.788 54.8338 137.543C54.4326 137.296 54.121 136.93 53.8989 136.446C53.6794 135.961 53.5697 135.363 53.5697 134.652V134.077C53.5697 132.747 53.8068 131.746 54.2812 131.075C54.7556 130.404 55.4646 130.06 56.4082 130.042C56.7135 130.034 56.986 130.033 57.2257 130.038C57.4654 130.041 57.6749 130.029 57.854 130.004C58.0357 129.976 58.1871 129.913 58.3082 129.815ZM56.2568 136.961C56.5722 136.961 56.8435 136.881 57.0706 136.722C57.3002 136.561 57.4768 136.332 57.6004 136.037C57.7241 135.742 57.7859 135.394 57.7859 134.992C57.7859 134.599 57.7241 134.265 57.6004 133.99C57.4768 133.715 57.3002 133.505 57.0706 133.361C56.841 133.215 56.5659 133.142 56.2455 133.142C56.0083 133.142 55.7964 133.183 55.6096 133.267C55.4229 133.347 55.2627 133.467 55.129 133.626C54.9978 133.785 54.8956 133.979 54.8224 134.209C54.7518 134.436 54.7139 134.697 54.7089 134.992C54.7089 135.593 54.8464 136.071 55.1214 136.427C55.399 136.783 55.7774 136.961 56.2568 136.961ZM62.6417 137.911C62.0967 137.911 61.6211 137.786 61.2149 137.536C60.8086 137.286 60.4932 136.937 60.2687 136.487C60.0441 136.038 59.9318 135.514 59.9318 134.913C59.9318 134.31 60.0441 133.783 60.2687 133.331C60.4932 132.879 60.8086 132.529 61.2149 132.279C61.6211 132.029 62.0967 131.904 62.6417 131.904C63.1867 131.904 63.6623 132.029 64.0686 132.279C64.4748 132.529 64.7902 132.879 65.0148 133.331C65.2393 133.783 65.3516 134.31 65.3516 134.913C65.3516 135.514 65.2393 136.038 65.0148 136.487C64.7902 136.937 64.4748 137.286 64.0686 137.536C63.6623 137.786 63.1867 137.911 62.6417 137.911ZM62.6455 136.961C62.9988 136.961 63.2914 136.867 63.5236 136.68C63.7557 136.494 63.9273 136.245 64.0383 135.935C64.1518 135.625 64.2086 135.283 64.2086 134.909C64.2086 134.538 64.1518 134.198 64.0383 133.887C63.9273 133.574 63.7557 133.323 63.5236 133.134C63.2914 132.945 62.9988 132.85 62.6455 132.85C62.2897 132.85 61.9945 132.945 61.7599 133.134C61.5277 133.323 61.3549 133.574 61.2414 133.887C61.1303 134.198 61.0748 134.538 61.0748 134.909C61.0748 135.283 61.1303 135.625 61.2414 135.935C61.3549 136.245 61.5277 136.494 61.7599 136.68C61.9945 136.867 62.2897 136.961 62.6455 136.961ZM66.1568 137.793L66.153 136.813H66.3612C66.5227 136.813 66.6577 136.779 66.7662 136.711C66.8772 136.64 66.968 136.522 67.0387 136.355C67.1093 136.188 67.1636 135.959 67.2014 135.666C67.2393 135.371 67.267 135 67.2847 134.553L67.3869 131.98H71.4441V137.793H70.3352V132.956H68.4352L68.3444 134.932C68.3217 135.411 68.2725 135.83 68.1968 136.188C68.1236 136.547 68.0164 136.846 67.8751 137.085C67.7338 137.323 67.5521 137.501 67.3301 137.619C67.1081 137.735 66.8381 137.793 66.5202 137.793H66.1568ZM72.9533 137.793V131.98H74.0849V134.417H74.6299L76.5488 131.98H77.9492L75.6972 134.807L77.9757 137.793H76.5715L74.8192 135.469H74.0849V137.793H72.9533ZM79.9636 136.207L82.5259 131.98H83.7446V137.793H82.6356V133.562L80.0847 137.793H78.8547V131.98H79.9636V136.207Z" fill="#575775"/>
<rect x="32.9685" y="146.482" width="112.318" height="28.6943" rx="4.5091" fill="white"/>
<rect x="42.3967" y="154.271" width="13.1174" height="13.1174" rx="1.63967" fill="white"/>
<rect x="44.0364" y="155.91" width="9.83804" height="9.83804" rx="1.63967" fill="#2946E1"/>
<path d="M69.2487 159.663H68.31C68.2545 159.393 68.1574 159.155 68.0186 158.951C67.8824 158.747 67.7158 158.575 67.519 158.436C67.3247 158.295 67.109 158.189 66.8718 158.118C66.6346 158.048 66.3874 158.012 66.13 158.012C65.6607 158.012 65.2355 158.131 64.8545 158.368C64.4761 158.605 64.1746 158.955 63.95 159.417C63.728 159.878 63.6169 160.445 63.6169 161.116C63.6169 161.787 63.728 162.353 63.95 162.815C64.1746 163.277 64.4761 163.626 64.8545 163.864C65.2355 164.101 65.6607 164.219 66.13 164.219C66.3874 164.219 66.6346 164.184 66.8718 164.113C67.109 164.043 67.3247 163.938 67.519 163.799C67.7158 163.658 67.8824 163.485 68.0186 163.281C68.1574 163.074 68.2545 162.837 68.31 162.569H69.2487C69.178 162.965 69.0493 163.32 68.8626 163.633C68.6759 163.946 68.4438 164.212 68.1662 164.431C67.8887 164.648 67.5771 164.814 67.2314 164.927C66.8882 165.041 66.5211 165.097 66.13 165.097C65.4689 165.097 64.881 164.936 64.3663 164.613C63.8516 164.29 63.4466 163.831 63.1514 163.235C62.8562 162.64 62.7086 161.933 62.7086 161.116C62.7086 160.298 62.8562 159.592 63.1514 158.996C63.4466 158.401 63.8516 157.942 64.3663 157.619C64.881 157.296 65.4689 157.134 66.13 157.134C66.5211 157.134 66.8882 157.191 67.2314 157.305C67.5771 157.418 67.8887 157.585 68.1662 157.804C68.4438 158.021 68.6759 158.286 68.8626 158.599C69.0493 158.909 69.178 159.264 69.2487 159.663ZM71.5375 163.674L74.3382 159.178H75.3677V164.991H74.4745V160.495L71.6889 164.991H70.6443V159.178H71.5375V163.674ZM80.8943 161.676V162.509H77.6849V161.676H80.8943ZM77.8968 159.178V164.991H77.0036V159.178H77.8968ZM81.5756 159.178V164.991H80.6824V159.178H81.5756ZM83.2068 164.991V159.178H84.1V164.991H83.2068ZM83.661 158.209C83.4869 158.209 83.3368 158.15 83.2106 158.031C83.087 157.913 83.0252 157.77 83.0252 157.604C83.0252 157.437 83.087 157.295 83.2106 157.176C83.3368 157.057 83.4869 156.998 83.661 156.998C83.8351 156.998 83.984 157.057 84.1076 157.176C84.2338 157.295 84.2968 157.437 84.2968 157.604C84.2968 157.77 84.2338 157.913 84.1076 158.031C83.984 158.15 83.8351 158.209 83.661 158.209ZM86.6292 163.674L89.4299 159.178H90.4594V164.991H89.5662V160.495L86.7806 164.991H85.736V159.178H86.6292V163.674ZM88.8395 157.24H89.6721C89.6721 157.649 89.5308 157.983 89.2482 158.243C88.9657 158.503 88.5821 158.633 88.0977 158.633C87.6208 158.633 87.2411 158.503 86.9585 158.243C86.6784 157.983 86.5384 157.649 86.5384 157.24H87.371C87.371 157.437 87.4253 157.61 87.5338 157.759C87.6448 157.908 87.8327 157.982 88.0977 157.982C88.3626 157.982 88.5519 157.908 88.6654 157.759C88.7815 157.61 88.8395 157.437 88.8395 157.24Z" fill="#262541"/>
<path d="M129.589 162.759C129.429 162.919 129.169 162.919 129.009 162.759L125.73 159.48C125.613 159.363 125.578 159.186 125.641 159.033C125.705 158.88 125.854 158.78 126.02 158.78H132.579C132.744 158.78 132.894 158.88 132.957 159.033C133.021 159.186 132.986 159.363 132.868 159.48L129.589 162.759Z" fill="#575775"/>
<rect x="32.9685" y="146.482" width="112.318" height="28.6943" rx="4.5091" stroke="#F0F0F4" stroke-width="0.819836"/>
<path d="M153.209 130.042H154.367V136.779H156.925V130.042H158.083V136.779H160.634V130.042H161.789V137.793H153.209V130.042ZM165.956 137.911C165.411 137.911 164.935 137.786 164.529 137.536C164.123 137.286 163.807 136.937 163.583 136.487C163.358 136.038 163.246 135.514 163.246 134.913C163.246 134.31 163.358 133.783 163.583 133.331C163.807 132.879 164.123 132.529 164.529 132.279C164.935 132.029 165.411 131.904 165.956 131.904C166.501 131.904 166.976 132.029 167.383 132.279C167.789 132.529 168.104 132.879 168.329 133.331C168.553 133.783 168.666 134.31 168.666 134.913C168.666 135.514 168.553 136.038 168.329 136.487C168.104 136.937 167.789 137.286 167.383 137.536C166.976 137.786 166.501 137.911 165.956 137.911ZM165.959 136.961C166.313 136.961 166.605 136.867 166.838 136.68C167.07 136.494 167.241 136.245 167.352 135.935C167.466 135.625 167.523 135.283 167.523 134.909C167.523 134.538 167.466 134.198 167.352 133.887C167.241 133.574 167.07 133.323 166.838 133.134C166.605 132.945 166.313 132.85 165.959 132.85C165.604 132.85 165.309 132.945 165.074 133.134C164.842 133.323 164.669 133.574 164.555 133.887C164.444 134.198 164.389 134.538 164.389 134.909C164.389 135.283 164.444 135.625 164.555 135.935C164.669 136.245 164.842 136.494 165.074 136.68C165.309 136.867 165.604 136.961 165.959 136.961ZM169.929 139.973V131.98H171.034V132.922H171.129C171.194 132.801 171.289 132.661 171.412 132.502C171.536 132.343 171.708 132.204 171.927 132.086C172.147 131.965 172.437 131.904 172.798 131.904C173.267 131.904 173.686 132.023 174.054 132.26C174.423 132.497 174.711 132.839 174.921 133.286C175.133 133.732 175.239 134.27 175.239 134.898C175.239 135.526 175.134 136.065 174.925 136.514C174.715 136.961 174.428 137.305 174.062 137.547C173.696 137.787 173.278 137.907 172.809 137.907C172.456 137.907 172.167 137.847 171.942 137.729C171.72 137.61 171.546 137.472 171.42 137.313C171.294 137.154 171.197 137.012 171.129 136.889H171.06V139.973H169.929ZM171.038 134.887C171.038 135.295 171.097 135.654 171.216 135.961C171.334 136.269 171.506 136.51 171.73 136.684C171.955 136.856 172.23 136.942 172.555 136.942C172.893 136.942 173.176 136.852 173.403 136.673C173.63 136.491 173.802 136.245 173.918 135.935C174.036 135.625 174.096 135.275 174.096 134.887C174.096 134.503 174.038 134.159 173.922 133.853C173.808 133.548 173.637 133.307 173.407 133.13C173.18 132.954 172.896 132.865 172.555 132.865C172.227 132.865 171.95 132.95 171.723 133.119C171.498 133.288 171.328 133.524 171.212 133.827C171.096 134.13 171.038 134.483 171.038 134.887ZM175.806 132.956V131.98H180.712V132.956H178.815V137.793H177.71V132.956H175.806ZM183.017 136.207L185.58 131.98H186.798V137.793H185.689V133.562L183.138 137.793H181.908V131.98H183.017V136.207Z" fill="#575775"/>
<rect x="152.665" y="146.482" width="112.318" height="28.6943" rx="4.5091" fill="white"/>
<rect x="162.093" y="154.271" width="13.1174" height="13.1174" rx="1.63967" fill="white"/>
<rect x="163.733" y="155.91" width="9.83804" height="9.83804" rx="1.63967" fill="#D62953"/>
<path d="M182.783 157.24H183.722V159.829C183.722 160.213 183.789 160.514 183.923 160.734C184.056 160.951 184.246 161.105 184.49 161.195C184.735 161.284 185.024 161.328 185.357 161.328C185.566 161.328 185.77 161.32 185.966 161.305C186.163 161.287 186.355 161.263 186.542 161.233C186.731 161.203 186.915 161.166 187.094 161.123C187.276 161.081 187.454 161.033 187.628 160.98V161.827C187.459 161.88 187.291 161.928 187.124 161.971C186.96 162.014 186.789 162.051 186.61 162.081C186.433 162.111 186.243 162.135 186.038 162.153C185.834 162.168 185.607 162.176 185.357 162.176C184.822 162.176 184.362 162.099 183.976 161.945C183.592 161.791 183.297 161.542 183.09 161.199C182.886 160.856 182.783 160.399 182.783 159.829V157.24ZM187.507 157.24H188.445V164.991H187.507V157.24ZM192.643 165.113C192.083 165.113 191.599 164.989 191.193 164.742C190.789 164.492 190.478 164.144 190.258 163.697C190.041 163.248 189.933 162.726 189.933 162.13C189.933 161.535 190.041 161.01 190.258 160.556C190.478 160.099 190.783 159.743 191.174 159.488C191.568 159.231 192.027 159.102 192.552 159.102C192.855 159.102 193.154 159.153 193.449 159.254C193.744 159.355 194.013 159.519 194.255 159.746C194.497 159.97 194.69 160.268 194.834 160.639C194.978 161.01 195.05 161.467 195.05 162.009V162.388H190.569V161.615H194.141C194.141 161.287 194.076 160.995 193.945 160.737C193.816 160.48 193.632 160.277 193.392 160.128C193.155 159.979 192.875 159.905 192.552 159.905C192.196 159.905 191.888 159.993 191.628 160.17C191.371 160.344 191.173 160.571 191.034 160.851C190.895 161.131 190.826 161.431 190.826 161.752V162.266C190.826 162.705 190.902 163.078 191.053 163.383C191.207 163.686 191.42 163.917 191.693 164.076C191.965 164.232 192.282 164.31 192.643 164.31C192.877 164.31 193.089 164.277 193.278 164.212C193.47 164.144 193.636 164.043 193.774 163.909C193.913 163.773 194.02 163.604 194.096 163.402L194.959 163.644C194.868 163.937 194.715 164.194 194.501 164.416C194.286 164.636 194.022 164.807 193.706 164.931C193.391 165.052 193.036 165.113 192.643 165.113ZM196.408 167.171V159.178H197.271V160.102H197.377C197.443 160.001 197.534 159.872 197.65 159.716C197.768 159.557 197.938 159.415 198.157 159.292C198.379 159.165 198.679 159.102 199.058 159.102C199.547 159.102 199.979 159.225 200.352 159.469C200.726 159.714 201.017 160.061 201.226 160.51C201.436 160.959 201.541 161.489 201.541 162.1C201.541 162.716 201.436 163.249 201.226 163.701C201.017 164.15 200.727 164.498 200.356 164.745C199.985 164.99 199.557 165.113 199.073 165.113C198.7 165.113 198.401 165.051 198.176 164.927C197.951 164.801 197.779 164.658 197.657 164.499C197.536 164.338 197.443 164.204 197.377 164.098H197.302V167.171H196.408ZM197.287 162.085C197.287 162.524 197.351 162.911 197.48 163.247C197.608 163.58 197.796 163.841 198.043 164.03C198.291 164.217 198.594 164.31 198.952 164.31C199.325 164.31 199.637 164.212 199.887 164.015C200.139 163.816 200.328 163.548 200.454 163.213C200.583 162.875 200.647 162.499 200.647 162.085C200.647 161.676 200.584 161.308 200.458 160.98C200.335 160.649 200.147 160.388 199.894 160.196C199.644 160.002 199.33 159.905 198.952 159.905C198.588 159.905 198.283 159.997 198.036 160.181C197.789 160.363 197.602 160.618 197.476 160.946C197.35 161.271 197.287 161.651 197.287 162.085ZM202.903 164.991V159.178H205.28C205.906 159.178 206.403 159.319 206.771 159.602C207.14 159.885 207.324 160.258 207.324 160.722C207.324 161.075 207.219 161.349 207.01 161.544C206.8 161.735 206.531 161.865 206.203 161.933C206.418 161.964 206.626 162.039 206.828 162.16C207.032 162.282 207.201 162.448 207.335 162.66C207.469 162.869 207.536 163.127 207.536 163.432C207.536 163.73 207.46 163.996 207.309 164.231C207.157 164.465 206.94 164.651 206.658 164.787C206.375 164.923 206.037 164.991 205.643 164.991H202.903ZM203.751 164.174H205.643C205.951 164.174 206.192 164.101 206.366 163.954C206.54 163.808 206.627 163.609 206.627 163.356C206.627 163.056 206.54 162.82 206.366 162.649C206.192 162.475 205.951 162.388 205.643 162.388H203.751V164.174ZM203.751 161.615H205.28C205.52 161.615 205.725 161.583 205.897 161.517C206.068 161.449 206.2 161.353 206.29 161.229C206.384 161.103 206.431 160.954 206.431 160.783C206.431 160.538 206.328 160.346 206.124 160.208C205.92 160.066 205.638 159.996 205.28 159.996H203.751V161.615ZM211.249 165.113C210.725 165.113 210.264 164.988 209.868 164.738C209.474 164.488 209.167 164.139 208.945 163.689C208.725 163.24 208.615 162.716 208.615 162.115C208.615 161.509 208.725 160.981 208.945 160.529C209.167 160.078 209.474 159.727 209.868 159.477C210.264 159.227 210.725 159.102 211.249 159.102C211.774 159.102 212.233 159.227 212.627 159.477C213.023 159.727 213.331 160.078 213.551 160.529C213.773 160.981 213.884 161.509 213.884 162.115C213.884 162.716 213.773 163.24 213.551 163.689C213.331 164.139 213.023 164.488 212.627 164.738C212.233 164.988 211.774 165.113 211.249 165.113ZM211.249 164.31C211.648 164.31 211.976 164.208 212.233 164.004C212.491 163.799 212.681 163.531 212.805 163.197C212.929 162.864 212.99 162.504 212.99 162.115C212.99 161.726 212.929 161.364 212.805 161.029C212.681 160.693 212.491 160.422 212.233 160.215C211.976 160.008 211.648 159.905 211.249 159.905C210.851 159.905 210.523 160.008 210.265 160.215C210.008 160.422 209.818 160.693 209.694 161.029C209.57 161.364 209.508 161.726 209.508 162.115C209.508 162.504 209.57 162.864 209.694 163.197C209.818 163.531 210.008 163.799 210.265 164.004C210.523 164.208 210.851 164.31 211.249 164.31ZM219.138 161.676V162.509H215.928V161.676H219.138ZM216.14 159.178V164.991H215.247V159.178H216.14ZM219.819 159.178V164.991H218.926V159.178H219.819ZM222.344 163.674L225.144 159.178H226.174V164.991H225.28V160.495L222.495 164.991H221.45V159.178H222.344V163.674ZM228.703 163.674L231.504 159.178H232.533V164.991H231.64V160.495L228.854 164.991H227.81V159.178H228.703V163.674ZM230.913 157.24H231.746C231.746 157.649 231.604 157.983 231.322 158.243C231.039 158.503 230.656 158.633 230.171 158.633C229.694 158.633 229.315 158.503 229.032 158.243C228.752 157.983 228.612 157.649 228.612 157.24H229.445C229.445 157.437 229.499 157.61 229.607 157.759C229.718 157.908 229.906 157.982 230.171 157.982C230.436 157.982 230.626 157.908 230.739 157.759C230.855 157.61 230.913 157.437 230.913 157.24Z" fill="#262541"/>
<path d="M249.285 162.759C249.125 162.919 248.866 162.919 248.706 162.759L245.426 159.48C245.309 159.363 245.274 159.186 245.337 159.033C245.401 158.88 245.55 158.78 245.716 158.78H252.275C252.441 158.78 252.59 158.88 252.654 159.033C252.717 159.186 252.682 159.363 252.565 159.48L249.285 162.759Z" fill="#575775"/>
<rect x="152.665" y="146.482" width="112.318" height="28.6943" rx="4.5091" stroke="#F0F0F4" stroke-width="0.819836"/>
<path d="M31.45 207.263L28.8461 203.789H28.0211V207.263H26.8516V199.512H28.0211V202.786H28.4033L31.3327 199.512H32.7596L29.6599 202.982L32.8769 207.263H31.45ZM35.8915 207.38C35.3465 207.38 34.8708 207.255 34.4646 207.006C34.0584 206.756 33.743 206.406 33.5184 205.957C33.2939 205.508 33.1816 204.983 33.1816 204.383C33.1816 203.78 33.2939 203.252 33.5184 202.801C33.743 202.349 34.0584 201.998 34.4646 201.749C34.8708 201.499 35.3465 201.374 35.8915 201.374C36.4365 201.374 36.9121 201.499 37.3183 201.749C37.7245 201.998 38.0399 202.349 38.2645 202.801C38.4891 203.252 38.6013 203.78 38.6013 204.383C38.6013 204.983 38.4891 205.508 38.2645 205.957C38.0399 206.406 37.7245 206.756 37.3183 207.006C36.9121 207.255 36.4365 207.38 35.8915 207.38ZM35.8952 206.43C36.2485 206.43 36.5412 206.337 36.7733 206.15C37.0054 205.964 37.177 205.715 37.288 205.405C37.4016 205.094 37.4583 204.752 37.4583 204.379C37.4583 204.008 37.4016 203.667 37.288 203.357C37.177 203.044 37.0054 202.793 36.7733 202.604C36.5412 202.415 36.2485 202.32 35.8952 202.32C35.5395 202.32 35.2443 202.415 35.0096 202.604C34.7775 202.793 34.6046 203.044 34.4911 203.357C34.3801 203.667 34.3246 204.008 34.3246 204.379C34.3246 204.752 34.3801 205.094 34.4911 205.405C34.6046 205.715 34.7775 205.964 35.0096 206.15C35.2443 206.337 35.5395 206.43 35.8952 206.43ZM43.127 205.863L45.0042 201.45H45.9807L43.5471 207.263H42.7069L40.3225 201.45H41.2876L43.127 205.863ZM40.9734 201.45V207.263H39.8645V201.45H40.9734ZM45.3108 207.263V201.45H46.4121V207.263H45.3108ZM49.6121 207.392C49.2438 207.392 48.9107 207.323 48.613 207.187C48.3152 207.048 48.0793 206.848 47.9052 206.585C47.7336 206.323 47.6479 206.001 47.6479 205.62C47.6479 205.292 47.7109 205.022 47.8371 204.81C47.9633 204.598 48.1336 204.431 48.348 204.307C48.5625 204.183 48.8022 204.09 49.0671 204.027C49.3321 203.964 49.6021 203.916 49.8771 203.883C50.2253 203.843 50.5079 203.81 50.7249 203.785C50.9419 203.757 51.0996 203.713 51.198 203.652C51.2964 203.592 51.3456 203.493 51.3456 203.357V203.331C51.3456 203 51.2522 202.744 51.0655 202.562C50.8813 202.381 50.6063 202.29 50.2404 202.29C49.8594 202.29 49.5592 202.374 49.3396 202.543C49.1227 202.71 48.9725 202.895 48.8893 203.1L47.8257 202.857C47.9519 202.504 48.1361 202.219 48.3783 202.002C48.6231 201.783 48.9044 201.624 49.2223 201.525C49.5402 201.424 49.8746 201.374 50.2253 201.374C50.4574 201.374 50.7034 201.402 50.9633 201.457C51.2257 201.51 51.4705 201.609 51.6975 201.752C51.9272 201.896 52.1151 202.102 52.2615 202.369C52.4078 202.634 52.481 202.979 52.481 203.402V207.263H51.3758V206.468H51.3304C51.2573 206.614 51.1475 206.758 51.0012 206.9C50.8548 207.041 50.6668 207.158 50.4372 207.252C50.2076 207.345 49.9326 207.392 49.6121 207.392ZM49.8582 206.483C50.171 206.483 50.4385 206.421 50.6605 206.298C50.8851 206.174 51.0554 206.013 51.1715 205.813C51.2901 205.612 51.3493 205.396 51.3493 205.166V204.417C51.309 204.457 51.2308 204.495 51.1147 204.53C51.0012 204.563 50.8712 204.592 50.7249 204.617C50.5785 204.64 50.436 204.662 50.2972 204.682C50.1584 204.699 50.0423 204.715 49.949 204.727C49.7295 204.755 49.5289 204.802 49.3472 204.867C49.1681 204.933 49.0242 205.027 48.9158 205.151C48.8098 205.272 48.7568 205.434 48.7568 205.635C48.7568 205.916 48.8602 206.128 49.0671 206.271C49.274 206.413 49.5377 206.483 49.8582 206.483ZM57.9282 203.868V204.848H54.7793V203.868H57.9282ZM55.0972 201.45V207.263H53.9883V201.45H55.0972ZM58.7192 201.45V207.263H57.6141V201.45H58.7192ZM59.6654 208.94V206.283H60.1385C60.2596 206.172 60.3618 206.039 60.4451 205.885C60.5309 205.731 60.6028 205.548 60.6608 205.336C60.7214 205.125 60.7718 204.877 60.8122 204.595C60.8526 204.31 60.8879 203.984 60.9182 203.618L61.0998 201.45H65.0511V206.283H65.9443V208.94H64.8392V207.263H60.7857V208.94H59.6654ZM61.3496 206.283H63.946V202.418H62.1141L61.993 203.618C61.935 204.229 61.8618 204.759 61.7735 205.208C61.6852 205.654 61.5439 206.013 61.3496 206.283ZM68.7422 207.392C68.3738 207.392 68.0408 207.323 67.743 207.187C67.4453 207.048 67.2094 206.848 67.0353 206.585C66.8637 206.323 66.7779 206.001 66.7779 205.62C66.7779 205.292 66.841 205.022 66.9671 204.81C67.0933 204.598 67.2636 204.431 67.4781 204.307C67.6926 204.183 67.9323 204.09 68.1972 204.027C68.4621 203.964 68.7321 203.916 69.0071 203.883C69.3553 203.843 69.6379 203.81 69.8549 203.785C70.0719 203.757 70.2296 203.713 70.328 203.652C70.4264 203.592 70.4756 203.493 70.4756 203.357V203.331C70.4756 203 70.3823 202.744 70.1955 202.562C70.0113 202.381 69.7363 202.29 69.3705 202.29C68.9895 202.29 68.6892 202.374 68.4697 202.543C68.2527 202.71 68.1026 202.895 68.0193 203.1L66.9558 202.857C67.0819 202.504 67.2661 202.219 67.5084 202.002C67.7531 201.783 68.0344 201.624 68.3524 201.525C68.6703 201.424 69.0046 201.374 69.3553 201.374C69.5875 201.374 69.8335 201.402 70.0934 201.457C70.3558 201.51 70.6005 201.609 70.8276 201.752C71.0572 201.896 71.2452 202.102 71.3915 202.369C71.5379 202.634 71.611 202.979 71.611 203.402V207.263H70.5059V206.468H70.4605C70.3873 206.614 70.2775 206.758 70.1312 206.9C69.9849 207.041 69.7969 207.158 69.5673 207.252C69.3377 207.345 69.0626 207.392 68.7422 207.392ZM68.9882 206.483C69.3011 206.483 69.5685 206.421 69.7906 206.298C70.0151 206.174 70.1854 206.013 70.3015 205.813C70.4201 205.612 70.4794 205.396 70.4794 205.166V204.417C70.439 204.457 70.3608 204.495 70.2447 204.53C70.1312 204.563 70.0013 204.592 69.8549 204.617C69.7086 204.64 69.566 204.662 69.4272 204.682C69.2885 204.699 69.1724 204.715 69.079 204.727C68.8595 204.755 68.6589 204.802 68.4773 204.867C68.2981 204.933 68.1543 205.027 68.0458 205.151C67.9398 205.272 67.8868 205.434 67.8868 205.635C67.8868 205.916 67.9903 206.128 68.1972 206.271C68.4041 206.413 68.6678 206.483 68.9882 206.483ZM76.0297 207.263V199.512H77.0781L80.439 205.257H80.5109V199.512H81.5744V207.263H80.5298L77.1803 201.556H77.1084V207.263H76.0297ZM82.5584 204.943V204.137H85.8739V204.943H82.5584ZM84.2124 203.486C83.8364 203.486 83.5109 203.409 83.2359 203.255C82.9634 203.101 82.7527 202.888 82.6039 202.615C82.455 202.343 82.3806 202.027 82.3806 201.669V201.215C82.3806 200.857 82.455 200.541 82.6039 200.269C82.7527 199.996 82.9634 199.783 83.2359 199.629C83.5084 199.475 83.8301 199.398 84.201 199.398C84.577 199.398 84.8999 199.475 85.1699 199.629C85.4424 199.783 85.6519 199.996 85.7982 200.269C85.9471 200.541 86.0215 200.857 86.0215 201.215V201.669C86.0215 202.025 85.9483 202.339 85.802 202.611C85.6582 202.884 85.45 203.098 85.1775 203.255C84.9075 203.409 84.5858 203.486 84.2124 203.486ZM84.2124 202.668C84.4899 202.668 84.6994 202.577 84.8407 202.396C84.9819 202.212 85.0526 201.969 85.0526 201.669V201.215C85.0526 200.917 84.9819 200.679 84.8407 200.5C84.6994 200.32 84.4861 200.231 84.201 200.231C83.9184 200.231 83.7065 200.32 83.5652 200.5C83.4239 200.679 83.3532 200.917 83.3532 201.215V201.669C83.3532 201.969 83.4239 202.212 83.5652 202.396C83.709 202.577 83.9247 202.668 84.2124 202.668ZM87.5704 207.263V206.415L90.1932 203.698C90.4733 203.402 90.7042 203.144 90.8859 202.922C91.07 202.697 91.2076 202.484 91.2984 202.282C91.3892 202.08 91.4346 201.866 91.4346 201.639C91.4346 201.381 91.3741 201.159 91.253 200.973C91.1319 200.783 90.9666 200.638 90.7572 200.537C90.5477 200.434 90.3118 200.382 90.0494 200.382C89.7719 200.382 89.5296 200.439 89.3227 200.553C89.1158 200.666 88.9569 200.826 88.8459 201.033C88.7349 201.24 88.6793 201.482 88.6793 201.76H87.5628C87.5628 201.288 87.6713 200.876 87.8883 200.522C88.1053 200.169 88.4031 199.895 88.7815 199.701C89.16 199.504 89.5902 199.406 90.0721 199.406C90.5591 199.406 90.988 199.503 91.3589 199.697C91.7324 199.889 92.0238 200.151 92.2332 200.484C92.4426 200.815 92.5474 201.188 92.5474 201.605C92.5474 201.892 92.4931 202.174 92.3846 202.449C92.2786 202.724 92.0932 203.03 91.8283 203.368C91.5633 203.704 91.1949 204.111 90.7231 204.591L89.1827 206.203V206.26H92.6723V207.263H87.5704Z" fill="#262541"/>
<rect x="26" y="218.822" width="245.951" height="66.1902" rx="3.27935" fill="#EFEFF6"/>
<path d="M36.2071 230.522H37.6037C38.1941 230.522 38.7177 230.652 39.1743 230.912C39.6336 231.169 39.9931 231.531 40.253 231.998C40.5154 232.462 40.6466 233.002 40.6466 233.618C40.6466 234.229 40.5154 234.765 40.253 235.227C39.9931 235.688 39.6336 236.049 39.1743 236.309C38.7177 236.566 38.1941 236.695 37.6037 236.695H36.2071C35.6167 236.695 35.0919 236.568 34.6326 236.313C34.1734 236.055 33.8126 235.697 33.5502 235.238C33.2903 234.779 33.1604 234.243 33.1604 233.629C33.1604 233.011 33.2916 232.469 33.554 232.002C33.8164 231.535 34.1759 231.172 34.6326 230.912C35.0919 230.652 35.6167 230.522 36.2071 230.522ZM36.2071 231.533C35.8034 231.533 35.459 231.617 35.1739 231.786C34.8887 231.953 34.6705 232.192 34.5191 232.505C34.3677 232.818 34.292 233.193 34.292 233.629C34.292 234.056 34.3677 234.423 34.5191 234.731C34.673 235.036 34.8925 235.272 35.1776 235.439C35.4628 235.603 35.8059 235.685 36.2071 235.685H37.6075C38.0086 235.685 38.3505 235.603 38.6331 235.439C38.9182 235.272 39.1352 235.035 39.2841 234.727C39.4355 234.417 39.5112 234.047 39.5112 233.618C39.5112 233.187 39.4355 232.816 39.2841 232.505C39.1352 232.192 38.9182 231.953 38.6331 231.786C38.3505 231.617 38.0086 231.533 37.6075 231.533H36.2071ZM37.4826 229.493V237.698H36.3358V229.493H37.4826ZM42.7254 239.56C42.5563 239.56 42.4024 239.546 42.2637 239.519C42.1249 239.493 42.0214 239.466 41.9533 239.435L42.2258 238.508C42.4327 238.563 42.6169 238.587 42.7784 238.58C42.9399 238.572 43.0824 238.512 43.2061 238.398C43.3322 238.285 43.4432 238.099 43.5391 237.842L43.6792 237.456L41.5521 231.567H42.7632L44.2355 236.078H44.2961L45.7683 231.567H46.9832L44.5875 238.156C44.4765 238.459 44.3352 238.715 44.1636 238.924C43.992 239.136 43.7876 239.295 43.5505 239.401C43.3133 239.507 43.0383 239.56 42.7254 239.56ZM47.7213 232.543V231.567H52.6263V232.543H50.7302V237.38H49.625V232.543H47.7213ZM58.3082 229.402L58.7775 230.117C58.6034 230.276 58.4053 230.39 58.1833 230.458C57.9638 230.523 57.7102 230.565 57.4225 230.583C57.1349 230.598 56.8056 230.612 56.4347 230.624C56.0159 230.637 55.6715 230.728 55.4015 230.897C55.1315 231.063 54.9233 231.311 54.777 231.639C54.6332 231.964 54.5398 232.373 54.4969 232.865H54.5688C54.7581 232.504 55.0205 232.234 55.3561 232.055C55.6942 231.876 56.0739 231.786 56.4953 231.786C56.9646 231.786 57.3822 231.893 57.748 232.108C58.1139 232.322 58.4015 232.637 58.611 233.05C58.8229 233.462 58.9289 233.965 58.9289 234.56C58.9289 235.164 58.8179 235.685 58.5958 236.124C58.3763 236.563 58.066 236.902 57.6648 237.142C57.2661 237.379 56.7955 237.497 56.2531 237.497C55.7106 237.497 55.2375 237.375 54.8338 237.13C54.4326 236.883 54.121 236.517 53.8989 236.033C53.6794 235.548 53.5697 234.95 53.5697 234.239V233.663C53.5697 232.334 53.8068 231.333 54.2812 230.662C54.7556 229.991 55.4646 229.647 56.4082 229.629C56.7135 229.621 56.986 229.62 57.2257 229.625C57.4654 229.628 57.6749 229.616 57.854 229.591C58.0357 229.563 58.1871 229.5 58.3082 229.402ZM56.2568 236.547C56.5722 236.547 56.8435 236.468 57.0706 236.309C57.3002 236.148 57.4768 235.919 57.6004 235.624C57.7241 235.329 57.7859 234.981 57.7859 234.579C57.7859 234.186 57.7241 233.851 57.6004 233.576C57.4768 233.301 57.3002 233.092 57.0706 232.948C56.841 232.802 56.5659 232.729 56.2455 232.729C56.0083 232.729 55.7964 232.77 55.6096 232.854C55.4229 232.934 55.2627 233.054 55.129 233.213C54.9978 233.372 54.8956 233.566 54.8224 233.796C54.7518 234.023 54.7139 234.284 54.7089 234.579C54.7089 235.18 54.8464 235.658 55.1214 236.014C55.399 236.37 55.7774 236.547 56.2568 236.547ZM62.6417 237.497C62.0967 237.497 61.6211 237.373 61.2149 237.123C60.8086 236.873 60.4932 236.524 60.2687 236.074C60.0441 235.625 59.9318 235.1 59.9318 234.5C59.9318 233.897 60.0441 233.37 60.2687 232.918C60.4932 232.466 60.8086 232.116 61.2149 231.866C61.6211 231.616 62.0967 231.491 62.6417 231.491C63.1867 231.491 63.6623 231.616 64.0686 231.866C64.4748 232.116 64.7902 232.466 65.0148 232.918C65.2393 233.37 65.3516 233.897 65.3516 234.5C65.3516 235.1 65.2393 235.625 65.0148 236.074C64.7902 236.524 64.4748 236.873 64.0686 237.123C63.6623 237.373 63.1867 237.497 62.6417 237.497ZM62.6455 236.547C62.9988 236.547 63.2914 236.454 63.5236 236.267C63.7557 236.081 63.9273 235.832 64.0383 235.522C64.1518 235.211 64.2086 234.87 64.2086 234.496C64.2086 234.125 64.1518 233.785 64.0383 233.474C63.9273 233.161 63.7557 232.91 63.5236 232.721C63.2914 232.532 62.9988 232.437 62.6455 232.437C62.2897 232.437 61.9945 232.532 61.7599 232.721C61.5277 232.91 61.3549 233.161 61.2414 233.474C61.1303 233.785 61.0748 234.125 61.0748 234.496C61.0748 234.87 61.1303 235.211 61.2414 235.522C61.3549 235.832 61.5277 236.081 61.7599 236.267C61.9945 236.454 62.2897 236.547 62.6455 236.547ZM66.1568 237.38L66.153 236.4H66.3612C66.5227 236.4 66.6577 236.366 66.7662 236.298C66.8772 236.227 66.968 236.108 67.0387 235.942C67.1093 235.775 67.1636 235.546 67.2014 235.253C67.2393 234.958 67.267 234.587 67.2847 234.14L67.3869 231.567H71.4441V237.38H70.3352V232.543H68.4352L68.3444 234.519C68.3217 234.998 68.2725 235.417 68.1968 235.775C68.1236 236.134 68.0164 236.433 67.8751 236.672C67.7338 236.91 67.5521 237.087 67.3301 237.206C67.1081 237.322 66.8381 237.38 66.5202 237.38H66.1568ZM72.9533 237.38V231.567H74.0849V234.004H74.6299L76.5488 231.567H77.9492L75.6972 234.394L77.9757 237.38H76.5715L74.8192 235.056H74.0849V237.38H72.9533ZM79.9636 235.794L82.5259 231.567H83.7446V237.38H82.6356V233.149L80.0847 237.38H78.8547V231.567H79.9636V235.794Z" fill="#575775"/>
<rect x="32.9685" y="246.069" width="112.318" height="28.6943" rx="4.5091" fill="white"/>
<rect x="42.3967" y="253.858" width="13.1174" height="13.1174" rx="1.63967" fill="white"/>
<rect x="44.0364" y="255.497" width="9.83804" height="9.83804" rx="1.63967" fill="#FEC90F"/>
<path d="M67.5985 256.827V264.578H66.6599V256.827H67.5985ZM62.3604 264.578L64.8735 260.536L62.5723 256.827H63.7078L65.7213 260.264H68.5523L70.5657 256.827H71.7012L69.3849 260.551L71.898 264.578H70.8231L68.7188 261.142H65.5396L63.4201 264.578H62.3604ZM75.0668 264.699C74.5419 264.699 74.0815 264.575 73.6853 264.325C73.2917 264.075 72.9839 263.726 72.7618 263.276C72.5423 262.827 72.4326 262.302 72.4326 261.702C72.4326 261.096 72.5423 260.568 72.7618 260.116C72.9839 259.664 73.2917 259.314 73.6853 259.064C74.0815 258.814 74.5419 258.689 75.0668 258.689C75.5916 258.689 76.0508 258.814 76.4444 259.064C76.8406 259.314 77.1484 259.664 77.3679 260.116C77.5899 260.568 77.701 261.096 77.701 261.702C77.701 262.302 77.5899 262.827 77.3679 263.276C77.1484 263.726 76.8406 264.075 76.4444 264.325C76.0508 264.575 75.5916 264.699 75.0668 264.699ZM75.0668 263.897C75.4654 263.897 75.7934 263.795 76.0508 263.591C76.3082 263.386 76.4987 263.117 76.6223 262.784C76.7459 262.451 76.8078 262.091 76.8078 261.702C76.8078 261.313 76.7459 260.951 76.6223 260.616C76.4987 260.28 76.3082 260.009 76.0508 259.802C75.7934 259.595 75.4654 259.492 75.0668 259.492C74.6681 259.492 74.3401 259.595 74.0827 259.802C73.8254 260.009 73.6349 260.28 73.5112 260.616C73.3876 260.951 73.3258 261.313 73.3258 261.702C73.3258 262.091 73.3876 262.451 73.5112 262.784C73.6349 263.117 73.8254 263.386 74.0827 263.591C74.3401 263.795 74.6681 263.897 75.0668 263.897ZM79.0644 264.578V258.765H81.4412C82.067 258.765 82.5641 258.906 82.9324 259.189C83.3008 259.471 83.485 259.845 83.485 260.309C83.485 260.662 83.3803 260.936 83.1709 261.13C82.9615 261.322 82.6927 261.452 82.3647 261.52C82.5792 261.551 82.7874 261.626 82.9892 261.747C83.1936 261.868 83.3626 262.035 83.4964 262.247C83.6301 262.456 83.697 262.714 83.697 263.019C83.697 263.317 83.6213 263.583 83.4699 263.818C83.3185 264.052 83.1015 264.238 82.8189 264.374C82.5363 264.51 82.1982 264.578 81.8046 264.578H79.0644ZM79.9122 263.761H81.8046C82.1124 263.761 82.3534 263.688 82.5275 263.541C82.7016 263.395 82.7886 263.196 82.7886 262.943C82.7886 262.643 82.7016 262.407 82.5275 262.236C82.3534 262.062 82.1124 261.974 81.8046 261.974H79.9122V263.761ZM79.9122 261.202H81.4412C81.6809 261.202 81.8866 261.17 82.0582 261.104C82.2297 261.036 82.3609 260.94 82.4518 260.816C82.5451 260.69 82.5918 260.541 82.5918 260.37C82.5918 260.125 82.4896 259.933 82.2852 259.794C82.0809 259.653 81.7995 259.582 81.4412 259.582H79.9122V261.202ZM84.716 259.598V258.765H89.4394V259.598H87.5319V264.578H86.6387V259.598H84.716ZM91.6355 263.261L94.4362 258.765H95.4657V264.578H94.5725V260.082L91.7869 264.578H90.7423V258.765H91.6355V263.261ZM97.9948 263.261L100.796 258.765H101.825V264.578H100.932V260.082L98.1462 264.578H97.1016V258.765H97.9948V263.261ZM100.205 256.827H101.038C101.038 257.236 100.896 257.57 100.614 257.83C100.331 258.09 99.9478 258.22 99.4633 258.22C98.9864 258.22 98.6067 258.09 98.3241 257.83C98.044 257.57 97.904 257.236 97.904 256.827H98.7366C98.7366 257.024 98.7909 257.197 98.8994 257.346C99.0104 257.495 99.1984 257.569 99.4633 257.569C99.7282 257.569 99.9175 257.495 100.031 257.346C100.147 257.197 100.205 257.024 100.205 256.827Z" fill="#262541"/>
<path d="M129.589 262.346C129.429 262.506 129.169 262.506 129.009 262.346L125.73 259.067C125.613 258.949 125.578 258.773 125.641 258.62C125.705 258.467 125.854 258.367 126.02 258.367H132.579C132.744 258.367 132.894 258.467 132.957 258.62C133.021 258.773 132.986 258.949 132.868 259.067L129.589 262.346Z" fill="#575775"/>
<rect x="32.9685" y="246.069" width="112.318" height="28.6943" rx="4.5091" stroke="#F0F0F4" stroke-width="0.819836"/>
<path d="M153.209 229.629H154.367V236.366H156.925V229.629H158.083V236.366H160.634V229.629H161.789V237.38H153.209V229.629ZM165.956 237.497C165.411 237.497 164.935 237.373 164.529 237.123C164.123 236.873 163.807 236.524 163.583 236.074C163.358 235.625 163.246 235.1 163.246 234.5C163.246 233.897 163.358 233.37 163.583 232.918C163.807 232.466 164.123 232.116 164.529 231.866C164.935 231.616 165.411 231.491 165.956 231.491C166.501 231.491 166.976 231.616 167.383 231.866C167.789 232.116 168.104 232.466 168.329 232.918C168.553 233.37 168.666 233.897 168.666 234.5C168.666 235.1 168.553 235.625 168.329 236.074C168.104 236.524 167.789 236.873 167.383 237.123C166.976 237.373 166.501 237.497 165.956 237.497ZM165.959 236.547C166.313 236.547 166.605 236.454 166.838 236.267C167.07 236.081 167.241 235.832 167.352 235.522C167.466 235.211 167.523 234.87 167.523 234.496C167.523 234.125 167.466 233.785 167.352 233.474C167.241 233.161 167.07 232.91 166.838 232.721C166.605 232.532 166.313 232.437 165.959 232.437C165.604 232.437 165.309 232.532 165.074 232.721C164.842 232.91 164.669 233.161 164.555 233.474C164.444 233.785 164.389 234.125 164.389 234.496C164.389 234.87 164.444 235.211 164.555 235.522C164.669 235.832 164.842 236.081 165.074 236.267C165.309 236.454 165.604 236.547 165.959 236.547ZM169.929 239.56V231.567H171.034V232.509H171.129C171.194 232.388 171.289 232.248 171.412 232.089C171.536 231.93 171.708 231.791 171.927 231.673C172.147 231.552 172.437 231.491 172.798 231.491C173.267 231.491 173.686 231.61 174.054 231.847C174.423 232.084 174.711 232.426 174.921 232.872C175.133 233.319 175.239 233.857 175.239 234.485C175.239 235.113 175.134 235.652 174.925 236.101C174.715 236.547 174.428 236.892 174.062 237.134C173.696 237.374 173.278 237.494 172.809 237.494C172.456 237.494 172.167 237.434 171.942 237.316C171.72 237.197 171.546 237.058 171.42 236.899C171.294 236.741 171.197 236.599 171.129 236.476H171.06V239.56H169.929ZM171.038 234.473C171.038 234.882 171.097 235.24 171.216 235.548C171.334 235.856 171.506 236.097 171.73 236.271C171.955 236.443 172.23 236.529 172.555 236.529C172.893 236.529 173.176 236.439 173.403 236.26C173.63 236.078 173.802 235.832 173.918 235.522C174.036 235.211 174.096 234.862 174.096 234.473C174.096 234.09 174.038 233.745 173.922 233.44C173.808 233.135 173.637 232.894 173.407 232.717C173.18 232.541 172.896 232.452 172.555 232.452C172.227 232.452 171.95 232.537 171.723 232.706C171.498 232.875 171.328 233.111 171.212 233.414C171.096 233.716 171.038 234.07 171.038 234.473ZM175.806 232.543V231.567H180.712V232.543H178.815V237.38H177.71V232.543H175.806ZM183.017 235.794L185.58 231.567H186.798V237.38H185.689V233.149L183.138 237.38H181.908V231.567H183.017V235.794Z" fill="#575775"/>
<rect x="152.665" y="246.069" width="112.318" height="28.6943" rx="4.5091" fill="white"/>
<rect x="162.093" y="253.858" width="13.1174" height="13.1174" rx="1.63967" fill="white"/>
<rect x="164.143" y="255.907" width="9.0182" height="9.0182" rx="1.22975" fill="white" stroke="#DFDEED" stroke-width="0.819836"/>
<path d="M182.708 264.578V256.827H187.386V257.66H183.646V260.082H185.614C186.169 260.082 186.638 260.173 187.018 260.355C187.402 260.536 187.692 260.792 187.889 261.123C188.088 261.453 188.188 261.843 188.188 262.292C188.188 262.742 188.088 263.138 187.889 263.481C187.692 263.824 187.402 264.093 187.018 264.287C186.638 264.481 186.169 264.578 185.614 264.578H182.708ZM183.646 263.761H185.614C185.968 263.761 186.267 263.69 186.511 263.549C186.759 263.405 186.945 263.221 187.071 262.996C187.2 262.769 187.265 262.53 187.265 262.277C187.265 261.906 187.122 261.587 186.837 261.32C186.552 261.05 186.144 260.915 185.614 260.915H183.646V263.761ZM189.612 264.578V258.765H190.505V264.578H189.612ZM190.066 257.796C189.892 257.796 189.742 257.737 189.616 257.618C189.492 257.5 189.43 257.357 189.43 257.191C189.43 257.024 189.492 256.881 189.616 256.763C189.742 256.644 189.892 256.585 190.066 256.585C190.24 256.585 190.389 256.644 190.513 256.763C190.639 256.881 190.702 257.024 190.702 257.191C190.702 257.357 190.639 257.5 190.513 257.618C190.389 257.737 190.24 257.796 190.066 257.796ZM191.626 264.578V263.746H191.838C192.012 263.746 192.158 263.712 192.274 263.644C192.39 263.573 192.483 263.451 192.554 263.276C192.627 263.1 192.682 262.855 192.72 262.542C192.761 262.227 192.79 261.826 192.807 261.339L192.913 258.765H196.789V264.578H195.896V259.598H193.761L193.67 261.672C193.65 262.149 193.607 262.569 193.542 262.932C193.478 263.293 193.381 263.596 193.25 263.84C193.121 264.085 192.95 264.269 192.735 264.393C192.521 264.517 192.252 264.578 191.929 264.578H191.626ZM199.321 263.261L202.122 258.765H203.151V264.578H202.258V260.082L199.472 264.578H198.428V258.765H199.321V263.261ZM205.68 263.261L208.481 258.765H209.51V264.578H208.617V260.082L205.832 264.578H204.787V258.765H205.68V263.261ZM207.89 256.827H208.723C208.723 257.236 208.582 257.57 208.299 257.83C208.017 258.09 207.633 258.22 207.149 258.22C206.672 258.22 206.292 258.09 206.009 257.83C205.729 257.57 205.589 257.236 205.589 256.827H206.422C206.422 257.024 206.476 257.197 206.585 257.346C206.696 257.495 206.884 257.569 207.149 257.569C207.414 257.569 207.603 257.495 207.716 257.346C207.832 257.197 207.89 257.024 207.89 256.827Z" fill="#262541"/>
<path d="M249.285 262.346C249.125 262.506 248.866 262.506 248.706 262.346L245.426 259.067C245.309 258.949 245.274 258.773 245.337 258.62C245.401 258.467 245.55 258.367 245.716 258.367H252.275C252.441 258.367 252.59 258.467 252.654 258.62C252.717 258.773 252.682 258.949 252.565 259.067L249.285 262.346Z" fill="#575775"/>
<rect x="152.665" y="246.069" width="112.318" height="28.6943" rx="4.5091" stroke="#F0F0F4" stroke-width="0.819836"/>
</g>
<defs>
<filter id="filter0_d_68_6055" x="0.794818" y="0.794818" width="300.013" height="314.025" filterUnits="userSpaceOnUse" color-interpolation-filters="sRGB">
<feFlood flood-opacity="0" result="BackgroundImageFix"/>
<feColorMatrix in="SourceAlpha" type="matrix" values="0 0 0 0 0 0 0 0 0 0 0 0 0 0 0 0 0 0 127 0" result="hardAlpha"/>
<feOffset dx="2.3013" dy="2.3013"/>
<feGaussianBlur stdDeviation="5.75324"/>
<feComposite in2="hardAlpha" operator="out"/>
<feColorMatrix type="matrix" values="0 0 0 0 0.22084 0 0 0 0 0.22084 0 0 0 0 0.983333 0 0 0 0.1 0"/>
<feBlend mode="normal" in2="BackgroundImageFix" result="effect1_dropShadow_68_6055"/>
<feBlend mode="normal" in="SourceGraphic" in2="effect1_dropShadow_68_6055" result="shape"/>
</filter>
</defs>
</svg>
