<svg width="32" height="32" viewBox="0 0 32 32" fill="none" xmlns="http://www.w3.org/2000/svg">
<rect width="32" height="32" rx="6" fill="#1AB2AD"/>
<path fill-rule="evenodd" clip-rule="evenodd" d="M7.875 10.1666C7.875 9.82145 8.15482 9.54163 8.5 9.54163H15.1667C15.5118 9.54163 15.7917 9.82145 15.7917 10.1666C15.7917 10.5118 15.5118 10.7916 15.1667 10.7916H8.5C8.15482 10.7916 7.875 10.5118 7.875 10.1666Z" fill="white"/>
<path fill-rule="evenodd" clip-rule="evenodd" d="M7.875 16C7.875 15.6548 8.15482 15.375 8.5 15.375H19.3333C19.6785 15.375 19.9583 15.6548 19.9583 16C19.9583 16.3451 19.6785 16.625 19.3333 16.625H8.5C8.15482 16.625 7.875 16.3451 7.875 16Z" fill="white"/>
<path fill-rule="evenodd" clip-rule="evenodd" d="M7.875 21.8333C7.875 21.4881 8.15482 21.2083 8.5 21.2083H23.5C23.8452 21.2083 24.125 21.4881 24.125 21.8333C24.125 22.1785 23.8452 22.4583 23.5 22.4583H8.5C8.15482 22.4583 7.875 22.1785 7.875 21.8333Z" fill="white"/>
</svg>
