<svg xmlns="http://www.w3.org/2000/svg" width="126" height="14" fill="none"><path fill="#262541" d="M15.002 5.242H13.4v-.216c0-1.476-.162-2.016-.27-2.322-.306-.9-.828-1.566-1.782-1.908-.45-.162-1.224-.324-2.232-.324L.422.49v12.582l10.314.018c1.008 0 1.782-.144 2.232-.324.954-.342 1.512-1.008 1.782-1.908.09-.306.27-.846.27-2.304l-.018-3.312Zm-4.95-.234v.234H3.77V3.226h4.734c1.296 0 1.548.774 1.548 1.782Zm.072 5.328H3.77v-2.34h7.902v.558c0 1.008-.27 1.782-1.548 1.782Zm10.609-.072V.418h-3.348V13h12.492v-2.736h-9.144ZM42.259.49h-7.74l-3.816 12.582h3.42l.882-2.916h6.768l.882 2.916h3.42L42.259.49Zm-2.574 2.754 1.188 3.996h-4.968l1.188-3.996h2.592ZM47.918.418V13h3.384V3.334L57.008 13h5.508V.418h-3.384v9.666L53.372.418h-5.454Zm32.035 4.824h-1.602v-.216c0-1.476-.162-2.016-.27-2.322-.306-.9-.828-1.566-1.782-1.908-.45-.162-1.224-.324-2.232-.324L65.373.49v12.582l10.314.018c1.008 0 1.782-.144 2.232-.324.954-.342 1.512-1.008 1.782-1.908.09-.306.27-.846.27-2.304l-.018-3.312Zm-4.95-.234v.234h-6.282V3.226h4.734c1.296 0 1.548.774 1.548 1.782Zm.072 5.328h-6.354v-2.34h7.902v.558c0 1.008-.27 1.782-1.548 1.782ZM92.866.49h-7.74L81.31 13.072h3.42l.882-2.916h6.768l.882 2.916h3.42L92.866.49Zm-2.574 2.754L91.48 7.24h-4.968L87.7 3.244h2.592Zm11.582 7.02V.418h-3.349V13h12.493v-2.736h-9.144Zm14.343 0V.418h-3.348V13h12.492v-2.736h-9.144Z"/></svg>