<svg xmlns="http://www.w3.org/2000/svg" width="1240" height="844" fill="none"><g filter="url(#a)"><path fill="#FFFFFE" d="M16 67.2c0-17.922 0-26.883 3.488-33.728a32 32 0 0 1 13.984-13.984C40.318 16 49.278 16 67.2 16h1097.6c17.92 0 26.88 0 33.73 3.488a32.006 32.006 0 0 1 13.98 13.984C1216 40.318 1216 49.278 1216 67.2v701.6c0 17.922 0 26.882-3.49 33.728a32.007 32.007 0 0 1-13.98 13.984C1191.68 820 1182.72 820 1164.8 820H867.2c-17.922 0-26.882 0-33.728-3.488a32 32 0 0 1-13.984-13.984C816 795.682 816 786.722 816 768.8V347.2c0-17.922 0-26.883-3.488-33.728a32 32 0 0 0-13.984-13.984C791.682 296 782.722 296 764.8 296H67.2c-17.922 0-26.883 0-33.728-3.488a32 32 0 0 1-13.984-13.984C16 271.683 16 262.722 16 244.8V67.2Z"/></g><defs><filter id="a" width="1240" height="844" x="0" y="0" color-interpolation-filters="sRGB" filterUnits="userSpaceOnUse"><feFlood flood-opacity="0" result="BackgroundImageFix"/><feColorMatrix in="SourceAlpha" result="hardAlpha" values="0 0 0 0 0 0 0 0 0 0 0 0 0 0 0 0 0 0 127 0"/><feOffset dx="4" dy="4"/><feGaussianBlur stdDeviation="10"/><feComposite in2="hardAlpha" operator="out"/><feColorMatrix values="0 0 0 0 0.478247 0 0 0 0 0.679167 0 0 0 0 0.667348 0 0 0 0.2 0"/><feBlend in2="BackgroundImageFix" result="effect1_dropShadow_261_18808"/><feBlend in="SourceGraphic" in2="effect1_dropShadow_261_18808" result="shape"/></filter></defs></svg>