<svg fill="none" viewBox="0 0 20 20"><path fill="#575775" fill-rule="evenodd" d="M16.275 15.391l-2.713-2.713a5.67 5.67 0 01-.884.883l2.713 2.714a.625.625 0 10.884-.884z" clip-rule="evenodd"/><path fill="#575775" fill-rule="evenodd" d="M12.475 12.475a.625.625 0 01.884 0l.203.203a5.625 5.625 0 10-.884.884l-.203-.204a.625.625 0 010-.883zM4.792 9.166a4.375 4.375 0 118.75 0 4.375 4.375 0 01-8.75 0z" clip-rule="evenodd"/><path fill="#575775" d="M13.359 12.475a.625.625 0 00-.884.883l.203.203a5.644 5.644 0 00.884-.883l-.203-.203z"/></svg>