<svg xmlns="http://www.w3.org/2000/svg" width="20" height="20" fill="none"><path fill="#575775" fill-rule="evenodd" d="m16.275 15.391-2.713-2.713a5.67 5.67 0 0 1-.884.883l2.713 2.714a.625.625 0 1 0 .884-.884Z" clip-rule="evenodd"/><path fill="#575775" fill-rule="evenodd" d="M12.475 12.475a.625.625 0 0 1 .884 0l.203.203a5.625 5.625 0 1 0-.884.884l-.203-.204a.625.625 0 0 1 0-.883ZM4.792 9.166a4.375 4.375 0 1 1 8.75 0 4.375 4.375 0 0 1-8.75 0Z" clip-rule="evenodd"/><path fill="#575775" d="M13.359 12.475a.625.625 0 0 0-.884.883l.203.203a5.644 5.644 0 0 0 .884-.883l-.203-.203Z"/></svg>