<svg xmlns="http://www.w3.org/2000/svg" width="629" height="536" fill="none"><g stroke="#fff" stroke-width="2" opacity=".12"><path d="M339.107 326c-32.552 17.323-64.805 26.359-90.613 27.002-25.885.645-44.934-7.138-51.692-22.973-6.758-15.835-.172-37.26 16.58-59.305 16.703-21.98 43.303-44.264 75.855-61.587 32.551-17.323 64.805-26.359 90.613-27.002 25.885-.646 44.934 7.137 51.692 22.973 6.757 15.835.172 37.26-16.58 59.305-16.703 21.98-43.303 44.264-75.855 61.587Z"/><path d="M369.2 396.516c-71.35 37.971-142.096 57.806-198.776 59.219-56.755 1.415-99.054-15.628-114.121-50.936-15.067-35.308-.28-82.731 36.453-131.068 36.682-48.272 95.039-97.141 166.388-135.111 71.35-37.97 142.096-57.806 198.775-59.219 56.756-1.414 99.055 15.629 114.122 50.937 15.067 35.308.279 82.731-36.453 131.067-36.682 48.272-95.039 97.141-166.388 135.111Z"/><path d="M356.256 366.185c-54.662 29.09-108.851 44.28-152.252 45.362-43.477 1.084-75.776-11.976-87.269-38.909-11.493-26.932-.233-63.173 27.905-100.2 28.089-36.963 72.786-74.397 127.448-103.487 54.661-29.089 108.851-44.279 152.252-45.361 43.477-1.084 75.775 11.976 87.268 38.908 11.493 26.933.234 63.173-27.905 100.201-28.089 36.963-72.786 74.397-127.447 103.486Z"/></g></svg>