<svg fill="none" viewBox="0 0 1251 714"><g stroke="#fff" stroke-width="2" opacity=".4"><path d="M605.897 297.141c-72.746 34.667-144.877 52.777-202.666 54.067-57.893 1.293-100.961-14.282-116.288-46.444-15.326-32.162-.297-75.424 37.171-119.575 37.401-44.073 96.9-88.691 169.646-123.358C566.505 27.163 638.637 9.053 696.426 7.763c57.892-1.292 100.961 14.283 116.287 46.445 15.327 32.162.298 75.423-37.17 119.575-37.401 44.073-96.9 88.691-169.646 123.358z"/><path d="M673.024 438.003C513.732 513.914 355.733 553.597 229.08 556.425 102.323 559.254 7.393 525.181-26.47 454.121c-33.864-71.06-.537-166.254 81.5-262.925C137 94.604 267.339-3.121 426.63-79.032c159.293-75.911 317.291-115.594 443.945-118.421 126.757-2.83 221.684 31.244 255.554 102.303 33.86 71.06.53 166.255-81.5 262.926-81.974 96.592-212.313 194.316-371.606 270.227z"/><path d="M644.151 377.415c-122.066 58.171-243.131 88.575-340.164 90.741-97.137 2.168-169.759-23.949-195.65-78.277-25.89-54.329-.433-127.186 62.433-201.267 62.8-74.002 162.669-148.884 284.735-207.055 122.067-58.17 243.131-88.575 340.165-90.741 97.136-2.168 169.759 23.948 195.649 78.277 25.891 54.329.434 127.186-62.433 201.267-62.799 74.002-162.668 148.884-284.735 207.055z"/></g></svg>