<svg width="1251" height="714" viewBox="0 0 1251 714" fill="none" xmlns="http://www.w3.org/2000/svg">
<g opacity="0.4">
<path d="M605.897 297.141C533.151 331.808 461.02 349.918 403.231 351.208C345.338 352.501 302.27 336.926 286.943 304.764C271.617 272.602 286.646 229.34 324.114 185.189C361.515 141.116 421.014 96.4975 493.76 61.8305C566.505 27.1635 638.637 9.05336 696.426 7.76328C754.318 6.47088 797.387 22.046 812.713 54.2079C828.04 86.3697 813.011 129.631 775.543 173.783C738.142 217.856 678.643 262.474 605.897 297.141Z" stroke="white" stroke-width="2"/>
<path d="M673.024 438.003C513.732 513.914 355.733 553.597 229.08 556.425C102.323 559.254 7.39268 525.181 -26.4709 454.121C-60.3345 383.061 -27.007 287.867 55.0298 191.196C137 94.6036 267.339 -3.12075 426.631 -79.0317C585.924 -154.943 743.922 -194.626 870.576 -197.453C997.333 -200.283 1092.26 -166.209 1126.13 -95.1496C1159.99 -24.0897 1126.66 71.1048 1044.63 167.776C962.656 264.368 832.317 362.092 673.024 438.003Z" stroke="white" stroke-width="2"/>
<path d="M644.151 377.415C522.085 435.586 401.02 465.99 303.987 468.156C206.85 470.324 134.228 444.207 108.337 389.879C82.4468 335.55 107.904 262.693 170.77 188.612C233.57 114.61 333.439 39.7278 455.505 -18.443C577.572 -76.6138 698.636 -107.018 795.67 -109.184C892.806 -111.352 965.429 -85.2356 991.319 -30.9069C1017.21 23.4219 991.753 96.2787 928.886 170.36C866.087 244.362 766.218 319.244 644.151 377.415Z" stroke="white" stroke-width="2"/>
</g>
</svg>
