<svg xmlns="http://www.w3.org/2000/svg" width="28" height="28" fill="none"><g clip-path="url(#a)"><path fill="#262541" d="m14.027 24.546-.25-.01A12.062 12.062 0 0 1 2 12.46C2 5.796 7.411.375 14.061.375s12.064 5.421 12.064 12.084c0 2.689-.961 5.35-2.856 7.911a21.96 21.96 0 0 1-4.31 4.321 21.229 21.229 0 0 1-4.931 2.816v-2.96Z"/><path fill="#fff" d="M14.061.625a11.838 11.838 0 0 1 11.814 11.834c0 2.633-.945 5.25-2.808 7.762a21.657 21.657 0 0 1-4.26 4.271 20.844 20.844 0 0 1-4.53 2.641V24.3l-.488-.011A11.813 11.813 0 0 1 2.25 12.458C2.25 5.935 7.549.626 14.061.626Zm0-.5a12.333 12.333 0 0 0-.284 24.661v3.089a21.403 21.403 0 0 0 5.334-2.986 22.391 22.391 0 0 0 4.359-4.375c1.741-2.348 2.905-5.084 2.905-8.055A12.323 12.323 0 0 0 14.061.125Z"/><path fill="#fff" fill-rule="evenodd" d="M14.063 5.373a7.075 7.075 0 1 0 0 14.15 7.075 7.075 0 0 0 0-14.15Zm-7.7 7.075a7.7 7.7 0 1 1 15.4 0 7.7 7.7 0 0 1-15.4 0Z" clip-rule="evenodd"/><path fill="#fff" d="M17.651 9.625a4.563 4.563 0 0 0-2.901-1.691V5.209l2.207-1.236a8.853 8.853 0 0 1 3.008 1.742c.015.85.03 1.7.043 2.55l-2.357 1.36Z"/><path fill="#fff" d="M16.981 4.25a8.631 8.631 0 0 1 2.736 1.585l.038 2.291-2.046 1.183A4.804 4.804 0 0 0 15 7.724V5.355l1.981-1.105Zm-.05-.545L14.5 5.063v3.092a4.307 4.307 0 0 1 3.084 1.798l2.676-1.545-.046-2.805-.006-.008a9.197 9.197 0 0 0-3.27-1.894l-.007.004ZM18.305 14.131a4.576 4.576 0 0 0 .018-3.324L20.69 9.44l2.157 1.277a8.875 8.875 0 0 1-.006 3.501L20.665 15.5l-2.361-1.369Z"/><path fill="#fff" d="m20.69 9.729 1.935 1.146a8.717 8.717 0 0 1-.006 3.185l-.466.274-.648.375-.331.196-.508.298-2.051-1.187a4.844 4.844 0 0 0 .01-3.097l2.061-1.19m0-.58L18.008 10.7a4.325 4.325 0 0 1-.02 3.538l2.68 1.547 1.09-.641 1.305-.769a9.154 9.154 0 0 0 .007-3.82l-2.375-1.409-.009.003ZM14.75 19.683v-2.724a4.565 4.565 0 0 0 2.875-1.653l2.363 1.364-.024 1.125-.029 1.415a8.886 8.886 0 0 1-2.969 1.712l-2.216-1.24Z"/><path fill="#fff" d="m17.676 15.625 2.054 1.185-.009.375-.012.6c0 .174-.009.46-.015.75 0 .196-.008.394-.011.556-.39.33-.808.626-1.25.881-.462.27-.948.496-1.452.675l-1.017-.57-.964-.54v-2.368a4.801 4.801 0 0 0 2.676-1.544Zm-.125-.648A4.311 4.311 0 0 1 14.5 16.74v3.091l2.436 1.365a9.161 9.161 0 0 0 3.241-1.875l.032-1.524.027-1.273-2.681-1.548-.004.002ZM11.17 20.926a8.888 8.888 0 0 1-2.966-1.703l-.029-1.417c-.008-.326-.016-.75-.023-1.125l2.36-1.366a4.569 4.569 0 0 0 2.875 1.646v2.722l-2.217 1.243Z"/><path fill="#fff" d="M10.457 15.636a4.823 4.823 0 0 0 2.683 1.537v2.363l-2 1.116a8.645 8.645 0 0 1-2.695-1.547c0-.168 0-.35-.01-.532l-.016-.774c0-.283-.014-.64-.02-.978l2.052-1.185m.125-.646L7.9 16.536l.025 1.275c.009.449.023 1.079.031 1.526.479.427 1 .8 1.558 1.117a8.953 8.953 0 0 0 1.682.75l2.444-1.368V16.74a4.31 4.31 0 0 1-3.063-1.75ZM5.281 14.22a9.067 9.067 0 0 1-.006-3.506l1.269-.75.897-.533 2.365 1.363a4.581 4.581 0 0 0 .018 3.351L7.466 15.5l-2.185-1.28Z"/><path fill="#fff" d="m7.442 9.717 2.058 1.19a4.834 4.834 0 0 0 .015 3.124l-2.048 1.183-.942-.555-1.025-.597a8.715 8.715 0 0 1 0-3.187l1.171-.695.773-.459m0-.58c-.797.473-1.595.945-2.389 1.418a9.336 9.336 0 0 0 .007 3.825l2.407 1.415 2.671-1.549a4.326 4.326 0 0 1-.015-3.563L7.44 9.137l.004.004ZM8.125 8.25l.019-1.131c0-.3.017-1.034.024-1.418a8.836 8.836 0 0 1 3.01-1.731l2.213 1.239V7.93a4.552 4.552 0 0 0-2.909 1.684L8.125 8.25Z"/><path fill="#fff" d="m11.154 4.243 1.022.572.964.541V7.72a4.81 4.81 0 0 0-2.715 1.573l-2.05-1.18v-.35c0-.25.008-.5.01-.633 0-.274.016-.907.023-1.309a8.539 8.539 0 0 1 2.746-1.578Zm.051-.545A9.079 9.079 0 0 0 7.92 5.593c0 .332-.019 1.195-.025 1.527 0 .266-.015.875-.021 1.278l2.675 1.543a4.307 4.307 0 0 1 3.091-1.788v-3.09l-2.435-1.365Z"/></g><defs><clipPath id="a"><path fill="#fff" d="M1.75.125h24.625v27.75H1.75z"/></clipPath></defs></svg>