<svg xmlns="http://www.w3.org/2000/svg" width="610" height="240" fill="none"><path stroke="#575775" d="M386.994 251.207c-18.053-20.614-26.643-53.949-25.871-91.279.773-37.326 10.909-78.574 30.248-114.874s44.197-60.739 68.737-70.925c24.542-10.188 48.718-6.108 66.771 14.506 18.052 20.614 26.643 53.95 25.87 91.28-.772 37.325-10.909 78.574-30.248 114.874-19.338 36.3-44.197 60.738-68.736 70.925-24.542 10.187-48.718 6.107-66.771-14.507Z" opacity=".8"/><path stroke="#575775" d="M401.576 248.559c-15.123-17.269-21.288-47.221-18.911-81.846 2.375-34.608 13.281-73.759 32.174-109.223 18.894-35.465 42.175-60.485 64.524-72.285 22.36-11.807 43.704-10.347 58.827 6.922 15.123 17.269 21.288 47.22 18.912 81.846-2.375 34.608-13.281 73.759-32.175 109.223-18.894 35.465-42.175 60.485-64.524 72.285-22.36 11.807-43.704 10.347-58.827-6.922Z" opacity=".8"/><path stroke="#575775" d="M423.073 256.913c-15.13-17.276-21.589-46.673-19.699-80.377 1.89-33.691 12.123-71.576 30.272-105.643 18.15-34.068 40.756-57.824 62.615-68.712 21.869-10.892 42.916-8.878 58.046 8.398 15.13 17.276 21.589 46.673 19.699 80.377-1.89 33.691-12.123 71.576-30.272 105.644-18.149 34.067-40.756 57.823-62.615 68.711-21.868 10.892-42.916 8.879-58.046-8.398ZM219.145-62.987c5.982 28.065-12.688 58.762-48.068 85.717C135.73 49.658 83.85 72.726 23.814 85.523-36.222 98.32-93 98.413-136.255 88.24c-43.297-10.184-72.862-30.6-78.844-58.664-5.982-28.065 12.687-58.762 48.068-85.717 35.347-26.929 87.227-49.996 147.263-62.794 60.036-12.797 116.813-12.89 160.069-2.716 43.297 10.184 72.862 30.6 78.844 58.664Z" opacity=".8"/><path stroke="#575775" d="M196.601-71.527c2.504 11.743-.96 24.226-9.465 36.774-8.507 12.55-22.033 25.125-39.567 37.013C112.501 26.034 61.489 47 2.845 59.5c-58.644 12.5-113.771 14.158-155.485 6.75-20.859-3.704-38.337-9.67-51.222-17.66-12.883-7.989-21.135-17.975-23.638-29.718-2.504-11.742.96-24.226 9.465-36.773 8.506-12.55 22.033-25.125 39.567-37.013 35.068-23.775 86.08-44.741 144.724-57.242 58.644-12.5 113.771-14.158 155.485-6.75 20.859 3.704 38.337 9.671 51.222 17.66 12.883 7.99 21.135 17.975 23.638 29.718Z" opacity=".8"/><path stroke="#575775" d="M174.609-93.131c2.504 11.75-.732 24.187-8.816 36.643-8.085 12.458-21.001 24.901-37.78 36.627-33.556 23.45-82.48 43.971-138.82 55.98-56.338 12.01-109.378 13.223-149.58 5.495-20.103-3.864-36.97-9.96-49.433-18.038-12.46-8.076-20.487-18.112-22.992-29.862-2.504-11.75.732-24.187 8.816-36.643 8.085-12.458 21.001-24.901 37.78-36.627 33.556-23.45 82.481-43.972 138.82-55.981 56.338-12.009 109.378-13.222 149.581-5.494 20.102 3.864 36.969 9.959 49.432 18.037 12.46 8.077 20.487 18.113 22.992 29.863Z" opacity=".8"/></svg>