<svg width="278" height="207" viewBox="0 0 278 207" fill="none" xmlns="http://www.w3.org/2000/svg">
<path opacity="0.8" d="M219.145 -62.987C225.127 -34.9221 206.457 -4.22482 171.077 22.7296C135.73 49.6581 83.8498 72.7261 23.8139 85.5233C-36.2221 98.3204 -92.9992 98.4135 -136.255 88.2397C-179.552 78.0561 -209.117 57.6405 -215.099 29.5756C-221.081 1.51066 -202.412 -29.1866 -167.031 -56.1411C-131.684 -83.0696 -79.8039 -106.138 -19.768 -118.935C40.268 -131.732 97.0451 -131.825 140.301 -121.651C183.598 -111.468 213.163 -91.0519 219.145 -62.987Z" stroke="#575775"/>
<path opacity="0.8" d="M196.601 -71.527C199.105 -59.7841 195.641 -47.3009 187.136 -34.753C178.629 -22.2037 165.103 -9.62834 147.569 2.25968C112.501 26.0341 61.4896 47.0009 2.84539 59.5014C-55.7988 72.0018 -110.926 73.6595 -152.64 66.2515C-173.499 62.5473 -190.977 56.5809 -203.862 48.5912C-216.745 40.6024 -224.997 30.6165 -227.5 18.8736C-230.004 7.1307 -226.54 -5.35253 -218.035 -17.9004C-209.529 -30.4498 -196.002 -43.0251 -178.468 -54.9131C-143.4 -78.6876 -92.3887 -99.6543 -33.7445 -112.155C24.8998 -124.655 80.0274 -126.313 121.741 -118.905C142.6 -115.201 160.078 -109.234 172.963 -101.245C185.846 -93.2558 194.098 -83.2699 196.601 -71.527Z" stroke="#575775"/>
<path opacity="0.8" d="M174.608 -93.1307C177.113 -81.3806 173.877 -68.9438 165.793 -56.4881C157.707 -44.0301 144.791 -31.5865 128.012 -19.8608C94.4561 3.58955 45.5318 24.1107 -10.807 36.1197C-67.1458 48.1288 -120.186 49.3422 -160.388 41.614C-180.49 37.7497 -197.357 31.6546 -209.82 23.5767C-222.281 15.5002 -230.307 5.46417 -232.812 -6.28594C-235.317 -18.0361 -232.08 -30.4729 -223.996 -42.9285C-215.911 -55.3865 -202.995 -67.8301 -186.216 -79.5559C-152.66 -103.006 -103.736 -123.527 -47.3968 -135.536C8.94196 -147.545 61.9819 -148.759 102.184 -141.031C122.286 -137.166 139.154 -131.071 151.616 -122.993C164.077 -114.917 172.104 -104.881 174.608 -93.1307Z" stroke="#575775"/>
</svg>
