<svg width="772" height="704" viewBox="0 0 772 704" fill="none" xmlns="http://www.w3.org/2000/svg">
<path opacity="0.8" d="M219.145 -62.987C225.127 -34.9221 206.457 -4.22482 171.077 22.7296C135.73 49.6581 83.8498 72.7261 23.8139 85.5233C-36.2221 98.3204 -92.9992 98.4135 -136.255 88.2397C-179.552 78.0561 -209.117 57.6405 -215.099 29.5756C-221.081 1.51066 -202.412 -29.1866 -167.031 -56.1411C-131.684 -83.0696 -79.8039 -106.138 -19.768 -118.935C40.268 -131.732 97.0451 -131.825 140.301 -121.651C183.598 -111.468 213.163 -91.0519 219.145 -62.987Z" stroke="#575775"/>
<path opacity="0.8" d="M196.601 -71.527C199.105 -59.7841 195.641 -47.3009 187.136 -34.753C178.629 -22.2037 165.103 -9.62833 147.569 2.25968C112.501 26.0341 61.4896 47.0009 2.84539 59.5014C-55.7988 72.0018 -110.926 73.6595 -152.64 66.2515C-173.499 62.5473 -190.977 56.5809 -203.862 48.5912C-216.745 40.6024 -224.997 30.6165 -227.5 18.8736C-230.004 7.1307 -226.54 -5.35253 -218.035 -17.9004C-209.529 -30.4498 -196.002 -43.0251 -178.468 -54.9131C-143.4 -78.6876 -92.3887 -99.6543 -33.7445 -112.155C24.8998 -124.655 80.0274 -126.313 121.741 -118.905C142.6 -115.201 160.078 -109.234 172.963 -101.245C185.846 -93.2558 194.098 -83.2699 196.601 -71.527Z" stroke="#575775"/>
<path opacity="0.8" d="M174.608 -93.1307C177.113 -81.3806 173.877 -68.9438 165.793 -56.4881C157.707 -44.0301 144.791 -31.5865 128.012 -19.8608C94.4561 3.58955 45.5318 24.1107 -10.807 36.1197C-67.1458 48.1288 -120.186 49.3421 -160.388 41.614C-180.49 37.7497 -197.357 31.6546 -209.82 23.5767C-222.281 15.5002 -230.307 5.46417 -232.812 -6.28594C-235.317 -18.0361 -232.08 -30.4729 -223.996 -42.9285C-215.911 -55.3865 -202.995 -67.8301 -186.216 -79.5559C-152.66 -103.006 -103.736 -123.527 -47.3968 -135.536C8.94196 -147.545 61.9819 -148.759 102.184 -141.031C122.286 -137.166 139.154 -131.071 151.616 -122.993C164.077 -114.917 172.104 -104.881 174.608 -93.1307Z" stroke="#575775"/>
<path opacity="0.8" d="M540.672 817.901C523.576 794.854 527.813 759.176 548.807 719.963C569.781 680.789 607.398 638.261 656.699 601.69C706.001 565.119 757.613 541.458 801.188 532.752C844.804 524.037 880.177 530.333 897.273 553.38C914.369 576.426 910.131 612.105 889.138 651.317C868.164 690.492 830.547 733.02 781.245 769.591C731.944 806.162 680.332 829.823 636.757 838.529C593.141 847.243 557.768 840.948 540.672 817.901Z" stroke="#575775"/>
<path opacity="0.8" d="M564.726 816.309C557.573 806.665 555.54 793.871 558.067 778.925C560.594 763.976 567.678 746.919 578.693 728.824C600.721 692.634 638.421 652.379 686.58 616.655C734.738 580.932 784.2 556.533 825.224 545.95C845.737 540.659 864.115 538.829 879.154 540.747C894.191 542.665 905.845 548.322 912.998 557.966C920.152 567.609 922.185 580.403 919.658 595.35C917.13 610.298 910.047 627.355 899.032 645.451C877.003 681.64 839.303 721.896 791.145 757.619C742.986 793.343 693.524 817.742 652.5 828.324C631.987 833.615 613.609 835.446 598.57 833.527C583.533 831.609 571.879 825.952 564.726 816.309Z" stroke="#575775"/>
<path opacity="0.8" d="M593.704 826.829C586.547 817.18 584.327 804.522 586.509 789.835C588.691 775.144 595.273 758.461 605.668 740.826C626.457 705.559 662.443 666.576 708.709 632.257C754.974 597.938 802.721 574.81 842.503 565.146C862.394 560.315 880.27 558.855 894.962 561.029C909.651 563.202 921.12 568.999 928.278 578.648C935.435 588.297 937.656 600.955 935.474 615.643C933.291 630.333 926.709 647.017 916.314 664.651C895.525 699.918 859.539 738.902 813.274 773.221C767.008 807.54 719.261 830.668 679.479 840.331C659.588 845.163 641.712 846.622 627.02 844.449C612.331 842.275 600.862 836.479 593.704 826.829Z" stroke="#575775"/>
</svg>
