<svg xmlns="http://www.w3.org/2000/svg" width="22" height="16" fill="none"><path fill="#fff" fill-rule="evenodd" d="M5.386 4.57a.75.75 0 0 1 1.044-.184L11 7.585l4.57-3.2a.75.75 0 1 1 .86 1.23l-5 3.5a.75.75 0 0 1-.86 0l-5-3.5a.75.75 0 0 1-.184-1.045Z" clip-rule="evenodd"/><path fill="#fff" fill-rule="evenodd" d="M3 1.75c-.69 0-1.25.56-1.25 1.25v10c0 .69.56 1.25 1.25 1.25h16c.69 0 1.25-.56 1.25-1.25V3c0-.69-.56-1.25-1.25-1.25H3ZM.25 3A2.75 2.75 0 0 1 3 .25h16A2.75 2.75 0 0 1 21.75 3v10A2.75 2.75 0 0 1 19 15.75H3A2.75 2.75 0 0 1 .25 13V3Z" clip-rule="evenodd"/></svg>