<svg fill="none" viewBox="0 0 124 28"><path fill="#262541" d="M2.376 22a.585.585 0 01-.432-.168.585.585 0 01-.168-.432V5.8c0-.176.056-.32.168-.432a.585.585 0 01.432-.168h7.128c1.328 0 2.416.192 3.264.576.848.384 1.472.928 1.872 1.632.416.704.624 1.528.624 2.472 0 .592-.112 1.112-.336 1.56a3.37 3.37 0 01-.792 1.104c-.304.288-.6.504-.888.648.624.288 1.168.768 1.632 1.44.48.656.72 1.44.72 2.352 0 1.008-.224 1.888-.672 2.64-.448.752-1.112 1.336-1.992 1.752-.88.416-1.952.624-3.216.624H2.376zm3.216-2.808h3.672c.784 0 1.376-.216 1.776-.648.4-.448.6-.976.6-1.584 0-.624-.208-1.144-.624-1.56-.4-.432-.984-.648-1.752-.648H5.592v4.44zm0-7.2h3.456c.752 0 1.312-.184 1.68-.552.384-.384.576-.872.576-1.464s-.192-1.064-.576-1.416c-.368-.368-.928-.552-1.68-.552H5.592v3.984zM18.799 22a.585.585 0 01-.431-.168.585.585 0 01-.168-.432V5.56c0-.176.056-.32.168-.432a.585.585 0 01.431-.168h2.4a.56.56 0 01.409.168.585.585 0 01.168.432V21.4c0 .176-.056.32-.168.432a.555.555 0 01-.409.168h-2.4zm9.682.24c-.848 0-1.608-.16-2.28-.48-.672-.336-1.208-.784-1.608-1.344-.4-.56-.6-1.184-.6-1.872 0-1.136.456-2.032 1.368-2.688.928-.656 2.144-1.104 3.648-1.344l3.144-.456v-.432c0-.624-.144-1.104-.432-1.44-.288-.336-.792-.504-1.512-.504-.528 0-.952.104-1.272.312-.32.208-.568.48-.744.816a.612.612 0 01-.552.312h-2.28c-.176 0-.312-.048-.408-.144a.485.485 0 01-.12-.384c0-.272.104-.592.312-.96.208-.368.528-.728.96-1.08.432-.368.984-.672 1.656-.912.672-.24 1.496-.36 2.472-.36 1.008 0 1.872.12 2.592.36s1.296.576 1.728 1.008c.432.432.752.936.96 1.512.208.56.312 1.168.312 1.824V21.4c0 .176-.056.32-.168.432a.585.585 0 01-.432.168h-2.352a.555.555 0 01-.408-.168.585.585 0 01-.168-.432v-.888a3.87 3.87 0 01-.84.864 4.491 4.491 0 01-1.272.624c-.48.16-1.048.24-1.704.24zm.96-2.496c.528 0 1-.112 1.416-.336.416-.224.744-.568.984-1.032.24-.464.36-1.048.36-1.752v-.408l-2.232.36c-.864.144-1.496.36-1.896.648-.4.288-.6.64-.6 1.056 0 .304.088.568.264.792.192.224.44.392.744.504.304.112.624.168.96.168zM39.307 22a.555.555 0 01-.408-.168.585.585 0 01-.168-.432V10.12c0-.176.056-.32.168-.432a.555.555 0 01.408-.168h2.352c.176 0 .32.056.432.168a.585.585 0 01.168.432v.936c.416-.512.952-.936 1.608-1.272.656-.336 1.456-.504 2.4-.504s1.768.216 2.472.648c.72.416 1.28 1.032 1.68 1.848.416.8.624 1.776.624 2.928V21.4c0 .176-.064.32-.192.432a.556.556 0 01-.408.168h-2.544a.585.585 0 01-.432-.168.585.585 0 01-.168-.432v-6.552c0-.848-.208-1.504-.624-1.968-.4-.48-.992-.72-1.776-.72-.752 0-1.352.24-1.8.72-.448.464-.672 1.12-.672 1.968V21.4c0 .176-.056.32-.168.432a.555.555 0 01-.408.168h-2.544z"/><g clip-path="url(#a)"><path fill="#988CDA" d="M66.465 24.641l-.254-.01a12.282 12.282 0 01-8.478-3.67 12.132 12.132 0 01-3.48-8.516C54.254 5.723 59.749.252 66.5.252s12.247 5.47 12.247 12.193c0 2.713-.976 5.398-2.9 7.983a22.228 22.228 0 01-4.375 4.36 21.592 21.592 0 01-5.006 2.842v-2.99z"/><path fill="#fff" d="M66.499.505a12.055 12.055 0 018.48 3.505 11.907 11.907 0 013.514 8.435c0 2.657-.96 5.297-2.85 7.832a21.918 21.918 0 01-4.326 4.31 21.22 21.22 0 01-4.599 2.665v-2.86l-.496-.012a12.027 12.027 0 01-8.306-3.593 11.881 11.881 0 01-3.408-8.342c0-6.584 5.38-11.94 11.99-11.94zm0-.505a12.56 12.56 0 00-8.79 3.601 12.406 12.406 0 00-3.71 8.7 12.402 12.402 0 003.508 8.781 12.556 12.556 0 008.704 3.801V28a21.782 21.782 0 005.415-3.013 22.657 22.657 0 004.425-4.415c1.768-2.368 2.95-5.13 2.95-8.127 0-1.633-.322-3.25-.95-4.76a12.427 12.427 0 00-2.708-4.036A12.514 12.514 0 0071.286.95 12.578 12.578 0 0066.5 0z"/><path fill="#fff" fill-rule="evenodd" d="M66.5 5.295c-3.967 0-7.183 3.196-7.183 7.138 0 3.943 3.216 7.14 7.183 7.14 3.967 0 7.183-3.197 7.183-7.14 0-3.942-3.216-7.138-7.183-7.138zm-7.817 7.138c0-4.29 3.5-7.769 7.817-7.769s7.817 3.479 7.817 7.77c0 4.29-3.5 7.769-7.817 7.769s-7.817-3.479-7.817-7.77z" clip-rule="evenodd"/><path fill="#fff" d="M70.144 9.586a4.638 4.638 0 00-2.946-1.707V5.13l2.241-1.247a9.002 9.002 0 013.054 1.759c.015.856.03 1.714.043 2.572l-2.392 1.373z"/><path fill="#fff" d="M69.463 4.162a8.74 8.74 0 012.778 1.6l.038 2.311-2.077 1.193a4.883 4.883 0 00-2.75-1.599v-2.39l2.011-1.115zm-.05-.55l-2.469 1.37v3.12a4.392 4.392 0 013.131 1.814l2.717-1.559c-.015-.943-.03-1.887-.047-2.83l-.006-.008a9.35 9.35 0 00-3.32-1.91l-.006.003zm1.394 10.52a4.59 4.59 0 00.018-3.354l2.405-1.38 2.189 1.289a8.908 8.908 0 01-.006 3.533l-2.209 1.293-2.397-1.38z"/><path fill="#fff" d="M73.228 9.69l1.965 1.157a8.74 8.74 0 01-.006 3.214l-.474.276-.657.378-.336.198-.516.3-2.082-1.197a4.859 4.859 0 00.01-3.125l2.093-1.2m0-.586l-2.72 1.565a4.343 4.343 0 01-.019 3.57l2.72 1.561 1.106-.647 1.325-.776a9.182 9.182 0 00.008-3.854l-2.411-1.421-.01.002zm-6.027 10.628v-2.748a4.641 4.641 0 002.919-1.667l2.398 1.376-.024 1.135-.029 1.428a9.035 9.035 0 01-3.014 1.728l-2.25-1.252z"/><path fill="#fff" d="M70.169 15.64l2.085 1.195-.009.378-.013.606c0 .175-.008.464-.015.757 0 .197-.007.397-.011.56a8.68 8.68 0 01-1.27.89 8.81 8.81 0 01-1.473.681l-1.033-.576-.978-.545v-2.39a4.882 4.882 0 002.717-1.557zm-.127-.654a4.392 4.392 0 01-3.098 1.777v3.12l2.474 1.376a9.314 9.314 0 003.29-1.892l.032-1.537.028-1.285-2.722-1.562-.004.003zm-6.479 6.002a9.04 9.04 0 01-3.011-1.719l-.03-1.429c-.007-.329-.016-.756-.022-1.135l2.396-1.378a4.645 4.645 0 002.919 1.66v2.747l-2.252 1.254z"/><path fill="#fff" d="M62.84 15.65a4.903 4.903 0 002.723 1.55v2.386l-2.03 1.126a8.79 8.79 0 01-2.736-1.561c0-.17 0-.354-.01-.538l-.017-.78c0-.285-.014-.646-.02-.987l2.084-1.195m.127-.652l-2.717 1.56c.007.415.017.914.025 1.286l.032 1.54a9.17 9.17 0 001.581 1.127c.542.31 1.114.563 1.708.756l2.481-1.38v-3.124a4.368 4.368 0 01-3.11-1.766zm-5.376-.777a9.094 9.094 0 01-.006-3.538l1.288-.757.911-.537 2.401 1.374a4.596 4.596 0 00.018 3.382l-2.394 1.367-2.218-1.291z"/><path fill="#fff" d="M59.78 9.678l2.088 1.2a4.85 4.85 0 00.015 3.153l-2.078 1.193-.957-.56-1.04-.601a8.738 8.738 0 010-3.217l1.188-.7.785-.464m0-.585l-2.426 1.43a9.364 9.364 0 00.008 3.86l2.443 1.428 2.712-1.563a4.342 4.342 0 01-.015-3.595l-2.726-1.564.004.004zm.691-.899l.02-1.141c0-.303.017-1.044.023-1.43a8.984 8.984 0 013.057-1.748l2.247 1.25v2.747a4.628 4.628 0 00-2.953 1.7l-2.394-1.378z"/><path fill="#fff" d="M63.547 4.154l1.038.578.979.546v2.385a4.889 4.889 0 00-2.757 1.587l-2.081-1.19v-.354c0-.252.008-.504.01-.638 0-.276.017-.916.023-1.32a8.683 8.683 0 012.788-1.594zm.052-.55a9.23 9.23 0 00-3.335 1.913c0 .335-.019 1.205-.025 1.54 0 .27-.016.884-.022 1.29l2.716 1.557A4.392 4.392 0 0166.07 8.1V4.983L63.6 3.604z"/></g><path fill="#262541" d="M82.376 22a.585.585 0 01-.432-.168.585.585 0 01-.168-.432V5.8c0-.176.056-.32.168-.432a.585.585 0 01.432-.168h7.128c1.328 0 2.416.192 3.264.576.848.384 1.472.928 1.872 1.632.416.704.624 1.528.624 2.472 0 .592-.112 1.112-.336 1.56a3.37 3.37 0 01-.792 1.104c-.304.288-.6.504-.888.648.624.288 1.168.768 1.632 1.44.48.656.72 1.44.72 2.352 0 1.008-.224 1.888-.672 2.64-.448.752-1.112 1.336-1.992 1.752-.88.416-1.952.624-3.216.624h-7.344zm3.216-2.808h3.672c.784 0 1.376-.216 1.776-.648.4-.448.6-.976.6-1.584 0-.624-.208-1.144-.624-1.56-.4-.432-.984-.648-1.752-.648h-3.672v4.44zm0-7.2h3.456c.752 0 1.312-.184 1.68-.552.384-.384.576-.872.576-1.464s-.192-1.064-.576-1.416c-.368-.368-.928-.552-1.68-.552h-3.456v3.984zm16.28 10.248c-.848 0-1.608-.16-2.28-.48-.672-.336-1.209-.784-1.608-1.344-.4-.56-.6-1.184-.6-1.872 0-1.136.456-2.032 1.367-2.688.928-.656 2.145-1.104 3.649-1.344l3.144-.456v-.432c0-.624-.144-1.104-.432-1.44-.288-.336-.792-.504-1.512-.504-.528 0-.952.104-1.272.312-.32.208-.568.48-.744.816a.612.612 0 01-.552.312h-2.28c-.176 0-.313-.048-.408-.144a.485.485 0 01-.12-.384c0-.272.103-.592.311-.96.209-.368.529-.728.96-1.08.432-.368.985-.672 1.657-.912s1.496-.36 2.472-.36c1.008 0 1.872.12 2.592.36s1.296.576 1.728 1.008c.432.432.752.936.96 1.512.208.56.312 1.168.312 1.824V21.4c0 .176-.056.32-.168.432a.585.585 0 01-.432.168h-2.352a.555.555 0 01-.408-.168.585.585 0 01-.168-.432v-.888a3.87 3.87 0 01-.84.864 4.491 4.491 0 01-1.272.624c-.481.16-1.048.24-1.704.24zm.96-2.496c.528 0 1-.112 1.416-.336.416-.224.744-.568.984-1.032.24-.464.36-1.048.36-1.752v-.408l-2.232.36c-.864.144-1.496.36-1.896.648-.4.288-.6.64-.6 1.056 0 .304.088.568.264.792.192.224.44.392.744.504.304.112.624.168.96.168zM112.721 22a.585.585 0 01-.432-.168.585.585 0 01-.168-.432V5.56c0-.176.056-.32.168-.432a.585.585 0 01.432-.168h2.4c.16 0 .296.056.408.168a.585.585 0 01.168.432V21.4c0 .176-.056.32-.168.432a.555.555 0 01-.408.168h-2.4zm6.61 0a.585.585 0 01-.432-.168.585.585 0 01-.168-.432V5.56c0-.176.056-.32.168-.432a.585.585 0 01.432-.168h2.4c.16 0 .296.056.408.168a.585.585 0 01.168.432V21.4c0 .176-.056.32-.168.432a.555.555 0 01-.408.168h-2.4z"/><defs><clipPath id="a"><path fill="#fff" d="M54 0h25v28H54z"/></clipPath></defs></svg>