<svg xmlns="http://www.w3.org/2000/svg" width="16" height="10" fill="none"><path fill="#575775" fill-rule="evenodd" d="M15.75 5a.75.75 0 0 0-.75-.75H1a.75.75 0 0 0 0 1.5h14a.75.75 0 0 0 .75-.75Z" clip-rule="evenodd"/><path fill="#575775" fill-rule="evenodd" d="M5.53.47a.75.75 0 0 0-1.06 0l-4 4a.75.75 0 0 0 1.06 1.06l4-4a.75.75 0 0 0 0-1.06Z" clip-rule="evenodd"/><path fill="#575775" fill-rule="evenodd" d="M5.53 9.53a.75.75 0 0 0 0-1.06l-4-4A.75.75 0 0 0 .47 5.53l4 4a.75.75 0 0 0 1.06 0Z" clip-rule="evenodd"/></svg>