<svg xmlns="http://www.w3.org/2000/svg" width="16" height="10" fill="none"><path fill="#575775" fill-rule="evenodd" d="M.25 5A.75.75 0 0 1 1 4.25h14a.75.75 0 0 1 0 1.5H1A.75.75 0 0 1 .25 5Z" clip-rule="evenodd"/><path fill="#575775" fill-rule="evenodd" d="M15.53 4.47a.75.75 0 0 1 0 1.06l-4 4a.75.75 0 1 1-1.06-1.06l4-4a.75.75 0 0 1 1.06 0Z" clip-rule="evenodd"/><path fill="#575775" fill-rule="evenodd" d="M10.47.47a.75.75 0 0 1 1.06 0l4 4a.75.75 0 0 1-1.06 1.06l-4-4a.75.75 0 0 1 0-1.06Z" clip-rule="evenodd"/></svg>