<svg fill="none" viewBox="0 0 22 16"><path fill="#fff" fill-rule="evenodd" d="M5.386 4.57a.75.75 0 011.044-.184L11 7.585l4.57-3.2a.75.75 0 11.86 1.23l-5 3.5a.75.75 0 01-.86 0l-5-3.5a.75.75 0 01-.184-1.045z" clip-rule="evenodd"/><path fill="#fff" fill-rule="evenodd" d="M3 1.75c-.69 0-1.25.56-1.25 1.25v10c0 .69.56 1.25 1.25 1.25h16c.69 0 1.25-.56 1.25-1.25V3c0-.69-.56-1.25-1.25-1.25H3zM.25 3A2.75 2.75 0 013 .25h16A2.75 2.75 0 0121.75 3v10A2.75 2.75 0 0119 15.75H3A2.75 2.75 0 01.25 13V3z" clip-rule="evenodd"/></svg>