<svg fill="none" viewBox="0 0 90 116"><path fill="#575775" d="M53.818 49.858h9.567v62.801L53.818 116V49.858z"/><path fill="#262541" d="M63.385 49.858h11.241v56.287l-11.241 6.514v-62.8z"/><path fill="#9F9DC8" fill-rule="evenodd" d="M39.704 19.78h50.227c0-5.09 0-7.634-.585-9.693-1.183-4.163-4.038-7.426-7.678-8.778-1.802-.67-4.027-.67-8.48-.67H28.703v.044c6.157.557 11.002 6.446 11.002 13.629v5.468z" clip-rule="evenodd"/><path fill="#575775" d="M13.157 14.312C13.157 6.76 18.51.64 25.116.64h2.63c6.605 0 11.96 6.12 11.96 13.672v35.547h-23.68c-1.584 0-2.87-1.47-2.87-3.282V14.313z"/><path fill="#494967" d="M15.788 13.765c0-7.249 5.14-13.125 11.48-13.125C33.61.64 38.75 6.516 38.75 13.765V45.21c0 1.813-1.285 3.282-2.87 3.282H15.79V13.765z"/><path fill="#EFEFF6" d="M2.395 16.5c0-3.323 2.355-6.016 5.261-6.016h30.136c2.907 0 5.262 2.693 5.262 6.016v21.328c0 3.322-2.355 6.015-5.262 6.015H7.656c-2.906 0-5.261-2.693-5.261-6.015V16.5z"/><path fill="#262541" fill-rule="evenodd" d="M12.093 19.738c.45-.734 1.335-.913 1.977-.399l8.654 6.925 8.652-6.925c.643-.514 1.528-.335 1.978.4.45.734.294 1.746-.349 2.26l-9.467 7.577a1.277 1.277 0 01-1.629 0l-9.467-7.577c-.643-.514-.799-1.526-.35-2.26z" clip-rule="evenodd"/><path fill="#262541" fill-rule="evenodd" d="M7.576 13.634c-1.307 0-2.367 1.211-2.367 2.706v21.647c0 1.494 1.06 2.706 2.367 2.706H37.87c1.307 0 2.367-1.212 2.367-2.706V16.34c0-1.495-1.06-2.706-2.367-2.706H7.576zM2.369 16.34c0-3.288 2.33-5.953 5.207-5.953H37.87c2.876 0 5.207 2.665 5.207 5.953v21.647c0 3.288-2.33 5.953-5.207 5.953H7.576c-2.876 0-5.207-2.665-5.207-5.953V16.34z" clip-rule="evenodd"/><path fill="#6F6F8D" d="M38.749 8.843h38.938c4.286 0 6.43 0 8.067.953 1.44.84 2.61 2.178 3.344 3.824.835 1.872.835 4.322.835 9.223v21.766c0 1.837 0 2.756-.313 3.458a3.107 3.107 0 01-1.255 1.434c-.613.358-1.417.358-3.024.358H38.749V8.843z"/></svg>