<svg xmlns="http://www.w3.org/2000/svg" width="834" height="834" fill="none"><circle cx="417" cy="417" r="417" fill="url(#a)"/><path fill="#148581" d="M418.735 38.4c12 0 21.533 1.067 28.6 3.2 7.2 2 12.4 5.6 15.6 10.8 3.2 5.2 4.8 12.533 4.8 22 0 9.867-1.933 17.4-5.8 22.6-3.733 5.067-9.933 8-18.6 8.8v1.2c10.667.933 18.133 4.533 22.4 10.8 4.267 6.133 6.4 14.733 6.4 25.8 0 9.467-1.667 16.8-5 22-3.2 5.2-8.267 8.867-15.2 11-6.8 2-15.733 3-26.8 3-8.933 0-16.733-.067-23.4-.2-6.533 0-12.6-.133-18.2-.4s-11.333-.6-17.2-1l3-21.2c3.2.133 9.333.267 18.4.4 9.2.133 19.867.2 32 .2 5.6 0 10-.533 13.2-1.6 3.2-1.067 5.4-3 6.6-5.8 1.333-2.933 2-7.067 2-12.4 0-5.733-.667-10.067-2-13-1.333-3.067-3.667-5.2-7-6.4-3.2-1.2-7.667-1.867-13.4-2h-50V96.8h49.6c4.933-.133 8.8-.667 11.6-1.6 2.933-.933 5-2.733 6.2-5.4 1.2-2.667 1.8-6.4 1.8-11.2 0-4.933-.667-8.667-2-11.2-1.2-2.667-3.333-4.467-6.4-5.4-3.067-.933-7.333-1.4-12.8-1.4h-19.8c-5.733 0-10.867.067-15.4.2-4.533 0-8.733.133-12.6.4l-3-21.2a212.675 212.675 0 0 1 15.4-1c5.067-.267 10.533-.4 16.4-.4 5.867-.133 12.733-.2 20.6-.2Zm-22.4 1.6v138h-30V40h30Zm31.399 190-.2 108.4c0 3.333 1 5.867 3 7.6 2 1.6 4.933 2.4 8.8 2.4h8l3.4 20c-1.6.8-3.867 1.467-6.8 2a66.624 66.624 0 0 1-9 1.4c-3.067.4-5.667.6-7.8.6-8.934 0-16-2.333-21.2-7-5.2-4.667-7.8-11.2-7.8-19.6V230h29.6Zm5.578 194c2.533 0 4.733.733 6.6 2.2 2 1.467 3.333 3.4 4 5.8l40 130h-31.2l-28.2-101.4-1.6-6.8c-.534-2.4-1-4.667-1.4-6.8h-5.4c-.4 2.133-.867 4.4-1.4 6.8a62.869 62.869 0 0 1-1.6 6.8l-28.2 101.4h-31.4l40.2-130c.666-2.4 1.933-4.333 3.8-5.8 2-1.467 4.266-2.2 6.8-2.2h29Zm21.2 78.6v23h-71.6v-23h71.6Zm20.42 113.4v127c0 7.333-3.667 11-11 11h-16.8c-3.333 0-5.867-.733-7.6-2.2-1.733-1.6-3.333-3.933-4.8-7l-38.2-72.4c-1.6-3.067-3.2-6.467-4.8-10.2a151.127 151.127 0 0 1-3.8-10.8h-2.2c.4 3.6.733 7.267 1 11 .267 3.6.4 7.2.4 10.8V754h-29V627c0-7.333 3.733-11 11.2-11h16.6c3.2 0 5.6.8 7.2 2.4 1.733 1.467 3.4 3.733 5 6.8l37 70.2c1.6 3.067 3.267 6.467 5 10.2 1.733 3.733 3.4 7.6 5 11.6h2.4c-.4-4-.733-7.867-1-11.6-.133-3.867-.2-7.667-.2-11.4l-.2-78.2h28.8Z"/><defs><radialGradient id="a" cx="0" cy="0" r="1" gradientTransform="rotate(23.834 -711.638 1091.8) scale(641.729 1505.98)" gradientUnits="userSpaceOnUse"><stop stop-color="#43A99A"/><stop offset=".316" stop-color="#359284"/><stop offset="1" stop-color="#148783"/></radialGradient></defs></svg>